<svg id="Layer_2" data-name="Layer 2" xmlns="http://www.w3.org/2000/svg" width="295.42" height="158.46" viewBox="0 0 295.42 158.46">
  <g id="ëÎÓÈ_1" data-name="ëÎÓÈ 1">
    <path id="Path_1" data-name="Path 1" d="M289.31,125.24H35.94c-1.54,0-2.8,1.53-2.8,3.41s1.26,3.41,2.8,3.41H73.81a2.77,2.77,0,0,1,3.06,3.08c0,2.83-1.83,3.25-2.62,3.29h-15c-1.54,0-2.8,1.54-2.8,3.41s1.26,3.41,2.8,3.41H165.71c1.54,0,2.8-1.53,2.8-3.41s-1.26-3.41-2.8-3.41H150.27a3.23,3.23,0,0,1,0-6.38h139c1.54,0,2.8-1.53,2.8-3.41S290.85,125.24,289.31,125.24Zm-183.65,10a2.86,2.86,0,0,1,2.75-3.2h23a2.77,2.77,0,0,1,3.06,3.08c0,2.83-1.83,3.25-2.62,3.29H108.41a2.86,2.86,0,0,1-2.75-3.15Z" fill="#e6e6e6"/>
    <path id="Path_2" data-name="Path 2" d="M250.19,138.44H85.07c-1.54,0-2.8,1.54-2.8,3.41s1.26,3.41,2.8,3.41h37.86a2.78,2.78,0,0,1,3.07,3.09c0,2.83-1.84,3.24-2.63,3.29H98.23c-1.54,0-2.8,1.53-2.8,3.41s1.26,3.41,2.8,3.41h116.6c1.54,0,2.8-1.54,2.8-3.41s-1.26-3.41-2.8-3.41H199.4a3.23,3.23,0,0,1,0-6.39h50.79c1.54,0,2.8-1.53,2.8-3.41S251.73,138.44,250.19,138.44Zm-95.41,10a2.88,2.88,0,0,1,2.75-3.21h23a2.77,2.77,0,0,1,3.06,3.09c0,2.83-1.83,3.24-2.63,3.29H157.53a2.87,2.87,0,0,1-2.75-3.14Z" fill="#e6e6e6"/>
    <rect id="Rectangle_1" data-name="Rectangle 1" width="27.54" height="6.07" transform="translate(146.925 20.123) rotate(33.86)" fill="#e6e6e6"/>
    <rect id="Rectangle_2" data-name="Rectangle 2" width="59.98" height="9.4" transform="translate(168.021 32.114) rotate(33.86)" fill="orange"/>
    <rect id="Rectangle_3" data-name="Rectangle 3" width="1.692" height="9.452" transform="translate(169.163 33.345) rotate(34.007)" fill="#b37709"/>
    <path id="Path_3" data-name="Path 3" d="M198.76,49.64H180.68V45.46h13.9a4.18,4.18,0,0,1,4.18,4.18Z" fill="#3c3e52"/>
    <path id="Path_4" data-name="Path 4" d="M10.05,80.87A6,6,0,0,1,4,75a2.42,2.42,0,0,1,4.84,0c0,.75.81,1.07,1.22,1.07a1.35,1.35,0,0,0,1.53-1.43c0-.56,0-.63-1.08-1.17-.3-.16-.58-.3-.83-.46A5.47,5.47,0,0,1,7,67.62V64.91h4.85v2.83c0,.78,0,.8.39,1a5.392,5.392,0,0,0,.48.25,5.82,5.82,0,0,1,3.73,5.5,6.2,6.2,0,0,1-6.4,6.38Z" fill="#a3a3a3"/>
    <rect id="Rectangle_4" data-name="Rectangle 4" width="1.26" height="26.71" transform="translate(15.28 27.71)" fill="#3b1c1a"/>
    <path id="Path_5" data-name="Path 5" d="M41.77,1.9H235.09a22.23,22.23,0,0,1,22.23,22.23H41.77Z" fill="orange"/>
    <rect id="Rectangle_5" data-name="Rectangle 5" width="100.09" height="2.45" transform="translate(136.34 10.53)" fill="#de9000"/>
    <rect id="Rectangle_6" data-name="Rectangle 6" width="114.71" height="6.06" transform="translate(162.45 71.65)" fill="#454545"/>
    <rect id="Rectangle_7" data-name="Rectangle 7" width="56.66" height="5.33" transform="translate(162.45 71.65)" fill="#5e5e5e"/>
    <rect id="Rectangle_8" data-name="Rectangle 8" width="71" height="4.85" transform="translate(89.032 87.225) rotate(-66.49)" fill="orange"/>
    <rect id="Rectangle_9" data-name="Rectangle 9" width="108.05" height="13.81" transform="translate(187.37 77.1)" fill="#1c1c1c"/>
    <rect id="Rectangle_10" data-name="Rectangle 10" width="31.98" height="13.81" transform="translate(156.44 77.1)" fill="#1c1c1c"/>
    <rect id="Rectangle_11" data-name="Rectangle 11" width="9.7" height="13.81" transform="translate(152.76 77.1)" fill="#454545"/>
    <rect id="Rectangle_12" data-name="Rectangle 12" width="4.85" height="74.79" transform="matrix(0.918, -0.396, 0.396, 0.918, 129.363, 22.485)" fill="orange"/>
    <rect id="Rectangle_13" data-name="Rectangle 13" width="7.65" height="3.91" transform="translate(261.68 107.93)" fill="#4a4a4a"/>
    <path id="Path_6" data-name="Path 6" d="M104.06,30.19h39.79a8.9,8.9,0,0,1,8.9,8.9v67.19H104.06Z" fill="#f0b94d"/>
    <path id="Path_7" data-name="Path 7" d="M131.58,23.14l13.09,5.5s6,3.79,9.41-.73-2.2-8-2.2-8Z" fill="#b87700"/>
    <path id="Path_8" data-name="Path 8" d="M7.21,33.12c1.22.08,4.15.17,6-4.49,0,0,5.37-13.89,5.41-18.63,0-3.13-.15-8.07-2.9-8.09h-5.2A8.12,8.12,0,0,0,2.46,10V26.9C2.46,31.58,5.31,33,7.21,33.12Z" fill="#1c1c1c"/>
    <rect id="Rectangle_14" data-name="Rectangle 14" width="62.81" height="36.19" rx="7.43" transform="translate(215.4 24.05)" fill="orange"/>
    <path id="Path_9" data-name="Path 9" d="M256.36,32.82V51.21a1.17,1.17,0,0,1-1.16,1.16h0a1.17,1.17,0,0,1-1.2-1.16V32.82a1.16,1.16,0,0,1,1.16-1.16h0a1.16,1.16,0,0,1,1.2,1.16Z" fill="#002e46"/>
    <path id="Path_10" data-name="Path 10" d="M261.42,32.82V51.21a1.17,1.17,0,0,1-1.16,1.16h0a1.18,1.18,0,0,1-1.17-1.16V32.82a1.17,1.17,0,0,1,1.17-1.16h0a1.17,1.17,0,0,1,1.16,1.16Z" fill="#002e46"/>
    <path id="Path_11" data-name="Path 11" d="M266.47,32.82V51.21a1.17,1.17,0,0,1-1.16,1.16h0a1.17,1.17,0,0,1-1.16-1.16V32.82a1.16,1.16,0,0,1,1.16-1.16h0A1.16,1.16,0,0,1,266.47,32.82Z" fill="#002e46"/>
    <path id="Path_12" data-name="Path 12" d="M271.52,32.82V51.21a1.17,1.17,0,0,1-1.16,1.16h0a1.17,1.17,0,0,1-1.16-1.16V32.82a1.16,1.16,0,0,1,1.16-1.16h0A1.16,1.16,0,0,1,271.52,32.82Z" fill="#002e46"/>
    <path id="Path_13" data-name="Path 13" d="M128,20H256.91a20.717,20.717,0,0,1,.41,4.18H128Z" fill="#cf8600"/>
    <path id="Path_14" data-name="Path 14" d="M41.27,19.87h85a31.271,31.271,0,0,1,.27,4.18H41.27Z" fill="#cf8600"/>
    <path id="Path_15" data-name="Path 15" d="M53.19,68.49H48.42a5,5,0,0,1-5-5v-13a5,5,0,0,1,5-5h8V48h-8a2.55,2.55,0,0,0-2.55,2.55v13a2.55,2.55,0,0,0,2.55,2.55h4.77Z" fill="#c19846"/>
    <path id="Path_16" data-name="Path 16" d="M279.1,99.87H212.11V89.59l67.32.11Z" fill="#1c1c1c"/>
    <path id="Path_17" data-name="Path 17" d="M207.47,110.85c0-7.93-6.94-14.37-13.55-14.57h-4.28c-6.22,0-12.9,5.87-12.9,14.58s5.16,13.39,11.67,14.56a23.47,23.47,0,0,0,7.78,0h0C202.26,124.25,207.47,117.7,207.47,110.85Z"/>
    <path id="Path_18" data-name="Path 18" d="M180.68,110.85c0-7.93-6.94-14.37-13.54-14.57h-4.29c-6.21,0-12.9,5.87-12.9,14.58s5.16,13.39,11.67,14.56a23.47,23.47,0,0,0,7.78,0h0C175.47,124.25,180.68,117.7,180.68,110.85Z"/>
    <path id="Path_19" data-name="Path 19" d="M232.2,117.23h-81a2,2,0,0,1-2-2h0a2,2,0,0,1,2-2h81a2,2,0,0,1,2,2h0A2,2,0,0,1,232.2,117.23Z" fill="#1c1c1c"/>
    <path id="Path_20" data-name="Path 20" d="M189.57,114.85H153.94S135,102.28,136.42,98c1.23-3.57,2.46-7.7,11.51-7.7H206.5Z" fill="#383838"/>
    <path id="Path_21" data-name="Path 21" d="M254,114.85H193.33l.23-12.86s1.67-11.43,12.15-11.67,19,0,30.87,0C251.58,90.32,254,114.85,254,114.85Z"/>
    <path id="Path_22" data-name="Path 22" d="M215.72,110.88c0,8.75,5.21,13.74,11.67,14.56a49,49,0,0,0,10.3,0c2.22-4.56,1.81-9,1.81-14.52,0-6.24,1.78-12.52-2.47-14.6-2.47-.09-8.05,0-9.46,0C221.36,96.29,215.72,102.17,215.72,110.88Z" fill="#383838"/>
    <ellipse id="Ellipse_1" data-name="Ellipse 1" cx="12.22" cy="14.58" rx="12.22" ry="14.58" transform="translate(224.53 96.28)" fill="#1f1f1f"/>
    <ellipse id="Ellipse_2" data-name="Ellipse 2" cx="8.61" cy="10.27" rx="8.61" ry="10.27" transform="translate(228.5 100.56)" fill="#525252"/>
    <path id="Path_23" data-name="Path 23" d="M237.11,122.2c-5.3,0-9.61-5-9.61-11.26s4.31-11.27,9.61-11.27,9.6,5,9.6,11.27S242.4,122.2,237.11,122.2Zm0-20.53c-4.2,0-7.61,4.15-7.61,9.27s3.41,9.26,7.61,9.26,7.6-4.15,7.6-9.26S241.3,101.67,237.11,101.67Z" fill="#8c8c8c"/>
    <ellipse id="Ellipse_3" data-name="Ellipse 3" cx="1.98" cy="2.57" rx="1.98" ry="2.57" transform="translate(235.06 108.32)" fill="#2e2e2e"/>
    <path id="Path_24" data-name="Path 24" d="M237.08,100.84a6.89,6.89,0,0,0-1.21.12c4.1.7,7.25,4.86,7.25,9.91s-3.15,9.21-7.25,9.91a6.889,6.889,0,0,0,1.21.11c4.67,0,8.46-4.48,8.46-10S241.75,100.84,237.08,100.84Z" fill="#8c8c8c"/>
    <path id="Path_25" data-name="Path 25" d="M237.89,110.87c0,1.73,2.47,3.86,1.45,4.67h-2.67c-1.9,0-3.43-2.09-3.43-4.67s1.53-4.68,3.43-4.68h2.73C240.38,107,237.89,109.19,237.89,110.87Z" fill="#8c8c8c"/>
    <path id="Path_26" data-name="Path 26" d="M242.74,110.87c0,2.58-1.53,4.67-3.43,4.67s-3.43-2.09-3.43-4.67,1.54-4.68,3.43-4.68S242.74,108.29,242.74,110.87Z" fill="#b3b3b3"/>
    <path id="Path_27" data-name="Path 27" d="M239.24,107.31a2.579,2.579,0,0,0-.4,0c1.33.26,2.36,1.8,2.36,3.66s-1,3.41-2.36,3.66a1.75,1.75,0,0,0,.4,0c1.51,0,2.74-1.66,2.74-3.71S240.75,107.31,239.24,107.31Z" fill="#8c8c8c"/>
    <path id="Path_28" data-name="Path 28" d="M229.87,125.62c-4.2-.5-10.21-6.22-10.21-14.74,0-7.91,4.44-13.13,9.44-14.57h2.81c-5,.26-11.47,5.69-11.47,14.58,0,8.08,5.66,14.8,12.09,14.8Z" fill="#333"/>
    <path id="Path_29" data-name="Path 29" d="M205.69,99.16H139.68V90.32h78.16Z" fill="#1c1c1c"/>
    <path id="Path_30" data-name="Path 30" d="M64.23,110c0,8.76,5.21,13.75,11.67,14.56a49,49,0,0,0,10.3,0C88.43,120,88,115.54,88,110c0-6.23,1.78-12.51-2.47-14.6-2.47-.08-8.05,0-9.46,0C69.87,95.42,64.23,101.29,64.23,110Z" fill="#141414"/>
    <ellipse id="Ellipse_4" data-name="Ellipse 4" cx="12.22" cy="14.58" rx="12.22" ry="14.58" transform="translate(73.04 95.41)" fill="#262626"/>
    <ellipse id="Ellipse_5" data-name="Ellipse 5" cx="8.61" cy="10.27" rx="8.61" ry="10.27" transform="translate(77.01 99.69)" fill="#525252"/>
    <path id="Path_31" data-name="Path 31" d="M85.62,121.33c-5.3,0-9.61-5.06-9.61-11.27S80.32,98.8,85.62,98.8s9.6,5,9.6,11.26S90.91,121.33,85.62,121.33Zm0-20.54c-4.2,0-7.61,4.16-7.61,9.27s3.41,9.27,7.61,9.27,7.6-4.16,7.6-9.27S89.81,100.79,85.62,100.79Z" fill="#8c8c8c"/>
    <path id="Path_32" data-name="Path 32" d="M87.52,110a2,2,0,1,1-2-2.57,2.33,2.33,0,0,1,2,2.57Z" fill="#2e2e2e"/>
    <path id="Path_33" data-name="Path 33" d="M85.59,100a8,8,0,0,0-1.21.11c4.1.7,7.25,4.87,7.25,9.92s-3.15,9.21-7.25,9.91a8,8,0,0,0,1.21.11c4.67,0,8.46-4.49,8.46-10S90.26,100,85.59,100Z" fill="#8c8c8c"/>
    <path id="Path_34" data-name="Path 34" d="M86.4,110c0,1.72,2.47,3.85,1.45,4.66H85.18c-1.9,0-3.43-2.09-3.43-4.67s1.53-4.68,3.43-4.68h2.73C88.89,106.16,86.4,108.31,86.4,110Z" fill="#8c8c8c"/>
    <path id="Path_35" data-name="Path 35" d="M91.25,110c0,2.58-1.53,4.67-3.43,4.67s-3.43-2.09-3.43-4.67,1.54-4.68,3.43-4.68S91.25,107.41,91.25,110Z" fill="#e6e6e6"/>
    <path id="Path_36" data-name="Path 36" d="M87.75,106.44a2.58,2.58,0,0,0-.4,0c1.33.26,2.36,1.8,2.36,3.66s-1,3.4-2.36,3.66a2.58,2.58,0,0,0,.4,0c1.52,0,2.74-1.66,2.74-3.7S89.27,106.44,87.75,106.44Z" fill="#8c8c8c"/>
    <path id="Path_37" data-name="Path 37" d="M78.38,124.75c-4.2-.5-10.21-6.22-10.21-14.75,0-7.9,4.44-13.12,9.44-14.56h2.81C75.42,95.69,69,101.12,69,110c0,8.08,5.66,14.81,12.09,14.81Z" fill="#333"/>
    <path id="Path_38" data-name="Path 38" d="M47.52,106.28h58.4V65.83s1.79-18.4,2.76-26.71c1-8.09,6.19-8.93,6.19-8.93H63.9c-4.72,0-11,1.72-12.27,8.78l-.15.56-4,25.32Z" fill="#ffc85c"/>
    <path id="Path_39" data-name="Path 39" d="M102.12,64.06l-51.55.07L54.1,39.92h50.78Z" fill="#e6e6e6"/>
    <path id="Path_40" data-name="Path 40" d="M136.12,58.42l-18.85.24V39.92h18.85Z" fill="#e6e6e6"/>
    <rect id="Rectangle_15" data-name="Rectangle 15" width="58.41" height="4.29" transform="translate(47.52 86.04)" fill="#c19846"/>
    <rect id="Rectangle_16" data-name="Rectangle 16" width="45.19" height="0.91" transform="translate(107.8 87.72)" fill="#c19846"/>
    <rect id="Rectangle_17" data-name="Rectangle 17" width="11.67" height="3.34" transform="translate(51.88 91.78)" fill="#fff"/>
    <rect id="Rectangle_18" data-name="Rectangle 18" width="11.67" height="3.34" transform="translate(88.78 91.78)" fill="#fff"/>
    <rect id="Rectangle_19" data-name="Rectangle 19" width="26.85" height="3.34" transform="translate(62.35 91.78)" fill="#333"/>
    <rect id="Rectangle_20" data-name="Rectangle 20" width="34.13" height="16.84" transform="translate(102.51 98.01)" fill="#1c1c1c"/>
    <path id="Path_41" data-name="Path 41" d="M134.09,106.99h5.74l4.84-10.95H134.09Z" fill="#1c1c1c"/>
    <path id="Path_42" data-name="Path 42" d="M115.14,111.11c0,8.76,5.21,13.75,11.67,14.56a49.089,49.089,0,0,0,10.31,0c2.22-4.56,1.8-9,1.8-14.53,0-6.23,2-12.72-2.25-14.8-2.48-.09-8.27.22-9.67.22C120.79,96.53,115.14,102.4,115.14,111.11Z" fill="#383838"/>
    <ellipse id="Ellipse_6" data-name="Ellipse 6" cx="12.22" cy="14.58" rx="12.22" ry="14.58" transform="translate(123.96 96.52)" fill="#1f1f1f"/>
    <ellipse id="Ellipse_7" data-name="Ellipse 7" cx="8.61" cy="10.27" rx="8.61" ry="10.27" transform="translate(127.92 100.8)" fill="#525252"/>
    <path id="Path_43" data-name="Path 43" d="M136.53,122.44c-5.29,0-9.6-5.06-9.6-11.27s4.31-11.26,9.6-11.26,9.6,5,9.6,11.26S141.83,122.44,136.53,122.44Zm0-20.54c-4.2,0-7.61,4.16-7.61,9.27s3.41,9.27,7.61,9.27,7.61-4.16,7.61-9.27S140.73,101.9,136.53,101.9Z" fill="#8c8c8c"/>
    <path id="Path_44" data-name="Path 44" d="M138.44,111.13a2,2,0,1,1-2-2.57A2.34,2.34,0,0,1,138.44,111.13Z" fill="#2e2e2e"/>
    <path id="Path_45" data-name="Path 45" d="M136.5,101.08a8.119,8.119,0,0,0-1.21.11c4.1.7,7.25,4.87,7.25,9.92s-3.15,9.21-7.25,9.91a7,7,0,0,0,1.21.11c4.68,0,8.47-4.49,8.47-10S141.18,101.08,136.5,101.08Z" fill="#8c8c8c"/>
    <path id="Path_46" data-name="Path 46" d="M137.32,111.11c0,1.73,2.47,3.86,1.44,4.66h-2.67c-1.89,0-3.43-2.09-3.43-4.67s1.54-4.68,3.43-4.68h2.74C139.8,107.27,137.32,109.42,137.32,111.11Z" fill="#8c8c8c"/>
    <path id="Path_47" data-name="Path 47" d="M142.17,111.11c0,2.58-1.54,4.67-3.43,4.67s-3.44-2.09-3.44-4.67,1.54-4.68,3.44-4.68S142.17,108.52,142.17,111.11Z" fill="#b3b3b3"/>
    <path id="Path_48" data-name="Path 48" d="M138.66,107.55a2.579,2.579,0,0,0-.39,0c1.33.26,2.35,1.8,2.35,3.66s-1,3.4-2.35,3.66a1.72,1.72,0,0,0,.39,0c1.52,0,2.75-1.65,2.75-3.7S140.18,107.55,138.66,107.55Z" fill="#8c8c8c"/>
    <path id="Path_49" data-name="Path 49" d="M129.3,125.86c-4.2-.5-10.21-6.22-10.21-14.75,0-7.9,4.43-13.12,9.43-14.56h2.81c-5,.26-11.47,5.69-11.47,14.57,0,8.08,5.67,14.81,12.1,14.81Z" fill="#333"/>
    <path id="Path_50" data-name="Path 50" d="M114,105.8s.87-15.48,17.94-15.48h21v6.07H133.73c-5.88,0-11,3.46-11.94,11-.12,1.56-.22,3-.27,4.4a3.12,3.12,0,0,1-3.13,3h-4.94C113.5,111.47,113.9,107.82,114,105.8Z" fill="#1c1c1c"/>
    <path id="Path_51" data-name="Path 51" d="M189.69,110.88c0,8.75,5.2,13.74,11.67,14.56a49,49,0,0,0,10.3,0c2.22-4.56,1.81-9,1.81-14.52,0-6.24,1.78-12.52-2.47-14.6-2.47-.09-8.06,0-9.46,0C195.33,96.29,189.69,102.17,189.69,110.88Z" fill="#383838"/>
    <ellipse id="Ellipse_8" data-name="Ellipse 8" cx="12.22" cy="14.58" rx="12.22" ry="14.58" transform="translate(198.5 96.28)" fill="#1f1f1f"/>
    <ellipse id="Ellipse_9" data-name="Ellipse 9" cx="8.61" cy="10.27" rx="8.61" ry="10.27" transform="translate(202.46 100.56)" fill="#525252"/>
    <path id="Path_52" data-name="Path 52" d="M211.07,122.2c-5.29,0-9.6-5-9.6-11.26s4.31-11.27,9.6-11.27,9.61,5,9.61,11.27S216.37,122.2,211.07,122.2Zm0-20.53c-4.19,0-7.61,4.15-7.61,9.27s3.42,9.26,7.61,9.26,7.61-4.15,7.61-9.26S215.27,101.67,211.07,101.67Z" fill="#8c8c8c"/>
    <path id="Path_53" data-name="Path 53" d="M213,110.89a2.065,2.065,0,1,1-4,0,2,2,0,1,1,3.95,0Z" fill="#2e2e2e"/>
    <path id="Path_54" data-name="Path 54" d="M211.05,100.84a7,7,0,0,0-1.22.12c4.1.7,7.26,4.86,7.26,9.91s-3.16,9.21-7.26,9.91a7,7,0,0,0,1.22.11c4.67,0,8.46-4.48,8.46-10S215.72,100.84,211.05,100.84Z" fill="#8c8c8c"/>
    <path id="Path_55" data-name="Path 55" d="M211.86,110.87c0,1.73,2.47,3.86,1.44,4.67h-2.66c-1.9,0-3.44-2.09-3.44-4.67s1.54-4.68,3.44-4.68h2.73C214.35,107,211.86,109.19,211.86,110.87Z" fill="#8c8c8c"/>
    <path id="Path_56" data-name="Path 56" d="M216.71,110.87c0,2.58-1.54,4.67-3.43,4.67s-3.43-2.09-3.43-4.67,1.53-4.68,3.43-4.68S216.71,108.29,216.71,110.87Z" fill="#b3b3b3"/>
    <path id="Path_57" data-name="Path 57" d="M213.21,107.31a2.579,2.579,0,0,0-.4,0c1.33.26,2.35,1.8,2.35,3.66s-1,3.41-2.35,3.66a1.75,1.75,0,0,0,.4,0c1.51,0,2.74-1.66,2.74-3.71S214.72,107.31,213.21,107.31Z" fill="#8c8c8c"/>
    <path id="Path_58" data-name="Path 58" d="M203.84,125.62c-4.2-.5-10.21-6.22-10.21-14.74,0-7.91,4.43-13.13,9.43-14.57h2.81c-5,.26-11.46,5.69-11.46,14.58,0,8.08,5.66,14.8,12.09,14.8Z" fill="#333"/>
    <path id="Path_59" data-name="Path 59" d="M253.88,100.48c-1.58-5-5.63-10.16-16.27-10.16H206.5c-8.66.06-13.67,3.79-15.32,9.53-1.74,6-3.37,12.4-3.81,15,1,0,5.78.06,8.1.06,1.43-6.57,2.12-10.07,3.41-13,2.22-5,7.74-5.52,11.23-5.53h24.72c5.89,0,8.66.28,12.54,7.82.66,2.72,2,6.35,3.52,10.64h7.08C257.37,110.86,254.77,103.29,253.88,100.48Z" fill="#1c1c1c"/>
    <path id="Path_60" data-name="Path 60" d="M153.94,114.85h33.43l.89-4.29h-32.1Z" fill="#8c8c8c"/>
    <path id="Path_61" data-name="Path 61" d="M174.99,103.09H147.37v7.41h25.8Z" fill="#1c1c1c"/>
    <path id="Path_62" data-name="Path 62" d="M181.97,103.09h-3.49l-1.58,7.41h3.49Z" fill="#1c1c1c"/>
    <rect id="Rectangle_21" data-name="Rectangle 21" width="34.49" height="1.46" transform="translate(250.31 94.37)" fill="#525252"/>
    <rect id="Rectangle_22" data-name="Rectangle 22" width="47.63" height="1.46" transform="translate(139.74 94.37)" fill="#525252"/>
    <path id="Path_63" data-name="Path 63" d="M56.8,43.73l-2.86,20.4H73V43.73Z" fill="#d3d2d2"/>
    <path id="Path_64" data-name="Path 64" d="M74.65,43.73l.08,20.4h27.5l2.35-20.4Z" fill="#d3d2d2"/>
    <path id="Path_65" data-name="Path 65" d="M117.19,43.73l.08,14.21,18.89.48V43.73Z" fill="#d3d2d2"/>
    <path id="Path_66" data-name="Path 66" d="M102.27,64.25l-27.58-.12V53.58s-.27-3.26,3.54-3.26h25.62Z" fill="#bcbbbb"/>
    <path id="Path_67" data-name="Path 67" d="M136.16,59.13h-7.93l-5.16,5.48-5.88.08V50.24h18.97Z" fill="#bcbbbb"/>
    <path id="Path_68" data-name="Path 68" d="M135.1,64.76h-5.55a1.15,1.15,0,0,1-1.14-1.14h0a1.15,1.15,0,0,1,1.14-1.15h5.55a1.15,1.15,0,0,1,1.14,1.15h0a1.15,1.15,0,0,1-1.14,1.14Z" fill="#c19846"/>
    <path id="Path_69" data-name="Path 69" d="M85.62,39.94,68.28,64.25H76L93.12,39.9Z" fill="#fff" opacity="0.35"/>
    <path id="Path_70" data-name="Path 70" d="M81.3,39.92,64,64.25h2.62L83.7,39.94Z" fill="#fff" opacity="0.52"/>
    <path id="Path_71" data-name="Path 71" d="M102.07,65.76l-54.58.03V63.95h54.78Z" fill="#c19846"/>
    <rect id="Rectangle_23" data-name="Rectangle 23" width="48.57" height="1.07" transform="translate(51.88 82.93)" fill="#deae50"/>
    <rect id="Rectangle_24" data-name="Rectangle 24" width="48.57" height="1.07" transform="translate(51.88 79.78)" fill="#deae50"/>
    <rect id="Rectangle_25" data-name="Rectangle 25" width="48.57" height="1.07" transform="translate(51.88 76.63)" fill="#deae50"/>
    <rect id="Rectangle_26" data-name="Rectangle 26" width="5.77" height="10.21" rx="1.56" transform="translate(41.77 51.9)" fill="orange"/>
    <path id="Path_72" data-name="Path 72" d="M112.56,68.49H107.8V66.06h4.76a2.55,2.55,0,0,0,2.55-2.55v-13A2.55,2.55,0,0,0,112.56,48h-3.43V45.52h3.43a5,5,0,0,1,5,5v13A5,5,0,0,1,112.56,68.49Z" fill="#c19846"/>
    <path id="Path_161" data-name="Path 161" d="M1.56,0H4.21A1.56,1.56,0,0,1,5.77,1.56V8.65a1.56,1.56,0,0,1-1.56,1.56H1.56A1.56,1.56,0,0,1,0,8.65V1.56A1.56,1.56,0,0,1,1.56,0Z" transform="translate(119.21 62.11) rotate(180)" fill="orange"/>
    <rect id="Rectangle_28" data-name="Rectangle 28" width="26.02" height="4.45" transform="translate(181.74 67.21)" fill="#d8ccc4"/>
    <rect id="Rectangle_29" data-name="Rectangle 29" width="20.18" height="4.45" transform="translate(207.76 67.21)" fill="#d8ccc4"/>
    <path id="Path_73" data-name="Path 73" d="M228.61,67.21h23.17a5.29,5.29,0,0,0,5.29-5.29V52c0-2.92-1.15-4.55-4.21-4.55H236.28Z" fill="#c2c2c2"/>
    <path id="Path_74" data-name="Path 74" d="M236.28,47.56l-9.69,19.65h8.55c1.74,0,4.89-2.56,4.89-7.2,0-5.08-.07-12.56-.07-12.56Z" fill="#b3b3b3"/>
    <path id="Path_75" data-name="Path 75" d="M195.66,9.28Z" fill="none"/>
    <path id="Path_76" data-name="Path 76" d="M217.5,9.28Z" fill="none"/>
    <rect id="Rectangle_30" data-name="Rectangle 30" width="72.3" height="4.45" transform="translate(181.74 67.21)" fill="#b3b3b3"/>
    <rect id="Rectangle_31" data-name="Rectangle 31" width="34.93" height="4.45" transform="translate(219.11 67.21)" fill="#858585"/>
    <path id="Path_77" data-name="Path 77" d="M29,0h9.38a3.35,3.35,0,0,1,3.35,3.35v18A2.73,2.73,0,0,1,39,24.05H28.71a3,3,0,0,1-3-3V3.3A3.3,3.3,0,0,1,29,0Z" fill="#edbe6b"/>
    <path id="Path_78" data-name="Path 78" d="M17.27,4.29h20A1.79,1.79,0,0,1,39.1,6.08v11.5a2,2,0,0,1-2,2H17.27Z" fill="#bf7c00"/>
    <path id="Path_79" data-name="Path 79" d="M17.27,15.9H39.1V18a1.84,1.84,0,0,1-1.84,1.84h-20V15.9Z" fill="#996401"/>
    <path id="Path_80" data-name="Path 80" d="M18.39,27.71a7.17,7.17,0,1,1-7.17-7.17A7.17,7.17,0,0,1,18.39,27.71Z" fill="#ccc"/>
    <path id="Path_81" data-name="Path 81" d="M151.39,25.86A1.44,1.44,0,1,1,150,24.43a1.44,1.44,0,0,1,1.39,1.43Z" fill="#8c5b00"/>
    <rect id="Rectangle_32" data-name="Rectangle 32" width="8.83" height="18.1" transform="translate(261.45 90.22)" fill="#1c1c1c"/>
    <rect id="Rectangle_33" data-name="Rectangle 33" width="1.67" height="18.1" transform="translate(260.61 90.22)" fill="#525252"/>
    <rect id="Rectangle_34" data-name="Rectangle 34" width="1.51" height="2.9" transform="translate(260.61 111.25)" fill="#525252"/>
    <rect id="Rectangle_35" data-name="Rectangle 35" width="8.21" height="2.9" transform="translate(262.12 111.25)" fill="#1c1c1c"/>
    <rect id="Rectangle_36" data-name="Rectangle 36" width="7.49" height="3.91" transform="translate(163.61 107.93)" fill="#4a4a4a"/>
    <rect id="Rectangle_37" data-name="Rectangle 37" width="8.83" height="19.19" transform="translate(162.84 90.22)" fill="#1c1c1c"/>
    <rect id="Rectangle_38" data-name="Rectangle 38" width="9.21" height="2.9" transform="translate(162.75 111.25)" fill="#1c1c1c"/>
    <rect id="Rectangle_39" data-name="Rectangle 39" width="1.67" height="19.19" transform="translate(162.72 90.22)" fill="#525252"/>
    <rect id="Rectangle_40" data-name="Rectangle 40" width="1.67" height="2.9" transform="translate(162.72 111.25)" fill="#525252"/>
    <path id="Path_82" data-name="Path 82" d="M192.67,10.94H213.1V52.37H180.37s-1.2-7.7-.48-12.28S182,24.14,192.67,10.94Z" fill="#fff" opacity="0.6"/>
    <path id="Path_83" data-name="Path 83" d="M205.22,23.4l.16-.33Z" fill="#d8ccc4"/>
    <path id="Path_84" data-name="Path 84" d="M205.74,22.33a2.556,2.556,0,0,1,.11-.24,2.56,2.56,0,0,0-.11.24Z" fill="#d8ccc4"/>
    <path id="Path_85" data-name="Path 85" d="M204.75,24.45l.15-.34Z" fill="#d8ccc4"/>
    <path id="Path_86" data-name="Path 86" d="M201,37.84v0Z" fill="#d8ccc4"/>
    <path id="Path_87" data-name="Path 87" d="M200.77,39.59v-.47A1.482,1.482,0,0,1,200.77,39.59Z" fill="#d8ccc4"/>
    <path id="Path_88" data-name="Path 88" d="M200.65,41.11v-.52A3.009,3.009,0,0,1,200.65,41.11Z" fill="#d8ccc4"/>
    <path id="Path_89" data-name="Path 89" d="M206.33,21.16l.12-.23Z" fill="#d8ccc4"/>
    <path id="Path_90" data-name="Path 90" d="M206.8,20.27l.18-.33Z" fill="#d8ccc4"/>
    <path id="Path_91" data-name="Path 91" d="M202.89,29.36,203,29Z" fill="#d8ccc4"/>
    <path id="Path_92" data-name="Path 92" d="M201.75,33.55l.09-.41Z" fill="#d8ccc4"/>
    <path id="Path_93" data-name="Path 93" d="M202.51,30.59a1.124,1.124,0,0,1,.1-.31C202.58,30.38,202.54,30.48,202.51,30.59Z" fill="#d8ccc4"/>
    <path id="Path_94" data-name="Path 94" d="M202.12,32v-.17A.9.9,0,0,1,202.12,32Z" fill="#d8ccc4"/>
    <path id="Path_95" data-name="Path 95" d="M204.3,25.52l.09-.23Z" fill="#d8ccc4"/>
    <path id="Path_96" data-name="Path 96" d="M201.2,36.3a2.662,2.662,0,0,1,.07-.39C201.25,36,201.22,36.17,201.2,36.3Z" fill="#d8ccc4"/>
    <path id="Path_97" data-name="Path 97" d="M203.3,28.14a1.256,1.256,0,0,1,.13-.37C203.39,27.89,203.35,28,203.3,28.14Z" fill="#d8ccc4"/>
    <path id="Path_98" data-name="Path 98" d="M201.45,34.93l.09-.46Z" fill="#d8ccc4"/>
    <path id="Path_99" data-name="Path 99" d="M203.78,26.83a.961.961,0,0,1,.07-.2C203.87,26.56,203.8,26.77,203.78,26.83Z" fill="#d8ccc4"/>
    <path id="Path_100" data-name="Path 100" d="M200.55,44.13v0Z" fill="#d8ccc4"/>
    <path id="Path_101" data-name="Path 101" d="M207.29,19.4l.18-.33Z" fill="#d8ccc4"/>
    <path id="Path_102" data-name="Path 102" d="M209.68,15.57l.26-.37Z" fill="#d8ccc4"/>
    <path id="Path_103" data-name="Path 103" d="M208.84,16.84l.23-.35Z" fill="#d8ccc4"/>
    <path id="Path_104" data-name="Path 104" d="M209.27,16.17l.24-.35Z" fill="#d8ccc4"/>
    <path id="Path_105" data-name="Path 105" d="M200.6,46.43v0Z" fill="#d8ccc4"/>
    <path id="Path_106" data-name="Path 106" d="M200.68,48.12v-.74A4.572,4.572,0,0,0,200.68,48.12Z" fill="#d8ccc4"/>
    <path id="Path_107" data-name="Path 107" d="M208.39,17.55c.06-.1.12-.2.19-.3C208.51,17.35,208.45,17.45,208.39,17.55Z" fill="#d8ccc4"/>
    <path id="Path_108" data-name="Path 108" d="M228.58,9.28H217.5a5.8,5.8,0,0,0-4.94,2.46c-.38.47-1.06,1.31-1.92,2.48V35.44c0,7.82,1.83,14.17-6,14.17h-3.85c0-.26-.05-.52-.07-.78.62,7.43,2.7,12.28,5.49,16a5.88,5.88,0,0,0,5.23,2.39h17.12a7.7,7.7,0,0,0,7.7-7.7V17a7.7,7.7,0,0,0-7.68-7.72Z" fill="#d8ccc4"/>
    <path id="Path_109" data-name="Path 109" d="M210,15.13c.22-.32.44-.62.64-.9C210.43,14.51,210.21,14.81,210,15.13Z" fill="#d8ccc4"/>
    <path id="Path_110" data-name="Path 110" d="M207.77,18.56l.18-.3Z" fill="#d8ccc4"/>
    <path id="Path_111" data-name="Path 111" d="M200.58,42.62v-.47C200.59,42.31,200.58,42.46,200.58,42.62Z" fill="#d8ccc4"/>
    <path id="Path_112" data-name="Path 112" d="M200.74,48.86l-.06-.74Z" fill="#d8ccc4"/>
    <path id="Path_113" data-name="Path 113" d="M201.54,34.47l.21-.92Z" fill="#d8ccc4"/>
    <path id="Path_114" data-name="Path 114" d="M200.64,47.38v-1A6.666,6.666,0,0,0,200.64,47.38Z" fill="#d8ccc4"/>
    <path id="Path_115" data-name="Path 115" d="M200.55,44.13V42.62C200.56,43.12,200.55,43.62,200.55,44.13Z" fill="#d8ccc4"/>
    <path id="Path_116" data-name="Path 116" d="M200.69,40.59c0-.34.05-.67.08-1C200.74,39.92,200.71,40.25,200.69,40.59Z" fill="#d8ccc4"/>
    <path id="Path_117" data-name="Path 117" d="M200.82,39.12a9.124,9.124,0,0,1,.15-1.28C200.91,38.26,200.86,38.69,200.82,39.12Z" fill="#d8ccc4"/>
    <path id="Path_118" data-name="Path 118" d="M200.6,42.15a6.374,6.374,0,0,1,.05-1C200.63,41.45,200.61,41.8,200.6,42.15Z" fill="#d8ccc4"/>
    <path id="Path_119" data-name="Path 119" d="M201.27,35.91l.18-1Z" fill="#d8ccc4"/>
    <path id="Path_120" data-name="Path 120" d="M201.84,33.14c.09-.38.18-.75.28-1.12C202,32.39,201.93,32.76,201.84,33.14Z" fill="#d8ccc4"/>
    <path id="Path_121" data-name="Path 121" d="M200.57,45.81V44.15C200.55,44.72,200.56,45.27,200.57,45.81Z" fill="#d8ccc4"/>
    <path id="Path_122" data-name="Path 122" d="M201,37.7c.06-.47.13-.94.21-1.4C201.12,36.76,201.05,37.23,201,37.7Z" fill="#d8ccc4"/>
    <path id="Path_123" data-name="Path 123" d="M207.47,19.07l.3-.51Z" fill="#d8ccc4"/>
    <path id="Path_124" data-name="Path 124" d="M208.58,17.25c.09-.14.17-.28.26-.41C208.75,17,208.67,17.11,208.58,17.25Z" fill="#d8ccc4"/>
    <path id="Path_125" data-name="Path 125" d="M208,18.26c.15-.24.29-.48.44-.71A2.325,2.325,0,0,0,208,18.26Z" fill="#d8ccc4"/>
    <path id="Path_126" data-name="Path 126" d="M207,19.94l.31-.54Z" fill="#d8ccc4"/>
    <path id="Path_127" data-name="Path 127" d="M209.07,16.49c.07-.11.14-.21.2-.32C209.21,16.28,209.14,16.38,209.07,16.49Z" fill="#d8ccc4"/>
    <path id="Path_128" data-name="Path 128" d="M209.94,15.2l.05-.07Z" fill="#d8ccc4"/>
    <path id="Path_129" data-name="Path 129" d="M206.45,20.93l.35-.66Z" fill="#d8ccc4"/>
    <path id="Path_130" data-name="Path 130" d="M210.64,14.22h0Z" fill="#d8ccc4"/>
    <path id="Path_131" data-name="Path 131" d="M209.51,15.82l.17-.25Z" fill="#d8ccc4"/>
    <path id="Path_132" data-name="Path 132" d="M203.43,27.77c.11-.31.23-.63.35-.94C203.66,27.14,203.54,27.46,203.43,27.77Z" fill="#d8ccc4"/>
    <path id="Path_133" data-name="Path 133" d="M202.16,31.85c.11-.43.23-.85.35-1.26C202.39,31,202.27,31.42,202.16,31.85Z" fill="#d8ccc4"/>
    <path id="Path_134" data-name="Path 134" d="M203,29c.09-.28.19-.56.28-.83C203.21,28.41,203.11,28.69,203,29Z" fill="#d8ccc4"/>
    <path id="Path_135" data-name="Path 135" d="M203.85,26.63l.45-1.11Z" fill="#d8ccc4"/>
    <path id="Path_136" data-name="Path 136" d="M202.61,30.28c.09-.31.18-.62.28-.92C202.79,29.66,202.7,30,202.61,30.28Z" fill="#d8ccc4"/>
    <path id="Path_137" data-name="Path 137" d="M204.39,25.29l.36-.84Z" fill="#d8ccc4"/>
    <path id="Path_138" data-name="Path 138" d="M205.38,23.07l.36-.74Z" fill="#d8ccc4"/>
    <path id="Path_139" data-name="Path 139" d="M204.9,24.11l.32-.71Z" fill="#d8ccc4"/>
    <path id="Path_140" data-name="Path 140" d="M205.85,22.09q.24-.48.48-.93Q206.09,21.61,205.85,22.09Z" fill="#d8ccc4"/>
    <path id="Path_141" data-name="Path 141" d="M224.29,12.14H210.65v23.3c0,7.82,1.83,14.17-6,14.17h5.47a14.17,14.17,0,0,0,14.16-14.17v-19S224.28,13.21,224.29,12.14Z" fill="#525252"/>
    <path id="Path_142" data-name="Path 142" d="M204.66,49.64s6.15.9,6.13-5.88c0-3.48-.1-6.47-.14-9a6.77,6.77,0,0,1,6.84-6.66h6.8s.13,3.76,0,8.47a14.21,14.21,0,0,1-13.26,13C208,49.68,204.66,49.64,204.66,49.64Z" fill="#1c1c1c"/>
    <path id="Path_143" data-name="Path 143" d="M195.89,9.28h-.23a5.81,5.81,0,0,0-4.94,2.46c-1.94,2.4-12,14.53-12,32.4,0,10.2,2.34,16.27,5.68,20.68a5.88,5.88,0,0,0,5.23,2.39h21.84a5.88,5.88,0,0,1-5.23-2.39c-2.69-3.56-4.73-8.19-5.42-15.18h-.05a53.709,53.709,0,0,1,.57-10.83c1.58-12.12,11.23-27.07,11.23-27.07h0a5.8,5.8,0,0,1,4.94-2.46Zm3.92,28.16a70.206,70.206,0,0,0-.76,12.2H181.39c-.84-13.23.68-23.8,10.82-36.58a2.56,2.56,0,0,1,2-1h16.32C207.62,16.07,201.58,26.13,199.81,37.44Z" fill="#e6e6e6"/>
    <rect id="Rectangle_41" data-name="Rectangle 41" width="16.35" height="2.47" transform="translate(117.74 25.86)" fill="orange"/>
    <rect id="Rectangle_42" data-name="Rectangle 42" width="29.25" height="0.96" transform="translate(162.61 85.55)" fill="#5e5e5e"/>
    <rect id="Rectangle_43" data-name="Rectangle 43" width="29.25" height="0.96" transform="translate(240.58 85.55)" fill="#5e5e5e"/>
    <rect id="Rectangle_44" data-name="Rectangle 44" width="14.6" height="4.44" transform="translate(162.45 67.21)" fill="#ffc14f"/>
    <rect id="Rectangle_45" data-name="Rectangle 45" width="14.6" height="4.44" transform="translate(176.95 67.21)" fill="orange"/>
    <rect id="Rectangle_46" data-name="Rectangle 46" width="68.69" height="2.45" transform="translate(48.61 10.53)" fill="#de9000"/>
    <rect id="Rectangle_47" data-name="Rectangle 47" width="21.27" height="1.07" transform="translate(65.53 76.63)" fill="#c19846"/>
    <rect id="Rectangle_48" data-name="Rectangle 48" width="21.27" height="1.07" transform="translate(65.53 79.78)" fill="#c19846"/>
    <rect id="Rectangle_49" data-name="Rectangle 49" width="21.27" height="1.07" transform="translate(65.53 82.93)" fill="#c19846"/>
    <rect id="Rectangle_50" data-name="Rectangle 50" width="4.01" height="3.96" transform="translate(0.65 10.53)" fill="#ccc"/>
    <rect id="Rectangle_51" data-name="Rectangle 51" width="1.26" height="26.71" transform="translate(3.82 27.71)" fill="#3b1c1a"/>
    <path id="Path_144" data-name="Path 144" d="M7.72,67.28h0c-2.64,0-3.73-1.87-4.39-3.93a73.929,73.929,0,0,1-2.12-7.6,3.6,3.6,0,0,1,3.22-4.41H11c2.15,0,4,2.06,3.06,5-.68,2-1.33,4.46-2.16,7-.31,1,.9,3.93,0,3.93Z" fill="#1c1c1c"/>
    <path id="Path_145" data-name="Path 145" d="M11.8,67.28h0c-2.64,0-3.73-1.87-4.39-3.93a76.592,76.592,0,0,1-2.12-7.6,3.6,3.6,0,0,1,3.22-4.41h6.54c2.15,0,4,2,3.06,5-.82,2.62-1.33,4.46-2.15,7C15.28,65.4,14.19,67.28,11.8,67.28Z" fill="#525252"/>
    <rect id="Rectangle_52" data-name="Rectangle 52" width="8.2" height="1.74" rx="0.85" transform="translate(7.72 54.24)" fill="#1c1c1c"/>
    <rect id="Rectangle_53" data-name="Rectangle 53" width="19.44" height="14.05" rx="2.07" transform="translate(116.98 68.83)" fill="#0067ab" opacity="0.14"/>
    <path id="Path_146" data-name="Path 146" d="M252.51,52.74H236.28V50.81h16.23a1,1,0,0,1,1,1h0A1,1,0,0,1,252.51,52.74Z" fill="#858585" opacity="0.31"/>
    <path id="Path_147" data-name="Path 147" d="M252.51,56.37H236.28V54.44h16.23a1,1,0,0,1,1,1h0A1,1,0,0,1,252.51,56.37Z" fill="#858585" opacity="0.31"/>
    <path id="Path_148" data-name="Path 148" d="M252.51,60.25H236.28V58.32h16.23a1,1,0,0,1,1,1h0A1,1,0,0,1,252.51,60.25Z" fill="#858585" opacity="0.31"/>
    <path id="Path_149" data-name="Path 149" d="M229.36,50.43h-5.54a1.15,1.15,0,0,1-1.15-1.14h0a1.16,1.16,0,0,1,1.15-1.15h5.54a1.16,1.16,0,0,1,1.15,1.15h0A1.15,1.15,0,0,1,229.36,50.43Z" fill="#525252"/>
    <path id="Path_150" data-name="Path 150" d="M199.55,54.08H182.14l-.28-1.71h17.45Z" fill="#ffc14f"/>
    <path id="Path_151" data-name="Path 151" d="M200.32,57.33H183.18l-.55-1.71h17.14Z" fill="#d9d9d9"/>
    <rect id="Rectangle_54" data-name="Rectangle 54" width="61.16" height="16.84" rx="1.77" transform="translate(44.26 98.01)" fill="#333"/>
    <rect id="Rectangle_55" data-name="Rectangle 55" width="6.51" height="5.82" transform="translate(47.49 103.86)" fill="#fcc648"/>
    <rect id="Rectangle_56" data-name="Rectangle 56" width="6.51" height="1.46" transform="translate(47.49 108.22)" fill="#bf9637"/>
    <rect id="Rectangle_57" data-name="Rectangle 57" width="6.51" height="5.82" transform="translate(93.39 103.86)" fill="#fcc648"/>
    <rect id="Rectangle_58" data-name="Rectangle 58" width="6.51" height="1.46" transform="translate(93.39 108.22)" fill="#bf9637"/>
    <rect id="Rectangle_59" data-name="Rectangle 59" width="15.61" height="4.1" rx="0.55" transform="translate(65.79 108.22)" fill="#fff"/>
    <rect id="Rectangle_60" data-name="Rectangle 60" width="34.81" height="1.46" transform="translate(56.44 103.86)" fill="#1c1c1c"/>
    <path id="Path_152" data-name="Path 152" d="M42.06,24.05H38.72c1.06,0,3.06-.73,3.06-2.64V3.35A3.36,3.36,0,0,0,38.42,0h2.89c1.07,0,2.59,1.57,2.59,3.11V21.45A2.72,2.72,0,0,1,42.06,24.05Z" fill="#cf8600"/>
    <path id="Path_153" data-name="Path 153" d="M3.23,27.75a8.41,8.41,0,0,1,2.26-6,8.12,8.12,0,0,1,6.12-2.34v2.42a5.85,5.85,0,0,0-4.38,1.6,6.19,6.19,0,0,0-1.58,4.2Z" fill="#3b1c1a"/>
    <path id="Path_154" data-name="Path 154" d="M11.93,33.12c1.23.08,4.16.17,6.05-4.49,0,0,5.37-13.89,5.4-18.63a7.94,7.94,0,0,0-8.1-8.1h0A8.12,8.12,0,0,0,7.18,10V26.9C7.18,31.58,10,33,11.93,33.12Z" fill="#525252"/>
    <path id="Path_155" data-name="Path 155" d="M14.66,28a2,2,0,1,1-2-2A2,2,0,0,1,14.66,28Z" fill="#ccc"/>
    <path id="Path_156" data-name="Path 156" d="M15.28,17.8a6.89,6.89,0,1,1,6.9-6.89,6.89,6.89,0,0,1-6.9,6.89Zm0-8.13a1.24,1.24,0,1,0,1.24,1.24,1.24,1.24,0,0,0-1.24-1.24Z" fill="#1c1c1c"/>
    <path id="Path_157" data-name="Path 157" d="M12.36,28.55H.84A.84.84,0,0,1,0,27.71H0a.85.85,0,0,1,.84-.84H12.36a.85.85,0,0,1,.84.84h0a.84.84,0,0,1-.84.84Z" fill="#525252"/>
    <path id="Path_158" data-name="Path 158" d="M163.09,34.76l-7.58-5.24a.78.78,0,0,1-.19-1.08h0a.78.78,0,0,1,1.08-.2l7.6,5.25a.77.77,0,0,1,.2,1.08h0a.77.77,0,0,1-1.11.19Z" fill="#fff" opacity="0.68"/>
    <path id="Path_159" data-name="Path 159" d="M104.88,36.11H58.76a1,1,0,0,1-1-1h0a1,1,0,0,1,1-1.05h46.12a1,1,0,0,1,1,1.05h0A1,1,0,0,1,104.88,36.11Z" fill="#fff" opacity="0.21"/>
    <path id="Path_160" data-name="Path 160" d="M236.06,6.39H49.93a1,1,0,0,1-1-1h0a1,1,0,0,1,1-1H236.06a1,1,0,0,1,1.05,1h0a1,1,0,0,1-1.05,1Z" fill="#fff" opacity="0.21"/>
    <rect id="Rectangle_61" data-name="Rectangle 61" width="2.68" height="22.23" transform="translate(125.34 1.9)" fill="#ffc55c"/>
  </g>
</svg>
