<svg xmlns="http://www.w3.org/2000/svg" xmlns:xlink="http://www.w3.org/1999/xlink" viewBox="0 0 60.5 29.49"><defs><style>.cls-1,.cls-10,.cls-100,.cls-103,.cls-104,.cls-105,.cls-109,.cls-11,.cls-110,.cls-111,.cls-112,.cls-13,.cls-16,.cls-17,.cls-18,.cls-19,.cls-20,.cls-21,.cls-22,.cls-23,.cls-24,.cls-25,.cls-26,.cls-27,.cls-28,.cls-29,.cls-3,.cls-30,.cls-31,.cls-32,.cls-33,.cls-34,.cls-35,.cls-36,.cls-37,.cls-38,.cls-39,.cls-4,.cls-41,.cls-42,.cls-43,.cls-44,.cls-45,.cls-46,.cls-47,.cls-48,.cls-49,.cls-50,.cls-51,.cls-52,.cls-53,.cls-54,.cls-55,.cls-56,.cls-57,.cls-58,.cls-59,.cls-60,.cls-61,.cls-62,.cls-63,.cls-64,.cls-65,.cls-66,.cls-67,.cls-68,.cls-69,.cls-7,.cls-70,.cls-71,.cls-72,.cls-73,.cls-74,.cls-75,.cls-76,.cls-77,.cls-78,.cls-79,.cls-8,.cls-80,.cls-81,.cls-82,.cls-83,.cls-84,.cls-85,.cls-86,.cls-87,.cls-88,.cls-89,.cls-9,.cls-90,.cls-91,.cls-92,.cls-93,.cls-94,.cls-95,.cls-96,.cls-97,.cls-98,.cls-99{fill-rule:evenodd;}.cls-1{fill:url(#GradientFill_2);}.cls-2{fill:url(#GradientFill_11);}.cls-3{fill:url(#GradientFill_6);}.cls-4{fill:#5d6567;}.cls-5{fill:url(#GradientFill_5);}.cls-6{fill:url(#GradientFill_11-2);}.cls-7{fill:url(#GradientFill_5-2);}.cls-8{fill:url(#GradientFill_8);}.cls-9{fill:url(#GradientFill_9);}.cls-10,.cls-40{fill:#231f20;}.cls-11{fill:url(#GradientFill_5-3);}.cls-103,.cls-12{fill:#f4e8c3;}.cls-13{fill:url(#GradientFill_5-4);}.cls-14{fill:url(#GradientFill_35);}.cls-15{fill:url(#GradientFill_6-2);}.cls-16{fill:url(#GradientFill_5-5);}.cls-17{fill:url(#GradientFill_7);}.cls-113,.cls-18{fill:#b7924c;}.cls-19{fill:url(#GradientFill_5-6);}.cls-20{fill:#313838;}.cls-21{fill:url(#GradientFill_7-2);}.cls-22{fill:#c7cbd5;}.cls-23{fill:url(#GradientFill_5-7);}.cls-24{fill:url(#GradientFill_7-3);}.cls-25{fill:url(#GradientFill_5-8);}.cls-26{fill:url(#GradientFill_7-4);}.cls-27{fill:url(#GradientFill_7-5);}.cls-28{fill:url(#GradientFill_5-9);}.cls-29{fill:url(#GradientFill_7-6);}.cls-30{fill:url(#GradientFill_7-7);}.cls-31{fill:url(#GradientFill_5-10);}.cls-32{fill:url(#GradientFill_7-8);}.cls-33{fill:url(#GradientFill_7-9);}.cls-34{fill:url(#GradientFill_5-11);}.cls-35{fill:url(#GradientFill_7-10);}.cls-36{fill:url(#GradientFill_7-11);}.cls-37{fill:url(#GradientFill_5-12);}.cls-38{fill:url(#GradientFill_7-12);}.cls-39{fill:url(#GradientFill_5-13);}.cls-41{fill:url(#GradientFill_5-14);}.cls-42{fill:url(#GradientFill_5-15);}.cls-43{fill:url(#GradientFill_5-16);}.cls-44{fill:url(#GradientFill_5-17);}.cls-45{fill:url(#GradientFill_5-18);}.cls-46{fill:url(#GradientFill_5-19);}.cls-47{fill:url(#GradientFill_5-20);}.cls-48{fill:url(#GradientFill_5-21);}.cls-49{fill:url(#GradientFill_5-22);}.cls-50{fill:url(#GradientFill_5-23);}.cls-51{fill:url(#GradientFill_5-24);}.cls-52{fill:url(#GradientFill_5-25);}.cls-53{fill:url(#GradientFill_5-26);}.cls-54{fill:url(#GradientFill_5-27);}.cls-55{fill:url(#GradientFill_5-28);}.cls-56{fill:url(#GradientFill_5-29);}.cls-57{fill:url(#GradientFill_5-30);}.cls-58{fill:url(#GradientFill_5-31);}.cls-59{fill:url(#GradientFill_5-32);}.cls-60{fill:url(#GradientFill_5-33);}.cls-61{fill:url(#GradientFill_5-34);}.cls-62{fill:url(#GradientFill_5-35);}.cls-63{fill:url(#GradientFill_5-36);}.cls-64{fill:url(#GradientFill_5-37);}.cls-65{fill:url(#GradientFill_5-38);}.cls-66{fill:url(#GradientFill_5-39);}.cls-67{fill:url(#GradientFill_5-40);}.cls-68{fill:url(#GradientFill_5-41);}.cls-69{fill:url(#GradientFill_5-42);}.cls-70{fill:url(#GradientFill_5-43);}.cls-71{fill:url(#GradientFill_5-44);}.cls-72{fill:url(#GradientFill_5-45);}.cls-73{fill:url(#GradientFill_5-46);}.cls-74{fill:url(#GradientFill_5-47);}.cls-75{fill:url(#GradientFill_5-48);}.cls-76{fill:url(#GradientFill_5-49);}.cls-77{fill:url(#GradientFill_5-50);}.cls-78{fill:url(#GradientFill_5-51);}.cls-79{fill:url(#GradientFill_5-52);}.cls-80{fill:url(#GradientFill_5-53);}.cls-81{fill:url(#GradientFill_5-54);}.cls-82{fill:url(#GradientFill_5-55);}.cls-83{fill:url(#GradientFill_5-56);}.cls-84{fill:url(#GradientFill_5-57);}.cls-85{fill:url(#GradientFill_5-58);}.cls-86{fill:url(#GradientFill_5-59);}.cls-87{fill:url(#GradientFill_5-60);}.cls-88{fill:url(#GradientFill_5-61);}.cls-89{fill:url(#GradientFill_5-62);}.cls-90{fill:url(#GradientFill_5-63);}.cls-91{fill:url(#GradientFill_5-64);}.cls-92{fill:url(#GradientFill_5-65);}.cls-93{fill:url(#GradientFill_5-66);}.cls-94{fill:url(#GradientFill_5-67);}.cls-95{fill:url(#GradientFill_5-68);}.cls-96{fill:url(#GradientFill_5-69);}.cls-97{fill:url(#GradientFill_5-70);}.cls-98{fill:url(#GradientFill_5-71);}.cls-99{fill:url(#GradientFill_5-72);}.cls-100{fill:url(#GradientFill_5-73);}.cls-101{fill:url(#GradientFill_34);}.cls-102{fill:url(#GradientFill_6-3);}.cls-104{fill:url(#GradientFill_5-74);}.cls-105{fill:url(#GradientFill_5-75);}.cls-106{fill:url(#GradientFill_35-2);}.cls-107{fill:url(#GradientFill_34-2);}.cls-108{fill:url(#GradientFill_6-4);}.cls-109{fill:url(#GradientFill_5-76);}.cls-110{fill:url(#GradientFill_11-3);}.cls-111{fill:url(#GradientFill_38);}.cls-112{fill:url(#GradientFill_5-77);}</style><linearGradient id="GradientFill_2" x1="30.18" y1="30.94" x2="30.18" y2="10.43" gradientUnits="userSpaceOnUse"><stop offset="0" stop-color="#d3d5da"/><stop offset="1" stop-color="#fff"/></linearGradient><linearGradient id="GradientFill_11" x1="14.81" y1="20.57" x2="14.81" y2="21.35" gradientUnits="userSpaceOnUse"><stop offset="0" stop-color="#cf8e37"/><stop offset="1" stop-color="#f3c327"/></linearGradient><linearGradient id="GradientFill_6" x1="10.88" y1="18.2" x2="12.17" y2="28.66" gradientUnits="userSpaceOnUse"><stop offset="0" stop-color="#595f60"/><stop offset="1"/></linearGradient><linearGradient id="GradientFill_5" x1="30.51" y1="9.97" x2="30.51" y2="12.71" gradientUnits="userSpaceOnUse"><stop offset="0" stop-color="#fad51c"/><stop offset="1" stop-color="#efb62d"/></linearGradient><linearGradient id="GradientFill_11-2" x1="28.25" y1="14.55" x2="29" y2="19.9" xlink:href="#GradientFill_11"/><linearGradient id="GradientFill_5-2" x1="42.91" y1="6.26" x2="39.42" y2="7.82" xlink:href="#GradientFill_5"/><linearGradient id="GradientFill_8" x1="41.17" y1="0.86" x2="41.17" y2="5.38" gradientUnits="userSpaceOnUse"><stop offset="0" stop-color="#aaa"/><stop offset="1" stop-color="#fff"/></linearGradient><linearGradient id="GradientFill_9" x1="41.17" y1="7.08" x2="41.17" y2="4.86" gradientUnits="userSpaceOnUse"><stop offset="0" stop-color="#c2c0bf"/><stop offset="1" stop-color="#777b7a"/></linearGradient><linearGradient id="GradientFill_5-3" x1="47.47" y1="9.28" x2="47.47" y2="22.6" xlink:href="#GradientFill_5"/><linearGradient id="GradientFill_5-4" x1="19.47" y1="9.42" x2="19.47" y2="19.68" xlink:href="#GradientFill_5"/><linearGradient id="GradientFill_35" x1="38.12" y1="23.46" x2="38.12" y2="19.82" gradientUnits="userSpaceOnUse"><stop offset="0" stop-color="#cf8e37"/><stop offset="1" stop-color="#966535"/></linearGradient><linearGradient id="GradientFill_6-2" x1="37.3" y1="24.51" x2="37.3" y2="27.64" xlink:href="#GradientFill_6"/><linearGradient id="GradientFill_5-5" x1="23.42" y1="21.11" x2="23.42" y2="27.76" xlink:href="#GradientFill_5"/><linearGradient id="GradientFill_7" x1="23.03" y1="32.19" x2="23.62" y2="21" gradientUnits="userSpaceOnUse"><stop offset="0" stop-color="#fad51c"/><stop offset="1" stop-color="#fff"/></linearGradient><linearGradient id="GradientFill_5-6" x1="23.43" y1="22.24" x2="23.43" y2="26.77" xlink:href="#GradientFill_5"/><linearGradient id="GradientFill_7-2" x1="23.29" y1="27.25" x2="23.49" y2="23.37" xlink:href="#GradientFill_7"/><linearGradient id="GradientFill_5-7" x1="52.03" y1="21.11" x2="52.03" y2="27.76" xlink:href="#GradientFill_5"/><linearGradient id="GradientFill_7-3" x1="51.64" y1="32.19" x2="52.23" y2="21" xlink:href="#GradientFill_7"/><linearGradient id="GradientFill_5-8" x1="52.04" y1="22.24" x2="52.04" y2="26.77" xlink:href="#GradientFill_5"/><linearGradient id="GradientFill_7-4" x1="51.9" y1="27.25" x2="52.1" y2="23.37" xlink:href="#GradientFill_7"/><linearGradient id="GradientFill_7-5" x1="43.58" y1="29.95" x2="43.87" y2="24.33" xlink:href="#GradientFill_7"/><linearGradient id="GradientFill_5-9" x1="43.78" y1="24.95" x2="43.78" y2="27.23" xlink:href="#GradientFill_5"/><linearGradient id="GradientFill_7-6" x1="43.71" y1="27.47" x2="43.81" y2="25.52" xlink:href="#GradientFill_7"/><linearGradient id="GradientFill_7-7" x1="39.56" y1="29.95" x2="39.86" y2="24.33" xlink:href="#GradientFill_7"/><linearGradient id="GradientFill_5-10" x1="39.76" y1="24.95" x2="39.76" y2="27.23" xlink:href="#GradientFill_5"/><linearGradient id="GradientFill_7-8" x1="39.69" y1="27.47" x2="39.8" y2="25.52" xlink:href="#GradientFill_7"/><linearGradient id="GradientFill_7-9" x1="35.47" y1="29.95" x2="35.76" y2="24.33" xlink:href="#GradientFill_7"/><linearGradient id="GradientFill_5-11" x1="35.67" y1="24.95" x2="35.67" y2="27.23" xlink:href="#GradientFill_5"/><linearGradient id="GradientFill_7-10" x1="35.6" y1="27.47" x2="35.7" y2="25.52" xlink:href="#GradientFill_7"/><linearGradient id="GradientFill_7-11" x1="31.4" y1="29.95" x2="31.69" y2="24.33" xlink:href="#GradientFill_7"/><linearGradient id="GradientFill_5-12" x1="31.6" y1="24.95" x2="31.6" y2="27.23" xlink:href="#GradientFill_5"/><linearGradient id="GradientFill_7-12" x1="31.53" y1="27.47" x2="31.63" y2="25.52" xlink:href="#GradientFill_7"/><linearGradient id="GradientFill_5-13" x1="37.86" y1="22.9" x2="37.86" y2="26.42" xlink:href="#GradientFill_5"/><linearGradient id="GradientFill_5-14" x1="29.78" y1="27.77" x2="29.78" y2="28.88" xlink:href="#GradientFill_5"/><linearGradient id="GradientFill_5-15" x1="30.93" y1="27.77" x2="30.93" y2="28.88" xlink:href="#GradientFill_5"/><linearGradient id="GradientFill_5-16" x1="32.07" y1="27.77" x2="32.07" y2="28.88" xlink:href="#GradientFill_5"/><linearGradient id="GradientFill_5-17" x1="33.22" y1="27.77" x2="33.22" y2="28.88" xlink:href="#GradientFill_5"/><linearGradient id="GradientFill_5-18" x1="34.37" y1="27.77" x2="34.37" y2="28.88" xlink:href="#GradientFill_5"/><linearGradient id="GradientFill_5-19" x1="35.51" y1="27.77" x2="35.51" y2="28.88" xlink:href="#GradientFill_5"/><linearGradient id="GradientFill_5-20" x1="36.66" y1="27.77" x2="36.66" y2="28.88" xlink:href="#GradientFill_5"/><linearGradient id="GradientFill_5-21" x1="37.81" y1="27.77" x2="37.81" y2="28.88" xlink:href="#GradientFill_5"/><linearGradient id="GradientFill_5-22" x1="38.95" y1="27.77" x2="38.95" y2="28.88" xlink:href="#GradientFill_5"/><linearGradient id="GradientFill_5-23" x1="40.1" y1="27.77" x2="40.1" y2="28.88" xlink:href="#GradientFill_5"/><linearGradient id="GradientFill_5-24" x1="41.25" y1="27.77" x2="41.25" y2="28.88" xlink:href="#GradientFill_5"/><linearGradient id="GradientFill_5-25" x1="42.4" y1="27.77" x2="42.4" y2="28.88" xlink:href="#GradientFill_5"/><linearGradient id="GradientFill_5-26" x1="43.54" y1="27.77" x2="43.54" y2="28.88" xlink:href="#GradientFill_5"/><linearGradient id="GradientFill_5-27" x1="44.69" y1="27.77" x2="44.69" y2="28.88" xlink:href="#GradientFill_5"/><linearGradient id="GradientFill_5-28" x1="45.84" y1="27.77" x2="45.84" y2="28.88" xlink:href="#GradientFill_5"/><linearGradient id="GradientFill_5-29" x1="46.98" y1="27.77" x2="46.98" y2="28.88" xlink:href="#GradientFill_5"/><linearGradient id="GradientFill_5-30" x1="48.13" y1="27.77" x2="48.13" y2="28.88" xlink:href="#GradientFill_5"/><linearGradient id="GradientFill_5-31" x1="49.28" y1="27.77" x2="49.28" y2="28.88" xlink:href="#GradientFill_5"/><linearGradient id="GradientFill_5-32" x1="50.42" y1="27.77" x2="50.42" y2="28.88" xlink:href="#GradientFill_5"/><linearGradient id="GradientFill_5-33" x1="51.57" y1="27.77" x2="51.57" y2="28.88" xlink:href="#GradientFill_5"/><linearGradient id="GradientFill_5-34" x1="22.02" y1="27.5" x2="21.49" y2="28.5" xlink:href="#GradientFill_5"/><linearGradient id="GradientFill_5-35" x1="22.98" y1="27.74" x2="22.8" y2="28.84" xlink:href="#GradientFill_5"/><linearGradient id="GradientFill_5-36" x1="24.06" y1="27.77" x2="24.06" y2="28.88" xlink:href="#GradientFill_5"/><linearGradient id="GradientFill_5-37" x1="25.21" y1="27.77" x2="25.21" y2="28.88" xlink:href="#GradientFill_5"/><linearGradient id="GradientFill_5-38" x1="26.35" y1="27.77" x2="26.35" y2="28.88" xlink:href="#GradientFill_5"/><linearGradient id="GradientFill_5-39" x1="27.5" y1="27.77" x2="27.5" y2="28.88" xlink:href="#GradientFill_5"/><linearGradient id="GradientFill_5-40" x1="28.65" y1="27.77" x2="28.65" y2="28.88" xlink:href="#GradientFill_5"/><linearGradient id="GradientFill_5-41" x1="21.09" y1="26.73" x2="20.2" y2="27.38" xlink:href="#GradientFill_5"/><linearGradient id="GradientFill_5-42" x1="20.54" y1="25.83" x2="19.47" y2="26.15" xlink:href="#GradientFill_5"/><linearGradient id="GradientFill_5-43" x1="20.53" y1="23.8" x2="19.48" y2="23.46" xlink:href="#GradientFill_5"/><linearGradient id="GradientFill_5-44" x1="20.35" y1="24.81" x2="19.25" y2="24.73" xlink:href="#GradientFill_5"/><linearGradient id="GradientFill_5-45" x1="21.01" y1="22.77" x2="20.11" y2="22.12" xlink:href="#GradientFill_5"/><linearGradient id="GradientFill_5-46" x1="21.65" y1="22.09" x2="21.06" y2="21.14" xlink:href="#GradientFill_5"/><linearGradient id="GradientFill_5-47" x1="22.54" y1="21.66" x2="22.29" y2="20.58" xlink:href="#GradientFill_5"/><linearGradient id="GradientFill_5-48" x1="23.54" y1="21.56" x2="23.54" y2="20.45" xlink:href="#GradientFill_5"/><linearGradient id="GradientFill_5-49" x1="24.68" y1="21.56" x2="24.68" y2="20.45" xlink:href="#GradientFill_5"/><linearGradient id="GradientFill_5-50" x1="25.83" y1="21.56" x2="25.83" y2="20.45" xlink:href="#GradientFill_5"/><linearGradient id="GradientFill_5-51" x1="26.97" y1="21.56" x2="26.97" y2="20.45" xlink:href="#GradientFill_5"/><linearGradient id="GradientFill_5-52" x1="28.12" y1="21.56" x2="28.12" y2="20.45" xlink:href="#GradientFill_5"/><linearGradient id="GradientFill_5-53" x1="29.26" y1="21.56" x2="29.26" y2="20.45" xlink:href="#GradientFill_5"/><linearGradient id="GradientFill_5-54" x1="30.41" y1="21.56" x2="30.41" y2="20.45" xlink:href="#GradientFill_5"/><linearGradient id="GradientFill_5-55" x1="31.55" y1="21.56" x2="31.55" y2="20.45" xlink:href="#GradientFill_5"/><linearGradient id="GradientFill_5-56" x1="32.7" y1="21.56" x2="32.7" y2="20.45" xlink:href="#GradientFill_5"/><linearGradient id="GradientFill_5-57" x1="33.85" y1="21.56" x2="33.85" y2="20.45" xlink:href="#GradientFill_5"/><linearGradient id="GradientFill_5-58" x1="34.99" y1="21.56" x2="34.99" y2="20.45" xlink:href="#GradientFill_5"/><linearGradient id="GradientFill_5-59" x1="36.14" y1="21.56" x2="36.14" y2="20.45" xlink:href="#GradientFill_5"/><linearGradient id="GradientFill_5-60" x1="37.28" y1="21.56" x2="37.28" y2="20.45" xlink:href="#GradientFill_5"/><linearGradient id="GradientFill_5-61" x1="38.43" y1="21.56" x2="38.43" y2="20.45" xlink:href="#GradientFill_5"/><linearGradient id="GradientFill_5-62" x1="39.57" y1="21.56" x2="39.57" y2="20.45" xlink:href="#GradientFill_5"/><linearGradient id="GradientFill_5-63" x1="40.72" y1="21.56" x2="40.72" y2="20.45" xlink:href="#GradientFill_5"/><linearGradient id="GradientFill_5-64" x1="41.86" y1="21.56" x2="41.86" y2="20.45" xlink:href="#GradientFill_5"/><linearGradient id="GradientFill_5-65" x1="43.01" y1="21.56" x2="43.01" y2="20.45" xlink:href="#GradientFill_5"/><linearGradient id="GradientFill_5-66" x1="44.16" y1="21.56" x2="44.16" y2="20.45" xlink:href="#GradientFill_5"/><linearGradient id="GradientFill_5-67" x1="45.3" y1="21.56" x2="45.3" y2="20.45" xlink:href="#GradientFill_5"/><linearGradient id="GradientFill_5-68" x1="46.45" y1="21.56" x2="46.45" y2="20.45" xlink:href="#GradientFill_5"/><linearGradient id="GradientFill_5-69" x1="47.59" y1="21.56" x2="47.59" y2="20.45" xlink:href="#GradientFill_5"/><linearGradient id="GradientFill_5-70" x1="48.74" y1="21.56" x2="48.74" y2="20.45" xlink:href="#GradientFill_5"/><linearGradient id="GradientFill_5-71" x1="49.88" y1="21.56" x2="49.88" y2="20.45" xlink:href="#GradientFill_5"/><linearGradient id="GradientFill_5-72" x1="51.03" y1="21.56" x2="51.03" y2="20.45" xlink:href="#GradientFill_5"/><linearGradient id="GradientFill_5-73" x1="52.17" y1="21.56" x2="52.17" y2="20.45" xlink:href="#GradientFill_5"/><linearGradient id="GradientFill_34" x1="25.7" y1="11.29" x2="25.69" y2="10.81" gradientUnits="userSpaceOnUse"><stop offset="0" stop-color="#797f81"/><stop offset="1" stop-color="#fff"/></linearGradient><linearGradient id="GradientFill_6-3" x1="28.39" y1="10.51" x2="28.39" y2="11.47" xlink:href="#GradientFill_6"/><linearGradient id="GradientFill_5-74" x1="19.03" y1="11.04" x2="19.89" y2="11.84" xlink:href="#GradientFill_5"/><linearGradient id="GradientFill_5-75" x1="24.34" y1="10.54" x2="24.34" y2="26.56" xlink:href="#GradientFill_5"/><linearGradient id="GradientFill_35-2" x1="24.58" y1="28.41" x2="24.58" y2="12.71" xlink:href="#GradientFill_35"/><linearGradient id="GradientFill_34-2" x1="28.75" y1="18.87" x2="28.74" y2="18.39" xlink:href="#GradientFill_34"/><linearGradient id="GradientFill_6-4" x1="30.9" y1="18.09" x2="30.9" y2="19.04" xlink:href="#GradientFill_6"/><linearGradient id="GradientFill_5-76" x1="22.08" y1="18.62" x2="22.94" y2="19.42" xlink:href="#GradientFill_5"/><linearGradient id="GradientFill_11-3" x1="47.25" y1="14.09" x2="47.25" y2="21.2" xlink:href="#GradientFill_11"/><linearGradient id="GradientFill_38" x1="47.25" y1="12.49" x2="47.25" y2="19.44" gradientUnits="userSpaceOnUse"><stop offset="0" stop-color="#fad51c"/><stop offset="1" stop-color="#f5e9bc"/></linearGradient><linearGradient id="GradientFill_5-77" x1="34.97" y1="12.28" x2="36.21" y2="13.44" xlink:href="#GradientFill_5"/></defs><g id="Layer_2" data-name="Layer 2"><g id="Layer_1-2" data-name="Layer 1"><path class="cls-1" d="M12.59,27.3h4.65c.32-.14.63-.3.93-.46-1.48-.63-.67-1.39-.53-2.05a2.18,2.18,0,0,1,2,.28,5.46,5.46,0,0,0,.9.63,14.64,14.64,0,0,1,3.63-.36v-.59H35.68l.45-.05c-.28-.56.6-1.82,1.53-2.09l-.74-.16L37,22.3H47.69v2.34H59.07l1.29,2.27-1.9,1h-3l.06.05h.24l.11.09-.24,0a.35.35,0,0,1,.1.12h0v.11H56l0,.1h-.19a.32.32,0,0,1-.14.2h.12l-.12.1H55.5a2.28,2.28,0,0,1-.49.22l.11,0-.23.08-.13,0-.68.15.08,0-.34,0-.08,0-.84.09,0,0-.39,0,0,0-.94,0v0h-.41v0h-.74v0H50v0h-.74v0h-.41v0h-.73v0h-.41v0H47v0h-.41v0h-.74v0h-.41v0h-.73v0h-.42v0h-.73v0h-.41v0h-.74v0H42v0h-.73v0h-.42v0h-.73v0h-.41v0h-.74v0h-.41v0H37.8v0h-.42v0h-.73v0h-.41v0H35.5v0h-.41v0h-.73v0h-.42v0h-.73v0H32.8v0h-.74v0h-.41v0h-.73v0H30.5v0h-.73v0h-.41v0h-.72v0h-.42v0h-.73v0h-.41v0h-.74v0h-.41v0h-.74v0h-.41v0h-.73v0h-.41v0H22.38l0,0c-.3,0-.58,0-.85-.08l-.08,0-.36-.05.1,0L20.3,29l-.14,0-.23-.08.14,0-.26-.12h0l-.15-.09h-.2l-.11-.09.2,0a.38.38,0,0,1-.09-.13h0l0-.1h-.2l0-.09h.19A.52.52,0,0,1,19.6,28h-.15l.12-.09c-4.18,1.22-4.34.81-7.36,1.08-.38,0-.87.05-1.35.06a50.51,50.51,0,0,1-6.55.19l-.25.14-4,.1c-.11-.25.89.05,2.36-.48a2.09,2.09,0,0,1,.74-.09l4.46-2.25-2-.38.34-.09,5,.56.14.09h0Z"/><rect class="cls-2" x="11" y="20.54" width="7.63" height="0.81"/><path class="cls-3" d="M11.13,18.66s2.37,3,2.55,3.26a3.68,3.68,0,0,1,.68,2.31c0,1.29,0,2.67,0,2.67a16.35,16.35,0,0,0-2.12.59,9.75,9.75,0,0,1-2.92.27S11.13,18.6,11.13,18.66Z"/><path class="cls-4" d="M0,29.49l4.05-.4.25-.59s6.61.89,7.71-2.09-1-8.09-1-8.09L5.94,16l-.34.34,2,1.6L3.11,27.18a.7.7,0,0,0-.74.37C2,28,1.54,28.84.75,28.87S0,29.49,0,29.49Z"/><rect class="cls-5" x="24.17" y="10.04" width="12.67" height="2.75"/><rect class="cls-6" x="21.76" y="13.21" width="13.64" height="7.32"/><polygon class="cls-7" points="37.13 7.8 38.07 1.68 36.92 0.6 37 0 47.69 0 47.69 13.04 36.43 13.04 37.13 7.8"/><path class="cls-4" d="M46.45,1.12a2.25,2.25,0,0,0-1-.36H38.69A1.56,1.56,0,0,0,37.27,2c-.83,2.49-1.77,6.56-.8,9.3l10-3.4Z"/><path class="cls-8" d="M44.83,1.55h-1.3V6.7h2.14V2.29c0-.57-.22-.68-.84-.74Zm-1.94,0H39.07a1.32,1.32,0,0,0-1.2,1.05,19,19,0,0,0-1.19,6.46L42.89,6.7Z"/><path class="cls-9" d="M43.53,4.87V6.7h2.14V4.87Zm-6.34,0h5.7V6.7L36.68,9.06A14.29,14.29,0,0,1,37.19,4.87Z"/><path class="cls-10" d="M43.53,5.48V6.7h.41l-.06-1.21Zm-6.62.66c.18.14.75.63,1,.74l.49.29.39-1.46.59.16-.13.49.32.18.36.21-.36.64.61.36L36.68,9.06a12.94,12.94,0,0,1,.23-2.92Zm5.41.77c.1-.61.24-1.35.27-1.39s.14,0,.3,0V6.7Z"/><path class="cls-11" d="M34.66,20.23s-.19-8,0-8.71a2.27,2.27,0,0,1,1.48-1.69,6.19,6.19,0,0,1,2-.21h21l1.29,9.3L58.46,23H51.85Z"/><path class="cls-12" d="M34.52,11.49a3,3,0,0,1,.58-1.15h0a2.16,2.16,0,0,1,1-.64,6.77,6.77,0,0,1,2-.23H59.2V9.6l1.29,9.3-.28,0L59,9.76H38.09a6.22,6.22,0,0,0-1.91.21,1.75,1.75,0,0,0-.86.56h0a2.51,2.51,0,0,0-.52,1Z"/><path class="cls-13" d="M19.14,20a8.52,8.52,0,0,1-1.72-3.29,42.15,42.15,0,0,1,.22-6.52c0-.61,1.38-1.14,2,1.17a29.69,29.69,0,0,0,2,5Z"/><rect class="cls-14" x="22.94" y="19.92" width="30.37" height="3.25"/><rect class="cls-15" x="21.54" y="21.95" width="31.53" height="5.73"/><path class="cls-16" d="M25.36,21.88l-.52-.3-.23.4.52.29.23-.39Zm-4.69.8-.3.52.4.23.3-.52-.4-.23ZM22,21.57l-.52.3.23.4.52-.3-.23-.4Zm1.72-.29h-.6v.45h.6v-.45Zm-3.66,3v.59h.46v-.59Zm.3,1.71.29.52.4-.23-.3-.52-.39.23Zm1.11,1.34.52.3.23-.4-.52-.3-.23.4Zm1.63.6h.6v-.46h-.6V28Zm1.72-.29.51-.3-.23-.4-.51.3.23.4Zm1.33-1.12.3-.51-.39-.23-.3.51.39.23Zm.61-1.63v-.6h-.46v.6Zm-.3-1.72-.3-.51-.39.23.3.51Z"/><path class="cls-17" d="M23.43,27.58a2.95,2.95,0,1,0-2.95-2.95A3,3,0,0,0,23.43,27.58Z"/><path class="cls-18" d="M23.43,27.33a2.7,2.7,0,1,0-2.7-2.7A2.71,2.71,0,0,0,23.43,27.33Z"/><path class="cls-19" d="M23.43,26.91a2.28,2.28,0,1,0-2.28-2.28A2.29,2.29,0,0,0,23.43,26.91Z"/><path class="cls-20" d="M23.43,23.3a.2.2,0,1,0,0-.4.2.2,0,1,0,0,.4Z"/><path class="cls-20" d="M22.19,23.41a.2.2,0,1,0,.28,0A.19.19,0,0,0,22.19,23.41Z"/><path class="cls-20" d="M21.67,24.64a.2.2,0,1,0,.4,0,.2.2,0,1,0-.4,0Z"/><path class="cls-20" d="M22.18,25.89a.19.19,0,0,0,.28,0,.21.21,0,0,0,0-.29.19.19,0,0,0-.28,0A.21.21,0,0,0,22.18,25.89Z"/><path class="cls-20" d="M23.41,26.41a.21.21,0,0,0,.21-.21.2.2,0,0,0-.21-.2.2.2,0,0,0-.2.2A.21.21,0,0,0,23.41,26.41Z"/><path class="cls-20" d="M24.66,25.9a.21.21,0,1,0-.29,0A.21.21,0,0,0,24.66,25.9Z"/><path class="cls-20" d="M25.17,24.66a.2.2,0,1,0-.4,0,.2.2,0,0,0,.4,0Z"/><path class="cls-20" d="M24.67,23.42a.21.21,0,0,0-.29,0,.19.19,0,0,0,0,.28.21.21,0,0,0,.29,0A.19.19,0,0,0,24.67,23.42Z"/><path class="cls-21" d="M23.43,25.65a1,1,0,1,0-1-1A1,1,0,0,0,23.43,25.65Z"/><path class="cls-22" d="M23.43,24.71a.08.08,0,1,0,0-.16.08.08,0,1,0,0,.16Z"/><path class="cls-23" d="M54,21.88l-.52-.3-.23.4.52.29.23-.39Zm-4.68.8-.3.52.39.23.3-.52-.39-.23Zm1.33-1.11-.51.3.23.4.51-.3-.23-.4Zm1.72-.29h-.6v.45h.6v-.45Zm-3.66,3v.59h.46v-.59ZM49,26l.3.52.39-.23-.3-.52L49,26Zm1.11,1.34.52.3.23-.4-.52-.3-.23.4Zm1.63.6h.6v-.46h-.6V28Zm1.72-.29.52-.3-.23-.4-.52.3.23.4Zm1.34-1.12.29-.51-.39-.23-.3.51.4.23Zm.6-1.63v-.6h-.46v.6Zm-.3-1.72-.29-.51-.4.23.3.51Z"/><path class="cls-24" d="M52,27.58a2.95,2.95,0,1,0-2.95-2.95A3,3,0,0,0,52,27.58Z"/><path class="cls-18" d="M52,27.33a2.7,2.7,0,1,0-2.7-2.7A2.7,2.7,0,0,0,52,27.33Z"/><path class="cls-25" d="M52,26.91a2.28,2.28,0,1,0-2.28-2.28A2.28,2.28,0,0,0,52,26.91Z"/><path class="cls-20" d="M52,23.3a.2.2,0,1,0-.2-.2A.2.2,0,0,0,52,23.3Z"/><path class="cls-20" d="M50.8,23.41a.19.19,0,0,0,0,.28.21.21,0,0,0,.29,0,.19.19,0,0,0,0-.28A.21.21,0,0,0,50.8,23.41Z"/><path class="cls-20" d="M50.28,24.64a.2.2,0,0,0,.2.21.21.21,0,1,0,0-.41A.2.2,0,0,0,50.28,24.64Z"/><path class="cls-20" d="M50.79,25.89a.21.21,0,1,0,0-.29A.21.21,0,0,0,50.79,25.89Z"/><path class="cls-20" d="M52,26.41a.21.21,0,0,0,.2-.21A.2.2,0,0,0,52,26a.2.2,0,0,0-.21.2A.21.21,0,0,0,52,26.41Z"/><path class="cls-26" d="M52,25.65a1,1,0,1,0-1-1A1,1,0,0,0,52,25.65Z"/><path class="cls-22" d="M52,24.71a.08.08,0,1,0-.08-.08A.09.09,0,0,0,52,24.71Z"/><path class="cls-27" d="M43.78,27.63a1.48,1.48,0,1,0-1.48-1.48A1.48,1.48,0,0,0,43.78,27.63Z"/><path class="cls-18" d="M43.78,27.51a1.36,1.36,0,1,0-1.36-1.36A1.35,1.35,0,0,0,43.78,27.51Z"/><path class="cls-28" d="M43.78,27.3a1.15,1.15,0,1,0-1.15-1.15A1.14,1.14,0,0,0,43.78,27.3Z"/><path class="cls-29" d="M43.78,26.67a.52.52,0,1,0-.51-.52A.51.51,0,0,0,43.78,26.67Z"/><path class="cls-30" d="M39.76,27.63a1.48,1.48,0,1,0-1.48-1.48A1.48,1.48,0,0,0,39.76,27.63Z"/><path class="cls-18" d="M39.76,27.51a1.36,1.36,0,1,0-1.35-1.36A1.36,1.36,0,0,0,39.76,27.51Z"/><path class="cls-31" d="M39.76,27.3a1.15,1.15,0,1,0-1.14-1.15A1.15,1.15,0,0,0,39.76,27.3Z"/><path class="cls-32" d="M39.76,26.67a.52.52,0,1,0-.51-.52A.52.52,0,0,0,39.76,26.67Z"/><path class="cls-33" d="M35.67,27.63a1.48,1.48,0,1,0-1.48-1.48A1.48,1.48,0,0,0,35.67,27.63Z"/><path class="cls-18" d="M35.67,27.51a1.36,1.36,0,1,0-1.36-1.36A1.36,1.36,0,0,0,35.67,27.51Z"/><path class="cls-34" d="M35.67,27.3a1.15,1.15,0,1,0-1.15-1.15A1.14,1.14,0,0,0,35.67,27.3Z"/><path class="cls-35" d="M35.67,26.67a.52.52,0,1,0-.52-.52A.51.51,0,0,0,35.67,26.67Z"/><path class="cls-36" d="M31.6,27.63a1.48,1.48,0,1,0-1.48-1.48A1.48,1.48,0,0,0,31.6,27.63Z"/><path class="cls-18" d="M31.6,27.51a1.36,1.36,0,1,0-1.36-1.36A1.36,1.36,0,0,0,31.6,27.51Z"/><path class="cls-37" d="M31.6,27.3a1.15,1.15,0,1,0-1.15-1.15A1.14,1.14,0,0,0,31.6,27.3Z"/><path class="cls-38" d="M31.6,26.67a.52.52,0,1,0-.52-.52A.51.51,0,0,0,31.6,26.67Z"/><polygon class="cls-39" points="47.2 22.99 28.5 22.99 28.5 24.89 28.5 24.89 28.5 24.89 28.5 24.94 28.57 24.94 30.43 26.54 31.91 26.54 32.71 25.74 34.11 25.74 34.91 26.54 36.4 26.54 37.19 25.74 38.29 25.74 39.09 26.54 40.58 26.54 41.37 25.74 42.34 25.74 43.13 26.54 44.62 26.54 45.42 25.74 46.59 25.74 47.22 24.91 47.2 22.99"/><path class="cls-40" d="M51.73,20.58H23.47A4,4,0,0,0,20.6,21.8h0a4.17,4.17,0,0,0,0,5.83h0a4,4,0,0,0,2.87,1.22H51.73a4,4,0,0,0,2.86-1.22h0a4.19,4.19,0,0,0,0-5.83h0a4,4,0,0,0-2.86-1.22Zm-28.26.92H51.73a3.09,3.09,0,0,1,2.21.94h0a3.25,3.25,0,0,1,0,4.55,3.09,3.09,0,0,1-2.21.94H23.47A3.09,3.09,0,0,1,21.26,27h0a3.25,3.25,0,0,1,0-4.55A3.07,3.07,0,0,1,23.47,21.5Z"/><polygon class="cls-41" points="30.2 27.8 29.36 27.8 29.36 28.91 29.77 28.91 29.77 28.67 30.2 28.67 30.2 28.43 29.77 28.43 29.77 28.12 30.2 28.12 30.2 27.8"/><polygon class="cls-42" points="31.35 27.8 30.5 27.8 30.5 28.91 30.92 28.91 30.92 28.67 31.35 28.67 31.35 28.43 30.92 28.43 30.92 28.12 31.35 28.12 31.35 27.8"/><polygon class="cls-43" points="32.5 27.8 31.65 27.8 31.65 28.91 32.06 28.91 32.06 28.67 32.5 28.67 32.5 28.43 32.06 28.43 32.06 28.12 32.5 28.12 32.5 27.8"/><polygon class="cls-44" points="33.65 27.8 32.8 27.8 32.8 28.91 33.21 28.91 33.21 28.67 33.65 28.67 33.65 28.43 33.21 28.43 33.21 28.12 33.65 28.12 33.65 27.8"/><polygon class="cls-45" points="34.79 27.8 33.94 27.8 33.94 28.91 34.36 28.91 34.36 28.67 34.79 28.67 34.79 28.43 34.36 28.43 34.36 28.12 34.79 28.12 34.79 27.8"/><polygon class="cls-46" points="35.94 27.8 35.09 27.8 35.09 28.91 35.5 28.91 35.5 28.67 35.94 28.67 35.94 28.43 35.5 28.43 35.5 28.12 35.94 28.12 35.94 27.8"/><polygon class="cls-47" points="37.09 27.8 36.24 27.8 36.24 28.91 36.65 28.91 36.65 28.67 37.09 28.67 37.09 28.43 36.65 28.43 36.65 28.12 37.09 28.12 37.09 27.8"/><polygon class="cls-48" points="38.23 27.8 37.38 27.8 37.38 28.91 37.8 28.91 37.8 28.67 38.23 28.67 38.23 28.43 37.8 28.43 37.8 28.12 38.23 28.12 38.23 27.8"/><polygon class="cls-49" points="39.38 27.8 38.53 27.8 38.53 28.91 38.94 28.91 38.94 28.67 39.38 28.67 39.38 28.43 38.94 28.43 38.94 28.12 39.38 28.12 39.38 27.8"/><polygon class="cls-50" points="40.52 27.8 39.68 27.8 39.68 28.91 40.09 28.91 40.09 28.67 40.52 28.67 40.52 28.43 40.09 28.43 40.09 28.12 40.52 28.12 40.52 27.8"/><polygon class="cls-51" points="41.67 27.8 40.82 27.8 40.82 28.91 41.24 28.91 41.24 28.67 41.67 28.67 41.67 28.43 41.24 28.43 41.24 28.12 41.67 28.12 41.67 27.8"/><polygon class="cls-52" points="42.82 27.8 41.97 27.8 41.97 28.91 42.38 28.91 42.38 28.67 42.82 28.67 42.82 28.43 42.38 28.43 42.38 28.12 42.82 28.12 42.82 27.8"/><polygon class="cls-53" points="43.97 27.8 43.12 27.8 43.12 28.91 43.53 28.91 43.53 28.67 43.97 28.67 43.97 28.43 43.53 28.43 43.53 28.12 43.97 28.12 43.97 27.8"/><polygon class="cls-54" points="45.11 27.8 44.27 27.8 44.27 28.91 44.68 28.91 44.68 28.67 45.11 28.67 45.11 28.43 44.68 28.43 44.68 28.12 45.11 28.12 45.11 27.8"/><polygon class="cls-55" points="46.26 27.8 45.41 27.8 45.41 28.91 45.82 28.91 45.82 28.67 46.26 28.67 46.26 28.43 45.82 28.43 45.82 28.12 46.26 28.12 46.26 27.8"/><polygon class="cls-56" points="47.41 27.8 46.56 27.8 46.56 28.91 46.97 28.91 46.97 28.67 47.41 28.67 47.41 28.43 46.97 28.43 46.97 28.12 47.41 28.12 47.41 27.8"/><polygon class="cls-57" points="48.55 27.8 47.7 27.8 47.7 28.91 48.12 28.91 48.12 28.67 48.55 28.67 48.55 28.43 48.12 28.43 48.12 28.12 48.55 28.12 48.55 27.8"/><polygon class="cls-58" points="49.7 27.8 48.85 27.8 48.85 28.91 49.27 28.91 49.27 28.67 49.7 28.67 49.7 28.43 49.27 28.43 49.27 28.12 49.7 28.12 49.7 27.8"/><polygon class="cls-59" points="50.85 27.8 50 27.8 50 28.91 50.41 28.91 50.41 28.67 50.85 28.67 50.85 28.43 50.41 28.43 50.41 28.12 50.85 28.12 50.85 27.8"/><polygon class="cls-60" points="51.99 27.8 51.15 27.8 51.15 28.91 51.56 28.91 51.56 28.67 51.99 28.67 51.99 28.43 51.56 28.43 51.56 28.12 51.99 28.12 51.99 27.8"/><polygon class="cls-61" points="22.37 27.73 21.64 27.34 21.11 28.32 21.47 28.51 21.58 28.3 21.96 28.5 22.08 28.29 21.7 28.08 21.84 27.81 22.22 28.02 22.37 27.73"/><polygon class="cls-62" points="23.39 27.84 22.57 27.7 22.38 28.8 22.78 28.86 22.82 28.63 23.24 28.7 23.29 28.46 22.86 28.38 22.91 28.08 23.34 28.16 23.39 27.84"/><polygon class="cls-63" points="24.48 27.8 23.64 27.8 23.64 28.91 24.05 28.91 24.05 28.67 24.48 28.67 24.48 28.43 24.05 28.43 24.05 28.12 24.48 28.12 24.48 27.8"/><polygon class="cls-64" points="25.63 27.8 24.78 27.8 24.78 28.91 25.2 28.91 25.2 28.67 25.63 28.67 25.63 28.43 25.2 28.43 25.2 28.12 25.63 28.12 25.63 27.8"/><polygon class="cls-65" points="26.78 27.8 25.93 27.8 25.93 28.91 26.34 28.91 26.34 28.67 26.78 28.67 26.78 28.43 26.34 28.43 26.34 28.12 26.78 28.12 26.78 27.8"/><polygon class="cls-66" points="27.92 27.8 27.08 27.8 27.08 28.91 27.49 28.91 27.49 28.67 27.92 28.67 27.92 28.43 27.49 28.43 27.49 28.12 27.92 28.12 27.92 27.8"/><polygon class="cls-67" points="29.07 27.8 28.22 27.8 28.22 28.91 28.64 28.91 28.64 28.67 29.07 28.67 29.07 28.43 28.64 28.43 28.64 28.12 29.07 28.12 29.07 27.8"/><polygon class="cls-68" points="21.32 27.1 20.84 26.41 19.93 27.05 20.16 27.39 20.36 27.25 20.61 27.6 20.81 27.46 20.56 27.11 20.81 26.93 21.06 27.28 21.32 27.1"/><polygon class="cls-69" points="20.63 26.24 20.39 25.44 19.32 25.75 19.44 26.14 19.67 26.07 19.79 26.49 20.03 26.42 19.91 26.01 20.2 25.92 20.32 26.33 20.63 26.24"/><polygon class="cls-70" points="20.38 24.19 20.64 23.4 19.57 23.06 19.45 23.44 19.68 23.52 19.55 23.93 19.79 24 19.92 23.59 20.21 23.69 20.08 24.09 20.38 24.19"/><polygon class="cls-71" points="20.3 25.22 20.35 24.39 19.24 24.31 19.21 24.72 19.46 24.74 19.43 25.16 19.67 25.18 19.7 24.75 20.01 24.77 19.98 25.2 20.3 25.22"/><polygon class="cls-72" points="20.75 23.09 21.23 22.41 20.32 21.77 20.08 22.1 20.28 22.24 20.04 22.59 20.24 22.73 20.48 22.38 20.73 22.55 20.49 22.9 20.75 23.09"/><polygon class="cls-73" points="21.29 22.29 21.99 21.84 21.39 20.9 21.05 21.11 21.18 21.32 20.82 21.55 20.95 21.76 21.31 21.53 21.47 21.78 21.11 22.02 21.29 22.29"/><polygon class="cls-74" points="22.13 21.73 22.94 21.53 22.68 20.45 22.29 20.55 22.34 20.78 21.93 20.89 21.98 21.12 22.4 21.02 22.47 21.32 22.06 21.42 22.13 21.73"/><polygon class="cls-75" points="23.12 21.53 23.95 21.53 23.95 20.42 23.55 20.42 23.55 20.66 23.12 20.66 23.12 20.9 23.55 20.9 23.55 21.21 23.12 21.21 23.12 21.53"/><polygon class="cls-76" points="24.26 21.53 25.1 21.53 25.1 20.42 24.69 20.42 24.69 20.66 24.26 20.66 24.26 20.9 24.69 20.9 24.69 21.21 24.26 21.21 24.26 21.53"/><polygon class="cls-77" points="25.41 21.53 26.24 21.53 26.24 20.42 25.84 20.42 25.84 20.66 25.41 20.66 25.41 20.9 25.84 20.9 25.84 21.21 25.41 21.21 25.41 21.53"/><polygon class="cls-78" points="26.55 21.53 27.39 21.53 27.39 20.42 26.98 20.42 26.98 20.66 26.55 20.66 26.55 20.9 26.98 20.9 26.98 21.21 26.55 21.21 26.55 21.53"/><polygon class="cls-79" points="27.7 21.53 28.53 21.53 28.53 20.42 28.13 20.42 28.13 20.66 27.7 20.66 27.7 20.9 28.13 20.9 28.13 21.21 27.7 21.21 27.7 21.53"/><polygon class="cls-80" points="28.85 21.53 29.68 21.53 29.68 20.42 29.27 20.42 29.27 20.66 28.85 20.66 28.85 20.9 29.27 20.9 29.27 21.21 28.85 21.21 28.85 21.53"/><polygon class="cls-81" points="29.99 21.53 30.83 21.53 30.83 20.42 30.42 20.42 30.42 20.66 29.99 20.66 29.99 20.9 30.42 20.9 30.42 21.21 29.99 21.21 29.99 21.53"/><polygon class="cls-82" points="31.14 21.53 31.97 21.53 31.97 20.42 31.57 20.42 31.57 20.66 31.14 20.66 31.14 20.9 31.57 20.9 31.57 21.21 31.14 21.21 31.14 21.53"/><polygon class="cls-83" points="32.28 21.53 33.12 21.53 33.12 20.42 32.71 20.42 32.71 20.66 32.28 20.66 32.28 20.9 32.71 20.9 32.71 21.21 32.28 21.21 32.28 21.53"/><polygon class="cls-84" points="33.43 21.53 34.26 21.53 34.26 20.42 33.86 20.42 33.86 20.66 33.43 20.66 33.43 20.9 33.86 20.9 33.86 21.21 33.43 21.21 33.43 21.53"/><polygon class="cls-85" points="34.57 21.53 35.41 21.53 35.41 20.42 35 20.42 35 20.66 34.57 20.66 34.57 20.9 35 20.9 35 21.21 34.57 21.21 34.57 21.53"/><polygon class="cls-86" points="35.72 21.53 36.55 21.53 36.55 20.42 36.15 20.42 36.15 20.66 35.72 20.66 35.72 20.9 36.15 20.9 36.15 21.21 35.72 21.21 35.72 21.53"/><polygon class="cls-87" points="36.87 21.53 37.7 21.53 37.7 20.42 37.29 20.42 37.29 20.66 36.87 20.66 36.87 20.9 37.29 20.9 37.29 21.21 36.87 21.21 36.87 21.53"/><polygon class="cls-88" points="38.01 21.53 38.84 21.53 38.84 20.42 38.44 20.42 38.44 20.66 38.01 20.66 38.01 20.9 38.44 20.9 38.44 21.21 38.01 21.21 38.01 21.53"/><polygon class="cls-89" points="39.16 21.53 39.99 21.53 39.99 20.42 39.58 20.42 39.58 20.66 39.16 20.66 39.16 20.9 39.58 20.9 39.58 21.21 39.16 21.21 39.16 21.53"/><polygon class="cls-90" points="40.3 21.53 41.14 21.53 41.14 20.42 40.73 20.42 40.73 20.66 40.3 20.66 40.3 20.9 40.73 20.9 40.73 21.21 40.3 21.21 40.3 21.53"/><polygon class="cls-91" points="41.45 21.53 42.28 21.53 42.28 20.42 41.88 20.42 41.88 20.66 41.45 20.66 41.45 20.9 41.88 20.9 41.88 21.21 41.45 21.21 41.45 21.53"/><polygon class="cls-92" points="42.59 21.53 43.43 21.53 43.43 20.42 43.02 20.42 43.02 20.66 42.59 20.66 42.59 20.9 43.02 20.9 43.02 21.21 42.59 21.21 42.59 21.53"/><polygon class="cls-93" points="43.74 21.53 44.57 21.53 44.57 20.42 44.17 20.42 44.17 20.66 43.74 20.66 43.74 20.9 44.17 20.9 44.17 21.21 43.74 21.21 43.74 21.53"/><polygon class="cls-94" points="44.88 21.53 45.72 21.53 45.72 20.42 45.31 20.42 45.31 20.66 44.88 20.66 44.88 20.9 45.31 20.9 45.31 21.21 44.88 21.21 44.88 21.53"/><polygon class="cls-95" points="46.03 21.53 46.86 21.53 46.86 20.42 46.46 20.42 46.46 20.66 46.03 20.66 46.03 20.9 46.46 20.9 46.46 21.21 46.03 21.21 46.03 21.53"/><polygon class="cls-96" points="47.18 21.53 48.01 21.53 48.01 20.42 47.6 20.42 47.6 20.66 47.18 20.66 47.18 20.9 47.6 20.9 47.6 21.21 47.18 21.21 47.18 21.53"/><polygon class="cls-97" points="48.32 21.53 49.16 21.53 49.16 20.42 48.75 20.42 48.75 20.66 48.32 20.66 48.32 20.9 48.75 20.9 48.75 21.21 48.32 21.21 48.32 21.53"/><polygon class="cls-98" points="49.47 21.53 50.3 21.53 50.3 20.42 49.9 20.42 49.9 20.66 49.47 20.66 49.47 20.9 49.9 20.9 49.9 21.21 49.47 21.21 49.47 21.53"/><polygon class="cls-99" points="50.61 21.53 51.45 21.53 51.45 20.42 51.04 20.42 51.04 20.66 50.61 20.66 50.61 20.9 51.04 20.9 51.04 21.21 50.61 21.21 50.61 21.53"/><polygon class="cls-100" points="51.76 21.53 52.59 21.53 52.59 20.42 52.19 20.42 52.19 20.66 51.76 20.66 51.76 20.9 52.19 20.9 52.19 21.21 51.76 21.21 51.76 21.53"/><path class="cls-101" d="M32.08,10.8a.21.21,0,0,1,.22.21.22.22,0,0,1-.22.22l-12.77,0a.22.22,0,0,1-.22-.22.21.21,0,0,1,.22-.21Z"/><path class="cls-102" d="M32.3,10.56a.47.47,0,1,1,0,.94H24.49a.47.47,0,0,1,0-.94Z"/><path class="cls-103" d="M18.26,10.32a1.11,1.11,0,0,1,1.56-.05,1.1,1.1,0,0,1-1.51,1.61A1.11,1.11,0,0,1,18.26,10.32Z"/><path class="cls-104" d="M18.45,10.5a.85.85,0,1,1,0,1.19A.84.84,0,0,1,18.45,10.5Z"/><path class="cls-105" d="M35.15,10.94s-.67.52-3.28.83-9.31.46-10.76,1.6-2.58,4.89-4,7.44S14.5,24.59,13.77,25s-1.26,1.5-.34,1.93,2.49-.18,4.06-1.57,6.33-7.62,6.33-7.62l11.92-4.49Z"/><path class="cls-106" d="M13.48,26.84a2.21,2.21,0,0,0,1.69-.11,7.68,7.68,0,0,0,2.24-1.45,96.6,96.6,0,0,0,6.32-7.61l0,0h0l11.92-4.5.08.21-11.9,4.48a96.11,96.11,0,0,1-6.32,7.61,7.85,7.85,0,0,1-2.31,1.49,2.42,2.42,0,0,1-1.87.1Z"/><path class="cls-12" d="M35.22,11s-.7.54-3.34.85c-.66.07-1.57.14-2.58.22-3,.22-7.06.52-8.12,1.35-.9.71-1.69,2.48-2.51,4.33-.48,1.06-1,2.15-1.49,3.09a21,21,0,0,1-1.8,2.74,5.72,5.72,0,0,1-1.56,1.48,1.58,1.58,0,0,0-.67.71.94.94,0,0,0-.1.38.57.57,0,0,0,.07.34h0a.77.77,0,0,0,.36.32l-.1.19a.87.87,0,0,1-.45-.41h0a.79.79,0,0,1-.1-.45h0a1.31,1.31,0,0,1,.12-.46,1.88,1.88,0,0,1,.77-.81,5.56,5.56,0,0,0,1.49-1.42A21.46,21.46,0,0,0,17,20.76c.52-.92,1-2,1.48-3.07C19.3,15.82,20.11,14,21,13.28c1.11-.87,5.18-1.17,8.24-1.4,1-.07,1.93-.14,2.57-.22,2.59-.3,3.24-.81,3.24-.81Z"/><path class="cls-107" d="M35.13,18.38a.21.21,0,0,1,.22.21.22.22,0,0,1-.21.22l-12.78,0a.21.21,0,0,1-.21-.21.22.22,0,0,1,.21-.22Z"/><path class="cls-108" d="M34.8,18.14a.47.47,0,1,1,0,.94H27a.47.47,0,0,1-.47-.47.48.48,0,0,1,.47-.48Z"/><path class="cls-103" d="M21.32,17.9a1.1,1.1,0,1,1,.05,1.56A1.11,1.11,0,0,1,21.32,17.9Z"/><path class="cls-109" d="M21.51,18.08a.84.84,0,1,1,0,1.19A.84.84,0,0,1,21.51,18.08Z"/><path class="cls-110" d="M36.3,11.8s2,4.17,2.45,5,1.35.75,2.36.75h17.1V11.51Z"/><path class="cls-111" d="M36.3,11.76s2,3.53,2.45,4.24,1.35.64,2.36.64h17.1V11.51Z"/><path class="cls-103" d="M33.86,11.24a1.6,1.6,0,1,1,.07,2.26A1.6,1.6,0,0,1,33.86,11.24Z"/><path class="cls-112" d="M34.13,11.49a1.23,1.23,0,0,1,1.79,1.69,1.23,1.23,0,0,1-1.79-1.69Z"/><rect class="cls-12" x="39.37" y="11.07" width="4.91" height="0.26"/><rect class="cls-113" x="39.37" y="10.81" width="4.91" height="0.26"/><rect class="cls-12" x="39.37" y="11.77" width="4.91" height="0.26"/><rect class="cls-113" x="39.37" y="11.51" width="4.91" height="0.26"/><rect class="cls-12" x="39.37" y="12.47" width="4.91" height="0.26"/><rect class="cls-113" x="39.37" y="12.21" width="4.91" height="0.26"/><rect class="cls-12" x="39.37" y="13.17" width="4.91" height="0.26"/><rect class="cls-113" x="39.37" y="12.91" width="4.91" height="0.26"/><rect class="cls-12" x="39.37" y="13.87" width="4.91" height="0.26"/><rect class="cls-113" x="39.37" y="13.61" width="4.91" height="0.26"/><rect class="cls-12" x="39.37" y="14.57" width="4.91" height="0.26"/><rect class="cls-113" x="39.37" y="14.31" width="4.91" height="0.26"/><rect class="cls-12" x="39.37" y="15.27" width="4.91" height="0.26"/><rect class="cls-113" x="39.37" y="15.01" width="4.91" height="0.26"/><polygon class="cls-10" points="48.99 10.55 49.69 10.55 47.93 12.31 47.93 11.61 48.99 10.55"/><polygon class="cls-10" points="48.99 10.55 49.69 10.55 47.93 12.31 47.93 11.61 48.99 10.55"/><polygon class="cls-10" points="48.99 10.55 49.69 10.55 47.93 12.31 47.93 11.61 48.99 10.55"/><polygon class="cls-10" points="50.34 10.55 51.04 10.55 48.84 12.75 48.14 12.75 50.34 10.55"/><polygon class="cls-10" points="51.69 10.55 52.39 10.55 50.19 12.75 49.49 12.75 51.69 10.55"/><polygon class="cls-10" points="53.04 10.55 53.74 10.55 51.55 12.75 50.84 12.75 53.04 10.55"/><polygon class="cls-10" points="54.4 10.55 55.1 10.55 52.9 12.75 52.2 12.75 54.4 10.55"/><polygon class="cls-10" points="55.75 10.55 56.45 10.55 54.25 12.75 53.55 12.75 55.75 10.55"/><polygon class="cls-10" points="57.1 10.55 57.8 10.55 55.6 12.75 54.9 12.75 57.1 10.55"/><polygon class="cls-10" points="57.86 11.14 57.86 11.84 56.95 12.75 56.25 12.75 57.86 11.14"/></g></g></svg>