<svg xmlns="http://www.w3.org/2000/svg"  viewBox="0 0 305.806 177.24"><g transform="translate(-0.003)"><path d="M302.11,143.25H79.94l-6.55,4.69-69.91.19a3.5,3.5,0,0,0-3.4,4.23A3.57,3.57,0,0,0,3.6,155.1H24.28c3.51,0,4.69,3.2,4.69,5.12a3.5,3.5,0,0,0,3.48,3.48H164.81a3.56,3.56,0,0,0,3.52-2.75,3.49,3.49,0,0,0-3.4-4.22H145.72s-3.42,0-3.42-3.25c0-2.9,2.71-3.23,3.42-3.27h156.6a3.49,3.49,0,0,0,3.43-4.13,3.63,3.63,0,0,0-3.64-2.83Zm-179.3,13.48H93.64s-3.42,0-3.42-3.25c0-2.9,2.71-3.23,3.42-3.27h28.63s3.81-.33,3.81,3.15a3.14,3.14,0,0,1-3.27,3.37Z" fill="#e6e6e6"/><path d="M256.16,156.73H64.6a3.5,3.5,0,0,0,0,7h47.11s3.81-.33,3.81,3.15a3.14,3.14,0,0,1-3.26,3.36H93.57a3.5,3.5,0,0,0,0,7H226.05a3.5,3.5,0,0,0,0-7H206.84s-3.42,0-3.42-3.25c0-2.91,2.71-3.24,3.42-3.27h49.32a3.5,3.5,0,1,0,0-7ZM151.34,167c0-2.91,2.71-3.24,3.42-3.27h28.63s3.81-.33,3.81,3.15a3.14,3.14,0,0,1-3.27,3.36H154.76S151.34,170.19,151.34,167Z" fill="#e6e6e6"/><rect width="35.17" height="6.83" transform="translate(94.938 74.764) rotate(150.42)" fill="#f2f2f2"/><path d="M126.64,61,92.58,79.23l-6-11.11,34.05-18.2c3.88-2.09,8.37-1.3,10,1.77h0C132.33,54.76,130.52,58.94,126.64,61Z" fill="#4d4d4d"/><path d="M124.81,54,92.5,72c-.38-.64-.67-1.25-1.13-2l32.32-18a1.14,1.14,0,0,1,1.56.45h0a1.14,1.14,0,0,1-.44,1.55Z" fill="#fff" opacity="0.22"/><rect width="3.63" height="12.67" transform="matrix(0.874, -0.486, 0.486, 0.874, 86.287, 68.288)" fill="#bfbfbf"/><rect width="17.08" height="4.84" transform="translate(101.751 57.65) rotate(61.02)" fill="#333"/><rect width="11.51" height="27.49" rx="3.96" transform="translate(174.44 57.12) rotate(180)" fill="#333"/><path d="M166.81,70.88h3.76s-.16-44.6,0-59.46C170.61,7.59,169,0,160.37,0c-.05.86-.15,2.43-.11,3.47,5.11.54,6.55,3.81,6.55,8Z" fill="#333"/><path d="M171.33,101.76h109.4l7.52-17.94H171.33Z" fill="#4d4d4d"/><rect width="220.43" height="39.82" rx="19.91" transform="translate(288.24 141.58) rotate(180)" fill="#1c1c1c"/><path d="M83.3,142.79a17.94,17.94,0,0,1-10.91-3.68,21.78,21.78,0,0,1-8.27-17.44A23.64,23.64,0,0,1,87.73,98.06h180.6a23.64,23.64,0,0,1,23.61,23.61,21.78,21.78,0,0,1-8.27,17.44,18.17,18.17,0,0,1-15.83,3H88.22a19.5,19.5,0,0,1-4.92.68Zm4.43-37.33a16.23,16.23,0,0,0-16.22,16.21,14.4,14.4,0,0,0,5.34,11.54,10.84,10.84,0,0,0,9.87,1.69l.49-.14H268.85l.5.14a10.85,10.85,0,0,0,9.87-1.69,14.39,14.39,0,0,0,5.33-11.54,16.23,16.23,0,0,0-16.22-16.21Z" fill="#a87e2c"/><path d="M215.2,21.06H194.42l-17.4,46.1h24.86Z" fill="#4d4d4d"/><path d="M190.77,61.22l8.34-.05,15.11-39.93,50.74-.3.13,39.92V93.77H212.06Z" fill="#333"/><path d="M129.11,106.46h91.81L200.03,70.88l3.16-9.71H113.95Z" fill="#dba439"/><path d="M209.65,27.48l-9.93,33.69H183.48l12.04-33.69Z" fill="#bfbfbf"/><path d="M293,88.9H240V59.51l54.08-.07a4,4,0,0,1,4,4.05V83.74A5.11,5.11,0,0,1,293,88.9Z" fill="#c29132"/><rect width="16.21" height="27.63" transform="translate(260.76 55.48) rotate(180)" fill="#e6e6e6"/><path d="M139,65.53s1.92,11.73,3.13,20.91H195.6l-12-20.34Z" fill="#404040"/><path d="M244.56,82.35h53.48V65.96l-53.48-.05Z" fill="#4d4d4d"/><path d="M99.55,117.78h29.56l-5-51.28a66.126,66.126,0,0,0-4-5.33H107.23a64.922,64.922,0,0,0-4,5.36L99.29,92.79Z" fill="#ffbf42"/><path d="M213.98,23.4,203.19,61.17h-4.08L210.47,23.4Z" fill="#bd8d31"/><rect width="11.55" height="12.05" transform="translate(94.38 115.63)" fill="#dba439"/><path d="M269,122.06a1.89,1.89,0,1,1-1.89-1.89A1.89,1.89,0,0,1,269,122.06Z" fill="#d9a238"/><path d="M99.56,92.79H207.82l3.49,5.88-66.55.27-13.47,25.01H99.56l-.21-25.28Z" fill="#333" opacity="0.2"/><rect width="168.03" height="39.82" rx="19.91" transform="translate(298.2 141.58) rotate(180)" fill="#1c1c1c"/><path d="M126.81,111.1a1.6,1.6,0,1,0,1.59-1.59A1.6,1.6,0,0,0,126.81,111.1Z" fill="#e6e6e6"/><rect width="31.34" height="4.95" transform="translate(110.023 106.485) rotate(-159.44)" fill="#fff"/><path d="M144.76,98.94H120.89s-17.08,2.77-17.11,22.71c0,19.39,18.76,23.52,18.76,23.52H152v-2.95s-23.43-2.26-22.83-20.16S144.76,98.94,144.76,98.94Z" fill="#3b3b3b"/><path d="M278.29,145.28H150.08a23.61,23.61,0,0,1,0-47.22H278.29a23.61,23.61,0,1,1,0,47.22ZM150.08,105.46a16.22,16.22,0,0,0,0,32.43H278.29a16.22,16.22,0,0,0,0-32.43Z" fill="#d9a238"/><path d="M127.14,115.53l-17.88-7.16,3.32-8.3,17.88,7.16A4.47,4.47,0,0,1,133,113h0a4.48,4.48,0,0,1-5.86,2.53Z" fill="#bd8d31"/><rect width="11.67" height="3.76" transform="translate(114.365 99.482) rotate(111.71)" fill="#e6ce9f"/><path d="M123.61,115.74h10.74v-3.91a5.37,5.37,0,0,0-5.37-5.37h0a5.37,5.37,0,0,0-5.37,5.37Z" fill="#fff"/><path d="M131,111.1a1.87,1.87,0,1,1-1.86-1.86A1.87,1.87,0,0,1,131,111.1Z" fill="#ffbf42"/><path d="M195.72,18.86V14a2.83,2.83,0,0,1,2.82-2.83h15.73v7.65Z" fill="#4d4d4d"/><path d="M219.08,12.43,225.67,19h-11.4V11.2h1.87A4.16,4.16,0,0,1,219.08,12.43Z" fill="#333"/><rect width="3.95" height="2.17" transform="translate(198.07 14.27)" fill="#d9a238"/><rect width="3.95" height="2.17" transform="translate(207.36 14.27)" fill="#d9a238"/><path d="M191.91,18.82h77.71a2.73,2.73,0,0,1,2.73,2.73v.08a2.73,2.73,0,0,1-2.73,2.73h-75a2.73,2.73,0,0,1-2.73-2.73V18.82Z" transform="translate(464.26 43.18) rotate(180)" fill="#c49233"/><rect width="3.3" height="8.86" transform="translate(248.55 69.26)" fill="#333"/><rect width="3.3" height="8.86" transform="translate(255.51 69.26)" fill="#333"/><rect width="3.3" height="8.86" transform="translate(262.46 69.26)" fill="#333"/><rect width="3.3" height="8.86" transform="translate(269.41 69.26)" fill="#333"/><rect width="3.3" height="8.86" transform="translate(276.36 69.26)" fill="#333"/><rect width="3.3" height="8.86" transform="translate(283.31 69.26)" fill="#333"/><rect width="3.3" height="8.86" transform="translate(290.27 69.26)" fill="#333"/><circle cx="10.81" cy="10.81" r="10.81" transform="translate(139.025 130.114) rotate(-76.78)" fill="#424242"/><circle cx="10.81" cy="10.81" r="10.81" transform="translate(176.624 122.058) rotate(-45)" fill="#424242"/><circle cx="10.81" cy="10.81" r="10.81" transform="translate(220.927 129.941) rotate(-76.1)" fill="#424242"/><circle cx="10.81" cy="10.81" r="10.81" transform="translate(260.654 116.232) rotate(-22.66)" fill="#424242"/><path d="M169.81,127.66h105.7a6,6,0,0,0,6-6h0a6,6,0,0,0-6-6H169.81Z" fill="#8c6924"/><rect width="92.42" height="12.02" transform="translate(95.88 115.66)" fill="#ffbf42"/><rect width="6.19" height="12.02" transform="translate(182.11 115.66)" fill="#ccc"/><path d="M277.08,121.65a2.3,2.3,0,1,1-2.29-2.29,2.3,2.3,0,0,1,2.29,2.29Z" fill="#4a3713"/><rect width="73.52" height="2.93" transform="translate(192.24 120.42)" fill="#4a3713"/><path d="M213.78,24.36H193a2.77,2.77,0,0,1-2.77-2.77h0A2.77,2.77,0,0,1,193,18.82h20.83a2.77,2.77,0,0,1,2.77,2.77h0a2.77,2.77,0,0,1-2.82,2.77Z" fill="#ffbe42"/><rect width="49" height="1.64" transform="translate(237.62 92.94)" fill="#6b6b6b"/><rect width="53.19" height="1.64" transform="translate(248.55 68)" fill="#6b6b6b"/><path d="M181.23,69.68l7.07,12.67h-2.24l-6.79-12.67Z" fill="#6b6b6b"/><path d="M175.1,69.68l7.07,12.67h-2.24l-6.78-12.67Z" fill="#6b6b6b"/><path d="M168.97,69.68l7.07,12.67H173.8l-6.78-12.67Z" fill="#6b6b6b"/><path d="M148.51,86.48,146,86.39c.27-8.11,4.39-11.9,13-11.9h.43c2,0,3.29-.48,3.81-1.42,1.2-2.22-1.3-6.92-2.27-8.39L163,63.3c.47.71,4.51,7,2.38,11q-1.5,2.715-6,2.72H159C151.77,77,148.74,79.75,148.51,86.48Z" fill="#333"/><rect width="4.43" height="4.84" transform="translate(162.278 59.868) rotate(61.02)" fill="#242424"/><path d="M153.98,84.57h35.74l-1.33-2.22H153.08Z" fill="#333"/><path d="M145.68,71.41h15.51l-.94-2.21H144.98Z" fill="#4d4d4d"/><path d="M147.32,76.32h5.17l-.93-2.21h-4.93Z" fill="#4d4d4d"/><path d="M203.37,86.53l-2.7-.09-12.9-20.33,3-.02Z" fill="#bd8d31"/><path d="M107.56,67.16h11.11l2.19,22.32H105.27Z" fill="#bd8d31"/><rect width="35.17" height="6.06" transform="translate(129.04 74.431) rotate(150.42)" fill="#f2f2f2"/><path d="M99.56,85.2v44.91l-14.62,19.1H70.32L89.95,129.3,87.89,77.26Z" fill="#5e5e5e"/><path d="M90.17,81.5l-.06,47.8L74.47,149.21H17.09L34.85,129.3v-48a5.07,5.07,0,0,1,5.07-5.07H84.63a5.55,5.55,0,0,1,5.54,5.27Z" fill="#ccc"/><path d="M74.47,149.21H17.09L34.85,129.3H90.03Z" fill="#b3b3b3"/><path d="M160.93,61,126.87,79.2l-6-11.11,34.05-18.2c3.88-2.09,8.37-1.3,10,1.77h0C166.62,54.76,164.81,58.94,160.93,61Z" fill="#4d4d4d"/><rect width="3.63" height="13.02" transform="matrix(0.874, -0.486, 0.486, 0.874, 120.658, 68.047)" fill="#bfbfbf"/><rect width="43.85" height="4.08" rx="1.98" transform="translate(39.62 82.35)" fill="#3b3b3b" opacity="0.2"/><rect width="43.85" height="4.08" rx="1.98" transform="translate(39.62 119.85)" fill="#3b3b3b" opacity="0.2"/><path d="M240.59,88.9V27.84h-24.1L204.75,70.88,215.2,88.9Z" fill="#d9a238"/><path d="M237.62,31.02H218.77L208.75,70.31l8.89,15.28h19.98Z" fill="#e6e6e6"/><rect width="16.21" height="8.92" transform="translate(244.56 46.56)" fill="#bfbfbf"/><path d="M237.62,85.59V46.56H221.41L213.3,78.12l4.34,7.47Z" fill="#bfbfbf"/><path d="M207.1,71.41h33.49V67.94H208.01Z" fill="#d9a238"/><path d="M241.7,24.36l-37.93,52.9,5.57,9.48,44.95-62.38Z" fill="#fff" opacity="0.42"/><path d="M258.81,24.36l-47.5,65.12,1.19,2.64,49.96-67.76Z" fill="#fff" opacity="0.42"/><path d="M159.27,54,127,72c-.38-.64-.68-1.25-1.13-2l32.31-18a1.15,1.15,0,0,1,1.57.45h0a1.16,1.16,0,0,1-.48,1.55Z" fill="#fff" opacity="0.22"/><rect width="17.07" height="4.84" transform="translate(136.689 57.132) rotate(61.02)" fill="#333"/><path d="M105.27,127.66H99.56V85.2l-.81-.55,1.92-1.07.44-3.11,2.37,1.5,1.79,5.95Z" fill="#3b3b3b" opacity="0.3"/><path d="M110.83,123.1H150.8l1.7-2.89H112.61Z" fill="#bd8d31" opacity="0.53"/><path d="M155.33,115.65l-8.06,12.01h8.06l7.21-11.92Z" fill="#9c7428"/></g></svg>
