<svg class="benefit-item benefit-item-img ben-3" version="1.1" xmlns="http://www.w3.org/2000/svg" xmlns:xlink="http://www.w3.org/1999/xlink" x="0px" y="0px" viewBox="0 0 572.9 585.5" xml:space="preserve" width="54" height="59">
            <rect x="101" y="374.2" width="41.8" height="41.8"></rect>
            <rect x="184.4" y="374.2" width="41.8" height="41.8"></rect>
            <rect x="267.7" y="374.2" width="41.8" height="41.8"></rect>
            <rect x="351" y="374.2" width="41.8" height="41.8"></rect>
            <rect x="434.4" y="374.2" width="41.8" height="41.8"></rect>
            <rect x="184.4" y="290.8" width="41.8" height="41.8"></rect>
            <rect x="267.7" y="290.8" width="41.8" height="41.8"></rect>
            <rect x="351" y="290.8" width="41.8" height="41.8"></rect>
            <rect x="434.4" y="290.8" width="41.8" height="41.8"></rect>
            <rect x="101" y="457.6" width="41.8" height="41.8"></rect>
            <rect x="184.4" y="457.6" width="41.8" height="41.8"></rect>
            <rect x="267.7" y="457.6" width="41.8" height="41.8"></rect>
            <rect x="351" y="457.6" width="41.8" height="41.8"></rect>
            <path d="M58.3,55.3h104v25.9h-104c-8.6,0-16.8,3.4-22.9,9.5l0,0.1c-6.1,6.1-9.5,14.3-9.5,22.9v413.6
                c0,8.6,3.4,16.8,9.5,22.9l0,0.1c6.1,6.1,14.3,9.5,22.9,9.5h456.2c8.6,0,16.8-3.4,22.9-9.5l0-0.1c6.1-6.1,9.5-14.3,9.5-22.9V113.6
                c0-8.6-3.3-16.8-9.4-22.9l0-0.1c-6.1-6.1-14.3-9.5-23-9.5h-37.8V55.3h37.8c15.4,0,30.2,6.2,41.1,17.1l0,0l0,0
                c10.9,10.9,17.1,25.7,17.1,41.1v413.7c0,15.4-6.2,30.2-17.1,41.1l0,0l0,0c-10.9,11-25.7,17.1-41.1,17.2H58.3
                c-15.4,0-30.3-6.2-41.2-17.1l0,0l0,0C6.2,557.5,0,542.7,0,527.2V113.6c0-15.4,6.2-30.2,17.1-41.1l0,0l0,0
                C28,61.5,42.8,55.3,58.3,55.3z M434.9,81.2V55.3h-93.6v25.9H434.9z M299.5,81.2V55.3h-95.3v25.9H299.5z"></path>
            <rect x="15.2" y="207.3" width="539.3" height="25.9"></rect>
            <path d="M136.3,13c-0.6-7.2,4.8-13.4,11.9-14c7.2-0.6,13.4,4.8,14,11.9c0.1,0.7,0.1,1.4,0,2v133.3
                c-0.6,7.2-6.8,12.5-14,11.9c-6.4-0.5-11.4-5.6-11.9-11.9V13z"></path>
            <path d="M273.5,13c-0.6-7.2,4.8-13.4,11.9-14c7.2-0.6,13.4,4.8,14,11.9c0.1,0.7,0.1,1.4,0,2v133.3
                c-0.6,7.2-6.8,12.5-14,11.9c-6.4-0.5-11.4-5.6-11.9-11.9V13z"></path>
            <path d="M409,13c-0.6-7.2,4.8-13.4,11.9-14c7.2-0.6,13.4,4.8,14,11.9c0.1,0.7,0.1,1.4,0,2v133.3
                c-0.6,7.2-6.8,12.5-14,11.9c-6.4-0.5-11.4-5.6-11.9-11.9V13z"></path>
            <path d="M513.8,436c3.5-3,6.7-6.3,9.6-9.9c23.6-28.6,17.9-67.3,0-98.5c-6.9-12.2-15.8-23.3-26.2-32.7
                c-2-1.7-4-3.3-6-4.9c-9.9-7.9-20.8-14.3-32.4-19.1c-15.6-6.6-32.4-10-49.4-10.1c-16.4-0.1-32.5,3.4-47.5,10.1
                c-5.6,2.5-11,5.5-16.1,8.9c1.7-3.1,3.5-6,5.2-8.9c4.6-7.8,9.3-15.3,13.9-22c4.9-7.1-1.7-14-8.5-14c-3.2,0-6.2,1.6-7.9,4.3
                c-2.2,3.2-4.4,6.6-6.6,10c-4.4,6.9-8.7,14.1-12.8,21.6c-2.2,4-4.3,8-6.3,12.1c-1.1,2.3-2.3,4.6-3.3,7c-19.1,42.1-27.2,89,3.3,123.5
                c5.6,6.3,12,11.9,19,16.5c0,0,0.1,0,0.1,0.1c6.3,4.1,12.8,7.9,19.5,11.2c20.7,10.4,44.1,17.4,67.5,19.1c3.6,0.2,7.3,0.5,10.9,0.5
                s7.4-0.2,11.1-0.5c19.8-1.6,39-7.6,55.5-19.1C509.1,439.7,511.5,437.9,513.8,436L513.8,436z M442.9,442.9
                c-6.1-0.1-12.1-0.5-18.1-1.4c-24.2-3.3-48.2-12.6-66.4-23.1c-6-3.5-11.5-7.6-16.5-12.4c-10.2-9.7-16.9-22.5-19.1-36.4
                c-1.4-9-1.4-18.2,0-27.3c2.1-13.9,6.7-28.1,12.9-41.9c1.7,1.6,3.9,2.6,6.3,2.8c0.3,0.1,0.7,0.2,1,0.2c2.3,0,4.5-0.9,6.3-2.4
                c5.1-4.3,10.7-8,16.6-11c12.1-6,25.4-9.1,38.9-9c14.9,0.1,29.6,3.2,43.4,9c61.6,25.3,105.9,97.6,41.9,140.1
                c-9.2,6.1-19.7,9.6-30.7,11.3C453.9,442.3,448.4,442.8,442.9,442.9z"></path>
        </svg>
