<?xml version="1.0" encoding="iso-8859-1"?>
<!-- Generator: Adobe Illustrator 19.0.0, SVG Export Plug-In . SVG Version: 6.00 Build 0)  -->
<svg version="1.1" id="Capa_1" width="70px" height="70px" xmlns="http://www.w3.org/2000/svg" xmlns:xlink="http://www.w3.org/1999/xlink" x="0px" y="0px"
	 viewBox="0 0 480 480" style="enable-background:new 0 0 480 480;" xml:space="preserve">
<g>
	<g>
		<path d="M128,395.358c-13.255,0-24,10.745-24,24s10.745,24,24,24s24-10.745,24-24S141.255,395.358,128,395.358z M128,427.358
			c-4.418,0-8-3.582-8-8s3.582-8,8-8s8,3.582,8,8S132.418,427.358,128,427.358z"/>
	</g>
</g>
<g>
	<g>
		<path d="M384,395.358c-13.255,0-24,10.745-24,24s10.745,24,24,24s24-10.745,24-24S397.255,395.358,384,395.358z M384,427.358
			c-4.418,0-8-3.582-8-8s3.582-8,8-8s8,3.582,8,8S388.418,427.358,384,427.358z"/>
	</g>
</g>
<g>
	<g>
		<path d="M477.656,197.702l-72-72c-1.5-1.5-3.534-2.344-5.656-2.344H296c-4.418,0-8,3.582-8,8v168h-17.752l-14.488-57.944
			c-0.892-3.559-4.091-6.056-7.76-6.056h-8v-83.152c0.592-0.68,1.288-1.216,1.832-1.96c10.436-14.219,7.369-34.206-6.85-44.642
			c-11.769-8.638-27.896-8.196-39.174,1.074l-79.312-58.016c6.59-16.437-1.392-35.103-17.828-41.694
			C82.231,0.378,63.564,8.36,56.974,24.797c-6.59,16.437,1.392,35.103,17.828,41.694c1.684,0.675,3.423,1.207,5.198,1.588v95.28h-8
			c-4.418,0-8,3.582-8,8v32c0,4.418,3.582,8,8,8h8v24c0,4.418,3.582,8,8,8h24v16H64v-16H48v24c0,4.418,3.582,8,8,8h64
			c4.418,0,8-3.582,8-8v-32c0-4.418-3.582-8-8-8H96v-16h8c4.418,0,8-3.582,8-8v-32c0-4.418-3.582-8-8-8h-8v-95.92
			c4.036-1.197,7.792-3.188,11.048-5.856l79.352,58.016c-4.438,11.139-2.276,23.824,5.6,32.864v82.896h-8
			c-3.669,0-6.868,2.497-7.76,6.056l-14.488,57.944H40c-4.418,0-8,3.582-8,8v72H8c-4.418,0-8,3.582-8,8v32c0,4.418,3.582,8,8,8
			h64.64c4.391,30.574,32.736,51.8,63.311,47.409c24.574-3.529,43.88-22.836,47.409-47.409h145.28
			c4.391,30.574,32.736,51.8,63.311,47.409c24.574-3.529,43.88-22.836,47.409-47.409H472c4.418,0,8-3.582,8-8v-216
			C480,201.237,479.156,199.202,477.656,197.702z M96,195.358H80v-16h16V195.358z M99.776,46.35c-2.5,3.431-6.267,5.721-10.464,6.36
			c-8.733,1.351-16.907-4.634-18.258-13.366s4.634-16.907,13.366-18.258s16.907,4.634,18.258,13.366
			C103.327,38.646,102.283,42.926,99.776,46.35z M32,411.358H16v-16h16V411.358z M203.072,121.902
			c3.011-4.128,7.819-6.561,12.928-6.544c8.837,0.012,15.99,7.185,15.979,16.021s-7.185,15.99-16.021,15.979
			c-8.837-0.012-15.99-7.185-15.979-16.021C199.983,127.944,201.067,124.64,203.072,121.902z M224,162.254v73.104h-16v-73.112
			c2.609,0.709,5.297,1.083,8,1.112C218.702,163.328,221.39,162.957,224,162.254z M190.248,251.358h51.504l12,48h-75.504
			L190.248,251.358z M128,459.358c-22.091,0-40-17.909-40-40c0-22.091,17.909-40,40-40s40,17.909,40,40
			C167.974,441.439,150.08,459.332,128,459.358z M384,459.358c-22.091,0-40-17.909-40-40c0-22.091,17.909-40,40-40
			c22.091,0,40,17.909,40,40C423.974,441.439,406.08,459.332,384,459.358z M464,411.358h-24.64
			c-4.391-30.575-32.736-51.8-63.311-47.409c-24.574,3.529-43.88,22.835-47.409,47.409H183.36
			c-4.391-30.575-32.736-51.8-63.311-47.409c-24.574,3.529-43.88,22.835-47.409,47.409H48v-64h224v-16H48v-16h248
			c4.418,0,8-3.582,8-8v-168h24v104c0,4.418,3.582,8,8,8h80v56c0,4.418,3.582,8,8,8h40V411.358z M464,267.358h-16v16h16v16h-32v-48
			h32V267.358z M464,235.358h-32v-16h16v-16h-48v16h16v16h-72v-96h52.688L464,206.67V235.358z"/>
	</g>
</g>
<g>
	<g>
		<rect x="328" y="267.358" width="16" height="16"/>
	</g>
</g>
<g>
	<g>
		<rect x="288" y="331.358" width="16" height="16"/>
	</g>
</g>
<g>
</g>
<g>
</g>
<g>
</g>
<g>
</g>
<g>
</g>
<g>
</g>
<g>
</g>
<g>
</g>
<g>
</g>
<g>
</g>
<g>
</g>
<g>
</g>
<g>
</g>
<g>
</g>
<g>
</g>
</svg>
