<svg class="benefit-item benefit-item-img ben-5" version="1.1" xmlns="http://www.w3.org/2000/svg" xmlns:xlink="http://www.w3.org/1999/xlink" x="0px" y="0px" viewBox="0 0 528 528" xml:space="preserve" width="46" height="46">
            <path d="M121.4,288c-6.7-5.4-7.7-15.2-2.3-21.9c5.4-6.7,15.2-7.7,21.9-2.3l0,0l96.8,78.5l146.7-189.8
                c5.2-6.8,14.9-8.2,21.8-3c6.8,5.2,8.2,14.9,3,21.8c-0.1,0.1-0.1,0.1-0.2,0.2L252.7,373.9l-0.3,0.4c-5.4,6.7-15.2,7.7-21.9,2.3
                L121.4,288z"></path>
            <path d="M264,0c145.9-0.1,264.2,118,264.3,263.9c0.1,145.9-118,264.2-263.9,264.3c-70.2,0.1-137.6-27.8-187.2-77.5l0,0
                C-25.8,347.9-26,181.1,76.7,78c0.2-0.2,0.4-0.4,0.6-0.6l0,0C126.8,27.7,194-0.1,264,0z M355.1,44.1c-88.9-37-191.4-16.6-259.3,51.7
                h0C2.9,188.3,2.6,338.7,95.1,431.6c0.2,0.2,0.4,0.4,0.7,0.7h0c93.1,92.7,243.7,92.5,336.5-0.6s92.5-243.7-0.6-336.5
                C409.7,73.3,383.7,56,355.1,44.1z"></path>
        </svg>
