<svg xmlns="http://www.w3.org/2000/svg" width="248.373" height="172.51" viewBox="0 0 248.373 172.51"><g transform="translate(-675 -229)"><g transform="translate(675.003 229)"><path d="M139.14,87.35c-1.83-1-3.44-4.09-4.79-9.17a75.22,75.22,0,0,1-2.26-15.33,55.16,55.16,0,0,1,1.07-12.5c1-5.7,1.52-8.83-2.38-11.45-5.26-3.53-10.1,1.59-10.31,1.81l-1.78-1.65c2.21-2.39,7.87-5.92,13.45-2.18,5.21,3.49,4.42,8.08,3.42,13.88a52.239,52.239,0,0,0-1,12c.51,11.32,3.48,21.2,5.79,22.48Z" fill="#050000"/><rect width="47.44" height="3.19" transform="translate(56.766 2.898) rotate(28.38)" fill="#050000"/><rect width="6.03" height="4.92" transform="matrix(-0.46, 0.888, -0.888, -0.46, 64.287, 5.157)" fill="#050000"/><path d="M123.54,119.88c-2,0-6-.33-7.92-2.86-1.19-1.58-1.31-3.64-.38-6.11,2-5.3.41-7.26.4-7.28h0l1.75-1.69c.28.29,2.65,3,.1,9.79-.62,1.65-.6,2.93,0,3.79,1.4,1.86,5.56,2,6.91,1.87l.19,2.43a4.727,4.727,0,0,1-1.05.06Z" fill="#050000"/><path d="M38.21,39.83c-.26-.11-6.35-2.7-8.51-8.27a12.17,12.17,0,0,1,.64-9.82c1.66-3.58,5.25-5.86,10.11-6.43,6.69-.79,14.28,1.81,17.75,6.06a47.25,47.25,0,0,0,7.3,4.36l-1.07,2.18a49.61,49.61,0,0,1-7.81-4.68l-.13-.09-.1-.13c-2.89-3.66-9.76-6-15.66-5.29-2.3.28-6.44,1.29-8.18,5.05A9.87,9.87,0,0,0,32,30.68c1.8,4.61,7.14,6.88,7.19,6.9Z" fill="#050000"/><path d="M127.61,51.22l-8.75-3.73,2.52-5.89a4.75,4.75,0,0,1,6.24-2.51h0a4.76,4.76,0,0,1,2.51,6.24Z" fill="#050000"/><path d="M39.68,161.86l.4-.71-4.51-5.74-1.39,1.1Z" fill="#050000"/><path d="M26.75,155.92l7.29,5.94h5.64l-5.33-5.19Z" fill="#050000"/><path d="M50.42,161.86l.41-.71-4.51-5.74-1.39,1.1Z" fill="#050000"/><path d="M38.68,156.67l6.1,5.19h5.64l-5.33-5.19Z" fill="#050000"/><path d="M60.48,161.86l.4-.71-4.51-5.74-1.39,1.1Z" fill="#050000"/><path d="M28.18,106.68s-15.94,7.09-23.11,11.53c-5.9,3.65-7.64,13.71.17,20.11l21,17.18a7.17,7.17,0,0,0,4.56,1.63H58.1l-.27-45.06a5.39,5.39,0,0,0-5.39-5.39Z" fill="#050000"/><path d="M192.6,93.14h33.84a4.7,4.7,0,0,1,4.7,4.7v1.07H192.6Z" fill="#050000"/><rect width="42.79" height="3.1" transform="translate(96.238 50.92) rotate(66.23)" fill="#050000"/><path d="M121.19,118.53,108.3,88.2l4.49-1.91,12.9,30.33a2.44,2.44,0,0,1-1.29,3.2h0a2.45,2.45,0,0,1-3.21-1.29Z" fill="#050000"/><path d="M46,26.57,43.83,35l-5.66-1a4.26,4.26,0,0,1-3.5-4.9h0a4.64,4.64,0,0,1,5.06-3.81Z" fill="#050000"/><path d="M115.28,79.77l4.08,34.28a7.67,7.67,0,0,0,7.63,6.33c5.11-.15,8.13-3.91,7.73-8.45l-2.26-49.81a17.53,17.53,0,0,0-7.78-12.83L54.06,19.52a6.79,6.79,0,0,0-9.94,3.07h0a6.78,6.78,0,0,0,2.2,8.07l59,32.52C113.21,69.39,113.36,69.91,115.28,79.77Z" fill="#050000"/><path d="M39.79,106.84l-21.52,9.48v-8.6a7,7,0,0,1,1.3-4c.62-.87,12.75-6.61,13.73-7.13h0a4.43,4.43,0,0,1,6.49,3.92Z" fill="#050000"/><path d="M13.12,96.56h0a2.92,2.92,0,0,1,1.47-3.87L37.05,82.6a2.93,2.93,0,0,1,3.87,1.48h0a2.92,2.92,0,0,1-1.47,3.86L17,98a2.92,2.92,0,0,1-3.88-1.44Z" fill="#050000"/><path d="M36.67,102.93h0c-2.33-.2-3-2.32-2.73-4.64,0,0,4.66-56.89,6-75.69.87-4.72,5.4-18.41,5.4-18.41C45.87,1.34,46.91,0,50.15,0l6.11.14c1.51,1-1.86,3.38-1.91,5.28l3.83,19.7L41,99.76a4.11,4.11,0,0,1-4.33,3.17Z" fill="#050000"/><path d="M27.16,111.83h0a3,3,0,0,1-4.23-.8L13.45,97.11a3.05,3.05,0,0,1,.8-4.24h0a3.05,3.05,0,0,1,4.23.81L28,107.6a3,3,0,0,1-.84,4.23Z" fill="#050000"/><path d="M23.88,97.8H17.65a2.48,2.48,0,0,1-2.49-2.48h0a2.48,2.48,0,0,1,2.49-2.49h6.23Z" fill="#050000"/><path d="M32,110.29H25.77a2.48,2.48,0,0,1-2.49-2.49h0a2.48,2.48,0,0,1,2.49-2.48H32Z" fill="#050000"/><path d="M41.31,102.75h0a4.1,4.1,0,0,1-3.64-4.68L49.74,15.85,51.66,4.18c.6-2.84,2.18-4.53,5.26-3.95s3.3,2.19,3.77,5.1l3.46,20L45.72,99.65a4.1,4.1,0,0,1-4.41,3.1Z" fill="#050000"/><path d="M190,171.5H108.43c-5.18,0-9.39-5.13-9.39-11.46h0c0-6.33,4.21-10.53,9.39-10.53l31.92-3.21h19.18L190,149.43c5.19,0,9.4,4.28,9.4,10.61h0C199.41,166.37,195.2,171.5,190,171.5Z" fill="#050000"/><rect width="90.82" height="13.6" rx="6.16" transform="translate(105.19 154.01)" fill="#050000"/><path d="M101.9,160.47c0-5.58,3.81-9.7,8.21-10.2L141.23,145s-10,.23-13.75.51c-7.82.6-27.5,3-27.5,3-5.13.9-8.31,5.22-8.31,12,0,5.57,3.74,12,8.31,12h5.21l5-1.87C105.63,170.6,101.9,166,101.9,160.47Z" fill="#050000"/><rect width="85.46" height="1.94" transform="translate(105.19 170.53)" fill="#050000"/><path d="M190.83,148.52l-.58-.05s-19.45-2.41-27.05-3.25c-5.27-.24-22-.24-22-.24l-35.92,3.85.23,1.84L141,147.16h22.2l27,3.26h.35c5.36.66,8.22,4.52,8.22,10.05s-3.7,10-8.25,10v1.92c5.42,0,9.82-5.37,9.82-12S196.44,149,190.83,148.52Z" fill="#050000"/><path d="M161.36,147.16a1.89,1.89,0,0,0,0,3.65h2.14v-3.65Z" fill="#050000"/><ellipse cx="1.4" cy="1.82" rx="1.4" ry="1.82" transform="translate(161.97 147.16)" fill="#050000"/><rect width="82.84" height="5.19" transform="translate(109.52 158.35)" fill="#050000"/><rect width="4.26" height="5.19" transform="translate(126.98 158.35)" fill="#050000"/><rect width="4.26" height="2.25" transform="translate(133.01 159.82)" fill="#050000"/><rect width="4.26" height="2.25" transform="translate(163.99 159.82)" fill="#050000"/><rect width="4.26" height="5.19" transform="translate(170.57 158.35)" fill="#050000"/><rect width="79.18" height="0.73" transform="translate(111.46 152.14)" fill="#050000"/><rect width="13.7" height="0.73" transform="translate(111.46 160.45)" fill="#050000"/><rect width="14.09" height="1.69" transform="translate(143.08 148.79)" fill="#050000"/><rect width="13.7" height="0.73" transform="translate(176.94 160.58)" fill="#050000"/><path d="M141.87,149c0,.4-.24.71-.53.71s-.52-.31-.52-.71.23-.71.52-.71S141.87,148.59,141.87,149Z" fill="#050000"/><ellipse cx="0.52" cy="0.71" rx="0.52" ry="0.71" transform="translate(162.85 148.27)" fill="#050000"/><path d="M92.14,156.32h10.53L102,158.9H91.67Z" fill="#050000"/><path d="M93.15,153.55h11.13l1.78-1.68H94.22Z" fill="#050000"/><path d="M110.06,150.22H95.66l2.89-1.36,13.25.3Z" fill="#050000"/><path d="M91.73,161.72H102l.54,2.66H92.12Z" fill="#050000"/><path d="M93.36,167.25h10.69l1.82,1.85H94.55Z" fill="#050000"/><path d="M129.87,167.62h8.06V154H120.12S120.4,167.62,129.87,167.62Z" fill="#050000"/><path d="M135.63,155.58H121.98l.17,1.16h13.48Z" fill="#050000" opacity="0.37"/><path d="M135,164.89h-9.19l1.58,1.15h8.24Z" fill="#050000" opacity="0.37"/><path d="M120.13,154.01l28.73-9.03h31.35v9.03Z" fill="#050000"/><rect width="39.64" height="5.52" transform="translate(147.22 140.28)" fill="#050000"/><path d="M192.51,98.35h47a8.86,8.86,0,0,1,8.86,8.86v16.11H192.51Z" fill="#050000"/><rect width="125.97" height="4.23" transform="translate(122.36 123.31)" fill="#050000"/><rect width="61.03" height="4.23" transform="translate(136.68 138.17)" fill="#050000"/><rect width="20.63" height="3.52" transform="translate(118.55 119.79)" fill="#050000"/><rect width="16" height="3.52" transform="translate(139.18 119.79)" fill="#050000"/><path d="M115.94,127.54H248.33v4.22a6.41,6.41,0,0,1-6.41,6.41H122.2a6.26,6.26,0,0,1-6.26-6.26v-4.37Z" fill="#050000"/><path d="M232.29,171.5H150.71c-5.19,0-9.39-5.13-9.39-11.46h0c0-6.33,4.2-10.53,9.39-10.53l31.92-3.21h19.18l30.48,3.13c5.19,0,9.4,4.28,9.4,10.61h0C241.69,166.37,237.48,171.5,232.29,171.5Z" fill="#050000"/><rect width="90.82" height="13.6" rx="6.16" transform="translate(147.47 154.01)" fill="#050000"/><path d="M144.17,160.47c0-5.58,3.82-9.7,8.22-10.2L183.51,145s-10,.23-13.75.51c-7.82.6-27.5,3-27.5,3-5.13.9-8.31,5.22-8.31,12,0,5.57,3.74,12,8.31,12h5.21l5-1.87C147.91,170.6,144.17,166,144.17,160.47Z" fill="#050000"/><rect width="85.46" height="1.94" transform="translate(147.47 170.53)" fill="#050000"/><path d="M233.11,148.52l-.59-.05s-19.44-2.41-27-3.25c-5.27-.24-22-.24-22-.24l-35.92,3.85.23,1.84,35.49-3.51h22.17l27,3.26h.35c5.36.66,8.21,4.52,8.21,10.05s-3.69,10-8.24,10v1.92c5.42,0,9.82-5.37,9.82-12S238.71,149,233.11,148.52Z" fill="#050000"/><path d="M181.61,147.16a1.89,1.89,0,0,0,0,3.65h2.14v-3.65Z" fill="#050000"/><path d="M185,149a1.45,1.45,0,1,1-1.4-1.82A1.65,1.65,0,0,1,185,149Z" fill="#050000"/><path d="M203.64,147.16a1.89,1.89,0,0,0,0,3.65h2.14v-3.65Z" fill="#050000"/><ellipse cx="1.4" cy="1.82" rx="1.4" ry="1.82" transform="translate(204.25 147.16)" fill="#050000"/><rect width="82.84" height="5.19" transform="translate(151.79 158.35)" fill="#050000"/><rect width="4.26" height="5.19" transform="translate(169.25 158.35)" fill="#050000"/><rect width="4.26" height="2.25" transform="translate(175.29 159.82)" fill="#050000"/><rect width="4.26" height="2.25" transform="translate(206.26 159.82)" fill="#050000"/><rect width="4.26" height="5.19" transform="translate(212.85 158.35)" fill="#050000"/><rect width="79.18" height="0.73" transform="translate(153.74 152.14)" fill="#050000"/><rect width="13.7" height="0.73" transform="translate(153.74 160.45)" fill="#050000"/><rect width="14.09" height="1.69" transform="translate(185.36 148.79)" fill="#050000"/><rect width="13.7" height="0.73" transform="translate(219.22 160.58)" fill="#050000"/><path d="M184.15,149c0,.4-.24.71-.53.71s-.52-.31-.52-.71.23-.71.52-.71S184.15,148.59,184.15,149Z" fill="#050000"/><ellipse cx="0.52" cy="0.71" rx="0.52" ry="0.71" transform="translate(205.13 148.27)" fill="#050000"/><path d="M134.41,156.32h10.53l-.66,2.58H133.95Z" fill="#050000"/><path d="M135.42,153.55h11.14l1.78-1.68H136.5Z" fill="#050000"/><path d="M152.34,150.22H137.93l2.9-1.36,13.25.3Z" fill="#050000"/><path d="M134.01,161.72h10.27l.54,2.66H134.4Z" fill="#050000"/><path d="M135.63,167.25h10.69l1.83,1.85H136.83Z" fill="#050000"/><rect width="28.36" height="3.82" transform="translate(18.676 90.127) rotate(-71.52)" fill="#050000"/><path d="M43.89,30.62,32.4,65l-5.7-1.91L38.18,28.72A3,3,0,0,1,42,26.82h0a3,3,0,0,1,1.89,3.8Z" fill="#050000"/><path d="M58.05,111.66a3.38,3.38,0,0,0-4.65-3.14c-5.28,2.14-16.59,7.42-22.42,10.36-10.24,5.16-4.3,14.57,2.92,20l24.15,18.25Z" fill="#050000"/><path d="M33.27,111.66h0a3,3,0,0,1-4.23-.8L19.67,97.11a3.05,3.05,0,0,1,.8-4.24h0a3.06,3.06,0,0,1,4.24.81l9.36,13.75a3,3,0,0,1-.8,4.23Z" fill="#050000"/><rect width="44.52" height="3.79" transform="translate(148.39 119.52)" fill="#050000"/><rect width="16.64" height="1.22" transform="translate(136.68 139.68)" fill="#050000"/><rect width="55.41" height="1.65" transform="translate(192.92 118.08)" fill="#050000" opacity="0.2"/><path d="M36.8,157.13S18,141.34,10.93,135.33c-2.95-2.5-4.45-5.2-4.45-8,0-3.14,1.75-5.9,5.19-8.23,3.27-2.21,6.48-4,6.6-4.06v1.3c-1.13.72-2.76,1.73-5.89,3.85s-4.44,4.52-4.44,7.14c0,2.37,1.33,4.7,3.93,6.91,7.1,6,25.59,22.91,25.59,22.91Z" fill="#050000"/><path d="M47,157.13c-.18-.16-19.4-15.94-26.41-21.88l-.59-.49c-1.72-1.37-4.6-3.68-4.71-7.75a7.76,7.76,0,0,1,4.16-7.25c2.54-1.55,7.57-4.8,7.62-4.82v1.38c-.05,0-4.46,2.76-6.91,4.55s-3.48,3.47-3.41,6.1c.09,3.4,2.54,5.36,4.16,6.65l.63.51c7,6,26,22.86,26.16,23A6.392,6.392,0,0,0,47,157.13Z" fill="#050000"/><path d="M13.28,144.88H41.72l-2.04-1.53H11.4Z" fill="#050000" opacity="0.21"/><path d="M4.76,137.91H32.72l-1.49-1.54H3.26Z" fill="#050000" opacity="0.21"/><path d="M22.89,152.18H51.33l-2.03-1.53H21.02Z" fill="#050000" opacity="0.21"/><path d="M53.2,147a.73.73,0,0,1-.44-.15c-.11-.08-10.8-8.08-15-11.47-2-1.58-5.2-4.77-4.78-8.33.29-2.43,2.22-4.5,5.74-6.17,8.87-4.2,13.85-6.41,13.9-6.44a.732.732,0,1,1,.59,1.34c-.05,0-5,2.23-13.86,6.42-3,1.44-4.69,3.13-4.92,5-.35,3,2.85,5.9,4.25,7,4.17,3.36,14.85,11.36,15,11.44a.73.73,0,0,1,.14,1A.72.72,0,0,1,53.2,147Z" fill="#050000"/><path d="M48.74,156.67l6.1,5.19h5.64l-5.33-5.19Z" fill="#050000"/><path d="M47.18,26.57,45.78,35l-5.67-1a4.26,4.26,0,0,1-3.5-4.9h0a4.26,4.26,0,0,1,4.9-3.5Z" fill="#050000"/><circle cx="1.35" cy="1.35" r="1.35" transform="translate(39.57 28.39)" fill="#050000"/><path d="M41.27,101.4a1.87,1.87,0,0,1-.34,0c-1.39-.24-2.22-1.8-1.94-3.64.94-6.25,2.31-15.32,3.83-25.41C47,44.79,52.11,10.54,53.16,4.24c.36-2.31,1.79-3.14,3-3.14h0a3.57,3.57,0,0,1,3.36,3.16c.1.86.31,2.19.58,3.89.66,4.17,1.67,10.47,2,16.25v.1c-.54,4.26-2.41,11.89-2.43,12-.13.54-13.55,54-14.8,59.66C44.23,100,42.63,101.4,41.27,101.4ZM56.17,2.08c-1.07,0-1.82.84-2,2.31h0c-1,6.28-6.2,40.54-10.34,68.07C42.26,82.55,40.9,91.63,40,97.87c-.22,1.43.41,2.42,1.14,2.54,1,.17,2.29-1.15,2.93-4.48,1.25-5.69,14.67-59.15,14.81-59.69,0-.08,1.85-7.6,2.4-11.82-.37-5.73-1.36-12-2-16.12-.27-1.7-.48-3.05-.59-3.92a2.6,2.6,0,0,0-2.41-2.3Z" fill="#050000" opacity="0.31"/><path d="M48.53,106.84,27,116.32v-8.6a7,7,0,0,1,1.29-4c.62-.87,12.75-6.61,13.73-7.13h0a4.43,4.43,0,0,1,6.49,3.92Z" fill="#050000"/><path d="M45.37,102.77a2.79,2.79,0,0,1-2.51,3,3.05,3.05,0,0,1,0-6,2.79,2.79,0,0,1,2.51,3Z" fill="#050000"/><path d="M34.51,107.8a2.78,2.78,0,0,1-2.51,3,3,3,0,1,1,0-6,2.79,2.79,0,0,1,2.51,3Z" fill="#050000"/><path d="M58.59,4.32a2.29,2.29,0,1,1-.66-1.639,2.29,2.29,0,0,1,.66,1.639Z" fill="#050000"/><path d="M57.59,4.32a1.28,1.28,0,1,1-.364-.935,1.28,1.28,0,0,1,.364.935Z" fill="#050000"/><path d="M122.36,79.77l4.08,34.28a7.67,7.67,0,0,0,7.63,6.33c5.11-.15,8.13-3.91,7.73-8.45l-2.26-49.81c-.54-5.23-2.65-10.61-7.79-12.83L61.14,19.52c-4.52-2.05-8.31-.82-9.94,3.07h0a6.78,6.78,0,0,0,2.2,8.07l59,29.13C120.67,65,120.44,69.91,122.36,79.77Z" fill="#050000"/><path d="M60.69,25.41a3.06,3.06,0,1,1-.9-2.167,3.06,3.06,0,0,1,.9,2.167Z" fill="#050000"/><path d="M131.17,116.93a2.7,2.7,0,0,1-.9-.15c-1.07-.4-1.67-1.53-1.79-3.34-.51-7.51-3.77-32-5.52-42.24-.71-4.22-1.69-10-11.72-14.54C101.83,52.4,70.28,37.75,55,30a5.3,5.3,0,0,1-2.4-6.81c1.44-3.32,5-3.4,7.95-2.35h0c.51.22,51.4,22.33,68.45,29.63,5,2.15,7.72,6.46,8,12.81.47,9.45,1.41,48.62,1.42,49v.2l-.15.15C137.89,113.13,134,116.93,131.17,116.93ZM57.45,21.2a4,4,0,0,0-3.92,2.37,4.3,4.3,0,0,0,1.94,5.55c15.24,7.76,46.76,22.4,56.17,26.65,10.5,4.75,11.57,11.08,12.28,15.27,1.75,10.3,5,34.8,5.53,42.34.09,1.39.49,2.23,1.16,2.49,1.81.68,5.48-2.36,6.93-3.76-.08-3.13-1-39.7-1.41-48.78-.31-6-2.74-9.95-7.45-12-17-7.26-67.34-29.15-68.44-29.62a8.27,8.27,0,0,0-2.79-.51Z" fill="#050000" opacity="0.31"/><path d="M107.77,51.51a2.93,2.93,0,1,1-2.93-2.93A2.93,2.93,0,0,1,107.77,51.51Z" fill="#050000"/><rect width="42.79" height="3.1" transform="translate(106.184 50.907) rotate(66.23)" fill="#050000"/><path d="M131.14,118.53,118.24,88.2l4.5-1.91,12.9,30.33a2.44,2.44,0,0,1-1.3,3.2h0A2.44,2.44,0,0,1,131.14,118.53Z" fill="#050000"/><path d="M106.47,51.51a1.63,1.63,0,1,1-1.63-1.63A1.63,1.63,0,0,1,106.47,51.51Z" fill="#050000"/><rect width="32.76" height="4.23" transform="translate(115.94 123.31)" fill="#050000"/><path d="M115.94,127.54H148.7v4.83a5.8,5.8,0,0,1-5.8,5.8H121.78a5.84,5.84,0,0,1-5.84-5.84Z" fill="#050000"/><rect width="32.76" height="3.79" transform="translate(115.94 119.52)" fill="#050000"/><path d="M22.29,93.93s-1.39.08-2.84,0c-2.13-.26-3-.3-3-.3l1.34-4,5.29,1.77Z" fill="#050000"/><path d="M19.34,96.56h0a2.93,2.93,0,0,1,1.47-3.87L43.27,82.6a2.93,2.93,0,0,1,3.87,1.48h0a2.91,2.91,0,0,1-1.47,3.86L23.21,98a2.93,2.93,0,0,1-3.87-1.44Z" fill="#050000"/><path d="M23.65,95.25a1.25,1.25,0,0,1-1,1.42A1.38,1.38,0,0,1,22.44,94a1.25,1.25,0,0,1,1.21,1.25Z" fill="#050000"/><path d="M45.63,85.34a1.15,1.15,0,1,1-1.22-1.29A1.27,1.27,0,0,1,45.63,85.34Z" fill="#050000"/><path d="M124.6,45.12,92.68,27.33l2.64-4.73,31.92,17.79a2.71,2.71,0,0,1,1,3.68h0A2.72,2.72,0,0,1,124.6,45.12Z" fill="#050000"/><circle cx="1.35" cy="1.35" r="1.35" transform="translate(124.53 41.4)" fill="#050000"/><path d="M234.82,98.35H208.48a8.85,8.85,0,0,1,8.85,8.85v16.11h26.35V107.2A8.86,8.86,0,0,0,234.82,98.35Z" fill="#050000"/><rect width="13.57" height="1.07" transform="translate(226.08 115.45)" fill="#050000"/><rect width="13.57" height="1.07" transform="translate(226.08 112.01)" fill="#050000"/><rect width="13.57" height="1.07" transform="translate(226.08 108.57)" fill="#050000"/><rect width="13.57" height="1.07" transform="translate(226.08 105.13)" fill="#050000"/><path d="M164.93,133.48H155a1.27,1.27,0,0,1,1.26-1.26h7.43a1.27,1.27,0,0,1,1.26,1.26Z" fill="#050000"/><path d="M242.65,133.48h-9.94a1.26,1.26,0,0,1,1.26-1.26h7.42a1.26,1.26,0,0,1,1.26,1.26Z" fill="#050000"/><rect width="1.47" height="19.73" transform="translate(196.98 98.35)" fill="#050000" opacity="0.19"/><rect width="1.47" height="19.73" transform="translate(203.23 98.35)" fill="#050000" opacity="0.19"/><rect width="2.17" height="5.2" transform="translate(214.44 93.14)" fill="#050000" opacity="0.19"/><rect width="16.61" height="3.01" transform="translate(143.34 116.62)" fill="#050000"/><rect width="29.46" height="3.71" transform="translate(163.46 115.93)" fill="#050000"/><path d="M163.71,74.58H142.8s-8.66,24.9-8.66,42h29.32Z" fill="#050000"/><path d="M165.23,74.58h-7.95s-9.25,24.9-9.25,42H165Z" fill="#050000"/><path d="M155.57,78.56c-6.65,22.89-6.74,27.83-7.54,38.06H136.22c0-16.65,7.51-38.06,7.51-38.06Z" fill="#050000"/><path d="M163.59,74.69l29.33-.19v45.14H163.49Z" fill="#050000"/><path d="M157.74,73.18h34.39a1.63,1.63,0,0,1,1.63,1.63V75a1.63,1.63,0,0,1-1.63,1.63H159.24A1.63,1.63,0,0,1,157.62,75V73.31a.13.13,0,0,1,.12-.13Z" transform="translate(351.37 149.81) rotate(180)" fill="#050000"/><rect width="19.76" height="3.44" rx="1.52" transform="translate(140.82 73.19)" fill="#050000"/><path d="M166.74,78.78h14.65V96a2.66,2.66,0,0,1-2.66,2.66h-9.34A2.66,2.66,0,0,1,166.74,96Z" transform="translate(348.12 177.47) rotate(180)" fill="#050000"/><path d="M181.39,100.39v-2.3h-3.81a1.89,1.89,0,0,1-1.89-1.89V78.78h-2V96.15a1.93,1.93,0,0,1-1.94,1.94h-5v2.3a3.11,3.11,0,0,0,3.11,3.11h8.42a3.12,3.12,0,0,0,3.11-3.11Z" fill="#050000"/><rect width="31.12" height="3.71" transform="translate(132.59 115.93)" fill="#050000"/><path d="M163.58,78.56h-4.93s-6.7,18.19-7.52,37.37c3.31.27,9-.2,12.41,0Z" fill="#050000"/><path d="M148.55,110.63H136.5l-.45,5.3,12,.09C148.29,113.87,148.41,112.38,148.55,110.63Z" fill="#050000"/><path d="M163.54,98.13h-4.19a4,4,0,0,0-4,4v5.68a2.83,2.83,0,0,1-2.83,2.82h-1c-.19,1.68-.3,3-.36,5.28l12.36.11Z" fill="#050000"/><path d="M184.95,78.78h5.57V96.66a2,2,0,0,1-2,2H187a2,2,0,0,1-2-2V78.78Z" transform="translate(375.47 177.47) rotate(180)" fill="#050000"/><path d="M190.52,101.42V98.13H185v3.29a2.08,2.08,0,0,0,2,2.08h1.41a2.08,2.08,0,0,0,2.11-2.08Z" fill="#050000"/><path d="M192.92,76.62l-27.69,43.02h3.26l24.43-38.96Z" fill="#050000" opacity="0.23"/><path d="M179.02,76.62,150.25,119.7h12.03l27.27-43.08Z" fill="#050000" opacity="0.23"/><path d="M208.88,119.73h-1V107.44A2.94,2.94,0,0,0,205,104.5H163.5v-1H205a3.92,3.92,0,0,1,3.91,3.91Z" fill="#050000"/><rect width="0.97" height="15.38" transform="translate(194.5 104.35)" fill="#050000"/><rect width="0.97" height="15.38" transform="translate(166.25 104.35)" fill="#050000"/><rect width="0.97" height="15.38" transform="translate(180.31 104.35)" fill="#050000"/></g></g></svg>