
<svg class="benefit-item benefit-item-img ben-8" version="1.1" xmlns="http://www.w3.org/2000/svg" xmlns:xlink="http://www.w3.org/1999/xlink" x="0px" y="0px" viewBox="0 0 681 670.2" xml:space="preserve" width="63" height="62">
            <path d="M43.3,595c0,17.6,14.2,31.8,31.8,31.8c17.6,0,31.8-14.2,31.8-31.8c0-11.4-6.1-21.9-15.9-27.5
                c-4.8-2.8-10.3-4.3-15.9-4.3C57.5,563.2,43.3,577.5,43.3,595L43.3,595z M86.6,595c0,6.4-5.2,11.5-11.5,11.5
                c-6.3,0-11.5-5.2-11.5-11.5c0-6.4,5.1-11.5,11.5-11.5c2,0,4,0.5,5.8,1.5C84.4,587.1,86.6,590.9,86.6,595L86.6,595z"></path>
            <path d="M161.8,626.8c17.6,0,31.8-14.2,31.8-31.8c0-17.6-14.2-31.8-31.8-31.8S130,577.4,130,595c0,0,0,0,0,0
                C130,612.6,144.2,626.8,161.8,626.8z M161.8,583.5c6.4,0,11.5,5.2,11.5,11.5s-5.2,11.5-11.5,11.5s-11.5-5.2-11.5-11.5
                C150.3,588.7,155.4,583.5,161.8,583.5C161.8,583.5,161.8,583.5,161.8,583.5L161.8,583.5z"></path>
            <path d="M248.4,626.8c17.6,0,31.8-14.2,31.8-31.8s-14.2-31.8-31.8-31.8s-31.8,14.2-31.8,31.8
                C216.6,612.6,230.9,626.8,248.4,626.8L248.4,626.8z M248.4,583.5c6.4,0,11.5,5.2,11.5,11.5s-5.2,11.5-11.5,11.5
                c-6.4,0-11.5-5.2-11.5-11.5C236.9,588.7,242,583.5,248.4,583.5C248.4,583.5,248.4,583.5,248.4,583.5L248.4,583.5z"></path>
            <path d="M335.1,626.8c17.6,0,31.8-14.3,31.8-31.8s-14.3-31.8-31.8-31.8c-17.6,0-31.8,14.2-31.8,31.8
                C303.3,612.6,317.5,626.8,335.1,626.8z M335.1,583.5c6.4,0,11.5,5.2,11.5,11.5s-5.2,11.5-11.5,11.5c-6.4,0-11.5-5.2-11.5-11.5
                C323.6,588.7,328.7,583.5,335.1,583.5C335,583.5,335.1,583.5,335.1,583.5L335.1,583.5z"></path>
            <path d="M86,421.1h10.8c5.6,0,10.1-4.5,10.2-10.1c0-5.6-4.5-10.2-10.1-10.2c0,0,0,0-0.1,0H86c-5.6,0-10.2,4.5-10.2,10.1
                c0,0,0,0,0,0C75.8,416.5,80.4,421.1,86,421.1C86,421.1,86,421.1,86,421.1z"></path>
            <path d="M86,453.5h10.8c5.6,0,10.1-4.5,10.2-10.1c0-5.6-4.5-10.2-10.2-10.2c0,0,0,0,0,0H86c-5.6,0-10.2,4.5-10.2,10.1
                c0,0,0,0,0,0C75.8,449,80.4,453.6,86,453.5C86,453.6,86,453.6,86,453.5z"></path>
            <path d="M676.7,351.6L504,25.4c-9.5-21.5-34.7-31.2-56.2-21.7c-7.2,3.2-13.4,8.3-17.9,14.8l0,0.1L264.7,238.7
                c-2.3-0.3-4.6-0.4-6.9-0.5h-74.3c-29.5,0.1-53.4,24-53.4,53.4v65.7H64.3c-17.6,0-31.8,14.3-31.8,31.8v75.8
                c0,17.6,14.3,31.8,31.8,31.8h87.3v23H75.1C33.7,519.9,0.1,553.6,0,595c0,41.5,33.7,75.1,75.1,75.1h259.9c41.5,0,75.1-33.7,75.1-75.2
                c0-41.5-33.6-75.1-75.1-75.1h-76.5v-23h87.3c5.6,0,10.1-4.6,10.1-10.2v-33.2h11.5h0.4h0.6h0.3c0.2,0,0.5-0.1,0.7-0.1l0.5-0.1
                l0.4-0.1l0.3-0.1c0.2-0.1,0.4-0.1,0.6-0.2h0.1c0.6-0.2,1.1-0.6,1.7-0.9l0.4-0.3l0.4-0.3l0.4-0.4l0.3-0.3c0.1-0.1,0.2-0.2,0.3-0.3
                c0.1-0.1,0.3-0.3,0.4-0.4l0.1-0.2c0.2-0.2,0.3-0.4,0.5-0.6l0.2-0.3c0.1-0.2,0.2-0.4,0.3-0.5c0.6-1.1,1-2.2,1.1-3.4
                c0.1-0.5,0.1-0.9,0.1-1.4v-38.9c0-19.1-5.6-37.8-16.3-53.7l-16.1-24.1l111.6-187.3l164.8,244c3.9,6.7,10,11.7,17.3,14.2v16.8l-3-7.4
                c-2.1-5.2-8-7.7-13.2-5.6c0,0,0,0,0,0l-138.7,55.7l-23.9-19.7c-4.3-3.6-10.7-3-14.3,1.4s-3,10.7,1.4,14.3l0,0l74.9,61.8
                c21.2,17.5,50.3,22,75.8,11.8l34.5-13.9c14.4-5.8,24.6-19,26.5-34.4c0.2-0.8,0.3-1.7,0.3-2.6v-78.1c16.6-5.6,25.6-23.6,20-40.2
                C678.7,355.5,677.8,353.5,676.7,351.6L676.7,351.6z M130,476.6H64.3c-6.4,0-11.5-5.2-11.5-11.5v-75.8c0-6.4,5.2-11.5,11.5-11.5H130
                V476.6L130,476.6z M625,494l-34.5,13.9c-18.6,7.5-39.8,4.2-55.3-8.6l-33.2-27.3L621,424.1l16.4,40.8C642,476.4,636.5,489.4,625,494z
                 M465,20.3c8.1,0,15.6,4.4,19.5,11.4c0.1,0.4,0.3,0.8,0.5,1.2l0.6,1.2c2.7,6.5,2.1,14-1.5,20c-0.1,0.1-0.1,0.2-0.2,0.3l-0.4,0.7
                c-6.9,10.2-20.8,12.9-31,5.9c-10.2-6.9-12.9-20.8-5.9-31C450.7,24,457.6,20.3,465,20.3z M335,540.2c30.3,0,54.8,24.6,54.8,54.9
                c0,30.2-24.5,54.8-54.8,54.8H75.1c-30.3,0-54.8-24.6-54.8-54.8c0-30.3,24.6-54.8,54.8-54.8L335,540.2z M171.9,519.9v-23h66.3v23
                H171.9z M335.8,476.6H150.3V291.7c0-14.4,9.3-27.1,23-31.6V406c0,12.1,7.1,23.1,18.2,28c29,12.9,60.4,19.6,92.1,19.5h52.2
                L335.8,476.6L335.8,476.6z M357.4,404.6v28.6h-73.9c-12,0-24-1-35.8-3.1V291.7c0-5.6-4.5-10.2-10.2-10.2c-5.6,0-10.2,4.5-10.2,10.2
                v133.7c-9.5-2.7-18.7-6-27.7-10c-3.7-1.7-6.1-5.3-6.1-9.4V258.6h64.1c11.1,0,21.5,5.5,27.6,14.8l59.2,88.9
                C353,374.8,357.4,389.5,357.4,404.6z M332.9,308.1l-30.6-46c-4.5-6.7-10.4-12.3-17.4-16.4L425.4,58.4c6.5,16.2,22.1,26.9,39.6,26.9
                h0.5L332.9,308.1z M623.1,349.4L468.4,120.2l32.5-54.5c0.3-0.4,0.6-0.9,0.8-1.3L645.4,336C636.4,337.1,628.3,341.9,623.1,349.4
                L623.1,349.4z M649.2,379.1c-6.4,0-11.5-5.1-11.5-11.5c0-6.4,5.1-11.5,11.5-11.5c6.4,0,11.5,5.1,11.5,11.5c0,0,0,0,0,0
                C660.7,373.9,655.5,379.1,649.2,379.1L649.2,379.1z"></path>
        </svg>
