<svg xmlns="http://www.w3.org/2000/svg" xmlns:xlink="http://www.w3.org/1999/xlink" viewBox="0 0 62.98 22.85"><defs><style>.cls-1,.cls-100,.cls-101,.cls-102,.cls-103,.cls-104,.cls-105,.cls-106,.cls-107,.cls-108,.cls-109,.cls-110,.cls-111,.cls-112,.cls-113,.cls-114,.cls-115,.cls-116,.cls-117,.cls-12,.cls-16,.cls-17,.cls-18,.cls-19,.cls-20,.cls-22,.cls-23,.cls-24,.cls-25,.cls-26,.cls-27,.cls-28,.cls-29,.cls-30,.cls-31,.cls-32,.cls-33,.cls-34,.cls-36,.cls-37,.cls-38,.cls-39,.cls-4,.cls-40,.cls-41,.cls-42,.cls-43,.cls-45,.cls-47,.cls-48,.cls-49,.cls-50,.cls-51,.cls-52,.cls-53,.cls-54,.cls-55,.cls-56,.cls-57,.cls-58,.cls-59,.cls-60,.cls-61,.cls-62,.cls-63,.cls-64,.cls-65,.cls-66,.cls-67,.cls-68,.cls-69,.cls-70,.cls-71,.cls-72,.cls-73,.cls-74,.cls-75,.cls-76,.cls-77,.cls-78,.cls-79,.cls-80,.cls-81,.cls-82,.cls-83,.cls-84,.cls-85,.cls-86,.cls-87,.cls-88,.cls-89,.cls-9,.cls-90,.cls-91,.cls-92,.cls-93,.cls-94,.cls-95,.cls-96,.cls-97,.cls-98,.cls-99{fill-rule:evenodd;}.cls-1{fill:url(#GradientFill_2);}.cls-2{fill:url(#GradientFill_4);}.cls-3{fill:url(#GradientFill_4-2);}.cls-4{fill:url(#GradientFill_5);}.cls-5{fill:url(#GradientFill_35);}.cls-6{fill:url(#GradientFill_34);}.cls-7{fill:url(#GradientFill_6);}.cls-116,.cls-8{fill:#f4e8c3;}.cls-9{fill:url(#GradientFill_5-2);}.cls-10{fill:url(#GradientFill_34-2);}.cls-11{fill:url(#GradientFill_6-2);}.cls-12{fill:url(#GradientFill_5-3);}.cls-13,.cls-24{fill:#b7924c;}.cls-14{fill:url(#GradientFill_34-3);}.cls-15{fill:url(#GradientFill_6-3);}.cls-16{fill:url(#GradientFill_5-4);}.cls-17{fill:#5d6567;}.cls-18{fill:url(#GradientFill_8);}.cls-19{fill:url(#GradientFill_9);}.cls-20,.cls-46{fill:#231f20;}.cls-21{fill:url(#GradientFill_6-4);}.cls-22{fill:url(#GradientFill_5-5);}.cls-23{fill:url(#GradientFill_7);}.cls-25{fill:url(#GradientFill_5-6);}.cls-26{fill:#313838;}.cls-27{fill:url(#GradientFill_7-2);}.cls-28{fill:#c7cbd5;}.cls-29{fill:url(#GradientFill_5-7);}.cls-30{fill:url(#GradientFill_7-3);}.cls-31{fill:url(#GradientFill_5-8);}.cls-32{fill:url(#GradientFill_7-4);}.cls-33{fill:url(#GradientFill_7-5);}.cls-34{fill:url(#GradientFill_5-9);}.cls-35{fill:url(#GradientFill_7-6);}.cls-36{fill:url(#GradientFill_7-7);}.cls-37{fill:url(#GradientFill_5-10);}.cls-38{fill:url(#GradientFill_7-8);}.cls-39{fill:url(#GradientFill_7-9);}.cls-40{fill:url(#GradientFill_5-11);}.cls-41{fill:url(#GradientFill_7-10);}.cls-42{fill:url(#GradientFill_7-11);}.cls-43{fill:url(#GradientFill_5-12);}.cls-44{fill:url(#GradientFill_7-12);}.cls-45{fill:url(#GradientFill_5-13);}.cls-47{fill:url(#GradientFill_5-14);}.cls-48{fill:url(#GradientFill_5-15);}.cls-49{fill:url(#GradientFill_5-16);}.cls-50{fill:url(#GradientFill_5-17);}.cls-51{fill:url(#GradientFill_5-18);}.cls-52{fill:url(#GradientFill_5-19);}.cls-53{fill:url(#GradientFill_5-20);}.cls-54{fill:url(#GradientFill_5-21);}.cls-55{fill:url(#GradientFill_5-22);}.cls-56{fill:url(#GradientFill_5-23);}.cls-57{fill:url(#GradientFill_5-24);}.cls-58{fill:url(#GradientFill_5-25);}.cls-59{fill:url(#GradientFill_5-26);}.cls-60{fill:url(#GradientFill_5-27);}.cls-61{fill:url(#GradientFill_5-28);}.cls-62{fill:url(#GradientFill_5-29);}.cls-63{fill:url(#GradientFill_5-30);}.cls-64{fill:url(#GradientFill_5-31);}.cls-65{fill:url(#GradientFill_5-32);}.cls-66{fill:url(#GradientFill_5-33);}.cls-67{fill:url(#GradientFill_5-34);}.cls-68{fill:url(#GradientFill_5-35);}.cls-69{fill:url(#GradientFill_5-36);}.cls-70{fill:url(#GradientFill_5-37);}.cls-71{fill:url(#GradientFill_5-38);}.cls-72{fill:url(#GradientFill_5-39);}.cls-73{fill:url(#GradientFill_5-40);}.cls-74{fill:url(#GradientFill_5-41);}.cls-75{fill:url(#GradientFill_5-42);}.cls-76{fill:url(#GradientFill_5-43);}.cls-77{fill:url(#GradientFill_5-44);}.cls-78{fill:url(#GradientFill_5-45);}.cls-79{fill:url(#GradientFill_5-46);}.cls-80{fill:url(#GradientFill_5-47);}.cls-81{fill:url(#GradientFill_5-48);}.cls-82{fill:url(#GradientFill_5-49);}.cls-83{fill:url(#GradientFill_5-50);}.cls-84{fill:url(#GradientFill_5-51);}.cls-85{fill:url(#GradientFill_5-52);}.cls-86{fill:url(#GradientFill_5-53);}.cls-87{fill:url(#GradientFill_5-54);}.cls-88{fill:url(#GradientFill_5-55);}.cls-89{fill:url(#GradientFill_5-56);}.cls-90{fill:url(#GradientFill_5-57);}.cls-91{fill:url(#GradientFill_5-58);}.cls-92{fill:url(#GradientFill_5-59);}.cls-93{fill:url(#GradientFill_5-60);}.cls-94{fill:url(#GradientFill_5-61);}.cls-95{fill:url(#GradientFill_5-62);}.cls-96{fill:url(#GradientFill_5-63);}.cls-97{fill:url(#GradientFill_5-64);}.cls-98{fill:url(#GradientFill_5-65);}.cls-99{fill:url(#GradientFill_5-66);}.cls-100{fill:url(#GradientFill_5-67);}.cls-101{fill:url(#GradientFill_5-68);}.cls-102{fill:url(#GradientFill_5-69);}.cls-103{fill:url(#GradientFill_5-70);}.cls-104{fill:url(#GradientFill_5-71);}.cls-105{fill:url(#GradientFill_5-72);}.cls-106{fill:url(#GradientFill_5-73);}.cls-107{fill:url(#GradientFill_5-74);}.cls-108{fill:url(#GradientFill_5-75);}.cls-109{fill:url(#GradientFill_5-76);}.cls-110{fill:url(#GradientFill_5-77);}.cls-111{fill:url(#GradientFill_5-78);}.cls-112{fill:url(#GradientFill_5-79);}.cls-113{fill:url(#GradientFill_5-80);}.cls-114{fill:url(#GradientFill_5-81);}.cls-115{fill:url(#GradientFill_6-5);}.cls-117{fill:url(#GradientFill_5-82);}</style><linearGradient id="GradientFill_2" x1="31.53" y1="24.23" x2="31.53" y2="4.77" gradientUnits="userSpaceOnUse"><stop offset="0" stop-color="#d3d5da"/><stop offset="1" stop-color="#fff"/></linearGradient><linearGradient id="GradientFill_4" x1="21.64" y1="16.38" x2="13.11" y2="16.38" gradientUnits="userSpaceOnUse"><stop offset="0" stop-color="#fff"/><stop offset="0.18" stop-color="#bdbebf"/><stop offset="0.2" stop-color="#fff"/><stop offset="0.36" stop-color="#efeeef"/><stop offset="0.55" stop-color="#efeeef"/><stop offset="0.59" stop-color="#898c8f"/><stop offset="0.85" stop-color="#585e5f"/><stop offset="0.91" stop-color="#cf8e37"/><stop offset="1" stop-color="#f5e9bc"/></linearGradient><linearGradient id="GradientFill_4-2" x1="22.27" y1="15.31" x2="12.5" y2="15.31" xlink:href="#GradientFill_4"/><linearGradient id="GradientFill_5" x1="51.74" y1="8.94" x2="47.68" y2="34.63" gradientUnits="userSpaceOnUse"><stop offset="0" stop-color="#fad51c"/><stop offset="1" stop-color="#efb62d"/></linearGradient><linearGradient id="GradientFill_35" x1="17.56" y1="18.63" x2="17.56" y2="15.82" gradientUnits="userSpaceOnUse"><stop offset="0" stop-color="#cf8e37"/><stop offset="1" stop-color="#966535"/></linearGradient><linearGradient id="GradientFill_34" x1="48.61" y1="17.64" x2="48.75" y2="18.03" gradientUnits="userSpaceOnUse"><stop offset="0" stop-color="#797f81"/><stop offset="1" stop-color="#fff"/></linearGradient><linearGradient id="GradientFill_6" x1="52.46" y1="16.97" x2="52.04" y2="15.85" gradientUnits="userSpaceOnUse"><stop offset="0" stop-color="#595f60"/><stop offset="1"/></linearGradient><linearGradient id="GradientFill_5-2" x1="42.95" y1="0.12" x2="37.73" y2="24.69" xlink:href="#GradientFill_5"/><linearGradient id="GradientFill_34-2" x1="51.52" y1="5.78" x2="51.68" y2="5.37" xlink:href="#GradientFill_34"/><linearGradient id="GradientFill_6-2" x1="47.81" y1="3.68" x2="47.42" y2="4.83" xlink:href="#GradientFill_6"/><linearGradient id="GradientFill_5-3" x1="44.05" y1="0.08" x2="40.93" y2="14.78" xlink:href="#GradientFill_5"/><linearGradient id="GradientFill_34-3" x1="27.4" y1="8.46" x2="27.04" y2="8.1" xlink:href="#GradientFill_34"/><linearGradient id="GradientFill_6-3" x1="24.74" y1="10.29" x2="25.57" y2="11.04" xlink:href="#GradientFill_6"/><linearGradient id="GradientFill_5-4" x1="14.49" y1="-0.38" x2="10.27" y2="34" xlink:href="#GradientFill_5"/><linearGradient id="GradientFill_8" x1="19.76" y1="0.13" x2="19.76" y2="6.01" gradientUnits="userSpaceOnUse"><stop offset="0" stop-color="#aaa"/><stop offset="1" stop-color="#fff"/></linearGradient><linearGradient id="GradientFill_9" x1="19.76" y1="8.23" x2="19.76" y2="5.33" gradientUnits="userSpaceOnUse"><stop offset="0" stop-color="#c2c0bf"/><stop offset="1" stop-color="#777b7a"/></linearGradient><linearGradient id="GradientFill_6-4" x1="16.93" y1="19.45" x2="16.93" y2="21.87" xlink:href="#GradientFill_6"/><linearGradient id="GradientFill_5-5" x1="6.21" y1="16.82" x2="6.21" y2="21.96" xlink:href="#GradientFill_5"/><linearGradient id="GradientFill_7" x1="5.91" y1="25.38" x2="6.36" y2="16.74" gradientUnits="userSpaceOnUse"><stop offset="0" stop-color="#fad51c"/><stop offset="1" stop-color="#fff"/></linearGradient><linearGradient id="GradientFill_5-6" x1="6.21" y1="17.69" x2="6.21" y2="21.19" xlink:href="#GradientFill_5"/><linearGradient id="GradientFill_7-2" x1="6.11" y1="21.56" x2="6.26" y2="18.57" xlink:href="#GradientFill_7"/><linearGradient id="GradientFill_5-7" x1="28.3" y1="16.82" x2="28.3" y2="21.96" xlink:href="#GradientFill_5"/><linearGradient id="GradientFill_7-3" x1="28" y1="25.38" x2="28.45" y2="16.74" xlink:href="#GradientFill_7"/><linearGradient id="GradientFill_5-8" x1="28.31" y1="17.69" x2="28.31" y2="21.19" xlink:href="#GradientFill_5"/><linearGradient id="GradientFill_7-4" x1="28.2" y1="21.56" x2="28.36" y2="18.57" xlink:href="#GradientFill_7"/><linearGradient id="GradientFill_7-5" x1="21.77" y1="23.65" x2="22" y2="19.31" xlink:href="#GradientFill_7"/><linearGradient id="GradientFill_5-9" x1="21.93" y1="19.79" x2="21.93" y2="21.55" xlink:href="#GradientFill_5"/><linearGradient id="GradientFill_7-6" x1="21.87" y1="21.73" x2="21.95" y2="20.23" xlink:href="#GradientFill_7"/><linearGradient id="GradientFill_7-7" x1="18.67" y1="23.65" x2="18.9" y2="19.31" xlink:href="#GradientFill_7"/><linearGradient id="GradientFill_5-10" x1="18.83" y1="19.79" x2="18.83" y2="21.55" xlink:href="#GradientFill_5"/><linearGradient id="GradientFill_7-8" x1="18.77" y1="21.73" x2="18.85" y2="20.23" xlink:href="#GradientFill_7"/><linearGradient id="GradientFill_7-9" x1="15.51" y1="23.65" x2="15.74" y2="19.31" xlink:href="#GradientFill_7"/><linearGradient id="GradientFill_5-11" x1="15.66" y1="19.79" x2="15.66" y2="21.55" xlink:href="#GradientFill_5"/><linearGradient id="GradientFill_7-10" x1="15.61" y1="21.73" x2="15.69" y2="20.23" xlink:href="#GradientFill_7"/><linearGradient id="GradientFill_7-11" x1="12.37" y1="23.65" x2="12.59" y2="19.31" xlink:href="#GradientFill_7"/><linearGradient id="GradientFill_5-12" x1="12.52" y1="19.79" x2="12.52" y2="21.55" xlink:href="#GradientFill_5"/><linearGradient id="GradientFill_7-12" x1="12.47" y1="21.73" x2="12.55" y2="20.23" xlink:href="#GradientFill_7"/><linearGradient id="GradientFill_5-13" x1="17.36" y1="18.2" x2="17.36" y2="20.93" xlink:href="#GradientFill_5"/><linearGradient id="GradientFill_5-14" x1="11.12" y1="21.97" x2="11.12" y2="22.82" xlink:href="#GradientFill_5"/><linearGradient id="GradientFill_5-15" x1="12" y1="21.97" x2="12" y2="22.82" xlink:href="#GradientFill_5"/><linearGradient id="GradientFill_5-16" x1="12.89" y1="21.97" x2="12.89" y2="22.82" xlink:href="#GradientFill_5"/><linearGradient id="GradientFill_5-17" x1="13.78" y1="21.97" x2="13.78" y2="22.82" xlink:href="#GradientFill_5"/><linearGradient id="GradientFill_5-18" x1="14.66" y1="21.97" x2="14.66" y2="22.82" xlink:href="#GradientFill_5"/><linearGradient id="GradientFill_5-19" x1="15.55" y1="21.97" x2="15.55" y2="22.82" xlink:href="#GradientFill_5"/><linearGradient id="GradientFill_5-20" x1="16.43" y1="21.97" x2="16.43" y2="22.82" xlink:href="#GradientFill_5"/><linearGradient id="GradientFill_5-21" x1="17.32" y1="21.97" x2="17.32" y2="22.82" xlink:href="#GradientFill_5"/><linearGradient id="GradientFill_5-22" x1="18.2" y1="21.97" x2="18.2" y2="22.82" xlink:href="#GradientFill_5"/><linearGradient id="GradientFill_5-23" x1="19.09" y1="21.97" x2="19.09" y2="22.82" xlink:href="#GradientFill_5"/><linearGradient id="GradientFill_5-24" x1="19.97" y1="21.97" x2="19.97" y2="22.82" xlink:href="#GradientFill_5"/><linearGradient id="GradientFill_5-25" x1="20.86" y1="21.97" x2="20.86" y2="22.82" xlink:href="#GradientFill_5"/><linearGradient id="GradientFill_5-26" x1="21.75" y1="21.97" x2="21.75" y2="22.82" xlink:href="#GradientFill_5"/><linearGradient id="GradientFill_5-27" x1="22.63" y1="21.97" x2="22.63" y2="22.82" xlink:href="#GradientFill_5"/><linearGradient id="GradientFill_5-28" x1="23.52" y1="21.97" x2="23.52" y2="22.82" xlink:href="#GradientFill_5"/><linearGradient id="GradientFill_5-29" x1="24.4" y1="21.97" x2="24.4" y2="22.82" xlink:href="#GradientFill_5"/><linearGradient id="GradientFill_5-30" x1="25.29" y1="21.97" x2="25.29" y2="22.82" xlink:href="#GradientFill_5"/><linearGradient id="GradientFill_5-31" x1="26.17" y1="21.97" x2="26.17" y2="22.82" xlink:href="#GradientFill_5"/><linearGradient id="GradientFill_5-32" x1="27.06" y1="21.97" x2="27.06" y2="22.82" xlink:href="#GradientFill_5"/><linearGradient id="GradientFill_5-33" x1="27.94" y1="21.97" x2="27.94" y2="22.82" xlink:href="#GradientFill_5"/><linearGradient id="GradientFill_5-34" x1="5.12" y1="21.76" x2="4.72" y2="22.53" xlink:href="#GradientFill_5"/><linearGradient id="GradientFill_5-35" x1="5.86" y1="21.94" x2="5.73" y2="22.79" xlink:href="#GradientFill_5"/><linearGradient id="GradientFill_5-36" x1="6.7" y1="21.97" x2="6.7" y2="22.82" xlink:href="#GradientFill_5"/><linearGradient id="GradientFill_5-37" x1="7.59" y1="21.97" x2="7.59" y2="22.82" xlink:href="#GradientFill_5"/><linearGradient id="GradientFill_5-38" x1="8.47" y1="21.97" x2="8.47" y2="22.82" xlink:href="#GradientFill_5"/><linearGradient id="GradientFill_5-39" x1="9.36" y1="21.97" x2="9.36" y2="22.82" xlink:href="#GradientFill_5"/><linearGradient id="GradientFill_5-40" x1="10.24" y1="21.97" x2="10.24" y2="22.82" xlink:href="#GradientFill_5"/><linearGradient id="GradientFill_5-41" x1="4.41" y1="21.17" x2="3.72" y2="21.66" xlink:href="#GradientFill_5"/><linearGradient id="GradientFill_5-42" x1="3.98" y1="20.46" x2="3.16" y2="20.72" xlink:href="#GradientFill_5"/><linearGradient id="GradientFill_5-43" x1="3.98" y1="18.9" x2="3.17" y2="18.64" xlink:href="#GradientFill_5"/><linearGradient id="GradientFill_5-44" x1="3.84" y1="19.68" x2="2.98" y2="19.62" xlink:href="#GradientFill_5"/><linearGradient id="GradientFill_5-45" x1="4.35" y1="18.11" x2="3.65" y2="17.6" xlink:href="#GradientFill_5"/><linearGradient id="GradientFill_5-46" x1="4.84" y1="17.58" x2="4.38" y2="16.85" xlink:href="#GradientFill_5"/><linearGradient id="GradientFill_5-47" x1="5.53" y1="17.25" x2="5.33" y2="16.42" xlink:href="#GradientFill_5"/><linearGradient id="GradientFill_5-48" x1="6.3" y1="17.17" x2="6.3" y2="16.31" xlink:href="#GradientFill_5"/><linearGradient id="GradientFill_5-49" x1="7.18" y1="17.17" x2="7.18" y2="16.31" xlink:href="#GradientFill_5"/><linearGradient id="GradientFill_5-50" x1="8.06" y1="17.17" x2="8.06" y2="16.31" xlink:href="#GradientFill_5"/><linearGradient id="GradientFill_5-51" x1="8.95" y1="17.17" x2="8.95" y2="16.31" xlink:href="#GradientFill_5"/><linearGradient id="GradientFill_5-52" x1="9.83" y1="17.17" x2="9.83" y2="16.31" xlink:href="#GradientFill_5"/><linearGradient id="GradientFill_5-53" x1="10.72" y1="17.17" x2="10.72" y2="16.31" xlink:href="#GradientFill_5"/><linearGradient id="GradientFill_5-54" x1="11.6" y1="17.17" x2="11.6" y2="16.31" xlink:href="#GradientFill_5"/><linearGradient id="GradientFill_5-55" x1="12.49" y1="17.17" x2="12.49" y2="16.31" xlink:href="#GradientFill_5"/><linearGradient id="GradientFill_5-56" x1="13.37" y1="17.17" x2="13.37" y2="16.31" xlink:href="#GradientFill_5"/><linearGradient id="GradientFill_5-57" x1="14.26" y1="17.17" x2="14.26" y2="16.31" xlink:href="#GradientFill_5"/><linearGradient id="GradientFill_5-58" x1="15.14" y1="17.17" x2="15.14" y2="16.31" xlink:href="#GradientFill_5"/><linearGradient id="GradientFill_5-59" x1="16.03" y1="17.17" x2="16.03" y2="16.31" xlink:href="#GradientFill_5"/><linearGradient id="GradientFill_5-60" x1="16.91" y1="17.17" x2="16.91" y2="16.31" xlink:href="#GradientFill_5"/><linearGradient id="GradientFill_5-61" x1="17.8" y1="17.17" x2="17.8" y2="16.31" xlink:href="#GradientFill_5"/><linearGradient id="GradientFill_5-62" x1="18.68" y1="17.17" x2="18.68" y2="16.31" xlink:href="#GradientFill_5"/><linearGradient id="GradientFill_5-63" x1="19.57" y1="17.17" x2="19.57" y2="16.31" xlink:href="#GradientFill_5"/><linearGradient id="GradientFill_5-64" x1="20.45" y1="17.17" x2="20.45" y2="16.31" xlink:href="#GradientFill_5"/><linearGradient id="GradientFill_5-65" x1="21.33" y1="17.17" x2="21.33" y2="16.31" xlink:href="#GradientFill_5"/><linearGradient id="GradientFill_5-66" x1="22.22" y1="17.17" x2="22.22" y2="16.31" xlink:href="#GradientFill_5"/><linearGradient id="GradientFill_5-67" x1="23.1" y1="17.17" x2="23.1" y2="16.31" xlink:href="#GradientFill_5"/><linearGradient id="GradientFill_5-68" x1="23.99" y1="17.17" x2="23.99" y2="16.31" xlink:href="#GradientFill_5"/><linearGradient id="GradientFill_5-69" x1="24.87" y1="17.17" x2="24.87" y2="16.31" xlink:href="#GradientFill_5"/><linearGradient id="GradientFill_5-70" x1="25.76" y1="17.17" x2="25.76" y2="16.31" xlink:href="#GradientFill_5"/><linearGradient id="GradientFill_5-71" x1="26.64" y1="17.17" x2="26.64" y2="16.31" xlink:href="#GradientFill_5"/><linearGradient id="GradientFill_5-72" x1="27.53" y1="17.17" x2="27.53" y2="16.31" xlink:href="#GradientFill_5"/><linearGradient id="GradientFill_5-73" x1="28.41" y1="17.17" x2="28.41" y2="16.31" xlink:href="#GradientFill_5"/><linearGradient id="GradientFill_5-74" x1="29.19" y1="17.36" x2="29.61" y2="16.6" xlink:href="#GradientFill_5"/><linearGradient id="GradientFill_5-75" x1="29.9" y1="17.95" x2="30.6" y2="17.46" xlink:href="#GradientFill_5"/><linearGradient id="GradientFill_5-76" x1="30.33" y1="18.65" x2="31.16" y2="18.41" xlink:href="#GradientFill_5"/><linearGradient id="GradientFill_5-77" x1="30.34" y1="20.23" x2="31.16" y2="20.47" xlink:href="#GradientFill_5"/><linearGradient id="GradientFill_5-78" x1="30.48" y1="19.45" x2="31.34" y2="19.49" xlink:href="#GradientFill_5"/><linearGradient id="GradientFill_5-79" x1="29.97" y1="21.02" x2="30.67" y2="21.52" xlink:href="#GradientFill_5"/><linearGradient id="GradientFill_5-80" x1="29.47" y1="21.54" x2="29.94" y2="22.27" xlink:href="#GradientFill_5"/><linearGradient id="GradientFill_5-81" x1="28.79" y1="21.88" x2="28.99" y2="22.7" xlink:href="#GradientFill_5"/><linearGradient id="GradientFill_6-5" x1="41.7" y1="17.86" x2="37.54" y2="19.8" xlink:href="#GradientFill_6"/><linearGradient id="GradientFill_5-82" x1="33.18" y1="2.1" x2="33.18" y2="3.43" xlink:href="#GradientFill_5"/></defs><g id="Layer_2" data-name="Layer 2"><g id="Layer_1-2" data-name="Layer 1"><path class="cls-1" d="M38.77,21.76l2.8-1.45s-.15-.4.6-.52l1.75-.27-.16-.15-2.8.26c-1.33.12-3.88,0-5.33.22s-2.08.68-1.16,1.08l.94.42-1,.47,4.36,1,1.08-.41,6-.68a1.76,1.76,0,0,0,.64.05l11.95-1.37c.43-.05.48-.23.1-.3l1.6-.17s1.77-.48,2.36-.66.63-.39.3-.46l.06,0a3.54,3.54,0,0,0-.92,0L54.8,18c0-.08-.15-.15-.41-.18l-2-.21.1-.09s-11.28-1.23-12-1.27-1.18-.07-2.1-.07-3.72-.06-3.72-.06l-.17.06a30.72,30.72,0,0,0-5.56.15l-3.5.76-.6-.6A3.38,3.38,0,0,0,23,16H14.17a3.93,3.93,0,0,0-1.65.29,6,6,0,0,0-.68,1.62h-.09c-.82,0-7.08-.05-8.85,0s-2.82.22-2.82.64v2H12.4v.14H13v.09H5.84v.16H5.67l0-.05-.3,0,0,0-.32,0h0l-.31.05L4.64,21l-.27.05.1.05-.27,0h0L4,21.23l-.15,0-.18.08.13,0a2.43,2.43,0,0,0-.4.21H3.24l-.1.09h.11a.5.5,0,0,0-.12.19H3l0,.09h.15V22h0a.75.75,0,0,0,.07.12H3l.09.09h.16l.12.09h0a1.2,1.2,0,0,0,.2.11l-.11,0,.18.08.11,0,.7.2-.08,0,.28.05.07,0,.65.08,0,0,.31,0v0h.65v0h.32v0h.57v0h.32v0h.56v0h.32v0H9v0h.32v0h.57v0h.31v0h.56v0h.32v0h.57v0H12v0h.56v0h.32v0h.57v0h.32v0h.56v0h.32v0h.57v0h.32v0h.56v0h.32v0H17v0h.32v0h.57v0h.31v0h.57v0h.32v0h.57v0H20v0h.56v0h.32v0h.57v0h.32v0h.56v0h.32v0h.57v0h.32v0h.57v0h.31v0H25v0h.32v0h.57v0h.31v0h.57v0h.32v0h.57v0h.32v0h.73v0l.31,0,0,0,.65-.08.06,0,.26-.05-.06,0,.53-.15.1,0,.18-.07-.09,0a1.84,1.84,0,0,0,.38-.21h.1l.1-.09h-.1a.37.37,0,0,0,.11-.2h.15l0-.1H31.2v-.1h0l-.08-.12h.18l-.08-.09H31l-.09-.09h-.05l-.2-.1.15,0-.18-.08-.16,0-.19-.08h0l-.47-.11L29.9,21l-.28,0-.09.05-.24,0v-.21H21.58v-.09h.63v-.14h3a2.74,2.74,0,0,0,.62-.36.18.18,0,0,0,.11,0c.15,0,.16-.07,0-.07l.44-.64a1.27,1.27,0,0,0,.05-.43c3.2-1,3.7-1.67,9.55-1.21l17.67,1.42C48.83,20,39.79,21.58,38.77,21.76Z"/><rect class="cls-2" x="13.03" y="15.42" width="8.55" height="1.92"/><rect class="cls-3" x="12.4" y="15.02" width="9.81" height="0.59"/><path class="cls-4" d="M61.81,9.37a21.93,21.93,0,0,0-5.31.11c-1.77.44-17.77,9.85-17.77,9.85l.18,1.22L60.11,13s1.77-1.58,2.36-2.21.63-1.29.3-1.51S61.81,9.37,61.81,9.37Z"/><rect class="cls-5" x="5.84" y="15.9" width="23.45" height="2.51"/><path class="cls-6" d="M58.27,14.23a.16.16,0,0,0,.1-.22.17.17,0,0,0-.22-.1L39,21.26a.17.17,0,0,0,.12.32Z"/><path class="cls-7" d="M58.41,14.6a.57.57,0,1,0-.4-1.06l-12,4.6a.55.55,0,0,0-.32.72.57.57,0,0,0,.73.33Z"/><path class="cls-8" d="M62.83,9.21c-.34-.23-.9,0-1,0a21.62,21.62,0,0,0-5.32.11c-1.78.45-17.75,9.85-17.8,9.87l-.06,0v.07l.18,1.22.22,0-.18-1.15c1.08-.63,16-9.38,17.68-9.81a22.05,22.05,0,0,1,5.28-.1h0l0,0s.57-.26.85-.08Z"/><path class="cls-9" d="M25.47,3.73A34.83,34.83,0,0,1,29,1.18c1.7-1,5.57-1.15,10.58,1S56.17,9,56.17,9l1.36,1.15-.59,1-2.73-.36L36,5.86a14.59,14.59,0,0,0-9.77,1.59A29.47,29.47,0,0,0,25.47,3.73Z"/><path class="cls-10" d="M41.09,1.75a.21.21,0,0,0-.25.11A.19.19,0,0,0,41,2.1L62,9.65a.19.19,0,1,0,.12-.36Z"/><path class="cls-11" d="M41.23,1.35a.62.62,0,0,0-.79.37.62.62,0,0,0,.37.79L54,7.22a.62.62,0,1,0,.42-1.16Z"/><path class="cls-12" d="M52.54,5,52,6.74,40.57,2.65,34.37.7l.3-.34s2.79.22,3.72.22a9.09,9.09,0,0,1,2.1.22C41.26,1,52.54,5,52.54,5Z"/><path class="cls-8" d="M25.54,3.82c.49-.4,1.11-.88,1.73-1.34a18.25,18.25,0,0,1,1.78-1.21A7.77,7.77,0,0,1,33.52.64a20.38,20.38,0,0,1,6,1.63c4.91,2.1,16.11,6.6,16.58,6.79l1.35,1.13L57.6,10,56.24,8.88h0S44.64,4.21,39.62,2.07A20.58,20.58,0,0,0,33.54.43h0a8,8,0,0,0-4.6.65c-.53.31-1.17.76-1.8,1.22s-1.24,1-1.73,1.35Z"/><path class="cls-13" d="M57,11l-2.71-.36L36,5.76a12.55,12.55,0,0,0-5-.07,13.45,13.45,0,0,0-4.83,1.67l.12.18A13.32,13.32,0,0,1,31,5.9,12.42,12.42,0,0,1,36,6c2.77.73,18.17,4.89,18.21,4.91h0l2.72.36Z"/><path class="cls-14" d="M21.48,14.4a.15.15,0,0,0,0,.2.14.14,0,0,0,.2,0L33.16,2.36a.14.14,0,1,0-.2-.2Z"/><path class="cls-15" d="M21.25,14.18a.47.47,0,0,0,0,.66.48.48,0,0,0,.66,0l7.17-7.65a.46.46,0,0,0,0-.66.47.47,0,0,0-.65,0Z"/><path class="cls-16" d="M25.19,15.14H.08V8.59c0-1.41.92-2,2.82-2.15s8.94,0,8.94,0,.4-4.65.68-5.48,1.66-1,1.66-1H23a2,2,0,0,1,1.85,1.6C26.08,5.32,27.51,11.71,25.19,15.14Z"/><path class="cls-17" d="M12.88.46A2.9,2.9,0,0,1,14.18,0H23a2,2,0,0,1,1.85,1.6c1.08,3.26,2.31,8.55,1.05,12.12l-13-4.43Z"/><path class="cls-18" d="M15,1h1.69v6.7H13.9V2c0-.75.29-.89,1.1-1Zm2.52,0h5a1.7,1.7,0,0,1,1.57,1.36,24.56,24.56,0,0,1,1.55,8.41L17.52,7.73Z"/><path class="cls-19" d="M16.69,5.34V7.73H13.9V5.34Zm8.26,0H17.52V7.73l8.09,3.07A19,19,0,0,0,25,5.34Z"/><path class="cls-20" d="M16.69,6.14V7.73h-.53l.07-1.57.46,0ZM25.31,7c-.23.19-1,.82-1.24,1s-.64.37-.64.37l-.5-1.89-.78.2.17.64-.41.24-.47.27.48.84-.8.45,4.49,1.71a16.08,16.08,0,0,0-.3-3.8Zm-7,1c-.14-.8-.32-1.77-.36-1.82a1,1,0,0,0-.39-.05V7.73Z"/><path class="cls-8" d="M11.83,6.58a.11.11,0,0,0-.11-.11.1.1,0,0,0-.1.11v7.13H.11a.11.11,0,0,0-.11.11.1.1,0,0,0,.11.1h25.7a.1.1,0,0,0,.11-.1.11.11,0,0,0-.11-.11h-14Z"/><path class="cls-13" d="M25.93,13.83a.11.11,0,0,0,.11-.11.1.1,0,0,0-.11-.1H.23a.1.1,0,0,0-.11.1.11.11,0,0,0,.11.11Z"/><path class="cls-13" d="M12,6.49a.1.1,0,0,0-.1-.11.11.11,0,0,0-.11.11v7.23a.11.11,0,0,0,.11.11.1.1,0,0,0,.1-.11Z"/><rect class="cls-21" x="4.75" y="17.47" width="24.35" height="4.42"/><path class="cls-22" d="M7.7,17.41l-.4-.23-.17.31.4.23.17-.31ZM4.09,18l-.24.4.31.17.23-.4L4.09,18Zm1-.86-.4.23.18.3.4-.23-.18-.3ZM6.44,17H6v.35h.46V17ZM3.62,19.3v.46H4V19.3Zm.23,1.32.23.4.31-.18-.24-.39-.3.17Zm.86,1,.4.23.17-.31-.4-.23-.17.31ZM6,22.12h.46v-.35H6v.35Zm1.32-.23.4-.23-.17-.3-.4.23.17.3Zm1-.86.23-.4-.31-.17-.23.4.31.17Zm.46-1.26v-.46H8.44v.46Zm-.23-1.32-.23-.4-.3.18.23.39Z"/><path class="cls-23" d="M6.21,21.81a2.27,2.27,0,1,0-2.27-2.27A2.28,2.28,0,0,0,6.21,21.81Z"/><path class="cls-24" d="M6.21,21.62a2.08,2.08,0,1,0-2.08-2.08A2.09,2.09,0,0,0,6.21,21.62Z"/><path class="cls-25" d="M6.21,21.3a1.76,1.76,0,1,0-1.76-1.76A1.76,1.76,0,0,0,6.21,21.3Z"/><path class="cls-26" d="M6.21,18.52a.16.16,0,1,0,0-.32.16.16,0,0,0,0,.32Z"/><path class="cls-26" d="M5.25,18.6a.16.16,0,0,0,0,.22.17.17,0,0,0,.23,0,.16.16,0,0,0,0-.22A.15.15,0,0,0,5.25,18.6Z"/><path class="cls-26" d="M4.85,19.55A.16.16,0,1,0,5,19.39.16.16,0,0,0,4.85,19.55Z"/><path class="cls-26" d="M5.25,20.51a.16.16,0,1,0,0-.22A.14.14,0,0,0,5.25,20.51Z"/><path class="cls-26" d="M6.2,20.91a.16.16,0,0,0,.16-.16.16.16,0,0,0-.16-.15.16.16,0,1,0,0,.31Z"/><path class="cls-26" d="M7.16,20.52a.16.16,0,0,0,0-.22.14.14,0,0,0-.22,0,.16.16,0,0,0,.22.22Z"/><path class="cls-26" d="M7.56,19.56a.16.16,0,0,0-.16-.16.16.16,0,0,0,0,.32A.16.16,0,0,0,7.56,19.56Z"/><path class="cls-26" d="M7.17,18.6a.16.16,0,0,0-.22,0,.15.15,0,0,0,0,.23.16.16,0,0,0,.22,0A.17.17,0,0,0,7.17,18.6Z"/><path class="cls-27" d="M6.21,20.33a.79.79,0,1,0-.78-.79A.79.79,0,0,0,6.21,20.33Z"/><path class="cls-28" d="M6.21,19.6a.06.06,0,1,0,0-.12.06.06,0,0,0,0,.12Z"/><path class="cls-29" d="M29.8,17.41l-.4-.23-.18.31.4.23.18-.31ZM26.18,18l-.23.4.31.17.23-.4L26.18,18Zm1-.86-.4.23.18.3.4-.23-.18-.3ZM28.54,17h-.46v.35h.46V17ZM25.72,19.3v.46h.35V19.3Zm.22,1.32.23.4.31-.18-.23-.39-.31.17Zm.86,1,.4.23.18-.31-.4-.23-.18.31Zm1.26.46h.46v-.35h-.46v.35Zm1.33-.23.4-.23-.18-.3-.4.23.18.3Zm1-.86.23-.4-.3-.17-.23.4.3.17Zm.47-1.26v-.46h-.36v.46Zm-.23-1.32-.23-.4-.31.18.23.39Z"/><path class="cls-30" d="M28.31,21.81A2.27,2.27,0,1,0,26,19.54,2.27,2.27,0,0,0,28.31,21.81Z"/><path class="cls-24" d="M28.31,21.62a2.08,2.08,0,1,0-2.09-2.08A2.08,2.08,0,0,0,28.31,21.62Z"/><path class="cls-31" d="M28.31,21.3a1.76,1.76,0,1,0-1.76-1.76A1.76,1.76,0,0,0,28.31,21.3Z"/><path class="cls-26" d="M28.31,18.52a.16.16,0,1,0,0-.32.16.16,0,1,0,0,.32Z"/><path class="cls-26" d="M27.35,18.6a.16.16,0,1,0,.22,0A.14.14,0,0,0,27.35,18.6Z"/><path class="cls-26" d="M27,19.55a.16.16,0,0,0,.16.16.16.16,0,0,0,0-.32A.16.16,0,0,0,27,19.55Z"/><path class="cls-26" d="M27.34,20.51a.16.16,0,1,0,0-.22A.16.16,0,0,0,27.34,20.51Z"/><path class="cls-26" d="M28.3,20.91a.16.16,0,0,0,.15-.16.15.15,0,0,0-.15-.15.16.16,0,0,0-.16.15A.16.16,0,0,0,28.3,20.91Z"/><path class="cls-26" d="M29.26,20.52a.16.16,0,0,0,0-.22.15.15,0,0,0-.23,0,.16.16,0,0,0,0,.22A.17.17,0,0,0,29.26,20.52Z"/><path class="cls-26" d="M29.66,19.56a.16.16,0,1,0-.16.16A.16.16,0,0,0,29.66,19.56Z"/><path class="cls-26" d="M29.26,18.6a.16.16,0,0,0-.22,0,.17.17,0,0,0,0,.23.16.16,0,0,0,.22,0A.15.15,0,0,0,29.26,18.6Z"/><path class="cls-32" d="M28.31,20.33a.79.79,0,1,0-.79-.79A.8.8,0,0,0,28.31,20.33Z"/><path class="cls-28" d="M28.31,19.6a.06.06,0,1,0,0-.12.06.06,0,1,0,0,.12Z"/><path class="cls-33" d="M21.93,21.86a1.15,1.15,0,0,0,0-2.29,1.15,1.15,0,1,0,0,2.29Z"/><path class="cls-24" d="M21.93,21.76a1,1,0,1,0-1.05-1A1,1,0,0,0,21.93,21.76Z"/><path class="cls-34" d="M21.93,21.6a.89.89,0,0,0,0-1.77.89.89,0,1,0,0,1.77Z"/><circle class="cls-35" cx="21.93" cy="20.72" r="0.4"/><path class="cls-36" d="M18.83,21.86a1.15,1.15,0,0,0,0-2.29,1.15,1.15,0,1,0,0,2.29Z"/><path class="cls-24" d="M18.83,21.76a1,1,0,1,0-1-1A1,1,0,0,0,18.83,21.76Z"/><path class="cls-37" d="M18.83,21.6a.89.89,0,0,0,0-1.77.89.89,0,1,0,0,1.77Z"/><path class="cls-38" d="M18.83,21.11a.4.4,0,0,0,0-.79.4.4,0,1,0,0,.79Z"/><path class="cls-39" d="M15.66,21.86a1.15,1.15,0,1,0-1.14-1.14A1.15,1.15,0,0,0,15.66,21.86Z"/><path class="cls-24" d="M15.66,21.76a1,1,0,1,0-1-1A1,1,0,0,0,15.66,21.76Z"/><path class="cls-40" d="M15.66,21.6a.89.89,0,1,0-.88-.88A.89.89,0,0,0,15.66,21.6Z"/><path class="cls-41" d="M15.66,21.11a.4.4,0,1,0-.39-.39A.4.4,0,0,0,15.66,21.11Z"/><path class="cls-42" d="M12.52,21.86a1.15,1.15,0,1,0-1.14-1.14A1.14,1.14,0,0,0,12.52,21.86Z"/><path class="cls-24" d="M12.52,21.76a1,1,0,1,0-1-1A1,1,0,0,0,12.52,21.76Z"/><path class="cls-43" d="M12.52,21.6a.89.89,0,1,0-.88-.88A.89.89,0,0,0,12.52,21.6Z"/><circle class="cls-44" cx="12.52" cy="20.72" r="0.4"/><polygon class="cls-45" points="24.57 18.27 10.13 18.27 10.13 19.74 10.13 19.74 10.13 19.74 10.13 19.78 10.18 19.78 11.62 21.01 12.77 21.01 13.38 20.4 14.46 20.4 15.08 21.01 16.23 21.01 16.84 20.4 17.69 20.4 18.31 21.01 19.45 21.01 20.07 20.4 20.81 20.4 21.43 21.01 22.58 21.01 23.19 20.4 24.1 20.4 24.59 19.76 24.57 18.27"/><path class="cls-46" d="M28.07,16.41H6.24A3.09,3.09,0,0,0,4,17.35H4a3.22,3.22,0,0,0,0,4.51H4a3.09,3.09,0,0,0,2.21.94H28.07a3.09,3.09,0,0,0,2.21-.94h0a3.22,3.22,0,0,0,0-4.51h0a3.09,3.09,0,0,0-2.21-.94Zm-21.83.71H28.07a2.4,2.4,0,0,1,1.71.73h0a2.52,2.52,0,0,1,0,3.51,2.4,2.4,0,0,1-1.71.73H6.24a2.37,2.37,0,0,1-1.7-.73h0a2.5,2.5,0,0,1,0-3.51A2.36,2.36,0,0,1,6.24,17.12Z"/><polygon class="cls-47" points="11.45 21.99 10.79 21.99 10.79 22.85 11.11 22.85 11.11 22.66 11.45 22.66 11.45 22.47 11.11 22.47 11.11 22.24 11.45 22.24 11.45 21.99"/><polygon class="cls-48" points="12.33 21.99 11.68 21.99 11.68 22.85 11.99 22.85 11.99 22.66 12.33 22.66 12.33 22.47 11.99 22.47 11.99 22.24 12.33 22.24 12.33 21.99"/><polygon class="cls-49" points="13.22 21.99 12.56 21.99 12.56 22.85 12.88 22.85 12.88 22.66 13.22 22.66 13.22 22.47 12.88 22.47 12.88 22.24 13.22 22.24 13.22 21.99"/><polygon class="cls-50" points="14.1 21.99 13.45 21.99 13.45 22.85 13.77 22.85 13.77 22.66 14.1 22.66 14.1 22.47 13.77 22.47 13.77 22.24 14.1 22.24 14.1 21.99"/><polygon class="cls-51" points="14.99 21.99 14.33 21.99 14.33 22.85 14.65 22.85 14.65 22.66 14.99 22.66 14.99 22.47 14.65 22.47 14.65 22.24 14.99 22.24 14.99 21.99"/><polygon class="cls-52" points="15.87 21.99 15.22 21.99 15.22 22.85 15.54 22.85 15.54 22.66 15.87 22.66 15.87 22.47 15.54 22.47 15.54 22.24 15.87 22.24 15.87 21.99"/><polygon class="cls-53" points="16.76 21.99 16.1 21.99 16.1 22.85 16.42 22.85 16.42 22.66 16.76 22.66 16.76 22.47 16.42 22.47 16.42 22.24 16.76 22.24 16.76 21.99"/><polygon class="cls-54" points="17.64 21.99 16.99 21.99 16.99 22.85 17.31 22.85 17.31 22.66 17.64 22.66 17.64 22.47 17.31 22.47 17.31 22.24 17.64 22.24 17.64 21.99"/><polygon class="cls-55" points="18.53 21.99 17.88 21.99 17.88 22.85 18.19 22.85 18.19 22.66 18.53 22.66 18.53 22.47 18.19 22.47 18.19 22.24 18.53 22.24 18.53 21.99"/><polygon class="cls-56" points="19.42 21.99 18.76 21.99 18.76 22.85 19.08 22.85 19.08 22.66 19.42 22.66 19.42 22.47 19.08 22.47 19.08 22.24 19.42 22.24 19.42 21.99"/><polygon class="cls-57" points="20.3 21.99 19.65 21.99 19.65 22.85 19.97 22.85 19.97 22.66 20.3 22.66 20.3 22.47 19.97 22.47 19.97 22.24 20.3 22.24 20.3 21.99"/><polygon class="cls-58" points="21.19 21.99 20.53 21.99 20.53 22.85 20.85 22.85 20.85 22.66 21.19 22.66 21.19 22.47 20.85 22.47 20.85 22.24 21.19 22.24 21.19 21.99"/><polygon class="cls-59" points="22.07 21.99 21.42 21.99 21.42 22.85 21.74 22.85 21.74 22.66 22.07 22.66 22.07 22.47 21.74 22.47 21.74 22.24 22.07 22.24 22.07 21.99"/><polygon class="cls-60" points="22.96 21.99 22.3 21.99 22.3 22.85 22.62 22.85 22.62 22.66 22.96 22.66 22.96 22.47 22.62 22.47 22.62 22.24 22.96 22.24 22.96 21.99"/><polygon class="cls-61" points="23.84 21.99 23.19 21.99 23.19 22.85 23.51 22.85 23.51 22.66 23.84 22.66 23.84 22.47 23.51 22.47 23.51 22.24 23.84 22.24 23.84 21.99"/><polygon class="cls-62" points="24.73 21.99 24.07 21.99 24.07 22.85 24.39 22.85 24.39 22.66 24.73 22.66 24.73 22.47 24.39 22.47 24.39 22.24 24.73 22.24 24.73 21.99"/><polygon class="cls-63" points="25.62 21.99 24.96 21.99 24.96 22.85 25.28 22.85 25.28 22.66 25.62 22.66 25.62 22.47 25.28 22.47 25.28 22.24 25.62 22.24 25.62 21.99"/><polygon class="cls-64" points="26.5 21.99 25.85 21.99 25.85 22.85 26.16 22.85 26.16 22.66 26.5 22.66 26.5 22.47 26.16 22.47 26.16 22.24 26.5 22.24 26.5 21.99"/><polygon class="cls-65" points="27.39 21.99 26.73 21.99 26.73 22.85 27.05 22.85 27.05 22.66 27.39 22.66 27.39 22.47 27.05 22.47 27.05 22.24 27.39 22.24 27.39 21.99"/><polygon class="cls-66" points="28.27 21.99 27.62 21.99 27.62 22.85 27.94 22.85 27.94 22.66 28.27 22.66 28.27 22.47 27.94 22.47 27.94 22.24 28.27 22.24 28.27 21.99"/><polygon class="cls-67" points="5.4 21.94 4.83 21.63 4.42 22.39 4.7 22.54 4.79 22.37 5.08 22.53 5.17 22.36 4.88 22.21 4.99 22 5.28 22.16 5.4 21.94"/><polygon class="cls-68" points="6.18 22.02 5.55 21.91 5.4 22.76 5.71 22.81 5.74 22.63 6.07 22.68 6.1 22.5 5.78 22.44 5.82 22.21 6.14 22.26 6.18 22.02"/><polygon class="cls-69" points="7.03 21.99 6.37 21.99 6.37 22.85 6.69 22.85 6.69 22.66 7.03 22.66 7.03 22.47 6.69 22.47 6.69 22.24 7.03 22.24 7.03 21.99"/><polygon class="cls-70" points="7.91 21.99 7.26 21.99 7.26 22.85 7.58 22.85 7.58 22.66 7.91 22.66 7.91 22.47 7.58 22.47 7.58 22.24 7.91 22.24 7.91 21.99"/><polygon class="cls-71" points="8.8 21.99 8.14 21.99 8.14 22.85 8.46 22.85 8.46 22.66 8.8 22.66 8.8 22.47 8.46 22.47 8.46 22.24 8.8 22.24 8.8 21.99"/><polygon class="cls-72" points="9.69 21.99 9.03 21.99 9.03 22.85 9.35 22.85 9.35 22.66 9.69 22.66 9.69 22.47 9.35 22.47 9.35 22.24 9.69 22.24 9.69 21.99"/><polygon class="cls-73" points="10.57 21.99 9.91 21.99 9.91 22.85 10.23 22.85 10.23 22.66 10.57 22.66 10.57 22.47 10.23 22.47 10.23 22.24 10.57 22.24 10.57 21.99"/><polygon class="cls-74" points="4.58 21.45 4.21 20.92 3.51 21.41 3.69 21.67 3.84 21.56 4.03 21.83 4.19 21.72 4 21.45 4.19 21.32 4.38 21.59 4.58 21.45"/><polygon class="cls-75" points="4.05 20.78 3.87 20.17 3.04 20.41 3.13 20.71 3.31 20.66 3.41 20.97 3.59 20.92 3.5 20.6 3.72 20.54 3.81 20.85 4.05 20.78"/><polygon class="cls-76" points="3.86 19.2 4.06 18.59 3.24 18.33 3.14 18.62 3.32 18.68 3.22 19 3.4 19.05 3.5 18.74 3.73 18.81 3.62 19.13 3.86 19.2"/><polygon class="cls-77" points="3.79 20 3.84 19.36 2.98 19.3 2.96 19.61 3.15 19.62 3.12 19.95 3.31 19.97 3.33 19.64 3.57 19.65 3.55 19.98 3.79 20"/><polygon class="cls-78" points="4.14 18.35 4.51 17.82 3.81 17.33 3.63 17.58 3.78 17.69 3.59 17.96 3.75 18.07 3.94 17.8 4.13 17.94 3.94 18.21 4.14 18.35"/><polygon class="cls-79" points="4.56 17.73 5.1 17.38 4.64 16.66 4.37 16.83 4.47 16.98 4.2 17.16 4.3 17.32 4.58 17.14 4.7 17.34 4.42 17.52 4.56 17.73"/><polygon class="cls-80" points="5.21 17.3 5.84 17.15 5.63 16.31 5.33 16.39 5.38 16.57 5.05 16.65 5.1 16.83 5.42 16.75 5.48 16.98 5.16 17.06 5.21 17.3"/><polygon class="cls-81" points="5.97 17.15 6.62 17.15 6.62 16.29 6.3 16.29 6.3 16.47 5.97 16.47 5.97 16.66 6.3 16.66 6.3 16.9 5.97 16.9 5.97 17.15"/><polygon class="cls-82" points="6.86 17.15 7.5 17.15 7.5 16.29 7.19 16.29 7.19 16.47 6.86 16.47 6.86 16.66 7.19 16.66 7.19 16.9 6.86 16.9 6.86 17.15"/><polygon class="cls-83" points="7.74 17.15 8.39 17.15 8.39 16.29 8.07 16.29 8.07 16.47 7.74 16.47 7.74 16.66 8.07 16.66 8.07 16.9 7.74 16.9 7.74 17.15"/><polygon class="cls-84" points="8.63 17.15 9.27 17.15 9.27 16.29 8.96 16.29 8.96 16.47 8.63 16.47 8.63 16.66 8.96 16.66 8.96 16.9 8.63 16.9 8.63 17.15"/><polygon class="cls-85" points="9.51 17.15 10.16 17.15 10.16 16.29 9.84 16.29 9.84 16.47 9.51 16.47 9.51 16.66 9.84 16.66 9.84 16.9 9.51 16.9 9.51 17.15"/><polygon class="cls-86" points="10.4 17.15 11.04 17.15 11.04 16.29 10.73 16.29 10.73 16.47 10.4 16.47 10.4 16.66 10.73 16.66 10.73 16.9 10.4 16.9 10.4 17.15"/><polygon class="cls-87" points="11.28 17.15 11.93 17.15 11.93 16.29 11.61 16.29 11.61 16.47 11.28 16.47 11.28 16.66 11.61 16.66 11.61 16.9 11.28 16.9 11.28 17.15"/><polygon class="cls-88" points="12.17 17.15 12.81 17.15 12.81 16.29 12.5 16.29 12.5 16.47 12.17 16.47 12.17 16.66 12.5 16.66 12.5 16.9 12.17 16.9 12.17 17.15"/><polygon class="cls-89" points="13.05 17.15 13.7 17.15 13.7 16.29 13.38 16.29 13.38 16.47 13.05 16.47 13.05 16.66 13.38 16.66 13.38 16.9 13.05 16.9 13.05 17.15"/><polygon class="cls-90" points="13.94 17.15 14.58 17.15 14.58 16.29 14.27 16.29 14.27 16.47 13.94 16.47 13.94 16.66 14.27 16.66 14.27 16.9 13.94 16.9 13.94 17.15"/><polygon class="cls-91" points="14.82 17.15 15.46 17.15 15.46 16.29 15.15 16.29 15.15 16.47 14.82 16.47 14.82 16.66 15.15 16.66 15.15 16.9 14.82 16.9 14.82 17.15"/><polygon class="cls-92" points="15.71 17.15 16.35 17.15 16.35 16.29 16.04 16.29 16.04 16.47 15.71 16.47 15.71 16.66 16.04 16.66 16.04 16.9 15.71 16.9 15.71 17.15"/><polygon class="cls-93" points="16.59 17.15 17.23 17.15 17.23 16.29 16.92 16.29 16.92 16.47 16.59 16.47 16.59 16.66 16.92 16.66 16.92 16.9 16.59 16.9 16.59 17.15"/><polygon class="cls-94" points="17.47 17.15 18.12 17.15 18.12 16.29 17.8 16.29 17.8 16.47 17.47 16.47 17.47 16.66 17.8 16.66 17.8 16.9 17.47 16.9 17.47 17.15"/><polygon class="cls-95" points="18.36 17.15 19 17.15 19 16.29 18.69 16.29 18.69 16.47 18.36 16.47 18.36 16.66 18.69 16.66 18.69 16.9 18.36 16.9 18.36 17.15"/><polygon class="cls-96" points="19.24 17.15 19.89 17.15 19.89 16.29 19.57 16.29 19.57 16.47 19.24 16.47 19.24 16.66 19.57 16.66 19.57 16.9 19.24 16.9 19.24 17.15"/><polygon class="cls-97" points="20.13 17.15 20.77 17.15 20.77 16.29 20.46 16.29 20.46 16.47 20.13 16.47 20.13 16.66 20.46 16.66 20.46 16.9 20.13 16.9 20.13 17.15"/><polygon class="cls-98" points="21.01 17.15 21.66 17.15 21.66 16.29 21.34 16.29 21.34 16.47 21.01 16.47 21.01 16.66 21.34 16.66 21.34 16.9 21.01 16.9 21.01 17.15"/><polygon class="cls-99" points="21.9 17.15 22.54 17.15 22.54 16.29 22.23 16.29 22.23 16.47 21.9 16.47 21.9 16.66 22.23 16.66 22.23 16.9 21.9 16.9 21.9 17.15"/><polygon class="cls-100" points="22.78 17.15 23.43 17.15 23.43 16.29 23.11 16.29 23.11 16.47 22.78 16.47 22.78 16.66 23.11 16.66 23.11 16.9 22.78 16.9 22.78 17.15"/><polygon class="cls-101" points="23.67 17.15 24.31 17.15 24.31 16.29 24 16.29 24 16.47 23.67 16.47 23.67 16.66 24 16.66 24 16.9 23.67 16.9 23.67 17.15"/><polygon class="cls-102" points="24.55 17.15 25.2 17.15 25.2 16.29 24.88 16.29 24.88 16.47 24.55 16.47 24.55 16.66 24.88 16.66 24.88 16.9 24.55 16.9 24.55 17.15"/><polygon class="cls-103" points="25.44 17.15 26.08 17.15 26.08 16.29 25.77 16.29 25.77 16.47 25.44 16.47 25.44 16.66 25.77 16.66 25.77 16.9 25.44 16.9 25.44 17.15"/><polygon class="cls-104" points="26.32 17.15 26.96 17.15 26.96 16.29 26.65 16.29 26.65 16.47 26.32 16.47 26.32 16.66 26.65 16.66 26.65 16.9 26.32 16.9 26.32 17.15"/><polygon class="cls-105" points="27.2 17.15 27.85 17.15 27.85 16.29 27.54 16.29 27.54 16.47 27.2 16.47 27.2 16.66 27.54 16.66 27.54 16.9 27.2 16.9 27.2 17.15"/><polygon class="cls-106" points="28.09 17.15 28.73 17.15 28.73 16.29 28.42 16.29 28.42 16.47 28.09 16.47 28.09 16.66 28.42 16.66 28.42 16.9 28.09 16.9 28.09 17.15"/><polygon class="cls-107" points="28.92 17.18 29.49 17.49 29.89 16.73 29.62 16.58 29.53 16.75 29.24 16.59 29.15 16.76 29.44 16.91 29.33 17.12 29.04 16.97 28.92 17.18"/><polygon class="cls-108" points="29.73 17.68 30.11 18.2 30.81 17.71 30.63 17.45 30.48 17.56 30.29 17.29 30.13 17.4 30.32 17.67 30.13 17.8 29.94 17.53 29.73 17.68"/><polygon class="cls-109" points="30.27 18.34 30.45 18.95 31.27 18.71 31.19 18.41 31 18.46 30.91 18.15 30.73 18.2 30.82 18.52 30.6 18.58 30.5 18.27 30.27 18.34"/><polygon class="cls-110" points="30.46 19.92 30.26 20.53 31.08 20.8 31.18 20.5 31 20.44 31.1 20.12 30.92 20.07 30.82 20.38 30.59 20.31 30.69 20 30.46 19.92"/><polygon class="cls-111" points="30.52 19.12 30.48 19.77 31.34 19.82 31.36 19.51 31.17 19.5 31.19 19.17 31.01 19.16 30.98 19.49 30.75 19.47 30.77 19.14 30.52 19.12"/><polygon class="cls-112" points="30.18 20.77 29.8 21.3 30.51 21.79 30.69 21.54 30.53 21.43 30.73 21.16 30.57 21.05 30.38 21.32 30.19 21.18 30.38 20.91 30.18 20.77"/><polygon class="cls-113" points="29.76 21.39 29.22 21.74 29.68 22.46 29.95 22.3 29.84 22.14 30.12 21.96 30.02 21.8 29.74 21.98 29.61 21.78 29.89 21.6 29.76 21.39"/><polygon class="cls-114" points="29.1 21.82 28.48 21.97 28.68 22.81 28.99 22.73 28.94 22.55 29.27 22.47 29.22 22.29 28.9 22.37 28.84 22.14 29.16 22.06 29.1 21.82"/><polygon class="cls-115" points="41.07 19.74 38.73 22.68 34.38 19.41 35.85 17.16 36.7 18.73 36.31 19.98 38.45 21.64 38.97 21.16 36.64 19.89 37.12 18.89 38.93 19.37 41.07 19.74"/><path class="cls-17" d="M38.67,19.35l2.9-5s-.15-1.35.6-1.74l1.75-.92-.16-.5-2.8.87c-1.33.4-3.88,0-5.33.75a2.42,2.42,0,0,0-1.16,3.62,10.4,10.4,0,0,1,1.64,2.79c0,.42.66.46.66.46Z"/><polygon class="cls-20" points="9.95 11.07 9.22 11.07 11.05 12.9 11.05 12.17 9.95 11.07"/><polygon class="cls-20" points="9.95 11.07 9.22 11.07 11.05 12.9 11.05 12.17 9.95 11.07"/><polygon class="cls-20" points="9.95 11.07 9.22 11.07 11.05 12.9 11.05 12.17 9.95 11.07"/><polygon class="cls-20" points="8.54 11.07 7.81 11.07 10.1 13.36 10.83 13.36 8.54 11.07"/><polygon class="cls-20" points="7.13 11.07 6.4 11.07 8.69 13.36 9.42 13.36 7.13 11.07"/><polygon class="cls-20" points="5.72 11.07 4.99 11.07 7.28 13.36 8.01 13.36 5.72 11.07"/><polygon class="cls-20" points="4.31 11.07 3.58 11.07 5.87 13.36 6.61 13.36 4.31 11.07"/><polygon class="cls-20" points="2.9 11.07 2.17 11.07 4.46 13.36 5.2 13.36 2.9 11.07"/><polygon class="cls-20" points="1.49 11.07 0.76 11.07 3.06 13.36 3.79 13.36 1.49 11.07"/><polygon class="cls-20" points="0.7 11.69 0.7 12.42 1.65 13.36 2.38 13.36 0.7 11.69"/><path class="cls-116" d="M33.18,3.43A1.28,1.28,0,1,0,31.9,2.15,1.28,1.28,0,0,0,33.18,3.43Z"/><path class="cls-117" d="M33.18,3.13a1,1,0,1,0-1-1A1,1,0,0,0,33.18,3.13Z"/><path class="cls-20" d="M50.32,13.24l2,1.63.53-.22L50.8,13l-.48.26Zm-4.79,2.58.48-.26,1.47,1.23L47,17l-1.42-1.18Zm1-.52L48,16.58l.54-.22L47,15l-.48.26Zm1-.51,1.63,1.36.53-.21-1.69-1.41-.47.26Zm.95-.52.48-.26,1.79,1.5-.53.21L48.4,14.27Zm1-.51.48-.26,1.9,1.58-.53.21Z"/></g></g></svg>