<svg xmlns="http://www.w3.org/2000/svg"  viewBox="0 0 313.09 161.84"><path d="M303.86,130.43H12.08a3.23,3.23,0,1,0,0,6.45h43.6s3.53-.31,3.53,2.92a2.91,2.91,0,0,1-3,3.11H38.89a3.22,3.22,0,0,0,0,6.44H161.52a3.22,3.22,0,1,0,0-6.44H143.74s-3.16,0-3.16-3a3,3,0,0,1,3.16-3H303.86a3.23,3.23,0,0,0,0-6.45Zm-211.5,9.48a2.987,2.987,0,0,1,3.17-3H122s3.53-.31,3.53,2.92a2.92,2.92,0,0,1-3,3.11h-27s-3.17-.05-3.17-3.03Z" fill="#e6e6e6"/><path d="M258.81,142.92H68.65a3.22,3.22,0,0,0,0,6.44h43.61s3.53-.3,3.53,2.92a2.92,2.92,0,0,1-3,3.11H83.81a3.23,3.23,0,0,0,0,6.45H218.09a3.23,3.23,0,0,0,0-6.45H200.32s-3.17,0-3.17-3a3,3,0,0,1,3.16-3h58.5a3.22,3.22,0,0,0,0-6.44Zm-109.87,9.47a3,3,0,0,1,3.16-3h26.5s3.53-.3,3.53,2.92a2.91,2.91,0,0,1-3,3.11h-27S148.94,155.38,148.94,152.39Z" fill="#e6e6e6"/><path d="M58.61,102.14c-.13,17.38,10.13,27.37,23,29.08a41.73,41.73,0,0,0,13.36,0c4.48-9,3.71-17.83,3.79-28.82.09-12.38,3.72-24.82-4.68-29-4.91-.2-8.9,0-11.68,0C70,73.27,58.73,84.85,58.61,102.14Z" fill="#383838"/><ellipse cx="28.95" cy="24.27" rx="28.95" ry="24.27" transform="translate(68.789 131.134) rotate(-89.58)" fill="#1f1f1f"/><ellipse cx="16.2" cy="13.58" rx="16.2" ry="13.58" transform="translate(80.267 119.037) rotate(-89.58)" fill="#525252"/><path d="M93.93,119.44h-.09a13.19,13.19,0,0,1-10.12-5.08,19.21,19.21,0,0,1,.17-23.84,12.82,12.82,0,0,1,20.32.15,19.19,19.19,0,0,1-.18,23.84,13.21,13.21,0,0,1-10.1,4.93Zm-13.55-17h.73a17,17,0,0,0,3.73,11,11.36,11.36,0,0,0,18.09.13,17.76,17.76,0,0,0,.16-22,11.82,11.82,0,0,0-9-4.55H94a11.79,11.79,0,0,0-9,4.42,17,17,0,0,0-3.89,11Z" fill="#8c8c8c"/><path d="M94,86.51c-.65,0-.23.4-.85.5,6.26.29,10.84,7,10.78,15.47-.06,8.72-5.23,15.56-11.71,15.37a7.56,7.56,0,0,0,1.56.38c7.37,0,13.4-7,13.47-15.72S101.4,86.56,94,86.51Z" fill="#8c8c8c"/><path d="M91.53,102.85c0,3.64,5.14,8.18,3,9.87H92.19c-4,0-7.2-4.46-7.16-9.91S88.31,93,92.3,93a19.6,19.6,0,0,1,2.48.06C96.83,94.8,91.55,99.3,91.53,102.85Z" fill="#8c8c8c"/><ellipse cx="9.86" cy="7.24" rx="9.86" ry="7.24" transform="translate(86.492 112.673) rotate(-89.58)" fill="#b3b3b3"/><path d="M97.15,102.89c0,2.37-1.44,4.28-3.18,4.27s-3.14-1.94-3.12-4.32,1.44-4.28,3.18-4.27S97.17,100.52,97.15,102.89Z" fill="#8c8c8c"/><path d="M159.58,102.14c-.12,17.38,10.14,27.37,23,29.08a41.73,41.73,0,0,0,13.36,0c4.48-9,3.71-17.83,3.79-28.82.09-12.38,3.72-24.82-4.68-29-4.91-.2-8.9,0-11.68,0C171,73.27,159.71,84.85,159.58,102.14Z" fill="#383838"/><ellipse cx="28.95" cy="24.27" rx="28.95" ry="24.27" transform="translate(169.769 131.147) rotate(-89.58)" fill="#1f1f1f"/><path d="M181.36,102.84c-.07,9,6,16.24,13.46,16.3s13.63-7.16,13.7-16.1-6-16.25-13.46-16.3S181.42,93.89,181.36,102.84Z" fill="#525252"/><path d="M194.91,119.44h-.09a13.19,13.19,0,0,1-10.12-5.08,19.21,19.21,0,0,1,.17-23.84,12.82,12.82,0,0,1,20.32.15,19.19,19.19,0,0,1-.18,23.84,13.21,13.21,0,0,1-10.1,4.93Zm-13.55-17h.73a17,17,0,0,0,3.73,11,11.36,11.36,0,0,0,18.09.13,17.79,17.79,0,0,0,.16-22,11.82,11.82,0,0,0-9-4.55H195a11.77,11.77,0,0,0-9,4.42,17,17,0,0,0-3.89,11Z" fill="#8c8c8c"/><path d="M195,86.51c-.65,0-.23.4-.86.5,6.26.29,10.85,7,10.79,15.47-.06,8.72-5.24,15.56-11.71,15.37a7.56,7.56,0,0,0,1.56.38c7.37,0,13.4-7,13.47-15.72S202.38,86.56,195,86.51Z" fill="#8c8c8c"/><path d="M192.51,102.85c0,3.64,5.14,8.18,3,9.87h-2.34c-4,0-7.21-4.46-7.17-9.91S189.29,93,193.28,93a19.6,19.6,0,0,1,2.48.06C197.81,94.8,192.53,99.3,192.51,102.85Z" fill="#8c8c8c"/><path d="M202,102.92c0,5.44-3.31,9.83-7.31,9.8s-7.2-4.46-7.16-9.91S190.86,93,194.86,93,202.06,97.47,202,102.92Z" fill="#b3b3b3"/><ellipse cx="4.29" cy="3.15" rx="4.29" ry="3.15" transform="translate(191.815 107.137) rotate(-89.58)" fill="#8c8c8c"/><path d="M226.74,41.77v71.36H83.79L98.27,78.99,127.8,61.52h22.19Z" fill="#dba439"/><path d="M187.88,1.85H160.06S148.53,35,148.53,57.8h39Z" fill="#4d4d4d"/><path d="M189.9,1.85H179.33S167,35,167,57.8h22.55Z" fill="#4d4d4d"/><path d="M187.71,7.15h-6.57s-8.91,24.2-10,49.73c4.4.35,12-.27,16.51,0Z" fill="#e6e6e6"/><path d="M177,7.15c-8.84,30.46-9,37-10,50.65H151.3c0-22.16,10-50.65,10-50.65Z" fill="#fff"/><path d="M167.71,49.82h-16l-.6,7.06,16,.11C167.36,54.13,167.52,52.15,167.71,49.82Z" fill="#bfbfbf"/><path d="M187.65,33.19h-5.57a5.34,5.34,0,0,0-5.33,5.34v7.55A3.75,3.75,0,0,1,173,49.87h-1.37c-.27,2.24-.4,4.05-.49,7l16.45.13Z" fill="#bfbfbf"/><path d="M129.66,47.59h6a4.56,4.56,0,0,1,4.56,4.56v.33H129.66Z" fill="#696969"/><path d="M135.65,47.59h0a4.56,4.56,0,0,1,4.56,4.56v.33h-4.56Z" fill="#4d4d4d"/><rect width="3.38" height="1.91" transform="translate(131.02 48.92)" fill="#f2f2f2"/><path d="M121.26,52.47,89.2,68.62,77,95,60,113a6,6,0,0,0,0,8.33,5.84,5.84,0,0,0,8.34-.09L84.59,103.7l5.9-5.81,7.7-18,29-16.29a6.27,6.27,0,0,0,2.48-8.37h0a6.28,6.28,0,0,0-8.41-2.76Z" fill="#c29132"/><path d="M125.38,62.73h26.67a5.38,5.38,0,0,0,5.38-5.38h0A5.38,5.38,0,0,0,152.05,52H125.38A5.38,5.38,0,0,0,120,57.35h0A5.38,5.38,0,0,0,125.38,62.73Z" fill="#b5872f"/><path d="M148.54,55.74h-25a.85.85,0,0,1-.85-.85h0a.85.85,0,0,1,.85-.84h25a.84.84,0,0,1,.84.84h0a.84.84,0,0,1-.84.85Z" fill="#ffd685" opacity="0.35"/><path d="M167.18,61.81v8H140.21V61.52Z" fill="#ffd685"/><rect width="6.5" height="9.86" transform="translate(233.7 36.82)" fill="#404040"/><path d="M234.46,25.42h4.62a2.15,2.15,0,0,1,2.13,1.88l1.38,11.27H230.78l1.56-11.3A2.14,2.14,0,0,1,234.46,25.42Z" fill="#c29232"/><rect width="60.84" height="13.56" transform="translate(167.02 100.7)" fill="#6b6b6b"/><rect width="60.84" height="1.97" transform="translate(167.02 110.27)" fill="#bababa"/><path d="M299.37,86H226.74V44.55l36.87-.11,35.7,7.85C299.46,62,299.37,75,299.37,86Z" fill="#ffbf42"/><path d="M280.24,87.04h24.79l-5.66-34.91L280.24,48.1Z" fill="#4d4d4d"/><rect width="53.5" height="1.83" transform="translate(226.74 52.31)" fill="#dba439"/><rect width="53.5" height="1.83" transform="translate(226.74 64.31)" fill="#dba439"/><path d="M280.24,48.1l4.58.96V86.01h-4.58Z" fill="#2e2e2e" opacity="0.42"/><path d="M280.26,59.16h20.25l-.24-1.27H280.26Z" fill="#2e2e2e"/><path d="M280.26,73.42h22.56l-.2-1.27H280.26Z" fill="#2e2e2e"/><path d="M262.73,80.44H303.8l.87,5.57H262.73Z" fill="#2e2e2e" opacity="0.24"/><rect width="27.46" height="27.12" transform="translate(263.07 86.01)" fill="#6b6b6b"/><path d="M187.72,2l39.02-.25v59.2H187.58Z" fill="#333"/><path d="M216.14,7.44h7.41v23.8a2.7,2.7,0,0,1-2.7,2.7h-2a2.7,2.7,0,0,1-2.7-2.7V7.44Z" transform="translate(439.69 41.38) rotate(180)" fill="#e6e6e6"/><path d="M179.94,0H225.7a2.16,2.16,0,0,1,2.16,2.16v.25a2.16,2.16,0,0,1-2.16,2.16H181.93a2.16,2.16,0,0,1-2.16-2.16V.17a.17.17,0,0,1,.17-.17Z" transform="translate(407.63 4.57) rotate(180)" fill="#c49233"/><rect width="26.29" height="4.57" rx="2.03" transform="translate(157.43)" fill="#ffd685"/><path d="M223.55,37.57V33.19h-7.41v4.38a2.77,2.77,0,0,0,2.77,2.77h1.87a2.77,2.77,0,0,0,2.77-2.77Z" fill="#bfbfbf"/><path d="M191.91,7.44H211.4v23a3.53,3.53,0,0,1-3.53,3.53H195.44a3.53,3.53,0,0,1-3.53-3.53v-23Z" transform="translate(403.31 41.38) rotate(180)" fill="#e6e6e6"/><path d="M211.4,36.19v-3h-5.06a2.52,2.52,0,0,1-2.52-2.52V7.44h-2.66V30.55a2.58,2.58,0,0,1-2.58,2.59h-6.7v3a4.14,4.14,0,0,0,4.14,4.15h11.21A4.14,4.14,0,0,0,211.4,36.19Z" fill="#bfbfbf"/><path d="M313.09,86.01V97.06l-16.91,16.07h-6.62V86.01Z" fill="#4d4d4d"/><rect width="45.94" height="28.97" transform="translate(226.38 84.16)" fill="#828282"/><path d="M222.26,102.14c-.12,17.38,10.14,27.37,23,29.08a41.671,41.671,0,0,0,13.35,0c4.48-9,3.72-17.83,3.8-28.82.09-12.38,3.72-24.82-4.68-29-4.91-.2-8.9,0-11.68,0C233.67,73.27,222.39,84.85,222.26,102.14Z" fill="#383838"/><ellipse cx="28.95" cy="24.27" rx="28.95" ry="24.27" transform="translate(232.449 131.149) rotate(-89.58)" fill="#1f1f1f"/><ellipse cx="16.2" cy="13.58" rx="16.2" ry="13.58" transform="translate(243.937 119.042) rotate(-89.58)" fill="#525252"/><path d="M257.59,119.44h-.09a13.23,13.23,0,0,1-10.13-5.08,19.19,19.19,0,0,1,.18-23.84,12.82,12.82,0,0,1,20.32.15,19.19,19.19,0,0,1-.18,23.84,13.22,13.22,0,0,1-10.1,4.93Zm-13.55-17h.73a17.09,17.09,0,0,0,3.72,11,11.78,11.78,0,0,0,9,4.55,11.66,11.66,0,0,0,9.08-4.42,17.79,17.79,0,0,0,.16-22,11.82,11.82,0,0,0-9-4.55h-.08a11.81,11.81,0,0,0-9,4.42,17.08,17.08,0,0,0-3.88,11Z" fill="#8c8c8c"/><path d="M257.69,86.51c-.66,0-.23.4-.86.5,6.26.29,10.85,7,10.79,15.47-.07,8.72-5.24,15.56-11.72,15.37a7.65,7.65,0,0,0,1.57.38c7.37,0,13.4-7,13.46-15.72S265.06,86.56,257.69,86.51Z" fill="#8c8c8c"/><path d="M255.18,102.85c0,3.64,5.15,8.18,3,9.87h-2.34c-4,0-7.21-4.46-7.17-9.91S252,93,256,93a19.6,19.6,0,0,1,2.48.06C260.49,94.8,255.21,99.3,255.18,102.85Z" fill="#8c8c8c"/><path d="M264.7,102.92c0,5.44-3.31,9.83-7.31,9.8s-7.2-4.46-7.17-9.91S253.54,93,257.53,93,264.74,97.47,264.7,102.92Z" fill="#b3b3b3"/><path d="M260.81,102.89c0,2.37-1.44,4.28-3.18,4.27s-3.14-1.94-3.13-4.32,1.45-4.28,3.19-4.27S260.83,100.52,260.81,102.89Z" fill="#8c8c8c"/><path d="M0,96.92l20.92,18.72s12.72,12.87,28,5.28c14.72-7.31,7.51-27.1,7.51-27.1l1.87-8.58-8.87-6.37Z" fill="#b3b3b3"/><path d="M0,96.92l58.7.43,49.09-18.48-58.14.55Z" fill="#666"/><path d="M0,96.92s17.1,14.79,22,19.94c3.64,3.87,8.83,6.45,19.1,6.64,9.58.22,51.42.22,51.42.22s.93-7-3.09-11-31-15.79-31-15.79Z" fill="#8a8a8a"/><path d="M49.86,79.42l12,16.75-3.53,1.18L0,96.92Z" fill="#424242"/><rect width="22.1" height="4.01" transform="translate(160.78 57.8)" fill="#333"/><rect width="24.02" height="4.18" transform="translate(86.238 64.774) rotate(179)" fill="#dedede"/><path d="M110,67.19,83.33,67V58.28l26.66.22c3,0,5.51,2,5.5,4.38h0C115.51,65.27,113,67.21,110,67.19Z" fill="#404040"/><rect width="2.5" height="8.99" transform="translate(83.254 58.141) rotate(-0.5)" fill="#bfbfbf"/><rect width="10.63" height="3.34" transform="matrix(0.007, 1, -1, 0.007, 96.597, 57.284)" fill="#333"/><path d="M62.94,79H73.46V74.66S73,69.93,68.2,69.81s-5.26,4.59-5.26,4.59Z" fill="#b5872f"/><path d="M68.7,77.22h0a3.8,3.8,0,0,1-4.77-2.45L60.44,63.9a3.8,3.8,0,0,1,2.45-4.77h0a3.79,3.79,0,0,1,4.77,2.45l3.49,10.87A3.79,3.79,0,0,1,68.7,77.22Z" fill="#ffbf42"/><path d="M65.92,62.9a1.5,1.5,0,1,1-1.49-1.7,1.61,1.61,0,0,1,1.49,1.7Z" fill="#4d4d4d"/><rect width="24.02" height="4.18" transform="translate(107.627 64.898) rotate(179.38)" fill="#dedede"/><path d="M131.38,67.46l-26.66-.39.1-8.72,26.66.4c3,0,5.49,2,5.46,4.42h0C136.91,65.57,134.42,67.49,131.38,67.46Z" fill="#4d4d4d"/><rect width="2.5" height="8.99" transform="translate(104.692 58.239) rotate(-0.11)" fill="#bfbfbf"/><path d="M132.73,62.65l-25.54.07V61.13l25.53-.07a.79.79,0,0,1,.8.79h0a.79.79,0,0,1-.79.8Z" fill="#fff" opacity="0.22"/><rect width="10.48" height="3.34" transform="translate(118.049 57.661) rotate(89.98)" fill="#333"/><path d="M84.28,79H94.8V74.66s-.48-4.73-5.26-4.85-5.26,4.59-5.26,4.59Z" fill="#b5872f"/><path d="M90,77.22h0a3.8,3.8,0,0,1-4.77-2.45l-3.87-12A3.8,3.8,0,0,1,83.85,58h0a3.79,3.79,0,0,1,4.77,2.45L92.49,72.5A3.79,3.79,0,0,1,90,77.22Z" fill="#ffbf42"/><path d="M86.67,62.26a1.5,1.5,0,1,1-1.49-1.7,1.61,1.61,0,0,1,1.49,1.7Z" fill="#4d4d4d"/><rect width="41.4" height="4.93" transform="translate(146.48 56.88)" fill="#4d4d4d"/><rect width="39.19" height="4.93" transform="translate(187.55 56.88)" fill="#404040"/><path d="M148.67,53.18,124.78,66.13A15.76,15.76,0,0,0,118,73.34L108,95,91.42,111.29a6,6,0,0,0,0,8.32,5.83,5.83,0,0,0,8.34-.09l15.87-15.85,5.9-5.81,5.93-16.35a10.66,10.66,0,0,1,5.36-6l21.57-12.12c3.17-1.75,5-5.6,3.59-8.17C156,51.52,152.22,51.26,148.67,53.18Z" fill="#ffbf42"/><path d="M155.16,57.8a2.11,2.11,0,1,1-2.07-2.53,2.34,2.34,0,0,1,2.07,2.53Z" fill="#b5872f"/><path d="M58.15,97.35,73.88,115.7s11.8,13.77,28.43,5.22c14.62-7.52,11.35-24,9.66-30.77a55.641,55.641,0,0,0-4.43-11.24Z" fill="#424242"/><path d="M149.07,73.87h18.66l14.09,30.41H166.17Z" fill="#c29232"/><path d="M115,102.14c-.12,17.38,10.14,27.37,23,29.08a41.671,41.671,0,0,0,13.35,0c4.48-9,3.72-17.83,3.8-28.82.09-12.38,3.72-24.82-4.68-29-4.91-.2-8.9,0-11.68,0C126.4,73.27,115.12,84.85,115,102.14Z" fill="#383838"/><ellipse cx="28.95" cy="24.27" rx="28.95" ry="24.27" transform="translate(125.172 131.146) rotate(-89.58)" fill="#1f1f1f"/><ellipse cx="16.2" cy="13.58" rx="16.2" ry="13.58" transform="translate(136.661 119.039) rotate(-89.58)" fill="#525252"/><path d="M150.32,119.44h-.09a13.21,13.21,0,0,1-10.13-5.08,19.19,19.19,0,0,1,.18-23.84,12.8,12.8,0,0,1,20.31.15,19.21,19.21,0,0,1-.17,23.84,13.22,13.22,0,0,1-10.1,4.93Zm-13.55-17h.72a17.1,17.1,0,0,0,3.73,11,11.78,11.78,0,0,0,9,4.55,11.63,11.63,0,0,0,9.07-4.42,17.76,17.76,0,0,0,.16-22,11.78,11.78,0,0,0-9-4.55h-.08a11.81,11.81,0,0,0-9,4.42,17.15,17.15,0,0,0-3.89,11Z" fill="#8c8c8c"/><path d="M150.41,86.51c-.65,0-.22.4-.85.5,6.26.29,10.85,7,10.79,15.47-.07,8.72-5.24,15.56-11.72,15.37a7.721,7.721,0,0,0,1.56.38c7.38,0,13.41-7,13.47-15.72S157.79,86.56,150.41,86.51Z" fill="#8c8c8c"/><path d="M147.91,102.85c0,3.64,5.15,8.18,3,9.87h-2.33c-4,0-7.21-4.46-7.17-9.91S144.69,93,148.69,93a19.441,19.441,0,0,1,2.47.06C153.22,94.8,147.94,99.3,147.91,102.85Z" fill="#8c8c8c"/><path d="M157.43,102.92c0,5.44-3.31,9.83-7.31,9.8s-7.21-4.46-7.17-9.91S146.27,93,150.26,93,157.47,97.47,157.43,102.92Z" fill="#b3b3b3"/><path d="M153.54,102.89c0,2.37-1.44,4.28-3.19,4.27s-3.13-1.94-3.12-4.32,1.45-4.28,3.19-4.27S153.55,100.52,153.54,102.89Z" fill="#8c8c8c"/><path d="M167.73,73.87H145.96V69.81h24.02Z" fill="#9c7528"/><rect width="21.19" height="4.06" transform="translate(124.76 69.81)" fill="#ffd582"/><path d="M265.27,73.87H236.69l1.29-4.06h27.29Z" fill="#9c7528"/><path d="M185.97,104.28h-4.04l-14.2-30.41,2.25-4.06Z" fill="#9c7528"/><path d="M222.26,69.81h16.05l-13.58,34.47H207.59Z" fill="#ffc85c"/><path d="M224.73,104.28h4.2l12.5-30.41-3.12-4.06Z" fill="#9c7528"/><path d="M69.27,73.87a1.5,1.5,0,1,1-1.49-1.7A1.61,1.61,0,0,1,69.27,73.87Z" fill="#4d4d4d"/><path d="M90.32,73.87a1.5,1.5,0,1,1-1.49-1.7,1.61,1.61,0,0,1,1.49,1.7Z" fill="#4d4d4d"/><rect width="3.37" height="10.15" transform="translate(160.78 51.66)" fill="#5e5e5e"/><path d="M158,47.48h6A4.49,4.49,0,0,1,168.52,52v.4H158Z" fill="#696969"/><path d="M164,47.48h0A4.49,4.49,0,0,1,168.52,52v.4H164Z" fill="#4d4d4d"/><rect width="3.38" height="1.91" transform="translate(159.33 48.81)" fill="#f2f2f2"/><path d="M220.31,74.4h-48.2l-2.13-4.59h52.28Z" fill="#9c7528" opacity="0.43"/><path d="M215.6,85.52H176.75l-2.13-4.59h42.94Z" fill="#9c7528" opacity="0.43"/><path d="M196.23,112.24h0a1,1,0,0,1-1-1V69.05a1,1,0,0,1,1-1h0a1,1,0,0,1,1,1v42.21A1,1,0,0,1,196.23,112.24Z" fill="#4d4d4d"/><path d="M207.8,112.24h0a1,1,0,0,1-1-1V69.05a1,1,0,0,1,1-1h0a1,1,0,0,1,1,1v42.21A1,1,0,0,1,207.8,112.24Z" fill="#4d4d4d"/><path d="M195.29,69.05h0a1,1,0,0,1,1-1h11.5a1,1,0,0,1,1,1h0a1,1,0,0,1-1,1h-11.5A1,1,0,0,1,195.29,69.05Z" fill="#4d4d4d"/><path d="M195.29,79.6h0a1,1,0,0,1,1-1h11.5a1,1,0,0,1,1,1h0a1,1,0,0,1-1,1h-11.5A1,1,0,0,1,195.29,79.6Z" fill="#4d4d4d"/><path d="M195.29,90.15h0a1,1,0,0,1,1-1h11.5a1,1,0,0,1,1,1h0a1,1,0,0,1-1,1h-11.5A1,1,0,0,1,195.29,90.15Z" fill="#4d4d4d"/><path d="M195.29,100.7h0a1,1,0,0,1,1-1h11.5a1,1,0,0,1,1,1h0a1,1,0,0,1-1,1h-11.5A1,1,0,0,1,195.29,100.7Z" fill="#4d4d4d"/><path d="M195.29,111.26h0a1,1,0,0,1,1-1h11.5a1,1,0,0,1,1,1h0a1,1,0,0,1-1,1h-11.5A1,1,0,0,1,195.29,111.26Z" fill="#4d4d4d"/><path d="M243,41H230.42a2.47,2.47,0,0,1-2.48-2.47h0a2.48,2.48,0,0,1,2.48-2.48H243a2.48,2.48,0,0,1,2.48,2.48h0A2.47,2.47,0,0,1,243,41Z" fill="#ffc042"/><path d="M49.46,78.87,0,96.92l58.7.43,49.09-18.48Zm8.69,16.68L9.84,95.19,49.9,80H99.76Z" fill="#b3b3b3"/><path d="M105.76,83s11.16,22.55-1.24,33.7c9.65-11.56-.8-32.82-.8-32.82Z" fill="#666"/><path d="M10.78,96.97,8.02,90.45l-6.8.08,2.36,6.83Z" fill="#8a8a8a"/><path d="M2.89,89.75l-1.67.78,6.8-.08.61-.62Z" fill="#dbdbdb"/><path d="M13.76,95.2l-2.98,1.77L8.02,90.45l.61-.62Z" fill="#666"/><path d="M24.62,97.11,21.85,90.6l-6.79.07,2.29,7.29Z" fill="#8a8a8a"/><path d="M16.73,89.89l-1.67.78,6.79-.07.62-.63Z" fill="#dbdbdb"/><path d="M27.59,95.34l-2.97,1.77L21.85,90.6l.62-.63Z" fill="#666"/><path d="M39.58,97.35l-2.87-6.69-6.8.07,2.55,7.68Z" fill="#8a8a8a"/><path d="M31.58,89.96l-1.67.77,6.8-.07.61-.63Z" fill="#dbdbdb"/><path d="M42.45,95.4l-2.98,1.78-2.76-6.52.61-.63Z" fill="#666"/><path d="M55.85,97.35l-3.26-6.51-6.8.08,2.5,7.49Z" fill="#8a8a8a"/><path d="M47.47,90.14l-1.68.78,6.8-.08.61-.63Z" fill="#dbdbdb"/><path d="M58.33,95.58l-2.59,1.78-3.15-6.52.61-.63Z" fill="#666"/><path d="M150,126.62c-10.67,0-19.35-10.72-19.35-23.91S139.32,78.79,150,78.79s19.34,10.73,19.34,23.92S160.65,126.62,150,126.62Zm0-46.22c-9.78,0-17.74,10-17.74,22.31s8,22.3,17.74,22.3,17.73-10,17.73-22.3S159.76,80.4,150,80.4Z" fill="#424242" opacity="0.3"/><path d="M256.92,126.62c-10.66,0-19.34-10.72-19.34-23.91s8.68-23.92,19.34-23.92,19.35,10.73,19.35,23.92S267.59,126.62,256.92,126.62Zm0-46.22c-9.78,0-17.73,10-17.73,22.31s7.95,22.3,17.73,22.3,17.74-10,17.74-22.3S266.7,80.4,256.92,80.4Z" fill="#424242" opacity="0.3"/><rect width="2.03" height="1.96" transform="translate(187.88 76.46)" fill="#404040"/><rect width="2.03" height="1.96" transform="translate(187.88 88.18)" fill="#404040"/><rect width="2.03" height="1.96" transform="translate(187.88 65.12)" fill="#404040"/><path d="M261.59,58.52a3.78,3.78,0,1,1-3.77-3.77A3.78,3.78,0,0,1,261.59,58.52Z" fill="#333" opacity="0.22"/><rect width="9.38" height="22.4" rx="3.23" transform="translate(253.13 26.78)" fill="#333"/><path d="M257.82,60.38h0a1.52,1.52,0,0,1-1.53-1.53c0-5.91.11-27.36,0-37.74,0-3.12,1.3-9.3,8.31-9.3,0,.7.12,2,.09,2.82-4.16.44-5.33,3.11-5.33,6.48V58.85a1.53,1.53,0,0,1-1.54,1.53Z" fill="#333"/><path d="M208.26,4.57,169.98,61.89h15.99L222.26,4.57Z" fill="#fff" opacity="0.23"/><path d="M226.74,4.57,189.9,61.81h4.34l32.5-51.84Z" fill="#fff" opacity="0.23"/><path d="M8.78,98.74c.61.71.76,1.57.34,1.94s-1.26.09-1.87-.62-.76-1.57-.33-1.94S8.18,98,8.78,98.74Z" fill="#666"/><path d="M21.94,98.74c.61.71.76,1.57.34,1.94s-1.26.09-1.87-.62-.75-1.57-.33-1.94S21.34,98,21.94,98.74Z" fill="#666"/><path d="M36.85,98.74c.61.71.76,1.57.33,1.94s-1.26.09-1.86-.62-.76-1.57-.33-1.94S36.24,98,36.85,98.74Z" fill="#666"/><path d="M53.36,98.74c.6.71.75,1.57.33,1.94s-1.26.09-1.87-.62-.75-1.57-.33-1.94S52.75,98,53.36,98.74Z" fill="#666"/></svg>
