<?xml version="1.0"?>
<svg xmlns="http://www.w3.org/2000/svg" viewBox="0 0 64 64" width="60px" height="60px"><g id="Gift_voucher" data-name="Gift voucher"><path d="M48.293,40.293l-12,12a1,1,0,1,0,1.414,1.414l12-12a1,1,0,0,0-1.414-1.414Z"/><path d="M47,48a3,3,0,1,0,3,3A3,3,0,0,0,47,48Zm0,4a1,1,0,1,1,1-1A1,1,0,0,1,47,52Z"/><path d="M39,46a3,3,0,1,0-3-3A3,3,0,0,0,39,46Zm0-4a1,1,0,1,1-1,1A1,1,0,0,1,39,42Z"/><path d="M9,40a1,1,0,0,0-1,1v1a1,1,0,0,0,2,0V41A1,1,0,0,0,9,40Z"/><path d="M9,45a1,1,0,0,0-1,1v1a1,1,0,0,0,2,0V46A1,1,0,0,0,9,45Z"/><path d="M9,50a1,1,0,0,0-1,1v1a1,1,0,0,0,2,0V51A1,1,0,0,0,9,50Z"/><path d="M61,12H49.46A5.994,5.994,0,1,0,40,4.69,5.995,5.995,0,1,0,30.54,12H19a1,1,0,0,0-1,1V23a1,1,0,0,0,1,1h1v8H13a5,5,0,0,0-4,2,5,5,0,0,0-4-2H3a1,1,0,0,0-1,1V61a1,1,0,0,0,1,1H5a5,5,0,0,0,4-2,5,5,0,0,0,4,2H53a1,1,0,0,0,1-1V58h5a1,1,0,0,0,1-1V24h1a1,1,0,0,0,1-1V13A1,1,0,0,0,61,12ZM45,4a4,4,0,0,1,0,8H41V8A4,4,0,0,1,45,4ZM42,32H38V14h4ZM31,8a4,4,0,0,1,8,0v4H35A4,4,0,0,1,31,8ZM20,14H36v8H20Zm2,10H36v8H22ZM52,60H13a3,3,0,0,1-3-3,1,1,0,0,0-2,0,3,3,0,0,1-3,3H4V34H5a3,3,0,0,1,3,3,1,1,0,0,0,2,0,3,3,0,0,1,3-3H52Zm6-4H54V33a1,1,0,0,0-1-1H44V24H58Zm2-34H44V14H60Z"/><path d="M33,42H29.444A3.959,3.959,0,0,0,30,40a3.983,3.983,0,0,0-7-2.618A3.979,3.979,0,0,0,16.556,42H13a1,1,0,0,0-1,1v4a1,1,0,0,0,1,1h1v9a1,1,0,0,0,1,1H31a1,1,0,0,0,1-1V48h1a1,1,0,0,0,1-1V43A1,1,0,0,0,33,42ZM20,56H16V48h4Zm0-10H14V44h6Zm-2-6a2,2,0,0,1,4,0v2H20A2,2,0,0,1,18,40Zm6,16H22V44h2Zm0-16a2,2,0,1,1,2,2H24Zm6,16H26V48h4Zm2-10H26V44h6Z"/></g></svg>
