<svg xmlns="http://www.w3.org/2000/svg" viewBox="0 0 279.12 485.79"><defs><style>.cls-1{fill:#ce9906;}</style></defs><g id="Layer_2" data-name="Layer 2"><g id="Layer_1-2" data-name="Layer 1"><path class="cls-1" d="M194.43,368.89H175.25l0-148.46h0v-.17a.55.55,0,0,0-.12-.33c-.39-.75-1.64-1.38-3.33-1.72l0-57.71h.76a.89.89,0,0,0,.89-.9v-12a.9.9,0,0,0-.9-.9h-7.44a.8.8,0,0,0-.43.13v-1.09a.71.71,0,0,0-.71-.71h-6.36V73.46a1.11,1.11,0,0,0-1.11-1.12h-3.19V18.17a1.15,1.15,0,0,0-.08-.41,1.17,1.17,0,0,0-.43-.48,1,1,0,0,0-.55-.17h-3.64V.28A.29.29,0,0,0,148.4,0h-3.72a.28.28,0,0,0-.28.28V5.81h-.53V3.55a.9.9,0,0,0-.9-.9h-7.44a.89.89,0,0,0-.89.89V5.81h-.28V.28a.29.29,0,0,0-.28-.28h-3.72a.28.28,0,0,0-.28.28V17.11H126.6a1.07,1.07,0,0,0-1.07,1.06V72.34h-3.35a1.12,1.12,0,0,0-1.11,1.12v71.6h-6.19a.71.71,0,0,0-.71.71v1.09a.84.84,0,0,0-.44-.13h-7.44a.89.89,0,0,0-.89.9v12a.9.9,0,0,0,.9.9h.75l0,57.71c-1.68.34-2.93,1-3.32,1.72a.51.51,0,0,0-.13.33v.17h0l0,148.46H84.33V484.37h3.85v.8a.59.59,0,0,0,.6.59H190a.59.59,0,0,0,.59-.59v-.8h3.83V368.89Zm-77.68-.43v.43h-.22A.54.54,0,0,0,116.75,368.46ZM130.34,354h18.23v2.88H130.34Zm31.79,14.89v-.43a.54.54,0,0,0,.22.43Zm-3.35,0h-.4v-2.71h.4Zm-5.93-12V354h1.25v2.88Zm1.25-12.18h-1.25v-1.78a.4.4,0,0,0-.4-.4H149a.4.4,0,0,0-.4.4v1.78H130.34v-1.78a.39.39,0,0,0-.39-.4h-3.48a.4.4,0,0,0-.4.4v1.78h-1.3v-3.35h6.41v1.45a.41.41,0,0,0,.42.41h2.93a.41.41,0,0,0,.42-.41v-1.45h8.79v1.45a.41.41,0,0,0,.41.41h2.93a.41.41,0,0,0,.42-.41v-1.45h6.6ZM124.77,354h1.3v2.88h-1.3Zm-4.28,14.89h-.39v-2.71h.39Zm37.23-207.47H164a.71.71,0,0,0,.71-.71v-.35a.9.9,0,0,0,.43.13h.75l0,57.71c-1.7.35-2.94,1-3.32,1.75a.52.52,0,0,0-.11.3v.1s0,.05,0,.08,0,0,0,.07l0,133.61a.56.56,0,0,0-.31.49v-1.9a.47.47,0,0,0-.47-.47h-2.41a.47.47,0,0,0-.47.47v4.18h-.4V332.43a.37.37,0,0,0-.37-.37h-.33V161.42ZM134.36,13.25h.28v2.26a.89.89,0,0,0,.89.9H143a.89.89,0,0,0,.89-.9V13.25h.53v3.86h-10ZM113.74,160.49a.9.9,0,0,0,.43-.13v.35a.7.7,0,0,0,.71.71h6.19V332.06h-.21a.36.36,0,0,0-.37.37v24.45h-.39V352.7a.47.47,0,0,0-.47-.47h-2.41a.47.47,0,0,0-.47.47v1.9a.52.52,0,0,0-.28-.46l0-133.64a.17.17,0,0,0,0-.07.28.28,0,0,0,0-.09v-.09a.46.46,0,0,0-.11-.3c-.37-.76-1.62-1.4-3.31-1.75l0-57.71Z"/><path class="cls-1" d="M274.37,209H186.06a4.76,4.76,0,0,0-4.75,4.76v65.82h-3l0,86.27h19.18v16.47h71.64a5.43,5.43,0,0,0,5.44-5.44v-.57a3.44,3.44,0,0,0,.91-.12,4.72,4.72,0,0,0,2.67-1.69,3.06,3.06,0,0,0,.21-.29,2.5,2.5,0,0,0,.21-.35l.09-.17a4.58,4.58,0,0,0,.48-1.6,4.89,4.89,0,0,0,0-.54V359.86H181.81v-2h97.31V213.8A4.76,4.76,0,0,0,274.37,209Zm-.45,133.09a3,3,0,0,1-3,3H189.55a3,3,0,0,1-2.11-.86q-.13-.13-.27-.3a3.62,3.62,0,0,1-.22-.32c-.07-.12-.13-.23-.19-.36a2.09,2.09,0,0,1-.11-.3.78.78,0,0,1-.05-.18,1.55,1.55,0,0,1,0-.23,2.63,2.63,0,0,1,0-.49v-34.9h87.41Zm0-44.52H186.51V224.35a3,3,0,0,1,3-3h81.33a2.12,2.12,0,0,1,.44,0,1,1,0,0,1,.25,0l.21.06a2.66,2.66,0,0,1,.6.26,2.82,2.82,0,0,1,.31.21,2.17,2.17,0,0,1,.29.24,3,3,0,0,1,.94,2.19ZM197.44,438.9h19.15a1.14,1.14,0,0,0-.12.48v18.08a.84.84,0,0,0,.27.61l2,1.91a.9.9,0,0,0,.58.23h1.16V408.84H197.44ZM42.75,279.62A25.1,25.1,0,0,0,17.7,303h-.05v1.54a.66.66,0,0,0,0,.14v53.15h82.74v2H17.64v18.67a3.53,3.53,0,0,0,2.1,3.21l.05,0a3.55,3.55,0,0,0,1.91.56H81.33V365.89h19.33l0-86.27ZM32.07,341.36H29.58V328.59a1.11,1.11,0,0,1,1.1-1.11H31a1.11,1.11,0,0,1,1.11,1.11Zm0-19.16H29.58V309.43a1.1,1.1,0,0,1,1.1-1.1H31a1.11,1.11,0,0,1,1.11,1.1Zm11,19.16H40.57V328.59a1.11,1.11,0,0,1,1.11-1.11H42a1.11,1.11,0,0,1,1.1,1.11Zm0-19.16H40.57V309.43a1.11,1.11,0,0,1,1.11-1.1H42a1.1,1.1,0,0,1,1.1,1.1Zm12,19.16H52.61V328.59a1.11,1.11,0,0,1,1.1-1.11H54a1.11,1.11,0,0,1,1.11,1.11Zm0-19.16H52.61V309.43a1.1,1.1,0,0,1,1.1-1.1H54a1.11,1.11,0,0,1,1.11,1.1Zm11,19.16H63.6V328.59a1.11,1.11,0,0,1,1.11-1.11H65a1.11,1.11,0,0,1,1.1,1.11Zm0-19.16H63.6V309.43a1.11,1.11,0,0,1,1.11-1.1H65a1.1,1.1,0,0,1,1.1,1.1Zm12,19.16H75.64V328.59a1.11,1.11,0,0,1,1.1-1.11H77a1.11,1.11,0,0,1,1.11,1.11Zm0-19.16H75.64V309.43a1.1,1.1,0,0,1,1.1-1.1H77a1.11,1.11,0,0,1,1.11,1.1Zm11,19.16H86.63V328.59a1.11,1.11,0,0,1,1.11-1.11H88a1.11,1.11,0,0,1,1.1,1.11Zm0-19.16H86.63V309.43a1.11,1.11,0,0,1,1.11-1.1H88a1.1,1.1,0,0,1,1.1,1.1Zm-30.91,84H0v3.38H58.21v1.73H0v3.39H58.21v1.42H0v3.39H58.21v1.28H0v3.38H58.21v1.57H0v3.39H58.21v1.57H0v3.38H58.21v1.58H0V439H58.21v1.62H0v4.19H58.21v.22H0v3.38H58.21V450H0v3.38H58.21V455H0v3.39H58.21v1.57H0v3.38H58.21v-3.11h1.2A.86.86,0,0,0,60,460l2-1.91a.83.83,0,0,0,.26-.61V439.38a1.13,1.13,0,0,0-.11-.48H81.33V408.84H58.21Z"/><polygon class="cls-1" points="220.54 399.07 220.54 401.46 278.75 401.46 278.75 399.07 278.75 398.31 220.54 398.31 220.54 399.07"/><polygon class="cls-1" points="220.54 402.37 220.54 403.57 220.54 405.45 278.75 405.45 278.75 403.57 278.75 402.37 278.75 402.07 220.54 402.07 220.54 402.37"/><polygon class="cls-1" points="220.54 406.5 220.54 407.7 220.54 409.58 278.75 409.58 278.75 407.7 278.75 406.5 278.75 406.2 220.54 406.2 220.54 406.5"/><polygon class="cls-1" points="220.54 411.61 220.54 412.81 220.54 414.69 278.75 414.69 278.75 412.81 278.75 411.61 278.75 411.31 220.54 411.31 220.54 411.61"/><polygon class="cls-1" points="220.54 416.42 220.54 417.63 220.54 419.5 278.75 419.5 278.75 417.63 278.75 416.42 278.75 416.12 220.54 416.12 220.54 416.42"/><polygon class="cls-1" points="220.54 421.09 220.54 422.81 220.54 424.17 278.75 424.17 278.75 422.81 278.75 421.09 278.75 420.79 220.54 420.79 220.54 421.09"/><polygon class="cls-1" points="220.54 426.04 220.54 427.76 220.54 429.13 278.75 429.13 278.75 427.76 278.75 426.04 278.75 425.74 220.54 425.74 220.54 426.04"/><polygon class="cls-1" points="220.54 431 220.54 432.72 220.54 434.08 278.75 434.08 278.75 432.72 278.75 431 278.75 430.7 220.54 430.7 220.54 431"/><polygon class="cls-1" points="220.54 435.96 220.54 437.68 220.54 439.04 278.75 439.04 278.75 437.68 278.75 435.96 278.75 435.66 220.54 435.66 220.54 435.96"/><polygon class="cls-1" points="220.54 480.54 220.54 481.74 220.54 482.04 278.75 482.04 278.75 481.74 278.75 480.54 278.75 478.66 220.54 478.66 220.54 480.54"/><polygon class="cls-1" points="220.54 485.04 220.54 485.42 220.54 485.79 278.75 485.79 278.75 485.42 278.75 485.04 278.75 483.01 220.54 483.01 220.54 485.04"/><polygon class="cls-1" points="220.54 476.4 220.54 477.61 220.54 477.91 278.75 477.91 278.75 477.61 278.75 476.4 278.75 474.52 220.54 474.52 220.54 476.4"/><polygon class="cls-1" points="220.54 471.29 220.54 472.5 220.54 472.8 278.75 472.8 278.75 472.5 278.75 471.29 278.75 469.41 220.54 469.41 220.54 471.29"/><polygon class="cls-1" points="220.54 466.48 220.54 467.69 220.54 467.99 278.75 467.99 278.75 467.69 278.75 466.48 278.75 464.6 220.54 464.6 220.54 466.48"/><polygon class="cls-1" points="220.54 461.3 220.54 463.02 220.54 463.32 278.75 463.32 278.75 463.02 278.75 461.3 278.75 459.94 220.54 459.94 220.54 461.3"/><polygon class="cls-1" points="220.54 456.34 220.54 458.06 220.54 458.37 278.75 458.37 278.75 458.06 278.75 456.34 278.75 454.98 220.54 454.98 220.54 456.34"/><polygon class="cls-1" points="220.54 451.39 220.54 453.11 220.54 453.41 278.75 453.41 278.75 453.11 278.75 451.39 278.75 450.03 220.54 450.03 220.54 451.39"/><polygon class="cls-1" points="220.54 446.43 220.54 448.15 220.54 448.45 278.75 448.45 278.75 448.15 278.75 446.43 278.75 445.07 220.54 445.07 220.54 446.43"/><polygon class="cls-1" points="220.54 441.75 220.54 443.77 220.54 444.85 278.75 444.85 278.75 443.77 278.75 441.75 278.75 440.66 220.54 440.66 220.54 441.75"/><polygon class="cls-1" points="58.21 403.57 58.21 402.37 58.21 402.07 0 402.07 0 402.37 0 403.57 0 405.45 58.21 405.45 58.21 403.57"/><polygon class="cls-1" points="58.21 399.07 58.21 398.31 0 398.31 0 399.07 0 401.46 58.21 401.46 58.21 399.07"/><polygon class="cls-1" points="0 480.54 0 481.74 0 482.04 58.21 482.04 58.21 481.74 58.21 480.54 58.21 478.66 0 478.66 0 480.54"/><polygon class="cls-1" points="0 485.04 0 485.42 0 485.79 58.21 485.79 58.21 485.42 58.21 485.04 58.21 483.01 0 483.01 0 485.04"/><polygon class="cls-1" points="0 476.4 0 477.61 0 477.91 58.21 477.91 58.21 477.61 58.21 476.4 58.21 474.52 0 474.52 0 476.4"/><polygon class="cls-1" points="0 471.29 0 472.5 0 472.8 58.21 472.8 58.21 472.5 58.21 471.29 58.21 469.41 0 469.41 0 471.29"/><polygon class="cls-1" points="0 466.48 0 467.69 0 467.99 58.21 467.99 58.21 467.69 58.21 466.48 58.21 464.6 0 464.6 0 466.48"/></g></g></svg>