<svg xmlns="http://www.w3.org/2000/svg" width="42.66" height="15" viewBox="0 0 42.66 15">
  <g id="logo" transform="translate(0 -2.68)">
    <path id="Path_2" data-name="Path 2" d="M14.6,5.28,12.02,9.96,10.27,8.68l4-4.76Z" fill="#fff" fill-rule="evenodd"/>
    <path id="Path_3" data-name="Path 3" d="M0,8.78l11.46.11L9.59,8.52H11.3c.64,0,1.17-.17,1.17.47v2.69a1.18,1.18,0,0,1-1.17,1.17H0Z" fill="#fff" fill-rule="evenodd"/>
    <path id="Path_4" data-name="Path 4" d="M10.76,5.93H7V8.76a6.508,6.508,0,0,1-.06,1.34h0a.15.15,0,0,0,.06.11.39.39,0,0,0,.21.11h3.94a.37.37,0,0,0,.22-.1.24.24,0,0,0,.07-.16h0L11.1,6.28A.45.45,0,0,0,11,6h0a.28.28,0,0,0-.2-.08M6.79,5h4a1.21,1.21,0,0,1,.84.35h0a1.34,1.34,0,0,1,.38.83L12.32,10v.09a1.13,1.13,0,0,1-.34.8,1.29,1.29,0,0,1-.77.36H7a1.43,1.43,0,0,1-.7-.36,1.05,1.05,0,0,1-.3-.77H6A1,1,0,0,1,6,10V5.72a.6.6,0,0,1,.18-.49A.56.56,0,0,1,6.79,5Z" fill="#fff"/>
    <path id="Path_5" data-name="Path 5" d="M7.07,7.42l4.06.17.28,2.53L6.95,10.1Z" fill="#fff" fill-rule="evenodd"/>
    <rect id="Rectangle_1" data-name="Rectangle 1" width="0.63" height="5.1" transform="translate(8.36 5.48)" fill="#fff"/>
    <path id="Path_6" data-name="Path 6" d="M17.62,9l-.4.22L13.78,4.48c-.24-.6.86-1.28,1.27-.72Z" fill="#fff" fill-rule="evenodd"/>
    <rect id="Rectangle_2" data-name="Rectangle 2" width="4.03" height="0.62" transform="translate(4.67 12.77)" fill="#fff"/>
    <rect id="Rectangle_3" data-name="Rectangle 3" width="11.56" height="1.54" transform="translate(0.82 13.23)" fill="#fff"/>
    <path id="Path_7" data-name="Path 7" d="M2.82,13.29a2,2,0,1,1-2,2,2,2,0,0,1,2-2" fill="#fff" fill-rule="evenodd"/>
    <path id="Path_8" data-name="Path 8" d="M2.82,13.66a1.59,1.59,0,1,1-1.59,1.59,1.59,1.59,0,0,1,1.59-1.59" fill="#fff" fill-rule="evenodd"/>
    <path id="Path_9" data-name="Path 9" d="M2.82,14.49a.76.76,0,1,1-.76.76.76.76,0,0,1,.76-.76" fill="#fff" fill-rule="evenodd"/>
    <path id="Path_10" data-name="Path 10" d="M10.37,13.29a2,2,0,1,1-2,2,2,2,0,0,1,2-2" fill="#fff" fill-rule="evenodd"/>
    <path id="Path_11" data-name="Path 11" d="M10.37,13.66a1.59,1.59,0,1,1-1.59,1.59,1.59,1.59,0,0,1,1.59-1.59" fill="#fff" fill-rule="evenodd"/>
    <path id="Path_12" data-name="Path 12" d="M10.37,14.49a.76.76,0,1,1-.76.76.76.76,0,0,1,.76-.76" fill="#fff" fill-rule="evenodd"/>
    <path id="Path_13" data-name="Path 13" d="M13.77,13.56a4.63,4.63,0,0,0,2.9-.48l.45-.68h.19l.24,2.13c-.19.67-1.17.77-2,.79L13.87,14.2l-.1-.09Z" transform="matrix(0.978, -0.208, 0.208, 0.978, -2.539, -0.441)" fill="#fff" fill-rule="evenodd"/>
    <path id="Path_14" data-name="Path 14" d="M12.04,10.79h.82l.04,1.41-.86-.36Z" fill="#fff" fill-rule="evenodd"/>
    <text id="ДТС" transform="translate(16.66 14.68)" fill="#fff" font-size="13" font-family="Roboto-Bold, Roboto" font-weight="700" letter-spacing="-0.02em"><tspan x="0" y="0">ДТС</tspan></text>
  </g>
</svg>
