<svg class="benefit-item benefit-item-img ben-7" version="1.1" xmlns="http://www.w3.org/2000/svg" xmlns:xlink="http://www.w3.org/1999/xlink" x="0px" y="0px" viewBox="0 0 528 528" xml:space="preserve" width="44px" height="45px">
            <path d="M398,115.2c3.3,1.4,6.4,3.4,8.9,6l0,0c10.7,10.7,10.7,28.1,0,38.8l0,0L159.9,406.9l0,0
                c-10.7,10.7-28,10.8-38.7,0.1c0,0,0,0-0.1-0.1l0,0c-10.7-10.7-10.7-28.1,0-38.8l0,0l210.6-210.6c4.3-4.3,11.2-4.3,15.5,0l0,0
                c4.3,4.3,4.3,11.2,0,15.5l0,0L136.7,383.6l0,0c-2.1,2.2-2.1,5.7,0.1,7.8c0.5,0.5,1.1,0.9,1.7,1.1l0,0c0.7,0.3,1.4,0.4,2.1,0.4
                c0.7,0,1.4-0.1,2.1-0.4l0,0c0.7-0.3,1.3-0.7,1.8-1.2l246.9-246.9c2.1-2.1,2.1-5.6,0-7.7c-0.5-0.5-1.1-0.9-1.8-1.2l0,0
                c-1.3-0.5-2.8-0.5-4.2,0l0,0c-0.7,0.3-1.3,0.7-1.8,1.2l-13.1,13.1c-4.3,4.3-11.2,4.3-15.5,0l0,0c-4.3-4.3-4.3-11.2,0-15.5l0,0
                l13.1-13.1C375.9,113.3,387.7,110.9,398,115.2L398,115.2z"></path>
            <path d="M227.8,227.8c-29.9,30-78.5,30.1-108.4,0.2c-0.1-0.1-0.1-0.1-0.2-0.2l0,0c-30-29.9-30.1-78.5-0.1-108.5
                c0,0,0.1-0.1,0.1-0.1l0,0c29.9-30,78.5-30.1,108.4-0.2c0.1,0.1,0.1,0.1,0.2,0.2l0,0c30,29.9,30.1,78.5,0.2,108.4
                C227.9,227.7,227.8,227.7,227.8,227.8L227.8,227.8z M212.2,134.7c-21.4-21.4-56.1-21.3-77.5,0.1s-21.3,56.1,0.1,77.5
                s56.1,21.3,77.5-0.1c10.3-10.3,16-24.2,16-38.7C228.3,158.9,222.5,145,212.2,134.7z"></path>
            <path d="M300.2,300.3c29.9-30,78.5-30,108.5-0.1c0,0,0.1,0.1,0.1,0.1l0,0c30.3,29.7,30.9,78.3,1.2,108.6
                c-29.7,30.3-78.3,30.9-108.6,1.2c-0.4-0.4-0.8-0.8-1.2-1.2l0,0c-30-29.9-30-78.5-0.1-108.5C300.1,300.3,300.2,300.3,300.2,300.3z
                 M315.7,393.3c21.4,21.4,56.1,21.3,77.5-0.1c21.4-21.4,21.3-56.1-0.1-77.5c-21.4-21.4-56.1-21.3-77.5,0.1
                c-10.3,10.3-16,24.2-16,38.7C299.7,369.1,305.5,383.1,315.7,393.3L315.7,393.3z"></path>
            <path d="M204.5,204.5c-17.1,17.1-44.9,17.2-62,0.1c0,0,0,0-0.1-0.1l0,0c-17.1-17.1-17.2-44.8-0.1-62
                c0,0,0.1-0.1,0.1-0.1l0,0c8.2-8.2,19.4-12.9,31-12.9c1.9,0,3.7,0.1,5.5,0.4c1.7,0.2,3.4,0.5,5.1,0.9l0,0l0.4,0.1
                c5.7,1.5,9.3,7.2,8,13v0.1l-0.1,0.3c-1.5,5.8-7.5,9.3-13.3,7.9h-0.1c-0.9-0.2-1.8-0.4-2.7-0.5c-0.9-0.1-1.9-0.2-2.8-0.2
                c-12.1,0-21.9,9.8-21.9,21.9c0,12.1,9.8,21.9,21.9,21.9c12.1,0,21.9-9.8,21.9-21.9c0,0,0,0,0,0c0-0.9-0.1-1.9-0.2-2.8
                c-0.1-0.9-0.3-1.8-0.5-2.7c-0.7-2.8-0.3-5.8,1.2-8.3l0,0c1.5-2.5,3.9-4.3,6.7-5.1l0.4-0.1l0,0c5.8-1.3,11.5,2.3,13,8l0.1,0.4l0,0
                c0.9,3.5,1.3,7.1,1.3,10.6C217.4,185.2,212.7,196.3,204.5,204.5L204.5,204.5z"></path>
            <path d="M377,340.7c1.5-2.5,3.9-4.3,6.7-5.1l0,0c5.9-1.5,11.9,2,13.4,7.9c3.9,15-0.5,31-11.5,42l0,0
                c-16.9,17.3-44.7,17.7-62.1,0.7c-17.3-16.9-17.7-44.7-0.7-62.1c0.2-0.2,0.5-0.5,0.7-0.7l0,0c8.2-8.2,19.4-12.9,31-12.9
                c1.9,0,3.7,0.1,5.5,0.4c1.8,0.2,3.6,0.6,5.4,1c5.8,1.8,9.1,7.9,7.3,13.7c-1.7,5.4-7.2,8.7-12.8,7.6c-0.9-0.2-1.8-0.4-2.7-0.5l0,0
                c-0.9-0.1-1.9-0.2-2.8-0.2c-12.1,0-21.9,9.8-21.9,21.9c0,5.8,2.3,11.4,6.4,15.5l0,0c8.6,8.6,22.5,8.6,31,0c4.1-4.1,6.4-9.7,6.4-15.5
                c0-0.9-0.1-1.9-0.2-2.8c-0.1-0.9-0.3-1.8-0.5-2.7l0,0C375.1,346.2,375.5,343.2,377,340.7z"></path>
            <path d="M264,0c145.9-0.1,264.2,118,264.3,263.9s-118,264.2-263.9,264.3c-70.2,0.1-137.5-27.8-187.1-77.5l0,0
                C-25.8,347.9-26,181.1,76.7,78c0.2-0.2,0.4-0.4,0.6-0.6l0,0C126.8,27.8,194-0.1,264,0L264,0z M355.2,44.1
                c-88.9-37-191.4-16.6-259.4,51.7h0C2.8,188.3,2.5,338.7,95.1,431.6c0.2,0.2,0.4,0.4,0.7,0.7h0c93.1,92.7,243.7,92.4,336.5-0.7
                s92.4-243.7-0.7-336.5C409.7,73.3,383.7,56,355.2,44.1z"></path>
        </svg>
