<svg class="benefit-item benefit-item-img ben-2" version="1.1" xmlns="http://www.w3.org/2000/svg" xmlns:xlink="http://www.w3.org/1999/xlink" x="0px" y="0px" viewBox="0 0 626.2 670.8" xml:space="preserve" width="59" height="62">
            <path d="M99.8,422.1c10.1,0,18.4-7.7,18.4-17.3s-8.2-17.3-18.4-17.3s-18.4,7.7-18.4,17.3
                C81.4,414.4,89.6,422.1,99.8,422.1z"></path>
            <path d="M234.7,404.8c0-9.5-8.2-17.3-18.4-17.3c-10.1,0-18.4,7.7-18.4,17.3s8.2,17.3,18.4,17.3S234.7,414.4,234.7,404.8
                z"></path>
            <path d="M326.6,418.8c0.3-13.1-3.4-31.2-12.6-40.8l-0.9-4c-7.4-5.2-14.5-10.8-21.2-16.9c-2,2.9-5,5.1-8.5,5.9
                c-16,4.7-35.9-10.5-47.4-19.6c-1-0.9-26-21-74.1-21h-3.7c-48.2,0-73.1,20.1-73.9,20.8c-21.5,17-64.5,39.9-59-8.1
                c5.6-5.1,98.2-87.3,226.6-26.9c-6.4-10.8-11.9-22.1-16.3-33.9c-95.3-33.2-170.5,2.6-206,26c-0.6-39.7,4.4-68,4.4-68
                c7-32.7,38.6-53.6,66.4-57.5c15.8-2.3,31.4-5.7,46.7-10.2c7.8-1.7,15.9-1.8,23.8-0.4c9.4,3.3,23.3,6.7,48,10.6
                c1.6,0.2,3.1,0.5,4.7,0.9c1-8.4,2.4-16.7,4.4-24.9c-1.7-0.4-3.5-0.7-5.2-0.9c-20.8-3.3-32.9-6.1-41.1-8.6
                c-5.2-14.9-36.9-15.2-42.9-0.5c-13.7,4-27.7,7.1-41.9,9.1c-35.2,4.9-77.7,31.2-87.6,77.7C9,229.1,3,263.2,4.6,310.5
                c-0.6,1.6-1.1,3.2-1.4,4.9c-17.2,73,37.1,94.7,96.8,47.6c0.2-0.2,19.5-15.3,58.1-15.3c16.2-1.6,49.1,4.9,61.9,15.4
                c15.5,12.3,45.4,31.6,67.5,25.3c0.5,30.7-5,55.2-16,85.3c-23.1,22-54.6,29.2-85.7,29.2c-6-7.6-16.8-12.7-29.4-12.7
                c-18.9,0-34.2,11.5-34.2,25.7s15.4,25.7,34.3,25.7c12.2,0,22.8-4.8,28.9-12h0.5c26.1,0,47.3-4.5,64.6-11.5
                c-19.9,32.8-50,61.6-94.4,61.6h-2.9c-102.2,0-122.6-153.5-122.8-155.1c-2.2-17.4-28.7-14.1-26.5,3.3c0.7,5.8,15.3,116.6,85.6,160.6
                l0.1,0.8c2.2,18.2,0.9,31.9-3.9,41.2l-0.3,0.8c-4.1,7.4-11.1,11.8-21.2,13.3l-0.6,0.1l-0.8,0.1c-7.1,1-12.1,7.5-11.1,14.6
                c0,0,0,0,0,0c0.9,7.1,7.5,12.1,14.6,11.2c0,0,0.1,0,0.1,0l1-0.1l0.8-0.1c18.7-2.8,32.1-11.8,40.3-27c0.2-0.3,0.4-0.7,0.6-1.1
                c5.5-10.9,8.1-24.7,7.6-41.4c11.8,3.6,24.2,5.4,36.6,5.4h2.9c14.8,0.1,29.5-2.5,43.4-7.7c-0.8,17.8,1.7,32.4,7.5,43.7
                c0.2,0.4,0.4,0.8,0.6,1.1c8.2,15.2,21.6,24.2,40.3,27l0.8,0.1l0.9,0.1c7.1,1,13.7-4,14.7-11.1c1-7.1-4-13.7-11.1-14.7l-0.8-0.1
                l-0.6-0.1c-10.1-1.5-17.1-6-21.2-13.4l-0.4-0.8c-4.8-9.3-6-23.1-3.9-41.2l0.2-1.2c0.2-1.4,0.4-2.8,0.6-4.3
                c34.3-24.3,55.5-64,68.1-97.2C322.8,456,326.5,419.9,326.6,418.8z"></path>
            <path d="M447.1,249.1h-74.7c0.9-7.5,3.6-14.6,7.8-20.8c4.3-6.5,12.5-14.2,24.4-23c7.3-5.4,12-9.5,14-12.4
                c1.8-2.3,2.9-5.1,3.1-8c0-2.7-1-5.2-3-7c-4.4-3.9-11-3.9-15.4,0.1c-2,2-3.4,5.5-4.1,10.6l-25-2c1-7,2.8-12.5,5.4-16.4
                c2.7-4,6.5-7.2,11-9.1c4.8-2.1,11.3-3.2,19.7-3.1c8.8,0,15.6,1,20.5,3c4.7,1.8,8.7,5,11.5,9.2c2.8,4.1,4.3,9,4.2,13.9
                c0,5.6-1.7,11-4.8,15.6c-3.2,5-9,10.4-17.5,16.4c-5,3.5-8.4,5.9-10.1,7.3c-1.7,1.4-3.7,3.2-6,5.4h38.9L447.1,249.1z"></path>
            <path d="M503.1,213.1v-28.2l-24,28.2L503.1,213.1z M503.1,232.4h-45.4v-20.5l45.4-53.9h21.7v55.1H536v19.3h-11.3v16.8
                h-21.7V232.4z"></path>
            <path d="M615,188.7c-6.2,0-11.2,5-11.2,11.2c0,93.4-76,169.3-169.4,169.3s-169.3-75.9-169.3-169.3s76-169.3,169.3-169.3
                c30.7,0,60.8,8.3,87.1,24.1l15-26.5L552.2,93l-79.1,25c-5.9,1.8-9.2,8.1-7.3,14c1.8,5.9,8.1,9.2,14,7.3l80.1-25.3
                c10.8-3,17.2-14.1,14.4-25L556,13.6c-1.9-7-8.8-12.6-16.8-13.5c-7.2-0.9-13.8,2.3-17.2,8.3L512.7,25c-24.6-11-51.3-16.8-78.3-16.8
                c-105.7,0-191.7,86-191.7,191.6s86,191.6,191.7,191.6s191.7-86,191.7-191.6C626.2,193.7,621.2,188.7,615,188.7z"></path>
            <path d="M434.5,89.2c14,0,28,2.7,41,7.9l30-9.6c-21.3-13.5-45.9-20.6-71.1-20.6c-73.4,0-133.1,59.7-133.1,133.1
                S361.1,333,434.5,333c29.6,0.1,58.4-9.8,81.7-28c5-3.7,6-10.7,2.3-15.6c-3.7-5-10.7-6-15.6-2.3c-0.1,0.1-0.2,0.2-0.4,0.3
                c-19.4,15.2-43.3,23.3-68,23.3c-61.2,0-110.8-49.6-110.8-110.8S373.3,89.1,434.5,89.2L434.5,89.2z"></path>
        </svg>
