<?xml version="1.0"?>
<svg xmlns="http://www.w3.org/2000/svg" viewBox="0 0 512 512" width="60px" height="60px"><g id="Outline"><path d="M488,16H184a8,8,0,0,0-8,8V168h16V32H368v72a8,8,0,0,0,8,8h72V384H272v16H488a8,8,0,0,0,8-8V352H480v32H464s-.01-280.182-.014-280.274a8.135,8.135,0,0,0-2.329-5.383L395.314,32H480V336h16V24A8,8,0,0,0,488,16ZM436.687,96H384V43.313ZM352,80H304V64h48ZM304,96h48v16H304Zm0,32H424v16H304Zm0,32H424v16H304Zm-32,32H424v16H368v16h56v16H368v16h56v16H368v16h56v16H368v16h56v16H272V320h80V304H272V288h80V272H272V256h80V240H272V224h80V208H272Zm0,160H424v16H272ZM210.343,139.231l64-64,11.314,11.315-64,64Zm16.324-73.454a18.667,18.667,0,1,0,18.666,18.667A18.688,18.688,0,0,0,226.667,65.777Zm0,21.334a2.667,2.667,0,1,1,2.666-2.667A2.669,2.669,0,0,1,226.667,87.111ZM288,141.333A18.667,18.667,0,1,0,269.333,160,18.688,18.688,0,0,0,288,141.333ZM269.333,144A2.667,2.667,0,1,1,272,141.333,2.669,2.669,0,0,1,269.333,144ZM224,184H160V120a8,8,0,0,0-11.578-7.155L136,119.056l-12.422-6.211a8,8,0,0,0-7.156,0L104,119.056l-12.422-6.211a8,8,0,0,0-7.156,0L72,119.056l-12.422-6.211A8,8,0,0,0,48,120v64a32.036,32.036,0,0,0-32,32v24H32V216a16.019,16.019,0,0,1,16-16v24a8,8,0,0,0,8,8h96a8,8,0,0,0,8-8V200h64a16.019,16.019,0,0,1,16,16V464a16.019,16.019,0,0,1-16,16H48a16.019,16.019,0,0,1-16-16V256H16V464a32.036,32.036,0,0,0,32,32H224a32.036,32.036,0,0,0,32-32V216A32.036,32.036,0,0,0,224,184Zm-80,32H64V132.944l4.422,2.211a8,8,0,0,0,7.156,0L88,128.944l12.422,6.211a8,8,0,0,0,7.156,0L120,128.944l12.422,6.211a8,8,0,0,0,7.156,0L144,132.944Zm80,40a8,8,0,0,0-8-8H56a8,8,0,0,0-8,8v72a8,8,0,0,0,8,8H216a8,8,0,0,0,8-8Zm-16,64H64V264H208ZM48,392a8,8,0,0,0,8,8H88a8,8,0,0,0,8-8V360a8,8,0,0,0-8-8H56a8,8,0,0,0-8,8Zm16-24H80v16H64Zm96-8a8,8,0,0,0-8-8H120a8,8,0,0,0-8,8v32a8,8,0,0,0,8,8h32a8,8,0,0,0,8-8Zm-16,24H128V368h16Zm80-24a8,8,0,0,0-8-8H184a8,8,0,0,0-8,8v32a8,8,0,0,0,8,8h32a8,8,0,0,0,8-8Zm-16,24H192V368h16ZM48,456a8,8,0,0,0,8,8H88a8,8,0,0,0,8-8V424a8,8,0,0,0-8-8H56a8,8,0,0,0-8,8Zm16-24H80v16H64Zm88-16H120a8,8,0,0,0-8,8v32a8,8,0,0,0,8,8h32a8,8,0,0,0,8-8V424A8,8,0,0,0,152,416Zm-8,32H128V432h16Zm72-32H184a8,8,0,0,0-8,8v32a8,8,0,0,0,8,8h32a8,8,0,0,0,8-8V424A8,8,0,0,0,216,416Zm-8,32H192V432h16ZM192,304H176V288h16Zm-32,0H144V288h16Zm-32,0H112V288h16ZM80,184h48v16H80Zm0-32h48v16H80ZM472,448h-8v-8a24.028,24.028,0,0,0-24-24H384v16h56a8.009,8.009,0,0,1,8,8v8H312a8.034,8.034,0,0,0-3.578.845l-32,16a8,8,0,0,0,0,14.31l32,16A8.112,8.112,0,0,0,312,496H472a24,24,0,0,0,0-48ZM304,475.056,297.889,472,304,468.944ZM448,480H320V464H448Zm24,0h-8V464h8a8,8,0,0,1,0,16ZM16,120A48.053,48.053,0,0,1,64,72V88a32.036,32.036,0,0,0-32,32Z"/></g></svg>
