<svg id="Layer_2" data-name="Layer 2" xmlns="http://www.w3.org/2000/svg" xmlns:xlink="http://www.w3.org/1999/xlink" viewBox="0 0 70.764 27.14">
  <defs>
    <linearGradient id="linear-gradient" x1="0.5" y1="1.21" x2="0.5" y2="-1.652" gradientUnits="objectBoundingBox">
      <stop offset="0" stop-color="#d3d5da"/>
      <stop offset="1" stop-color="#fff"/>
    </linearGradient>
    <linearGradient id="linear-gradient-2" x1="0.501" y1="0.897" x2="0.501" y2="0.097" gradientUnits="objectBoundingBox">
      <stop offset="0" stop-color="#cf8e37"/>
      <stop offset="1" stop-color="#7c5632"/>
    </linearGradient>
    <linearGradient id="linear-gradient-3" x1="0.045" y1="0.5" x2="1" y2="0.5" gradientUnits="objectBoundingBox">
      <stop offset="0" stop-color="#fff"/>
      <stop offset="0.18" stop-color="#bdbebf"/>
      <stop offset="0.2" stop-color="#fff"/>
      <stop offset="0.36" stop-color="#efeeef"/>
      <stop offset="0.55" stop-color="#efeeef"/>
      <stop offset="0.59" stop-color="#898c8f"/>
      <stop offset="0.85" stop-color="#585e5f"/>
      <stop offset="0.91" stop-color="#cf8e37"/>
      <stop offset="1" stop-color="#f5e9bc"/>
    </linearGradient>
    <linearGradient id="linear-gradient-4" x1="0.526" y1="0.5" x2="0.976" y2="0.5" gradientUnits="objectBoundingBox">
      <stop offset="0" stop-color="#fad51c"/>
      <stop offset="1" stop-color="#efb62d"/>
    </linearGradient>
    <linearGradient id="linear-gradient-5" x1="0.5" y1="1.189" x2="0.5" y2="-0.037" xlink:href="#linear-gradient-4"/>
    <linearGradient id="linear-gradient-6" x1="0.499" y1="1.131" x2="0.499" y2="0.337" gradientUnits="objectBoundingBox">
      <stop offset="0" stop-color="#595f60"/>
      <stop offset="1"/>
    </linearGradient>
    <linearGradient id="linear-gradient-7" x1="0.205" y1="0.939" x2="0.627" y2="0.189" xlink:href="#linear-gradient-4"/>
    <linearGradient id="linear-gradient-8" x1="0.5" y1="-0.025" x2="0.5" y2="0.965" xlink:href="#linear-gradient-4"/>
    <linearGradient id="linear-gradient-9" x1="0.439" y1="-0.027" x2="0.624" y2="2.243" xlink:href="#linear-gradient-4"/>
    <linearGradient id="linear-gradient-10" x1="0.614" y1="1.277" x2="0.529" y2="0.741" xlink:href="#linear-gradient-4"/>
    <linearGradient id="linear-gradient-11" x1="0.559" y1="0.06" x2="0.485" y2="0.612" gradientUnits="objectBoundingBox">
      <stop offset="0" stop-color="#fad51c"/>
      <stop offset="1" stop-color="#fff"/>
    </linearGradient>
    <linearGradient id="linear-gradient-12" x1="0.5" y1="-0.09" x2="0.5" y2="0.505" gradientUnits="objectBoundingBox">
      <stop offset="0" stop-color="#aaa"/>
      <stop offset="1" stop-color="#fff"/>
    </linearGradient>
    <linearGradient id="linear-gradient-13" x1="0.5" y1="1.247" x2="0.5" y2="0.295" gradientUnits="objectBoundingBox">
      <stop offset="0" stop-color="#c2c0bf"/>
      <stop offset="1" stop-color="#777b7a"/>
    </linearGradient>
    <linearGradient id="linear-gradient-14" x1="0.5" y1="0.895" x2="0.5" y2="-0.597" gradientUnits="objectBoundingBox">
      <stop offset="0" stop-color="#595f60"/>
      <stop offset="1" stop-color="#fff"/>
    </linearGradient>
    <linearGradient id="linear-gradient-15" x1="0.499" y1="-0.491" x2="0.499" y2="0.954" gradientUnits="objectBoundingBox">
      <stop offset="0" stop-color="#cf8e37"/>
      <stop offset="1" stop-color="#f3c327"/>
    </linearGradient>
    <linearGradient id="linear-gradient-16" x1="0.478" y1="1.085" x2="0.514" y2="0.046" gradientUnits="objectBoundingBox">
      <stop offset="0" stop-color="#262d2d"/>
      <stop offset="1" stop-color="#b0b1b3"/>
    </linearGradient>
    <linearGradient id="linear-gradient-17" x1="0.5" y1="0.032" x2="0.5" y2="1.019" xlink:href="#linear-gradient-16"/>
    <linearGradient id="linear-gradient-18" x1="0.373" y1="0.067" x2="0.639" y2="0.976" gradientUnits="objectBoundingBox">
      <stop offset="0" stop-color="#262d2d"/>
      <stop offset="1" stop-color="#aaabac"/>
    </linearGradient>
    <linearGradient id="linear-gradient-19" x1="0.25" y1="0.112" x2="0.772" y2="0.923" gradientUnits="objectBoundingBox">
      <stop offset="0" stop-color="#262d2d"/>
      <stop offset="1" stop-color="#a3a4a5"/>
    </linearGradient>
    <linearGradient id="linear-gradient-20" x1="0.139" y1="0.19" x2="0.883" y2="0.835" gradientUnits="objectBoundingBox">
      <stop offset="0" stop-color="#262d2d"/>
      <stop offset="1" stop-color="#9d9e9f"/>
    </linearGradient>
    <linearGradient id="linear-gradient-21" x1="0.094" y1="0.316" x2="0.935" y2="0.699" gradientUnits="objectBoundingBox">
      <stop offset="0" stop-color="#262d2d"/>
      <stop offset="1" stop-color="#97999a"/>
    </linearGradient>
    <linearGradient id="linear-gradient-22" x1="0.032" y1="0.433" x2="0.999" y2="0.572" gradientUnits="objectBoundingBox">
      <stop offset="0" stop-color="#262d2d"/>
      <stop offset="1" stop-color="#929394"/>
    </linearGradient>
    <linearGradient id="linear-gradient-23" x1="0.03" y1="0.568" x2="0.997" y2="0.428" gradientUnits="objectBoundingBox">
      <stop offset="0" stop-color="#262d2d"/>
      <stop offset="1" stop-color="#8c8e8f"/>
    </linearGradient>
    <linearGradient id="linear-gradient-24" x1="0.089" y1="0.688" x2="0.931" y2="0.304" gradientUnits="objectBoundingBox">
      <stop offset="0" stop-color="#262d2d"/>
      <stop offset="1" stop-color="#87898a"/>
    </linearGradient>
    <linearGradient id="linear-gradient-25" x1="0.135" y1="0.816" x2="0.88" y2="0.171" gradientUnits="objectBoundingBox">
      <stop offset="0" stop-color="#262d2d"/>
      <stop offset="1" stop-color="#828485"/>
    </linearGradient>
    <linearGradient id="linear-gradient-26" x1="0.246" y1="0.898" x2="0.772" y2="0.079" gradientUnits="objectBoundingBox">
      <stop offset="0" stop-color="#262d2d"/>
      <stop offset="1" stop-color="#7d8080"/>
    </linearGradient>
    <linearGradient id="linear-gradient-27" x1="0.368" y1="0.949" x2="0.635" y2="0.038" gradientUnits="objectBoundingBox">
      <stop offset="0" stop-color="#262d2d"/>
      <stop offset="1" stop-color="#787b7c"/>
    </linearGradient>
    <linearGradient id="linear-gradient-28" x1="0.5" y1="0.99" x2="0.5" y2="0.008" gradientUnits="objectBoundingBox">
      <stop offset="0" stop-color="#262d2d"/>
      <stop offset="1" stop-color="#737778"/>
    </linearGradient>
    <linearGradient id="linear-gradient-29" x1="0.5" y1="-0.002" x2="0.5" y2="1" xlink:href="#linear-gradient-16"/>
    <linearGradient id="linear-gradient-30" x1="0.5" y1="0.99" x2="0.5" y2="0.003" xlink:href="#linear-gradient-28"/>
    <linearGradient id="linear-gradient-31" x1="0.5" y1="-0.025" x2="0.5" y2="0.968" xlink:href="#linear-gradient-4"/>
    <linearGradient id="linear-gradient-32" x1="0.547" y1="1.778" x2="0.481" y2="-0.113" xlink:href="#linear-gradient-11"/>
    <linearGradient id="linear-gradient-33" x1="0.475" y1="1.08" x2="0.51" y2="0.046" xlink:href="#linear-gradient-16"/>
    <linearGradient id="linear-gradient-34" x1="0.499" y1="0.032" x2="0.499" y2="1.019" xlink:href="#linear-gradient-16"/>
    <linearGradient id="linear-gradient-35" x1="0.373" y1="0.067" x2="0.64" y2="0.976" xlink:href="#linear-gradient-18"/>
    <linearGradient id="linear-gradient-37" x1="0.142" y1="0.191" x2="0.887" y2="0.835" xlink:href="#linear-gradient-20"/>
    <linearGradient id="linear-gradient-38" x1="0.091" y1="0.316" x2="0.93" y2="0.699" xlink:href="#linear-gradient-21"/>
    <linearGradient id="linear-gradient-40" x1="0.033" y1="0.568" x2="1" y2="0.428" xlink:href="#linear-gradient-23"/>
    <linearGradient id="linear-gradient-41" x1="0.09" y1="0.688" x2="0.931" y2="0.304" xlink:href="#linear-gradient-24"/>
    <linearGradient id="linear-gradient-43" x1="0.239" y1="0.899" x2="0.76" y2="0.088" xlink:href="#linear-gradient-26"/>
    <linearGradient id="linear-gradient-44" x1="0.368" y1="0.949" x2="0.636" y2="0.038" xlink:href="#linear-gradient-27"/>
    <linearGradient id="linear-gradient-46" x1="0.504" y1="-0.002" x2="0.504" y2="1" xlink:href="#linear-gradient-16"/>
    <linearGradient id="linear-gradient-49" x1="0.542" y1="1.778" x2="0.476" y2="-0.113" xlink:href="#linear-gradient-11"/>
    <linearGradient id="linear-gradient-50" x1="0.478" y1="1.084" x2="0.515" y2="0.046" xlink:href="#linear-gradient-16"/>
    <linearGradient id="linear-gradient-51" x1="0.501" y1="0.032" x2="0.501" y2="1.019" xlink:href="#linear-gradient-16"/>
    <linearGradient id="linear-gradient-52" x1="0.374" y1="0.067" x2="0.64" y2="0.976" xlink:href="#linear-gradient-18"/>
    <linearGradient id="linear-gradient-54" x1="0.143" y1="0.191" x2="0.887" y2="0.835" xlink:href="#linear-gradient-20"/>
    <linearGradient id="linear-gradient-55" x1="0.095" y1="0.316" x2="0.936" y2="0.699" xlink:href="#linear-gradient-21"/>
    <linearGradient id="linear-gradient-56" x1="0.033" y1="0.433" x2="1" y2="0.572" xlink:href="#linear-gradient-22"/>
    <linearGradient id="linear-gradient-57" x1="0.03" y1="0.568" x2="0.998" y2="0.428" xlink:href="#linear-gradient-23"/>
    <linearGradient id="linear-gradient-58" x1="0.09" y1="0.688" x2="0.932" y2="0.304" xlink:href="#linear-gradient-24"/>
    <linearGradient id="linear-gradient-59" x1="0.137" y1="0.816" x2="0.882" y2="0.171" xlink:href="#linear-gradient-25"/>
    <linearGradient id="linear-gradient-60" x1="0.242" y1="0.898" x2="0.768" y2="0.079" xlink:href="#linear-gradient-26"/>
    <linearGradient id="linear-gradient-61" x1="0.369" y1="0.949" x2="0.636" y2="0.038" xlink:href="#linear-gradient-27"/>
    <linearGradient id="linear-gradient-62" x1="0.501" y1="0.99" x2="0.501" y2="0.008" xlink:href="#linear-gradient-28"/>
    <linearGradient id="linear-gradient-63" x1="0.501" y1="-0.002" x2="0.501" y2="1" xlink:href="#linear-gradient-16"/>
    <linearGradient id="linear-gradient-65" x1="0.504" y1="-0.025" x2="0.504" y2="0.968" xlink:href="#linear-gradient-4"/>
    <linearGradient id="linear-gradient-66" x1="0.519" y1="1.777" x2="0.453" y2="-0.114" xlink:href="#linear-gradient-11"/>
    <linearGradient id="linear-gradient-67" x1="0.501" y1="1.126" x2="0.501" y2="-4.885" xlink:href="#linear-gradient-6"/>
    <linearGradient id="linear-gradient-68" x1="0.527" y1="0.423" x2="0.474" y2="0.58" xlink:href="#linear-gradient-3"/>
    <linearGradient id="linear-gradient-69" x1="0.5" y1="0.006" x2="0.5" y2="1" xlink:href="#linear-gradient-16"/>
  </defs>
  <g id="Layer_1" data-name="Layer 1">
    <path id="Path_1" data-name="Path 1" d="M35.64,25.33H41.8V24.19c1.34-.1,2.64-.15,4.14-.2V23h.88v1l1.43-.05v-.64c9.75,0,7.53-.22,11.73.91,2.09,0,9.59.46,9.59.63v.5h1c.29,0,.14.22-.2.29a6.941,6.941,0,0,1-.76.06v.14h1c.29,0,.14.22-.2.29s-3.51.14-5.56.19c-1.13,0-3,0-4.79.16H57a.29.29,0,0,1-.11.11h-.4l.24.05a2.08,2.08,0,0,1-.35.11h-.43l.12.06-.54.09h-.45V27l-.71.08c-.22-.05-.74,0-.54,0H52.62l-.22.06H51.21a.67.67,0,0,0-.31,0h-.86l-.22-.06H48.61L48.52,27H47.38v-.06h-.45l-.54-.09.12-.06h-.43a2.08,2.08,0,0,1-.35-.11l.25-.05c-1,.06-2.67,0-3.71,0l-.15-.19H39.58l-2.71.22H29.69a2.27,2.27,0,0,1-.34.11h-.44l.12.06-.54.09H28V27l-.71.08c-.22-.05-.74,0-.54,0h-1.2l-.22.06h-1.2a.67.67,0,0,0-.31,0H23l-.22-.06H21.57l-.1-.08H20.33v-.06h-.45l-.54-.09.13-.06h-.44a1.7,1.7,0,0,1-.34-.11l.23-.05h-.39a.34.34,0,0,1-.12-.12c.43,0,.43-.08,0-.08a.34.34,0,0,1,.12-.12h.33l-.16-.05h0l.13-.05h-1.5l.14.05h0l-.16.05h.33a.34.34,0,0,1,.12.12c-.43,0-.43.08,0,.08a.3.3,0,0,1-.11.12h-.4l.23.05a1.7,1.7,0,0,1-.34.11h-.43l.12.06-.54.09h-.45V27l-.71.08c-.22-.05-.74,0-.54,0H13.38l-.22.06H11.97a.67.67,0,0,0-.31,0h-.87l-.22-.06H9.37L9.29,27H8.15v-.06H7.71l-.54-.09.12-.06H6.85a2.27,2.27,0,0,1-.34-.11l.24-.05h-.4a.24.24,0,0,1-.11-.12c.42,0,.43-.08,0-.08a.34.34,0,0,1,.12-.12h.32l-.15-.05h0l.14-.05H6.33a.24.24,0,0,1-.11-.12c.42,0,.43-.09,0-.09a.26.26,0,0,1,.12-.11h.33a32.7,32.7,0,0,0-4.53-.34A7,7,0,0,1,0,25.13H.1l.64-.33A3.13,3.13,0,0,1,0,24.63H.1l1.49-.76h35l4.11-.56h1.68v.5l-2.66.56h0l-1.27.41-.45.11C37.23,25.06,36.38,25.17,35.64,25.33Z" fill-rule="evenodd" fill="url(#linear-gradient)"/>
    <rect id="Rectangle_1" data-name="Rectangle 1" width="8.66" height="1.75" transform="translate(23.83 15.64)" fill="url(#linear-gradient-2)" stroke-linecap="round" stroke-linejoin="round" stroke-width="0.22" stroke="#231f20"/>
    <path id="Path_2" data-name="Path 2" d="M46.82,8.22a.44.44,0,1,1-.88,0V0h.88V8.22Z" fill="url(#linear-gradient-3)"/>
    <path id="Path_3" data-name="Path 3" d="M41.8,17.36V8.68l1.37-.8,5.21-1.39.49,9.06-2.69,1.81Z" fill-rule="evenodd" fill="url(#linear-gradient-4)"/>
    <rect id="Rectangle_2" data-name="Rectangle 2" width="34.8" height="1.9" transform="translate(10.18 17.05)" fill="url(#linear-gradient-5)"/>
    <path id="Path_4" data-name="Path 4" d="M60.23,21.28l-.25.37H48.59l-2.76,1.13H42.28l-.15-1.41H39.58l-2.71,1.57h-9l-.42-2.46,9,1.48.49-.65-1.65-1.84-7.42.37-.21-1.13,16.94.12a14.131,14.131,0,0,1,1.07-2.36,13.72,13.72,0,0,1,2.66-1.81A25.48,25.48,0,0,1,54,14.47c2.33.31,6.37,6,6.37,6Z" fill-rule="evenodd" fill="url(#linear-gradient-6)"/>
    <path id="Path_5" data-name="Path 5" d="M4.85,14.35l4.04,4.23,4.05-.73-2.27-2.21Z" fill-rule="evenodd" fill="url(#linear-gradient-7)"/>
    <path id="Path_6" data-name="Path 6" d="M.1,12,1.6,6.32H39.77A27.73,27.73,0,0,1,38,10.27a22.741,22.741,0,0,0-2.05,2.58,14.11,14.11,0,0,0-1.38,3H11.41L5.83,14.14Z" fill-rule="evenodd" fill="url(#linear-gradient-8)"/>
    <path id="Path_7" data-name="Path 7" d="M69.57,17.2v-4c0-.37-1.87-1.63-4.29-2.92A21,21,0,0,0,60,8.47s-2.7-5.36-3.06-6-.89-.68-2.08-.68H48.25V14.44s7.58-.08,9.29.32a9,9,0,0,1,3.24,1.68l5,1.9Z" fill-rule="evenodd" fill="url(#linear-gradient-9)"/>
    <path id="Path_8" data-name="Path 8" d="M39.77,6.32l2.66-4.14-1.68-.06-4.11,4.2Z" fill="#f4d02e" fill-rule="evenodd"/>
    <path id="Path_9" data-name="Path 9" d="M60.32,10a.11.11,0,0,1,.09-.13.1.1,0,0,1,.12.08l1.26,5.6a.108.108,0,1,1-.21.05Z" fill="#f4e8c3"/>
    <path id="Path_10" data-name="Path 10" d="M49.38,14.29a.25.25,0,0,1-.5,0V9.51a1.2,1.2,0,0,1,1.19-1.19h9.07a1.19,1.19,0,0,1,.84.35,1.17,1.17,0,0,1,.35.84v4.78a.25.25,0,1,1-.5,0V9.51a.68.68,0,0,0-.2-.48.69.69,0,0,0-.49-.21H58v5.57a.25.25,0,0,1-.5,0V8.82H54.83v5.57a.25.25,0,0,1-.5,0V8.82H51.74v5.57a.25.25,0,0,1-.5,0V8.82H50.07a.69.69,0,0,0-.49.21.68.68,0,0,0-.2.48Z" fill="url(#linear-gradient-10)"/>
    <path id="Path_11" data-name="Path 11" d="M45.75,16.94a.11.11,0,1,1,0,.22H12a.11.11,0,0,1,0-.22Z" fill="#f4e8c3"/>
    <path id="Path_12" data-name="Path 12" d="M44.06,18.72a.11.11,0,1,1,0,.22H12a.11.11,0,0,1,0-.22Z" fill="#b7924c"/>
    <path id="Path_13" data-name="Path 13" d="M59.35,9.68A58.28,58.28,0,0,1,69.57,13.2h0c0-.37-1.87-1.63-4.29-2.92A21,21,0,0,0,60,8.47l-1.73-.6C58.09,8.79,59.37,9.64,59.35,9.68Z" fill-rule="evenodd" fill="url(#linear-gradient-11)"/>
    <path id="Path_14" data-name="Path 14" d="M60.51,10a.11.11,0,1,1,.21-.05L62,15.52a.11.11,0,1,1-.21.05Z" fill="#b7924c"/>
    <path id="Path_15" data-name="Path 15" d="M48.25,2.54h8.7l3.74,7.41H48.25Z" fill="#5d6567" fill-rule="evenodd"/>
    <path id="Path_16" data-name="Path 16" d="M60.18,8.93v.1a1.29,1.29,0,0,1,.1.48V10h-.5V9.51a.68.68,0,0,0-.2-.48.69.69,0,0,0-.49-.21H58V10h-.5V8.82H54.83V10h-.5V8.82H51.74V10h-.5V8.82H50.07a.69.69,0,0,0-.49.21.68.68,0,0,0-.2.48V10h-.5V9.51a1.2,1.2,0,0,1,1.19-1.19h9.07a1.19,1.19,0,0,1,.84.35,1.28,1.28,0,0,1,.2.26Z" fill="#231f20" fill-rule="evenodd"/>
    <path id="Path_17" data-name="Path 17" d="M56.15,2.76H53.24v6h5.94l-3-6Zm-7.1,0h3.64v6H49.05Z" fill-rule="evenodd" fill="url(#linear-gradient-12)"/>
    <path id="Path_18" data-name="Path 18" d="M53.24,5.39V8.71h5.94L57.49,5.39Zm-4.19,0h3.64V8.71H49.05Z" fill-rule="evenodd" fill="url(#linear-gradient-13)"/>
    <path id="Path_19" data-name="Path 19" d="M48.12,1.79a.14.14,0,1,1,.28,0V13.84a.14.14,0,1,1-.28,0Z" fill="#f4e8c3"/>
    <path id="Path_20" data-name="Path 20" d="M58.2,6.77,56.33,8l-1-.43.91-1.16-.19-.07-1.76,2H53.2v.38h5.6l.29-.18ZM52.69,8.35H51.63L50.4,5.88,49.82,6l.43,2.68h2.44Z" fill="#231f20" fill-rule="evenodd"/>
    <path id="Path_21" data-name="Path 21" d="M49.06,13.89a.25.25,0,0,1-.5,0V9.36a1.06,1.06,0,0,1,.35-.79,1.18,1.18,0,0,1,.84-.33h9.07a1.2,1.2,0,0,1,.84.33,1.1,1.1,0,0,1,.35.79v4.53a.25.25,0,0,1-.5,0V9.36a.65.65,0,0,0-.2-.46.71.71,0,0,0-.49-.19H57.64V14a.25.25,0,0,1-.5,0V8.71H54.51V14a.25.25,0,0,1-.5,0V8.71H51.42V14a.25.25,0,0,1-.5,0V8.71H49.75a.71.71,0,0,0-.49.19.65.65,0,0,0-.2.46Z" fill="#fff"/>
    <path id="Path_22" data-name="Path 22" d="M49.06,14a.25.25,0,0,1-.5,0V9.45a1.1,1.1,0,0,1,.35-.8,1.22,1.22,0,0,1,.84-.33h9.07a1.24,1.24,0,0,1,.84.33,1.14,1.14,0,0,1,.35.8V14a.25.25,0,0,1-.5,0V9.45a.65.65,0,0,0-.2-.46.71.71,0,0,0-.49-.19H57.64v5.28a.25.25,0,0,1-.5,0V8.8H54.51v5.28a.25.25,0,1,1-.5,0V8.8H51.42v5.28a.25.25,0,1,1-.5,0V8.8H49.75a.71.71,0,0,0-.49.19.65.65,0,0,0-.2.46Z" fill="url(#linear-gradient-14)"/>
    <path id="Path_23" data-name="Path 23" d="M43.29,20.33S45.07,17,45.8,16A3.9,3.9,0,0,1,49,14.08c1.53-.1,11.14.09,11.14.09l3,2.7V20.7l-3.22.92a62.631,62.631,0,0,0-4.23-5.55c-1.19-1.17-2.69-1.5-5.33-1.41s-4,1.32-4.5,2.45a33.071,33.071,0,0,1-1.8,3.16Z" fill="#efca35" fill-rule="evenodd"/>
    <path id="Path_24" data-name="Path 24" d="M63.14,16.91h7.39c.29,0,.14,1.66-.2,2.18s-1.88.63-1.88.63l-5.3,1V16.91Z" fill="#f4d02e" fill-rule="evenodd"/>
    <path id="Path_25" data-name="Path 25" d="M3.94,11.08a4.17,4.17,0,0,1,.51-1.75H38.52a7,7,0,0,1-.53.94,7.121,7.121,0,0,1-.69.81Z" fill="url(#linear-gradient-15)"/>
    <path id="Path_26" data-name="Path 26" d="M63,17a.11.11,0,0,1,.22,0v3.69a.11.11,0,1,1-.22,0Z" fill="#b7924c"/>
    <path id="Path_27" data-name="Path 27" d="M62.9,17a.11.11,0,0,1,.22,0v3.69a.11.11,0,0,1-.22,0Z" fill="#f4e8c3"/>
    <path id="Path_28" data-name="Path 28" d="M43.19,20.28S45,17,45.71,15.91A5,5,0,0,1,47,14.58,3.87,3.87,0,0,1,49,14c1.53-.09,11.13.09,11.16.09h0l3,2.7h7.32V17H63v-.11l-3-2.64c-.66,0-9.62-.17-11.1-.09a3.7,3.7,0,0,0-1.82.58A4.77,4.77,0,0,0,45.89,16c-.73,1-2.5,4.33-2.51,4.34Z" fill="#f4e8c3"/>
    <rect id="Rectangle_3" data-name="Rectangle 3" width="4.91" height="0.26" transform="translate(42.83 10.11)" fill="#f4e8c3"/>
    <rect id="Rectangle_4" data-name="Rectangle 4" width="4.91" height="0.26" transform="translate(42.83 9.85)" fill="#b7924c"/>
    <rect id="Rectangle_5" data-name="Rectangle 5" width="4.91" height="0.26" transform="translate(42.83 10.81)" fill="#f4e8c3"/>
    <rect id="Rectangle_6" data-name="Rectangle 6" width="4.91" height="0.26" transform="translate(42.83 10.55)" fill="#b7924c"/>
    <rect id="Rectangle_7" data-name="Rectangle 7" width="4.91" height="0.26" transform="translate(42.83 11.51)" fill="#f4e8c3"/>
    <rect id="Rectangle_8" data-name="Rectangle 8" width="4.91" height="0.26" transform="translate(42.83 11.25)" fill="#b7924c"/>
    <rect id="Rectangle_9" data-name="Rectangle 9" width="4.91" height="0.26" transform="translate(42.83 12.21)" fill="#f4e8c3"/>
    <rect id="Rectangle_10" data-name="Rectangle 10" width="4.91" height="0.26" transform="translate(42.83 11.95)" fill="#b7924c"/>
    <rect id="Rectangle_11" data-name="Rectangle 11" width="4.91" height="0.26" transform="translate(42.83 12.91)" fill="#f4e8c3"/>
    <rect id="Rectangle_12" data-name="Rectangle 12" width="4.91" height="0.26" transform="translate(42.83 12.65)" fill="#b7924c"/>
    <rect id="Rectangle_13" data-name="Rectangle 13" width="4.91" height="0.26" transform="translate(42.83 13.61)" fill="#f4e8c3"/>
    <rect id="Rectangle_14" data-name="Rectangle 14" width="4.91" height="0.26" transform="translate(42.83 13.35)" fill="#b7924c"/>
    <rect id="Rectangle_15" data-name="Rectangle 15" width="4.91" height="0.26" transform="translate(42.83 14.31)" fill="#f4e8c3"/>
    <rect id="Rectangle_16" data-name="Rectangle 16" width="4.91" height="0.26" transform="translate(42.83 14.05)" fill="#b7924c"/>
    <path id="Path_29" data-name="Path 29" d="M51.58,15.51a5.71,5.71,0,0,1,.83.11h0a.3.3,0,0,0,.22.38h0a.31.31,0,0,0,.38-.22h0a5.85,5.85,0,0,1,.82.33h0a.31.31,0,0,0,.11.42h0a.31.31,0,0,0,.43-.11h0a7.79,7.79,0,0,1,.71.54h0a.31.31,0,0,0,0,.44h0a.31.31,0,0,0,.44,0h0a6.32,6.32,0,0,1,.54.71h0a.31.31,0,0,0-.11.43h0a.3.3,0,0,0,.42.11h0a5.9,5.9,0,0,1,.34.82h0a.3.3,0,0,0-.22.38h0a.31.31,0,0,0,.38.22h0A6.569,6.569,0,0,1,57,21h0a.31.31,0,0,0-.32.31h0a.31.31,0,0,0,.32.31h0a5.28,5.28,0,0,1-.11.89h0a.32.32,0,0,0-.38.22h0a.32.32,0,0,0,.22.39h0a5.46,5.46,0,0,1-.35.82h0A.3.3,0,0,0,56,24h0a.31.31,0,0,0,.11.43h0a5.94,5.94,0,0,1-.54.7h0a.3.3,0,0,0-.44,0h0a.31.31,0,0,0,0,.44h0a5.31,5.31,0,0,1-.71.54h0A.31.31,0,0,0,54,26h0a.3.3,0,0,0-.11.42h0a7.429,7.429,0,0,1-.82.34h0a.33.33,0,0,0-.39-.22h0a.33.33,0,0,0-.22.39h0a5.94,5.94,0,0,1-.86.11.31.31,0,0,0-.31-.31h0a.31.31,0,0,0-.31.31,6.13,6.13,0,0,1-.86-.11h0a.33.33,0,0,0-.22-.39h0a.33.33,0,0,0-.39.22h0a7.43,7.43,0,0,1-.82-.34h0a.3.3,0,0,0-.11-.42h0a.31.31,0,0,0-.43.11h0a5.309,5.309,0,0,1-.71-.54h0a.31.31,0,0,0,0-.44h0a.3.3,0,0,0-.44,0h0a5.94,5.94,0,0,1-.54-.7h0a.31.31,0,0,0,.11-.43h0a.3.3,0,0,0-.42-.11h0a5.461,5.461,0,0,1-.35-.82h0a.32.32,0,0,0,.22-.39h0a.32.32,0,0,0-.38-.22h0a5.28,5.28,0,0,1-.11-.89h0a.31.31,0,0,0,.31-.31h0a.31.31,0,0,0-.31-.31h0a6.57,6.57,0,0,1,.12-.89h0a.33.33,0,0,0,.39-.22h0a.31.31,0,0,0-.22-.38h0a4.93,4.93,0,0,1,.35-.82h0a.3.3,0,0,0,.42-.11h0a.31.31,0,0,0-.11-.43h0a5.39,5.39,0,0,1,.52-.7h0a.31.31,0,0,0,.44,0h0a.31.31,0,0,0,0-.44h0a7.79,7.79,0,0,1,.71-.54h0a.31.31,0,0,0,.43.11h0a.31.31,0,0,0,.11-.42h0a5.85,5.85,0,0,1,.82-.33h0a.31.31,0,0,0,.38.22h0a.31.31,0,0,0,.23-.38h0a5.4,5.4,0,0,1,.82-.11.31.31,0,0,0,.31.31h.06a.31.31,0,0,0,.27-.31Z" fill-rule="evenodd" fill="url(#linear-gradient-16)"/>
    <path id="Path_30" data-name="Path 30" d="M51.24,26.66a5.39,5.39,0,1,0-5.39-5.38,5.39,5.39,0,0,0,5.39,5.38Z" fill-rule="evenodd" fill="url(#linear-gradient-17)"/>
    <path id="Path_31" data-name="Path 31" d="M51.24,26.63a5.35,5.35,0,1,0-5.35-5.35,5.35,5.35,0,0,0,5.35,5.35Z" fill-rule="evenodd" fill="url(#linear-gradient-18)"/>
    <path id="Path_32" data-name="Path 32" d="M51.24,26.59a5.31,5.31,0,1,0-5.31-5.31,5.31,5.31,0,0,0,5.31,5.31Z" fill-rule="evenodd" fill="url(#linear-gradient-19)"/>
    <path id="Path_33" data-name="Path 33" d="M51.24,26.55A5.27,5.27,0,1,0,46,21.28a5.27,5.27,0,0,0,5.24,5.27Z" fill-rule="evenodd" fill="url(#linear-gradient-20)"/>
    <path id="Path_34" data-name="Path 34" d="M51.24,26.51A5.24,5.24,0,1,0,46,21.28,5.24,5.24,0,0,0,51.24,26.51Z" fill-rule="evenodd" fill="url(#linear-gradient-21)"/>
    <path id="Path_35" data-name="Path 35" d="M51.24,26.48a5.2,5.2,0,1,0-5.2-5.2A5.2,5.2,0,0,0,51.24,26.48Z" fill-rule="evenodd" fill="url(#linear-gradient-22)"/>
    <path id="Path_36" data-name="Path 36" d="M51.24,26.44a5.16,5.16,0,1,0-5.16-5.16,5.16,5.16,0,0,0,5.16,5.16Z" fill-rule="evenodd" fill="url(#linear-gradient-23)"/>
    <path id="Path_37" data-name="Path 37" d="M51.24,26.4a5.12,5.12,0,1,0-5.12-5.12A5.12,5.12,0,0,0,51.24,26.4Z" fill-rule="evenodd" fill="url(#linear-gradient-24)"/>
    <path id="Path_38" data-name="Path 38" d="M51.24,26.36a5.08,5.08,0,1,0-5.08-5.08,5.08,5.08,0,0,0,5.08,5.08Z" fill-rule="evenodd" fill="url(#linear-gradient-25)"/>
    <path id="Path_39" data-name="Path 39" d="M51.24,26.33a5,5,0,1,0-5.05-5,5.06,5.06,0,0,0,5.05,5Z" fill-rule="evenodd" fill="url(#linear-gradient-26)"/>
    <path id="Path_40" data-name="Path 40" d="M51.24,26.29a5,5,0,1,0-5-5A5,5,0,0,0,51.24,26.29Z" fill-rule="evenodd" fill="url(#linear-gradient-27)"/>
    <path id="Path_41" data-name="Path 41" d="M51.24,26.25a5,5,0,1,0-5-5A5,5,0,0,0,51.24,26.25Z" fill-rule="evenodd" fill="url(#linear-gradient-28)"/>
    <path id="Path_42" data-name="Path 42" d="M51.24,25.7a4.42,4.42,0,1,0-4.42-4.42,4.42,4.42,0,0,0,4.42,4.42Z" fill="#313838" fill-rule="evenodd"/>
    <path id="Path_43" data-name="Path 43" d="M51.24,25.44a4.16,4.16,0,1,0-4.16-4.16,4.16,4.16,0,0,0,4.16,4.16Z" fill-rule="evenodd" fill="url(#linear-gradient-29)"/>
    <path id="Path_44" data-name="Path 44" d="M51.23,24.43a2.93,2.93,0,1,0-2.078-.855,2.94,2.94,0,0,0,2.078.855Z" fill-rule="evenodd" fill="url(#linear-gradient-30)"/>
    <circle id="Ellipse_1" data-name="Ellipse 1" cx="2.8" cy="2.8" r="2.8" transform="translate(48.44 18.48)" fill="#b7924c"/>
    <path id="Path_45" data-name="Path 45" d="M51.24,23.64a2.36,2.36,0,1,0-2.36-2.36,2.36,2.36,0,0,0,2.36,2.36Z" fill-rule="evenodd" fill="url(#linear-gradient-31)"/>
    <path id="Path_46" data-name="Path 46" d="M51.24,19.91a.21.21,0,1,0-.21-.21A.21.21,0,0,0,51.24,19.91Z" fill="#313838" fill-rule="evenodd"/>
    <path id="Path_47" data-name="Path 47" d="M52.53,20a.21.21,0,1,1-.3,0,.22.22,0,0,1,.3,0Z" fill="#313838" fill-rule="evenodd"/>
    <path id="Path_48" data-name="Path 48" d="M53.07,21.3a.22.22,0,1,1-.22-.22A.22.22,0,0,1,53.07,21.3Z" fill="#313838" fill-rule="evenodd"/>
    <path id="Path_49" data-name="Path 49" d="M52.54,22.58a.2.2,0,0,1-.3,0,.21.21,0,1,1,.3,0Z" fill="#313838" fill-rule="evenodd"/>
    <path id="Path_50" data-name="Path 50" d="M51.25,23.12a.21.21,0,1,1,.21-.21.21.21,0,0,1-.21.21Z" fill="#313838" fill-rule="evenodd"/>
    <path id="Path_51" data-name="Path 51" d="M50,22.59a.2.2,0,0,1,0-.3.212.212,0,1,1,.3.3.2.2,0,0,1-.3,0Z" fill="#313838" fill-rule="evenodd"/>
    <path id="Path_52" data-name="Path 52" d="M49.43,21.31a.21.21,0,1,1,.21.21A.21.21,0,0,1,49.43,21.31Z" fill="#313838" fill-rule="evenodd"/>
    <path id="Path_53" data-name="Path 53" d="M50,20a.21.21,0,1,1,0,.3.2.2,0,0,1,0-.3Z" fill="#313838" fill-rule="evenodd"/>
    <path id="Path_54" data-name="Path 54" d="M51.24,22.34a1.06,1.06,0,1,0-1.06-1.06,1.06,1.06,0,0,0,1.06,1.06Z" fill-rule="evenodd" fill="url(#linear-gradient-32)"/>
    <path id="Path_55" data-name="Path 55" d="M51.58,15.51a5.71,5.71,0,0,1,.83.11h0a.14.14,0,0,0,0,.11,5.57,5.57,0,0,0-.82-.1.31.31,0,0,1-.31.31h-.06a.31.31,0,0,1-.31-.31,5.57,5.57,0,0,0-.82.1.2.2,0,0,0,0-.11h0a5.4,5.4,0,0,1,.82-.11.31.31,0,0,0,.31.31h.06a.31.31,0,0,0,.31-.31Zm.82.25a.31.31,0,0,0,.23.36h0A.32.32,0,0,0,53,15.9h0a6.71,6.71,0,0,1,.78.32.36.36,0,0,1,0-.09h0a5.85,5.85,0,0,0-.82-.33h0a.31.31,0,0,1-.38.22h0a.31.31,0,0,1-.23-.24Zm1.39.57a.3.3,0,0,0,.15.21h0a.31.31,0,0,0,.43-.11h0a7.791,7.791,0,0,1,.71.54h0L55,17a6.259,6.259,0,0,0-.66-.49h0a.31.31,0,0,1-.43.11h0a.33.33,0,0,1-.15-.33Zm1.2.92a.29.29,0,0,0,.09.16h0a.31.31,0,0,0,.44,0h0a6.319,6.319,0,0,1,.54.71h0c-.15-.21-.32-.42-.49-.62h0a.31.31,0,0,1-.44,0h0a.3.3,0,0,1-.09-.28Zm.92,1.19a.3.3,0,0,0,0,.1h0a.3.3,0,0,0,.42.11h0a5.9,5.9,0,0,1,.34.82h0a6.439,6.439,0,0,0-.3-.72h0a.3.3,0,0,1-.42-.11h0a.35.35,0,0,1,0-.22Zm.58,1.4h0a.31.31,0,0,0,.38.22h0A6.57,6.57,0,0,1,57,21h0a4.92,4.92,0,0,0-.11-.77h0A.3.3,0,0,1,56.5,20h0a.2.2,0,0,1,0-.13Zm.2,1.49a.31.31,0,0,0,.31.25h0v.12h0a.31.31,0,0,1-.32-.31h0a.13.13,0,0,1,0-.06Zm-.19,1.49a.31.31,0,0,0,.22.25h0v.11a.31.31,0,0,1-.2-.36Zm-.58,1.4a.35.35,0,0,0,.15.21h0v.08a.32.32,0,0,1-.11-.3ZM55,25.41a.3.3,0,0,0,.08.17h0l-.06.05a.28.28,0,0,1,0-.22Zm-1.2.92a.3.3,0,0,0,0,.1h0a.29.29,0,0,1,0-.13Zm-1.39.58Zm-2.35,0Zm-1.4-.48h0a.36.36,0,0,0,0-.09.24.24,0,0,1,0,.12Zm-1.23-.83-.06-.05h0a.4.4,0,0,0,.09-.17.34.34,0,0,1,0,.22Zm-1-1.11-.05-.08h0a.35.35,0,0,0,.15-.21.32.32,0,0,1-.11.3Zm-.67-1.34v-.11h0a.34.34,0,0,0,.23-.25.32.32,0,0,1-.21.36Zm-.3-1.48v-.12h0a.31.31,0,0,0,.3-.25.13.13,0,0,1,0,.06h0a.31.31,0,0,1-.31.31Zm0-.74h0a6.57,6.57,0,0,1,.12-.89h0a.33.33,0,0,0,.39-.22h0A.29.29,0,0,1,46,20h0a.31.31,0,0,1-.39.22h0a4.921,4.921,0,0,0-.11.77Zm.31-1.48h0a4.93,4.93,0,0,1,.35-.82h0a.3.3,0,0,0,.42-.11h0a.3.3,0,0,0,0-.1.35.35,0,0,1,0,.22h0a.3.3,0,0,1-.42.11h0a4.6,4.6,0,0,0-.31.72Zm.67-1.34h0A5.39,5.39,0,0,1,47,17.4h0a.31.31,0,0,0,.44,0h0a.29.29,0,0,0,.09-.16.3.3,0,0,1-.09.28h0a.31.31,0,0,1-.44,0h0a7.14,7.14,0,0,0-.5.62Zm1-1.11H47.4a7.79,7.79,0,0,1,.71-.54h0a.31.31,0,0,0,.43.11h0a.3.3,0,0,0,.15-.21.33.33,0,0,1-.15.33h0a.31.31,0,0,1-.43-.11h0a6.26,6.26,0,0,0-.66.49Zm1.24-.82a6.709,6.709,0,0,1,.78-.32h0a.32.32,0,0,0,.38.22h0a.31.31,0,0,0,.23-.36.31.31,0,0,1-.23.24h0a.31.31,0,0,1-.38-.22h0a5.85,5.85,0,0,0-.82.33h0a.36.36,0,0,1,.05.14Z" fill="#fff" fill-rule="evenodd"/>
    <path id="Path_56" data-name="Path 56" d="M24.53,15.51a5.71,5.71,0,0,1,.83.11h0a.3.3,0,0,0,.22.38h0a.31.31,0,0,0,.38-.22h0a5.4,5.4,0,0,1,.82.33h0a.31.31,0,0,0,.12.42h0a.3.3,0,0,0,.42-.11h0A7.629,7.629,0,0,1,28,17h0a.31.31,0,0,0,0,.44h0a.31.31,0,0,0,.44,0h0a5.31,5.31,0,0,1,.54.71h0a.31.31,0,0,0-.11.43h0a.3.3,0,0,0,.42.11h0a5.9,5.9,0,0,1,.34.82h0a.3.3,0,0,0-.22.38h0a.31.31,0,0,0,.38.22h0A5.29,5.29,0,0,1,30,21h0a.31.31,0,0,0-.31.31h0a.31.31,0,0,0,.31.31h0a5.28,5.28,0,0,1-.11.89h0a.32.32,0,0,0-.38.22h0a.33.33,0,0,0,.22.39h0a6.71,6.71,0,0,1-.34.82h0a.3.3,0,0,0-.42.11h0a.31.31,0,0,0,.11.43h0a5.94,5.94,0,0,1-.54.7h0a.3.3,0,0,0-.44,0h0a.31.31,0,0,0,0,.44h0a5.31,5.31,0,0,1-.71.54h0a.31.31,0,0,0-.43-.11h0a.3.3,0,0,0-.11.42h0a7.43,7.43,0,0,1-.82.34h0a.32.32,0,0,0-.38-.22h0a.31.31,0,0,0-.22.39h0a6.08,6.08,0,0,1-.87.11.31.31,0,0,0-.31-.31h0a.31.31,0,0,0-.31.31,6.13,6.13,0,0,1-.86-.11h0a.33.33,0,0,0-.22-.39h0a.31.31,0,0,0-.38.22h0a8.329,8.329,0,0,1-.82-.34h0a.31.31,0,0,0-.12-.42h0a.3.3,0,0,0-.42.11h0a6,6,0,0,1-.71-.54h0a.31.31,0,0,0,0-.44h0a.3.3,0,0,0-.44,0h0a7.249,7.249,0,0,1-.54-.7h0a.32.32,0,0,0,.12-.43h0a.31.31,0,0,0-.43-.11h0a4.56,4.56,0,0,1-.34-.82h0a.31.31,0,0,0,.22-.39h0a.31.31,0,0,0-.38-.22h0a6.57,6.57,0,0,1-.12-.89h0a.31.31,0,0,0,.31-.31h0A.31.31,0,0,0,18.5,21h0a6.57,6.57,0,0,1,.12-.89h0a.32.32,0,0,0,.38-.22h0a.31.31,0,0,0-.22-.38h0a5.94,5.94,0,0,1,.35-.82h0a.31.31,0,0,0,.43-.11h0a.32.32,0,0,0-.12-.43h0a5.39,5.39,0,0,1,.55-.71h0a.33.33,0,0,0,.45,0h0a.31.31,0,0,0,0-.44h0a7.79,7.79,0,0,1,.71-.54h0a.31.31,0,0,0,.43.11h0a.3.3,0,0,0,.11-.42h0a5.85,5.85,0,0,1,.82-.33h0a.31.31,0,0,0,.39.22h0a.31.31,0,0,0,.22-.38h0a5.4,5.4,0,0,1,.82-.11.31.31,0,0,0,.31.31h.06a.31.31,0,0,0,.22-.35Z" fill-rule="evenodd" fill="url(#linear-gradient-33)"/>
    <path id="Path_57" data-name="Path 57" d="M24.19,26.66a5.39,5.39,0,1,0-5.38-5.38,5.39,5.39,0,0,0,5.38,5.38Z" fill-rule="evenodd" fill="url(#linear-gradient-34)"/>
    <path id="Path_58" data-name="Path 58" d="M24.19,26.63a5.35,5.35,0,1,0-5.35-5.35,5.35,5.35,0,0,0,5.35,5.35Z" fill-rule="evenodd" fill="url(#linear-gradient-35)"/>
    <path id="Path_59" data-name="Path 59" d="M24.19,26.59a5.31,5.31,0,1,0-5.31-5.31A5.31,5.31,0,0,0,24.19,26.59Z" fill-rule="evenodd" fill="url(#linear-gradient-19)"/>
    <path id="Path_60" data-name="Path 60" d="M24.19,26.55a5.27,5.27,0,1,0-5.27-5.27,5.27,5.27,0,0,0,5.27,5.27Z" fill-rule="evenodd" fill="url(#linear-gradient-37)"/>
    <path id="Path_61" data-name="Path 61" d="M24.19,26.51A5.24,5.24,0,1,0,19,21.28a5.24,5.24,0,0,0,5.19,5.23Z" fill-rule="evenodd" fill="url(#linear-gradient-38)"/>
    <path id="Path_62" data-name="Path 62" d="M24.19,26.48a5.2,5.2,0,1,0-5.2-5.2A5.2,5.2,0,0,0,24.19,26.48Z" fill-rule="evenodd" fill="url(#linear-gradient-22)"/>
    <path id="Path_63" data-name="Path 63" d="M24.19,26.44a5.17,5.17,0,1,0-3.665-1.5,5.16,5.16,0,0,0,3.665,1.5Z" fill-rule="evenodd" fill="url(#linear-gradient-40)"/>
    <path id="Path_64" data-name="Path 64" d="M24.19,26.4a5.12,5.12,0,1,0-5.12-5.12,5.12,5.12,0,0,0,5.12,5.12Z" fill-rule="evenodd" fill="url(#linear-gradient-41)"/>
    <path id="Path_65" data-name="Path 65" d="M24.19,26.36a5.08,5.08,0,1,0-5.08-5.08,5.08,5.08,0,0,0,5.08,5.08Z" fill-rule="evenodd" fill="url(#linear-gradient-25)"/>
    <path id="Path_66" data-name="Path 66" d="M24.19,26.33a5.05,5.05,0,1,0-5-5,5.05,5.05,0,0,0,5,5Z" fill-rule="evenodd" fill="url(#linear-gradient-43)"/>
    <path id="Path_67" data-name="Path 67" d="M24.19,26.29a5,5,0,1,0-5-5A5,5,0,0,0,24.19,26.29Z" fill-rule="evenodd" fill="url(#linear-gradient-44)"/>
    <path id="Path_68" data-name="Path 68" d="M24.19,26.25a5,5,0,1,0-5-5A5,5,0,0,0,24.19,26.25Z" fill-rule="evenodd" fill="url(#linear-gradient-28)"/>
    <path id="Path_69" data-name="Path 69" d="M24.19,25.7a4.42,4.42,0,1,0-4.42-4.42,4.42,4.42,0,0,0,4.42,4.42Z" fill="#313838" fill-rule="evenodd"/>
    <path id="Path_70" data-name="Path 70" d="M24.19,25.44a4.17,4.17,0,1,0-2.958-1.211A4.16,4.16,0,0,0,24.19,25.44Z" fill-rule="evenodd" fill="url(#linear-gradient-46)"/>
    <path id="Path_71" data-name="Path 71" d="M24.18,24.43a2.94,2.94,0,1,0-2.94-2.93,2.94,2.94,0,0,0,2.94,2.93Z" fill-rule="evenodd" fill="url(#linear-gradient-30)"/>
    <circle id="Ellipse_2" data-name="Ellipse 2" cx="2.8" cy="2.8" r="2.8" transform="translate(21.39 18.48)" fill="#b7924c"/>
    <path id="Path_72" data-name="Path 72" d="M24.19,23.64a2.36,2.36,0,1,0-2.36-2.36A2.36,2.36,0,0,0,24.19,23.64Z" fill-rule="evenodd" fill="url(#linear-gradient-31)"/>
    <path id="Path_73" data-name="Path 73" d="M24.19,19.91a.215.215,0,0,0,0-.43.22.22,0,0,0,0,.43Z" fill="#313838" fill-rule="evenodd"/>
    <path id="Path_74" data-name="Path 74" d="M25.48,20a.21.21,0,1,1-.3,0A.22.22,0,0,1,25.48,20Z" fill="#313838" fill-rule="evenodd"/>
    <path id="Path_75" data-name="Path 75" d="M26,21.3a.22.22,0,1,1-.092-.229A.22.22,0,0,1,26,21.3Z" fill="#313838" fill-rule="evenodd"/>
    <path id="Path_76" data-name="Path 76" d="M25.49,22.58a.2.2,0,0,1-.3,0,.21.21,0,1,1,.3,0Z" fill="#313838" fill-rule="evenodd"/>
    <path id="Path_77" data-name="Path 77" d="M24.21,23.12a.21.21,0,1,1,.21-.21.21.21,0,0,1-.21.21Z" fill="#313838" fill-rule="evenodd"/>
    <path id="Path_78" data-name="Path 78" d="M22.92,22.59a.21.21,0,1,1,.3,0,.2.2,0,0,1-.3,0Z" fill="#313838" fill-rule="evenodd"/>
    <path id="Path_79" data-name="Path 79" d="M22.38,21.31a.21.21,0,1,1,.21.21.21.21,0,0,1-.21-.21Z" fill="#313838" fill-rule="evenodd"/>
    <circle id="Ellipse_3" data-name="Ellipse 3" cx="0.21" cy="0.21" r="0.21" transform="translate(22.85 19.96)" fill="#313838"/>
    <path id="Path_80" data-name="Path 80" d="M24.19,22.34a1.06,1.06,0,1,0-1.05-1.06,1.06,1.06,0,0,0,1.05,1.06Z" fill-rule="evenodd" fill="url(#linear-gradient-49)"/>
    <path id="Path_81" data-name="Path 81" d="M24.53,15.51a5.71,5.71,0,0,1,.83.11h0a.22.22,0,0,0,0,.11,5.57,5.57,0,0,0-.82-.1.31.31,0,0,1-.31.31h-.06a.31.31,0,0,1-.31-.31,5.27,5.27,0,0,0-.81.1.45.45,0,0,0,0-.11h0a5.4,5.4,0,0,1,.82-.11.31.31,0,0,0,.31.31h.06a.31.31,0,0,0,.31-.31Zm.82.25a.31.31,0,0,0,.23.36h0A.32.32,0,0,0,26,15.9h0a7.681,7.681,0,0,1,.79.32.16.16,0,0,1,0-.09h0a5.4,5.4,0,0,0-.82-.33h0a.31.31,0,0,1-.38.22h0a.31.31,0,0,1-.23-.24Zm1.4.57a.25.25,0,0,0,.15.21h0a.3.3,0,0,0,.42-.11h0A7.629,7.629,0,0,1,28,17h0a6.14,6.14,0,0,0-.65-.49h0a.3.3,0,0,1-.42.11h0a.3.3,0,0,1-.15-.33Zm1.19.92a.29.29,0,0,0,.09.16h0a.31.31,0,0,0,.44,0h0a5.31,5.31,0,0,1,.54.71h0c-.15-.21-.32-.42-.49-.62h0a.31.31,0,0,1-.44,0h0a.3.3,0,0,1-.09-.28Zm.92,1.19a.3.3,0,0,0,0,.1h0a.3.3,0,0,0,.42.11h0a5.9,5.9,0,0,1,.34.82h0a5,5,0,0,0-.3-.72h0a.3.3,0,0,1-.42-.11h0a.35.35,0,0,1,0-.22Zm.58,1.4h0a.31.31,0,0,0,.38.22h0A5.29,5.29,0,0,1,30,21h0a4.92,4.92,0,0,0-.11-.77h0a.3.3,0,0,1-.38-.22h0a.2.2,0,0,1,0-.13Zm.2,1.49a.32.32,0,0,0,.31.25h0v.12h0a.31.31,0,0,1-.31-.31h0v-.06Zm-.19,1.49a.31.31,0,0,0,.22.25h0v.11a.32.32,0,0,1-.2-.36Zm-.58,1.4a.35.35,0,0,0,.15.21h0l-.05.08a.32.32,0,0,1-.11-.3ZM28,25.41a.38.38,0,0,0,.08.17h0l-.06.05a.33.33,0,0,1,0-.22Zm-1.2.92a.3.3,0,0,0,0,.1h0a.29.29,0,0,1,0-.13Zm-1.39.58Zm-2.35,0Zm-1.4-.48h0a.32.32,0,0,0,0-.09.24.24,0,0,1,0,.12Zm-1.23-.83-.06-.05h0a.32.32,0,0,0,.09-.17.34.34,0,0,1,0,.22Zm-1-1.11v-.08h0a.31.31,0,0,0,.15-.21.32.32,0,0,1-.11.3Zm-.67-1.34v-.11h0a.32.32,0,0,0,.23-.25.31.31,0,0,1-.21.36Zm-.3-1.48v-.12h0a.3.3,0,0,0,.3-.25.13.13,0,0,1,0,.06h0a.31.31,0,0,1-.31.31Zm0-.74h0a6.57,6.57,0,0,1,.12-.89h0a.32.32,0,0,0,.38-.22h0a.29.29,0,0,1,0,.13h0a.31.31,0,0,1-.38.22h0a6.49,6.49,0,0,0-.11.77Zm.31-1.48h0a5.94,5.94,0,0,1,.35-.82h0a.31.31,0,0,0,.43-.11h0v-.1a.42.42,0,0,1,0,.22h0a.31.31,0,0,1-.43.11h0a5.78,5.78,0,0,0-.31.72Zm.67-1.34h0a5.39,5.39,0,0,1,.55-.71h0a.33.33,0,0,0,.45,0h0a.35.35,0,0,0,.08-.16.32.32,0,0,1-.08.28h0a.33.33,0,0,1-.45,0h0a7.14,7.14,0,0,0-.5.62Zm1-1.11v-.06h0a7.79,7.79,0,0,1,.71-.54h0a.31.31,0,0,0,.43.11h0a.3.3,0,0,0,.15-.21.32.32,0,0,1-.15.33h0a.31.31,0,0,1-.43-.11h0a6.26,6.26,0,0,0-.66.49Zm1.24-.82a6.71,6.71,0,0,1,.78-.32h0a.33.33,0,0,0,.39.22h0a.31.31,0,0,0,.22-.36.3.3,0,0,1-.22.24h0a.31.31,0,0,1-.39-.22h0a5.85,5.85,0,0,0-.82.33h0a.36.36,0,0,1,0,.14Z" fill="#fff" fill-rule="evenodd"/>
    <path id="Path_82" data-name="Path 82" d="M0,11.93,1.5,6.29l.02-.08H39.77v.22H1.69L.21,11.99Z" fill="#f4e8c3"/>
    <path id="Path_83" data-name="Path 83" d="M5.14,6.43a.11.11,0,0,1,.14-.07.1.1,0,0,1,.07.13L3.22,13.17A.115.115,0,0,1,3,13.1Z" fill="#f4e8c3"/>
    <path id="Path_84" data-name="Path 84" d="M5.33,6.46a.12.12,0,0,1,.13-.07.11.11,0,0,1,.07.14L3.4,13.21a.12.12,0,0,1-.13.07.11.11,0,0,1-.07-.14Z" fill="#b7924c"/>
    <path id="Path_85" data-name="Path 85" d="M.01,11.93l.52,1.2,1.63.64,4.25,1.38,4.84.7-.04-.09L5.83,14.14.1,11.96l.01-.03Z" fill="#b7924c" fill-rule="evenodd"/>
    <path id="Path_86" data-name="Path 86" d="M12.35,15.51a5.4,5.4,0,0,1,.82.11h0a.31.31,0,0,0,.22.38h0a.31.31,0,0,0,.39-.22h0a5.85,5.85,0,0,1,.82.33h0a.3.3,0,0,0,.11.42h0a.31.31,0,0,0,.43-.11h0a7.79,7.79,0,0,1,.71.54h0a.3.3,0,0,0,0,.44h0a.31.31,0,0,0,.44,0h0a5.39,5.39,0,0,1,.55.71h0a.31.31,0,0,0-.11.43h0a.3.3,0,0,0,.42.11h0a5.94,5.94,0,0,1,.35.82h0a.31.31,0,0,0-.22.38h0a.33.33,0,0,0,.39.22h0a6.57,6.57,0,0,1,.12.89h0a.31.31,0,0,0-.31.31h0a.31.31,0,0,0,.31.31h0a6.56,6.56,0,0,1-.11.89h0a.31.31,0,0,0-.38.22h0a.31.31,0,0,0,.22.39h0a4.56,4.56,0,0,1-.34.82h0a.3.3,0,0,0-.42.11h0a.31.31,0,0,0,.11.43h0a5.94,5.94,0,0,1-.54.7h0a.3.3,0,0,0-.44,0h0a.31.31,0,0,0,0,.44h0a6,6,0,0,1-.71.54h0a.31.31,0,0,0-.43-.11h0a.3.3,0,0,0-.11.42h0a7.43,7.43,0,0,1-.82.34h0a.31.31,0,0,0-.38-.22h0a.33.33,0,0,0-.22.39h0a6.131,6.131,0,0,1-.86.11.31.31,0,0,0-.31-.31h0a.31.31,0,0,0-.31.31,6.08,6.08,0,0,1-.87-.11h0a.31.31,0,0,0-.22-.39h0a.32.32,0,0,0-.38.22h0a7.43,7.43,0,0,1-.82-.34h0A.3.3,0,0,0,9.29,26h0a.31.31,0,0,0-.43.11h0a5.31,5.31,0,0,1-.71-.54h0a.31.31,0,0,0,0-.44h0a.3.3,0,0,0-.44,0h0a5.94,5.94,0,0,1-.54-.7h0A.31.31,0,0,0,7.29,24h0a.3.3,0,0,0-.42-.11h0a6.71,6.71,0,0,1-.34-.82h0a.33.33,0,0,0,.22-.39h0a.32.32,0,0,0-.38-.22h0a5.28,5.28,0,0,1-.11-.89h0a.31.31,0,0,0,.32-.31h0A.31.31,0,0,0,6.25,21h0a6.57,6.57,0,0,1,.12-.89h0a.31.31,0,0,0,.38-.22h0a.3.3,0,0,0-.22-.38h0a5.9,5.9,0,0,1,.34-.82h0a.3.3,0,0,0,.42-.11h0a.31.31,0,0,0-.11-.43h0a5.31,5.31,0,0,1,.54-.71h0a.31.31,0,0,0,.44,0h0a.31.31,0,0,0,0-.44h0a7.63,7.63,0,0,1,.7-.54h0a.31.31,0,0,0,.43.11h0a.31.31,0,0,0,.11-.42h0a5.85,5.85,0,0,1,.82-.33h0a.31.31,0,0,0,.38.22h0a.3.3,0,0,0,.22-.38h0a5.71,5.71,0,0,1,.83-.11.31.31,0,0,0,.31.31H12a.31.31,0,0,0,.35-.35Z" fill-rule="evenodd" fill="url(#linear-gradient-50)"/>
    <path id="Path_87" data-name="Path 87" d="M12,26.66a5.39,5.39,0,1,0-5.39-5.38A5.39,5.39,0,0,0,12,26.66Z" fill-rule="evenodd" fill="url(#linear-gradient-51)"/>
    <path id="Path_88" data-name="Path 88" d="M12,26.63a5.35,5.35,0,1,0-5.35-5.35A5.35,5.35,0,0,0,12,26.63Z" fill-rule="evenodd" fill="url(#linear-gradient-52)"/>
    <path id="Path_89" data-name="Path 89" d="M12,26.59a5.31,5.31,0,1,0-5.3-5.31A5.31,5.31,0,0,0,12,26.59Z" fill-rule="evenodd" fill="url(#linear-gradient-19)"/>
    <path id="Path_90" data-name="Path 90" d="M12,26.55a5.27,5.27,0,1,0-5.27-5.27A5.27,5.27,0,0,0,12,26.55Z" fill-rule="evenodd" fill="url(#linear-gradient-54)"/>
    <path id="Path_91" data-name="Path 91" d="M12,26.51a5.24,5.24,0,1,0-5.24-5.23A5.24,5.24,0,0,0,12,26.51Z" fill-rule="evenodd" fill="url(#linear-gradient-55)"/>
    <path id="Path_92" data-name="Path 92" d="M12,26.48a5.2,5.2,0,1,0-5.2-5.2,5.2,5.2,0,0,0,5.2,5.2Z" fill-rule="evenodd" fill="url(#linear-gradient-56)"/>
    <path id="Path_93" data-name="Path 93" d="M12,26.44a5.16,5.16,0,1,0-5.16-5.16A5.16,5.16,0,0,0,12,26.44Z" fill-rule="evenodd" fill="url(#linear-gradient-57)"/>
    <path id="Path_94" data-name="Path 94" d="M12,26.4a5.12,5.12,0,1,0-5.12-5.12A5.12,5.12,0,0,0,12,26.4Z" fill-rule="evenodd" fill="url(#linear-gradient-58)"/>
    <path id="Path_95" data-name="Path 95" d="M12,26.36a5.08,5.08,0,1,0-5.09-5.08A5.08,5.08,0,0,0,12,26.36Z" fill-rule="evenodd" fill="url(#linear-gradient-59)"/>
    <path id="Path_96" data-name="Path 96" d="M12,26.33a5,5,0,1,0-5-5,5.06,5.06,0,0,0,5,5Z" fill-rule="evenodd" fill="url(#linear-gradient-60)"/>
    <path id="Path_97" data-name="Path 97" d="M12,26.29a5,5,0,1,0-5-5,5,5,0,0,0,5,5Z" fill-rule="evenodd" fill="url(#linear-gradient-61)"/>
    <path id="Path_98" data-name="Path 98" d="M12,26.25a5,5,0,1,0-5-5,5,5,0,0,0,5,5Z" fill-rule="evenodd" fill="url(#linear-gradient-62)"/>
    <path id="Path_99" data-name="Path 99" d="M12,25.7a4.42,4.42,0,1,0-4.42-4.42A4.42,4.42,0,0,0,12,25.7Z" fill="#313838" fill-rule="evenodd"/>
    <path id="Path_100" data-name="Path 100" d="M12,25.44a4.16,4.16,0,1,0-4.16-4.16A4.16,4.16,0,0,0,12,25.44Z" fill-rule="evenodd" fill="url(#linear-gradient-63)"/>
    <path id="Path_101" data-name="Path 101" d="M12,24.43A2.94,2.94,0,1,0,9.06,21.5,2.94,2.94,0,0,0,12,24.43Z" fill-rule="evenodd" fill="url(#linear-gradient-30)"/>
    <circle id="Ellipse_4" data-name="Ellipse 4" cx="2.8" cy="2.8" r="2.8" transform="translate(9.21 18.48)" fill="#b7924c"/>
    <path id="Path_102" data-name="Path 102" d="M12,23.64a2.36,2.36,0,1,0-1.675-.688A2.36,2.36,0,0,0,12,23.64Z" fill-rule="evenodd" fill="url(#linear-gradient-65)"/>
    <path id="Path_103" data-name="Path 103" d="M12,19.91a.21.21,0,1,0-.21-.21.21.21,0,0,0,.21.21Z" fill="#313838" fill-rule="evenodd"/>
    <path id="Path_104" data-name="Path 104" d="M13.3,20a.212.212,0,0,1-.3.3.2.2,0,0,1,0-.3.22.22,0,0,1,.3,0Z" fill="#313838" fill-rule="evenodd"/>
    <path id="Path_105" data-name="Path 105" d="M13.83,21.3a.21.21,0,0,1-.21.21.22.22,0,0,1,0-.43.21.21,0,0,1,.21.22Z" fill="#313838" fill-rule="evenodd"/>
    <path id="Path_106" data-name="Path 106" d="M13.31,22.58a.2.2,0,0,1-.3,0,.21.21,0,1,1,.3,0Z" fill="#313838" fill-rule="evenodd"/>
    <path id="Path_107" data-name="Path 107" d="M12,23.12a.21.21,0,1,1,.21-.21.21.21,0,0,1-.21.21Z" fill="#313838" fill-rule="evenodd"/>
    <path id="Path_108" data-name="Path 108" d="M10.74,22.59a.2.2,0,0,1,0-.3.21.21,0,0,1,.29,0,.2.2,0,0,1,0,.3.19.19,0,0,1-.29,0Z" fill="#313838" fill-rule="evenodd"/>
    <path id="Path_109" data-name="Path 109" d="M10.2,21.31a.21.21,0,1,1,.21.21.21.21,0,0,1-.21-.21Z" fill="#313838" fill-rule="evenodd"/>
    <circle id="Ellipse_5" data-name="Ellipse 5" cx="0.21" cy="0.21" r="0.21" transform="translate(10.66 19.96)" fill="#313838"/>
    <path id="Path_110" data-name="Path 110" d="M12,22.34a1.06,1.06,0,1,0-1-1.06A1.06,1.06,0,0,0,12,22.34Z" fill-rule="evenodd" fill="url(#linear-gradient-66)"/>
    <path id="Path_111" data-name="Path 111" d="M12.35,15.51a5.4,5.4,0,0,1,.82.11h0a.45.45,0,0,0,0,.11,5.27,5.27,0,0,0-.81-.1.31.31,0,0,1-.31.31H12a.31.31,0,0,1-.31-.31,5.57,5.57,0,0,0-.82.1.22.22,0,0,0,0-.11h0a5.71,5.71,0,0,1,.83-.11.31.31,0,0,0,.31.31H12a.31.31,0,0,0,.31-.31Zm.82.25a.31.31,0,0,0,.22.36h0a.33.33,0,0,0,.39-.22h0a6.71,6.71,0,0,1,.78.32.36.36,0,0,1,0-.09h0a5.85,5.85,0,0,0-.82-.33h0a.31.31,0,0,1-.39.22h0a.32.32,0,0,1-.22-.24Zm1.39.57a.3.3,0,0,0,.15.21h0a.31.31,0,0,0,.43-.11h0a7.79,7.79,0,0,1,.71.54h0v.06a6.26,6.26,0,0,0-.66-.49h0a.31.31,0,0,1-.43.11h0a.32.32,0,0,1-.15-.33Zm1.2.92a.29.29,0,0,0,.09.16h0a.31.31,0,0,0,.44,0h0a5.39,5.39,0,0,1,.55.71h0a7.139,7.139,0,0,0-.5-.62h0a.31.31,0,0,1-.44,0h0a.3.3,0,0,1-.09-.28Zm.92,1.19a.3.3,0,0,0,0,.1h0a.3.3,0,0,0,.42.11h0a5.94,5.94,0,0,1,.35.82h0a5,5,0,0,0-.31-.72h0a.3.3,0,0,1-.42-.11h0a.35.35,0,0,1,0-.22Zm.58,1.4h0a.33.33,0,0,0,.39.22h0a6.57,6.57,0,0,1,.12.89h0a6.49,6.49,0,0,0-.11-.77h0a.31.31,0,0,1-.39-.22h0a.29.29,0,0,1,0-.13Zm.2,1.49a.3.3,0,0,0,.3.25h0v.12h0a.31.31,0,0,1-.31-.31h0a.13.13,0,0,1,0-.06Zm-.2,1.49a.34.34,0,0,0,.23.25h0v.11a.31.31,0,0,1-.21-.36Zm-.57,1.4a.35.35,0,0,0,.15.21h0l-.05.08a.32.32,0,0,1-.11-.3Zm-.92,1.19a.4.4,0,0,0,.09.17h0l-.06.05a.34.34,0,0,1,0-.22Zm-1.19.92a.3.3,0,0,0,0,.1h0a.29.29,0,0,1,0-.13Zm-1.39.58Zm-2.36,0Zm-1.39-.48h0a.36.36,0,0,0,0-.09.24.24,0,0,1,0,.12ZM8.21,25.6l-.06-.05h0a.38.38,0,0,0,.08-.17.28.28,0,0,1,0,.22Zm-1-1.11v-.08h0a.35.35,0,0,0,.15-.21.32.32,0,0,1-.11.3Zm-.67-1.34v-.11h0a.31.31,0,0,0,.22-.25.31.31,0,0,1-.2.36Zm-.3-1.48v-.12h0a.31.31,0,0,0,.31-.25v.06h0a.31.31,0,0,1-.32.31Zm0-.74h0a6.57,6.57,0,0,1,.12-.89h0a.31.31,0,0,0,.38-.22h0a.2.2,0,0,1,0,.13h0a.3.3,0,0,1-.38.22h0a4.92,4.92,0,0,0-.11.77Zm.31-1.48h0a5.9,5.9,0,0,1,.34-.82h0a.3.3,0,0,0,.42-.11h0a.3.3,0,0,0,0-.1.35.35,0,0,1,0,.22h0a.3.3,0,0,1-.42.11h0a5.74,5.74,0,0,0-.3.72Zm.67-1.34h0a5.31,5.31,0,0,1,.54-.71h0a.31.31,0,0,0,.44,0h0a.29.29,0,0,0,.09-.16.3.3,0,0,1-.09.28h0a.31.31,0,0,1-.44,0h0c-.17.2-.34.41-.49.62Zm1-1.11H8.17a7.63,7.63,0,0,1,.7-.54h0a.31.31,0,0,0,.43.11h0a.3.3,0,0,0,.15-.21.33.33,0,0,1-.15.33h0a.31.31,0,0,1-.43-.11h0a7.37,7.37,0,0,0-.65.49Zm1.24-.82a6.71,6.71,0,0,1,.78-.32h0a.32.32,0,0,0,.38.22h0a.31.31,0,0,0,.23-.36.31.31,0,0,1-.23.24h0a.31.31,0,0,1-.38-.22h0a5.85,5.85,0,0,0-.82.33h0a.36.36,0,0,1,.04.14Z" fill="#fff" fill-rule="evenodd"/>
    <path id="Path_112" data-name="Path 112" d="M23.4,11.89a.72.72,0,0,1-.15-1,.71.71,0,0,1,1-.16l6.91,5.08h-2.4Z" fill="#b7924c"/>
    <path id="Path_113" data-name="Path 113" d="M4.77,9.55a.11.11,0,0,1,0-.22H38.36a.11.11,0,0,1,0,.22Z" fill="#b7924c"/>
    <path id="Path_114" data-name="Path 114" d="M19.82,9.41l1.29.87H23l1.43-.83Z" fill-rule="evenodd" fill="url(#linear-gradient-67)"/>
    <path id="Path_115" data-name="Path 115" d="M21.68,10.31A.35.35,0,1,1,22,9.7l17.33,9.92a.352.352,0,0,1-.35.61Z" fill="#5d6567"/>
    <path id="Path_116" data-name="Path 116" d="M23.3,11.65a.71.71,0,1,1,.7-1.23l13.73,7.86a.72.72,0,0,1,.27,1,.71.71,0,0,1-1,.26Z" fill="url(#linear-gradient-68)"/>
    <path id="Path_117" data-name="Path 117" d="M39.5,20.82a.79.79,0,0,0,.8-.79.8.8,0,1,0-1.59,0A.79.79,0,0,0,39.5,20.82Z" fill="#5d6567" fill-rule="evenodd"/>
    <path id="Path_118" data-name="Path 118" d="M21.7,10.93a.8.8,0,1,0-.8-.79A.8.8,0,0,0,21.7,10.93Z" fill-rule="evenodd" fill="url(#linear-gradient-69)"/>
  </g>
</svg>
