<svg xmlns="http://www.w3.org/2000/svg"  viewBox="0 0 222.72 181.45"><g transform="translate(0.01)"><path d="M217.45,150.56H2.6a3.23,3.23,0,0,0,0,6.34H26.2a2.58,2.58,0,0,1,2.85,2.87c0,2.63-1.71,3-2.44,3.05H17.05a3.24,3.24,0,0,0,0,6.35h94.6a3.24,3.24,0,0,0,0-6.35H97.3a3,3,0,0,1,0-5.93H217.45a3.23,3.23,0,0,0,0-6.34ZM55.81,159.88a2.67,2.67,0,0,1,2.56-3h21.4a2.57,2.57,0,0,1,2.84,2.87c0,2.63-1.7,3-2.44,3.05H58.37a2.66,2.66,0,0,1-2.56-2.92Z" fill="#e6e6e6"/><path d="M177.24,162.83H36.67a3.24,3.24,0,0,0,0,6.35H71.88a2.58,2.58,0,0,1,2.85,2.87c0,2.63-1.71,3-2.44,3.06H48.91a3.23,3.23,0,0,0,0,6.34H151a3.23,3.23,0,0,0,0-6.34h-8a3,3,0,0,1,0-5.93h34.27a3.24,3.24,0,0,0,0-6.35Zm-75.75,9.32a2.66,2.66,0,0,1,2.56-3h21.39a2.58,2.58,0,0,1,2.85,2.87c0,2.63-1.7,3-2.44,3.06h-21.8a2.67,2.67,0,0,1-2.56-2.93Z" fill="#e6e6e6"/><path d="M103.2,7.36h79.68l4.47,5.33,5.13,47.77-96.47.2L98.6,10.47Z" fill="#999" opacity="0.3"/><rect width="3.91" height="51.64" transform="translate(148.021 8.245) rotate(-1.94)" fill="#303030"/><path d="M160.61,59.54H143.15V57a2.21,2.21,0,0,1,2.2-2.2h19.79Z" fill="#697378"/><path d="M179.64,28.15h-5l-2,26.68h-9.29a2.79,2.79,0,0,0-2.78,2.79V59h17.49l5.4-26.12a3.91,3.91,0,0,0-3.82-4.73Z" fill="#212426"/><path d="M176.06,28.15h-7.13a4.46,4.46,0,0,0-4.29,3.24L157.94,55h15.37l5.5-23.38a2.82,2.82,0,0,0-2.75-3.47Z" fill="#50565c"/><path d="M96.07,151.91l-.08-.68H97.1Z" fill="#0d0d0d"/><path d="M134.69,115.19c0-.23.07-.46.09-.7.08-.63.14-1.25.19-1.88q.1-1.39.15-2.79v-2.57l-5.56-.06-.06-1.1,5.47-1.65c-.07-.85-.16-1.69-.27-2.53s-.3-1.86-.48-2.78-.35-1.63-.56-2.43l-5.39,1.63c-.1-.39-.21-.76-.32-1.14L132.86,94c-.25-.77-.52-1.53-.82-2.29s-.71-1.77-1.11-2.63-.69-1.42-1.06-2.11l-4.79,3.14c-.21-.38-.41-.76-.62-1.13l4-4.48c-.41-.65-.84-1.29-1.28-1.91-.56-.78-1.15-1.53-1.76-2.26-.48-.57-1-1.12-1.48-1.65L120.07,83c-.32-.34-.65-.67-1-1l2.76-5.33q-.81-.72-1.65-1.38c-.75-.59-1.53-1.15-2.33-1.67-.58-.38-4.52-.72-5-5-3.76-.16-4.57-.41-7.54-.41a52,52,0,0,0-6.78.45s-.77,1.48-1.34,2.65l-2.9-1.77c-.67.17-1.32.36-2,.56-.93.3-1.85.63-2.75,1-.65.27-1.28.56-1.91.87L89,77.55c-.46.24-.91.49-1.36.76L85.1,73.39c-.61.38-1.22.76-1.81,1.18q-1.22.84-2.37,1.8c-.58.47-1.14.95-1.69,1.46l3.36,4.35c-.36.35-1.51,1.36-1.85,1.73l-3.62-4c-.52.55-1,1.12-1.52,1.72-.64.76-1.25,1.54-1.84,2.36-.46.63-.9,1.28-1.33,2l3.69,4c-.25.41-.5.83-.73,1.25l-4.5-2.73c-.38.7-.75,1.42-1.11,2.15-.43.89-.83,1.8-1.21,2.72-.31.76-.25.56-.53,1.34l4,4.14c-.15.44-.14.44-.27.89l-5-1.24c-.22.8-.43,1.61-.61,2.43s-.61,3.15-.86,4.71l2.53,2.18c0,.45,2.6,2.2,2.56,2.65L65,109.25q-.08,1.27-.09,2.52c0,1,0,2,.06,2.9s.09,1.42.18,2.24l4.66,2.39-4.25.73c.14.82.29,1.64.47,2.45s.45,1.85.71,2.76c.1.35.2.74.41,1.35,0,0,2.09,1.24,3.26,1.83l-1.92,1.8c.31.74.65,1.47,1,2.18s.85,1.67,1.32,2.47.54,1,.8,1.35c.68.19,2.79.66,2.79.66.71.07,2.63,1,3.91,1l-4.66,1.21c.47.61,1,1.21,1.45,1.78s1.23,1.35,1.88,2,1.09,1,1.65,1.52l6.75-.61c.38.32-.39-.31,0,0l-4.63,2.3c.59.43,1.2.84,1.81,1.23.76.47,1.53.93,2.33,1.34.63.33,1.28.63,1.94.91l6.22-1.42c-1.11.64-3.73,2.36-3.73,2.36.67.22,1.35.42,2,.6s2.45.49,3.68.7c.88-.28,1.51-.39,1.86-.54,0,0-.88.63-.85.63.34,0,3.76.53,4.09.55a53.609,53.609,0,0,0,8.42-.05c.86-.2,3.92-.22,4.76-.5s-3.8-2-3.12-2.24l-.87-5.22c.42-.2.83-.4,1.24-.62l2.06,4.73c.67-.34,1.33-.71,2-1.1s1.53-.93,2.26-1.45,1.26-.91,1.87-1.4l-2.17-5c.32-.29.65-.58,1-.89l3.26,4.11c.58-.53,1.15-1.09,1.71-1.67s1.23-1.33,1.81-2,1-1.26,1.53-1.92l-3.43-4.33.66-1,4.34,3.09c.45-.69.89-1.41,1.31-2.14s.89-1.59,1.31-2.41.73-1.53,1.07-2.31l-4.51-3.21.38-1.05,5.15,1.7c.29-.81.57-1.62.82-2.45s.51-1.76.73-2.66.39-1.69.55-2.54L129,116.2c.06-.36.11-.71.16-1.07Z" fill="#292929"/><path d="M148.79,111v-2.6c0-.94-.1-1.86-.18-2.79s-.19-1.71-.31-2.55l-5.54.61a5.786,5.786,0,0,0-.19-1.09l5.24-2.29c-.17-.84-.36-1.66-.57-2.48s-.52-1.82-.81-2.71-.54-1.57-.84-2.34l-5.16,2.26c-.14-.37-.3-.73-.45-1.09l4.51-3.79c-.35-.74-.71-1.47-1.09-2.18s-.92-1.67-1.42-2.48-.85-1.33-1.3-2l-4.39,3.69a10.857,10.857,0,0,0-.75-1l3.41-4.92c-.49-.6-1-1.18-1.49-1.74-.65-.71-1.33-1.39-2-2s-1.1-1-1.67-1.47L130.5,80.8c-.36-.3-.73-.59-1.09-.87l2.1-5.63q-.89-.61-1.8-1.17a22,22,0,0,0-2.51-1.38c-.63-.31-1.26-.59-1.9-.86l-2,5.45c-.46-.2-.92-.37-1.39-.54l.73-5.89c-.65-.2-1.31-.37-2-.53-.93-.21-1.87-.39-2.82-.51-.66-.09-1.33-.16-2-.21l-.71,5.76c-.49,0-1-.05-1.47-.05h-.07l-.62-5.75a18.832,18.832,0,0,0-2,.13,27.177,27.177,0,0,0-2.85.42c-.67.13-1.32.28-2,.46l.63,5.74c-.5.14-1,.3-1.49.48l-1.91-5.34c-.64.24-1.27.51-1.9.79a29.1,29.1,0,0,0-2.61,1.33c-.61.34-1.21.71-1.8,1.09l1.94,5.39c-.42.3-.84.61-1.25.93l-3.09-4.59c-.56.44-1.12.9-1.66,1.38-.73.65-1.44,1.35-2.14,2.07-.51.53-1,1.08-1.49,1.65l3.14,4.66q-.48.59-.93,1.2l-4.06-3.52c-.45.62-.89,1.25-1.31,1.89-.54.83-1.06,1.69-1.54,2.56-.38.69-.74,1.39-1.09,2.1L87.64,93c-.2.44-.39.89-.58,1.33l-4.78-2.17c-.3.74-.58,1.5-.85,2.26-.32.93-.61,1.89-.88,2.85-.22.79-.42,1.58-.6,2.39l4.82,2.18c-.09.46-.18.91-.26,1.37l-5.1-.63c-.13.81-.24,1.64-.33,2.47S78.9,107,78.85,108c0,.78-.06,1.56-.06,2.35v.17l5.08.62v1.36l-5,.94a23.167,23.167,0,0,0,.21,2.51c.09.83.24,1.93.4,2.88s.32,1.65.5,2.46l4.92-.92c.1.44.2.89.31,1.33l-4.5,2.38q.35,1.2.75,2.37c.32.9.67,1.79,1,2.66s.66,1.5,1,2.23L87.9,129q.31.65.63,1.26l-3.68,3.55c.4.7.83,1.38,1.26,2.05a26.252,26.252,0,0,0,1.6,2.3c.6.74,1,1.24,1.46,1.84l3.54-3.41a14.415,14.415,0,0,0,1,1.1L91,142.05c.54.55,1.09,1.09,1.65,1.6s1.39,1.19,2.1,1.75,1.2.9,1.82,1.31l2.53-4.2q.61.42,1.26.81l-1.49,4.82c.64.35,1.29.69,2,1,.81.38,1.63.74,2.47,1.05.67.25,1.35.48,2,.68l1.46-4.73c.48.13,1,.26,1.45.36l-.33,5c.7.14,1.4.26,2.1.35q1.31.17,2.64.21h2.11a20.736,20.736,0,0,0,2.63-.19c.86-.11-.16,0,.54-.1l-.27-5.11c.48-.11,1-.24,1.41-.38l1.42,4.86c.7-.2,3-.66,3.64-.91s1.64-.66,2.44-1,1.33-.65,2-1l-1.48-5.08c.39-.24.78-.5,1.16-.77l2.6,4.46c.63-.42,1.24-.86,1.84-1.33s1.4-1.1,2.07-1.7,1.14-1.06,1.69-1.62l-2.75-4.69c.29-.32.58-.65.85-1l3.72,3.69c.52-.6,1-1.22,1.51-1.86s1.06-1.46,1.56-2.23.88-1.37,1.29-2.08l-3.92-3.89.53-1.08,4.68,2.56c.36-.75.71-1.51,1-2.28s.7-1.68,1-2.55.55-1.6.79-2.42l-4.86-2.66c.09-.36.18-.72.26-1.08l5.31,1.07c.2-.83.37-1.67.53-2.52s.3-1.82.41-2.74.18-1.71.24-2.58l-5.42-1.1v-1.07Z" fill="#1a1a1a"/><ellipse cx="21.38" cy="25.51" rx="21.38" ry="25.51" transform="translate(93.42 84.58)" fill="#262626"/><path d="M114.8,139.25c-13.66,0-24.77-13-24.77-28.9s11.11-28.91,24.77-28.91,24.78,13,24.78,28.91S128.46,139.25,114.8,139.25Zm0-51c-9.91,0-18,9.92-18,22.11s8.07,22.1,18,22.1,18-9.91,18-22.1-8.08-22.12-18-22.12Z" fill="#6b6b6b"/><path d="M117,110.25c0,3.53-2.2,6.39-4.91,6.39s-4.91-2.86-4.91-6.39,2.2-6.4,4.91-6.4S117,106.72,117,110.25Z" fill="#2e2e2e"/><ellipse cx="8.53" cy="11.61" rx="8.53" ry="11.61" transform="translate(103.73 98.57)" fill="#b3b3b3"/><path d="M116.82,88.24a12.551,12.551,0,0,0-2.37.26c8,1.55,14.18,10.81,14.18,22s-6.16,20.5-14.18,22a12.54,12.54,0,0,0,2.37.25c9.14,0,16.55-10,16.55-22.3S126,88.24,116.82,88.24Z" fill="#8c8c8c"/><path d="M112.47,94.38c0,1-.61,1.89-1.37,1.89s-1.38-.85-1.38-1.89.62-1.9,1.38-1.9S112.47,93.33,112.47,94.38Z" fill="#1f1f1f"/><path d="M100.35,109.57c0,1-.61,1.89-1.37,1.89s-1.38-.85-1.38-1.89.62-1.9,1.38-1.9S100.35,108.52,100.35,109.57Z" fill="#1f1f1f"/><path d="M125,109.57c0,1-.61,1.89-1.37,1.89s-1.38-.85-1.38-1.89.62-1.9,1.38-1.9S125,108.52,125,109.57Z" fill="#1f1f1f"/><path d="M121.55,99.45c0,1-.62,1.9-1.38,1.9s-1.37-.85-1.37-1.9.61-1.89,1.37-1.89S121.55,98.41,121.55,99.45Z" fill="#1f1f1f"/><path d="M103.73,99.45c0,1-.62,1.9-1.38,1.9s-1.37-.85-1.37-1.9.61-1.89,1.37-1.89S103.73,98.41,103.73,99.45Z" fill="#1f1f1f"/><path d="M122.16,120.67c0,1-.62,1.89-1.38,1.89s-1.37-.84-1.37-1.89.61-1.89,1.37-1.89S122.16,119.62,122.16,120.67Z" fill="#1f1f1f"/><ellipse cx="1.38" cy="1.89" rx="1.38" ry="1.89" transform="translate(100.97 118.78)" fill="#1f1f1f"/><path d="M112.47,127.09c0,1-.61,1.89-1.37,1.89s-1.38-.84-1.38-1.89.62-1.89,1.38-1.89S112.47,126,112.47,127.09Z" fill="#1f1f1f"/><path d="M117.78,110.44v-.19l-.79-7.07h-4.73s-4,1.12-4,6.91c0,6.42,4.6,7.1,4.6,7.1H117Z" fill="#303030"/><path d="M122.14,110.18c0,3.87-2.31,7-5.15,7s-5.14-3.14-5.14-7,2.3-7,5.14-7S122.14,106.31,122.14,110.18Z" fill="#6b6b6b"/><path d="M120.17,110.18c0,2.12-1.26,3.84-2.81,3.84s-2.82-1.72-2.82-3.84,1.26-3.83,2.82-3.83S120.17,108.06,120.17,110.18Z" fill="#303030"/><path d="M82,92.92s-5.78,6.08-8,8.17c.95-3.22,1.64-6.35,1.64-6.35l7.82-5.32L87.64,93l-.58,1.33Z" fill="#0d0d0d"/><path d="M86.49,84.22l5.01,2.17.92-1.2-3.13-4.66-8.45,4.43L77.3,90.62Z" fill="#0d0d0d"/><path d="M93.42,76.37l-8.65,4.16,4.2-3.96,8.01-2.87,2,5.18-1.31,1.14Z" fill="#0d0d0d"/><path d="M94.56,71.83l8.73-1.34,1.91,5.34,1.49-.49-.63-5.73-7.08.57Z" fill="#0d0d0d"/><path d="M79.95,99.65l4.82,2.18-.26,1.37-5.25.35-5.92,6.02v-4.44Z" fill="#0d0d0d"/><path d="M83.88,111.12l.03,1.36-5.01.94-3.99,8.38-.87-4.61,4.76-6.69Z" fill="#0d0d0d"/><path d="M85.25,121.68l-.32-1.34-4.92.93-3.45,7.71,1.82,3.86,2.36-8.78Z" fill="#0d0d0d"/><path d="M83.54,131.32l-.98,7.55,2.69,2.87-.4-7.92,3.68-3.55-.62-1.26Z" fill="#0d0d0d"/><path d="M89.17,140.01l2,7.21,3.56,2.26-3.69-7.43,2.62-4.34-.95-1.11Z" fill="#0d0d0d"/><path d="M96.61,146.71l2.53-4.2,1.26.81-1.48,4.81,4.37,3.78-4.3-.61Z" fill="#0d0d0d"/><path d="M75.68,94.74l-4.79-6.21,3.2-.74,3.21,3.04Z" fill="#0d0d0d"/><path d="M88.09,73.7l1.25,3.18-2.12,1.78L85.1,73.39Z" fill="#0d0d0d"/><path d="M66.8,98.53l3.45-1.52,1.82,1.87,1.97,2.21-.7,4.04Z" fill="#0d0d0d"/><path d="M65.01,109.25l2.85-1.4,5.05,4.05.46.76.53,3.3Z" fill="#0d0d0d"/><path d="M77.12,79.94l3.21-.69,2.26,2.93-1.75,2.7Z" fill="#0d0d0d"/><path d="M94.33,69.52v2.71l1.53-.84,1.04-.52Z" fill="#0d0d0d"/><path d="M65.57,120.03l2.45-1.65,6.89,3.42.61,3.87Z" fill="#0d0d0d"/><path d="M68.5,130.22l10.8,5.16-.92-2.54-7.96-4.42Z" fill="#0d0d0d"/><path d="M73.66,139.12l9.12,1.03-2.31-1.85-6.06-1.42Z" fill="#0d0d0d"/><path d="M80.76,146.1l.14-1.9,5.79-.57,3.34,1.88Z" fill="#0d0d0d"/><path d="M89.33,150.52l.22-1.55,2.7-.75,3.37,1.54-2.2-.28Z" fill="#0d0d0d"/><path d="M115.76,68.64l-2.83.34.58,5.37,1.54.05Z" fill="#0d0d0d"/><path d="M125.25,70.87l-2.88.5-.55,4.41,1.39.53Z" fill="#0d0d0d"/><path d="M133.74,76.02l-2.86-.19-1.53,4.08,1.1.87Z" fill="#0d0d0d"/><path d="M112.69,152.06c-.4,0-12,2.1-21.57-3.34-16.14-9.13-19.71-25.9-19.87-38.35C71.63,89.89,81.87,79.63,89.8,74a30.69,30.69,0,0,1,8-3.56c10-2.9,12.75-2,12.75-2s-11.55.83-19,6.34c-10.29,8-16.83,20.29-17.11,35.57.21,16.82,6.17,28.84,17.59,36.29,3.65,2.38,4.87,3.13,10.93,4.73C105.07,152,112.69,152.06,112.69,152.06Z" fill="#0d0d0d"/><path d="M106.83,146.14l1.45.36-.33,5,1.34.78-2.24-.03-1.68-1.38Z" fill="#0d0d0d"/><path d="M120.54,151.14l-2.61-.29-.21-4.19,1.4-.38Z" fill="#0d0d0d"/><path d="M130.87,146.79h-2.68l-1.08-3.69,1.16-.77Z" fill="#0d0d0d"/><path d="M133.72,137.45l.85-.99,3.72,3.69-2.84.25Z" fill="#0d0d0d"/><path d="M143.94,131.57l-2.53,1.18-2.69-2.66.54-1.08Z" fill="#0d0d0d"/><path d="M147.49,121.65l-2.46,1.71-3.11-1.7.26-1.08Z" fill="#0d0d0d"/><path d="M148.79,111.03l-3.4.82v.88l3.28,1.08-5.42-1.1.02-1.07Z" fill="#0d0d0d"/><path d="M145.45,101.35l2.82,1.75-5.54.61-.19-1.09Z" fill="#0d0d0d"/><path d="M143.25,91.19l2.31,1.61-5.16,2.26-.45-1.09Z" fill="#0d0d0d"/><path d="M137.72,82.99l2.93.56-4.39,3.69-.75-1.05Z" fill="#0d0d0d"/><rect width="10.33" height="18.43" rx="4.57" transform="translate(87.31 22.31)" fill="#171717"/><path d="M91.53,26.4v9.08a2.34,2.34,0,0,0,.78,1.75L96,40.54" fill="none" stroke="gray" stroke-linecap="round" stroke-miterlimit="10" stroke-width="1.04"/><path d="M177.21,0H108.46a5.9,5.9,0,0,0-5.89,5.9h80.54A5.9,5.9,0,0,0,177.21,0Z" fill="#e04141"/><path d="M177.21,0H137.37a5.9,5.9,0,0,0-5.9,5.9h51.64A5.9,5.9,0,0,0,177.21,0Z" fill="#962c2c"/><path d="M97.19,13.08c0,3-1.35,5.37-3,5.37s-3-2.4-3-5.37,1.35-5.37,3-5.37S97.19,10.11,97.19,13.08Z" fill="#471515"/><path d="M101.07,12.89c0,3.81-2.46,6.45-6.9,6.45-2.08,0-4-2.56-4-6.26s1.5-6.46,4-6.46C98.19,6.62,101.07,9.13,101.07,12.89Z" fill="#192121"/><path d="M95.85,12.89c0,2.85-1.11,5.16-2.47,5.16s-2.47-2.31-2.47-5.16S92,7.74,93.38,7.74,95.85,10.05,95.85,12.89Z" fill="#fff"/><path d="M93.38,8.91A42.66,42.66,0,0,0,93.17,17" fill="none" stroke="#ccc" stroke-linecap="round" stroke-miterlimit="10" stroke-width="0.33"/><path d="M92.11,10.47a19.83,19.83,0,0,0,0,5.19" fill="none" stroke="#ccc" stroke-linecap="round" stroke-miterlimit="10" stroke-width="0.33"/><path d="M94.4,10.47a27.45,27.45,0,0,0-.09,5.44" fill="none" stroke="#ccc" stroke-linecap="round" stroke-miterlimit="10" stroke-width="0.33"/><path d="M96.87,11.82l-2.52,51h37.12V5.38H103.64a6.78,6.78,0,0,0-6.77,6.439Zm30.76,46.91H98.3l2.78-46a3.76,3.76,0,0,1,3.75-3.53h22.8Z" fill="#454545"/><path d="M131.47,5.38V62.83h63.28l-5.38-50.92a7.3,7.3,0,0,0-7.26-6.53Zm59.3,53.35H135.94V9.21h44.8a4.54,4.54,0,0,1,4.5,4Z" fill="#1a1a1a"/><path d="M140.43,12.87c0,3-1.35,5.37-3,5.37s-3-2.4-3-5.37,1.35-5.37,3-5.37S140.43,9.9,140.43,12.87Z" fill="#471515"/><path d="M144.32,12.68c0,3.81-2.47,6.45-6.9,6.45-2.08,0-4-2.56-4-6.26s1.51-6.46,4-6.46C141.43,6.41,144.32,8.92,144.32,12.68Z" fill="#192121"/><ellipse cx="2.47" cy="5.16" rx="2.47" ry="5.16" transform="translate(134.15 7.52)" fill="#fff"/><path d="M136.62,8.7a43.261,43.261,0,0,0-.2,8.06" fill="none" stroke="#ccc" stroke-linecap="round" stroke-miterlimit="10" stroke-width="0.33"/><path d="M135.35,10.26a19.83,19.83,0,0,0,0,5.19" fill="none" stroke="#ccc" stroke-linecap="round" stroke-miterlimit="10" stroke-width="0.33"/><path d="M137.65,10.26a26.619,26.619,0,0,0-.09,5.44" fill="none" stroke="#ccc" stroke-linecap="round" stroke-miterlimit="10" stroke-width="0.33"/><rect width="10.33" height="18.43" rx="4.57" transform="translate(135.27 22.31)" fill="#262626"/><path d="M36.32,90.57c0,3-1.35,5.37-3,5.37s-3-2.41-3-5.37,1.35-5.38,3-5.38S36.32,87.6,36.32,90.57Z" fill="#471515"/><path d="M40.21,90.38c0,3.81-2.47,6.44-6.9,6.44-2.08,0-4-2.55-4-6.25s1.51-6.46,4-6.46C37.32,84.11,40.21,86.62,40.21,90.38Z" fill="#212b2b"/><path d="M35,90.38c0,2.85-1.1,5.16-2.47,5.16S30,93.23,30,90.38s1.11-5.16,2.47-5.16S35,87.53,35,90.38Z" fill="#fff"/><path d="M32.51,86.4a43.57,43.57,0,0,0-.21,8" fill="none" stroke="#ccc" stroke-linecap="round" stroke-miterlimit="10" stroke-width="0.33"/><path d="M31.24,88a19.76,19.76,0,0,0,0,5.18" fill="none" stroke="#ccc" stroke-linecap="round" stroke-miterlimit="10" stroke-width="0.33"/><path d="M33.54,88a26.62,26.62,0,0,0-.09,5.44" fill="none" stroke="#ccc" stroke-linecap="round" stroke-miterlimit="10" stroke-width="0.33"/><path d="M148.08,119.35H48.52L54.2,61.96H188.68Z" fill="#962c2c"/><rect width="78.52" height="17.49" transform="translate(79.47 108.68)" fill="#181b1c"/><path d="M66.55,124.93l-1.48,5H57.66s.28-8.5-2.78-14-8-12.21-19.92-13.09c1.58-1.93,12.49-1.4,12.49-1.4a29.1,29.1,0,0,1,19.1,23.49Z" fill="#471515"/><path d="M43.19,99l.09,3.7s16.92-1.58,21.51,20.75a21.08,21.08,0,0,1,.28,6.53s2.18-.08,3.1-.08C68.69,121.64,64.73,99,43.19,99Z" fill="#e04141"/><rect width="16.79" height="3.86" transform="translate(26.4 98.97)" fill="#962c2c"/><path d="M52.38,128.32c0,10.71-.63,23.16-9.12,24.38a53.561,53.561,0,0,1-11.09.07c-11.12-.83-20.2-11-20.2-24.45s9-24.44,20.2-24.44c1.09,0,9.34-.18,10.38,0C52.19,105.75,52.38,116.14,52.38,128.32Z" fill="#292929"/><ellipse cx="20.2" cy="24.44" rx="20.2" ry="24.44" transform="translate(21.55 103.88)" fill="#424242"/><ellipse cx="12.34" cy="14.72" rx="12.34" ry="14.72" transform="translate(30.21 113.6)" fill="#525252"/><path d="M42.55,145.15c-7.88,0-14.3-7.48-14.3-16.68s6.42-16.68,14.3-16.68,14.3,7.48,14.3,16.68S50.44,145.15,42.55,145.15Zm0-29.44c-5.72,0-10.38,5.73-10.38,12.76s4.66,12.76,10.38,12.76,10.38-5.72,10.38-12.76-4.66-12.76-10.38-12.76Z" fill="#f2f2f2"/><path d="M43.82,128.41c0,2-1.27,3.69-2.84,3.69s-2.83-1.65-2.83-3.69,1.27-3.69,2.83-3.69S43.82,126.37,43.82,128.41Z" fill="#2e2e2e"/><path d="M46,128.37c0,3.71-2.2,6.71-4.92,6.71s-4.92-3-4.92-6.71,2.2-6.7,4.92-6.7S46,124.67,46,128.37Z" fill="#b3b3b3"/><path d="M43.72,115.71a6.93,6.93,0,0,0-1.37.15c4.62.9,8.18,6.24,8.18,12.72S47,140.41,42.35,141.31a7.761,7.761,0,0,0,1.37.14c5.27,0,9.55-5.76,9.55-12.87S49,115.71,43.72,115.71Z" fill="#a8a8a8"/><path d="M47.81,122.57c0,.82-.48,1.49-1.08,1.49s-1.08-.67-1.08-1.49.48-1.48,1.08-1.48S47.81,121.76,47.81,122.57Z" fill="#1f1f1f"/><path d="M47.59,134.67c0,.74-.43,1.33-1,1.33s-1-.59-1-1.33.44-1.33,1-1.33S47.59,133.93,47.59,134.67Z" fill="#1f1f1f"/><path d="M36.91,122.57c0,.82-.49,1.49-1.08,1.49s-1.08-.67-1.08-1.49.48-1.48,1.08-1.48S36.91,121.76,36.91,122.57Z" fill="#1f1f1f"/><path d="M36.91,134.82c0,.82-.49,1.48-1.08,1.48s-1.08-.66-1.08-1.48.48-1.48,1.08-1.48S36.91,134,36.91,134.82Z" fill="#1f1f1f"/><path d="M44.27,128.52v-.11l-.45-4.08H41.08s-2.3.65-2.3,4c0,3.71,2.65,4.1,2.65,4.1h2.39Z" fill="#303030"/><ellipse cx="2.97" cy="4.04" rx="2.97" ry="4.04" transform="translate(40.85 124.33)" fill="#6b6b6b"/><path d="M45.65,128.37c0,1.23-.73,2.22-1.62,2.22s-1.63-1-1.63-2.22.73-2.21,1.63-2.21S45.65,127.15,45.65,128.37Z" fill="#303030"/><path d="M37.48,153c-1.52,0-21.26-2.52-21.26-24.43,0-22.57,18.5-24.72,18.7-24.73h1.55c-.76.06-18.68,2.54-18.68,24.7S38,153,38.79,153Z" fill="#8f8f8f" opacity="0.29"/><rect width="2.03" height="7.09" transform="translate(115.953 44.104) rotate(-21.47)" fill="#3a4042"/><rect width="2.03" height="6.92" transform="matrix(0.097, -0.995, 0.995, 0.097, 119.7, 51.339)" fill="#3a4042"/><rect width="13" height="2.03" transform="translate(112.652 59.604) rotate(-58.68)" fill="#3a4042"/><path d="M122.62,55.79a6.59,6.59,0,0,1-.75,0A9.63,9.63,0,0,1,114,48.62a5.22,5.22,0,0,1,1-4.74c2.16-2.4,6.48-2,9.63.81a9.1,9.1,0,0,1,2.88,4.76,5.25,5.25,0,0,1-1.06,4.74h0a5.06,5.06,0,0,1-3.83,1.6Zm-3.74-11.47a3.06,3.06,0,0,0-2.34.92,3.25,3.25,0,0,0-.59,2.95,7.6,7.6,0,0,0,6.14,5.53,3.22,3.22,0,0,0,2.87-.89h0a3.29,3.29,0,0,0,.6-2.95,7.13,7.13,0,0,0-2.26-3.68,6.87,6.87,0,0,0-4.42-1.88Z" fill="#3a4042"/><path d="M68.94,112.07l-16.56-.33c-4.62,0-9.83-8-9.83-8L32.68,74.4V66.81A4.85,4.85,0,0,1,37.53,62H54.2A6.82,6.82,0,0,1,61,68.72V74.4l7.88,29.31Z" fill="#e04141"/><path d="M114.4,61.87V86.25h1.61l15.46-24.38Z" fill="#5c5c5c"/><path d="M116.01,86.25l17.29.19,22.58-24.65L131.47,62Z" fill="#1f0909"/><path d="M218.75,88.04h-16.2l-39.24-17.6,1.19-3.01,36.83-1.91Z" fill="#210a0a"/><rect width="30.89" height="2.35" transform="translate(30.59 72.22)" fill="#9e2e2e"/><path d="M40.59,99H69.8v16.69H49.51a8.92,8.92,0,0,1-8.92-8.92V99Z" fill="#181b1c"/><path d="M134.5,65.12,121.73,82.85l10.32-.14,16.06-17.63Z" fill="#636363"/><path d="M200.69,67.43l18.06,20.61,3.96-3.02L202.55,61.87Z" fill="#471515"/><path d="M36.67,75.96h2.85l5.91,19.91H42.77Z" fill="#181b1c" opacity="0.36"/><path d="M42.83,75.96h2.85l5.91,19.91H48.93Z" fill="#181b1c" opacity="0.36"/><path d="M48.94,75.96h2.85L57.7,95.87H55.05Z" fill="#181b1c" opacity="0.36"/><path d="M55.01,75.96h2.85l5.91,19.91H61.11Z" fill="#181b1c" opacity="0.36"/><rect width="27.21" height="3.86" transform="translate(40.59 98.97)" fill="#424242"/><path d="M116.75,63.98h10.88L116.75,81.09Z" fill="#999"/><rect width="34.1" height="26.04" transform="translate(80.31 74.86)" fill="#171717"/><ellipse cx="3.02" cy="5.37" rx="3.02" ry="5.37" transform="translate(66.51 85.2)" fill="#471515"/><path d="M76.43,90.38c0,3.81-2.47,6.44-6.9,6.44-2.08,0-4-2.55-4-6.25s1.51-6.46,4-6.46C73.54,84.11,76.43,86.62,76.43,90.38Z" fill="#192121"/><path d="M71.2,90.38c0,2.85-1.1,5.16-2.47,5.16s-2.46-2.31-2.46-5.16,1.1-5.16,2.46-5.16S71.2,87.53,71.2,90.38Z" fill="#fff"/><path d="M68.73,86.4a43.57,43.57,0,0,0-.21,8" fill="none" stroke="#ccc" stroke-linecap="round" stroke-miterlimit="10" stroke-width="0.33"/><path d="M67.46,88a19.76,19.76,0,0,0,0,5.18" fill="none" stroke="#ccc" stroke-linecap="round" stroke-miterlimit="10" stroke-width="0.33"/><path d="M69.76,88a26.619,26.619,0,0,0-.09,5.44" fill="none" stroke="#ccc" stroke-linecap="round" stroke-miterlimit="10" stroke-width="0.33"/><rect width="50.3" height="2.35" transform="translate(61.05 69.87)" fill="#bf3838"/><path d="M37.76,65.57H53.37a3.9,3.9,0,0,1,3.9,3.9v.4H35.83V67.5A1.93,1.93,0,0,1,37.76,65.57Z" fill="#962c2c"/><path d="M80.31,80.53h24.82A4.44,4.44,0,0,1,109.58,85h0a4.45,4.45,0,0,1-4.45,4.45H80.31Z" fill="#424242"/><path d="M88.88,84.06h17.44a.76.76,0,0,0,.76-.76h0a.76.76,0,0,0-.76-.75H88.88a.76.76,0,0,0-.76.75h0A.76.76,0,0,0,88.88,84.06Z" fill="#8f8f8f" opacity="0.31"/><path d="M76.94,65.94a3.09,3.09,0,1,1-.905-2.195A3.1,3.1,0,0,1,76.94,65.94Z" fill="#752222"/><path d="M74.28,4.78a8.57,8.57,0,0,1,7.29,8.39V29H77.51V14.22c0-3.87-3.23-4.3-3.23-4.3S73.22,5.5,74.28,4.78Z" fill="#828282"/><path d="M77.51,48h4.06V58.89c0,3.58-1.26,6.26-5.14,8.35a6.58,6.58,0,0,1-2.11.65A2,2,0,0,1,72,66.33a2.51,2.51,0,0,1,1.28-2.41l2-1a4.1,4.1,0,0,0,2.3-3.69Z" fill="#828282"/><rect width="10.52" height="25.15" rx="3.61" transform="translate(74.28 26.4)" fill="#999"/><path d="M75.27,7.36c0,1.42-.42,2.58-.94,2.58s-.94-1.16-.94-2.58.42-2.58.94-2.58S75.27,5.94,75.27,7.36Z" fill="#454545"/><path d="M78.61,51.65a3.5,3.5,0,0,1-2.89-3.44V29.66c0-2.3,2.16-3.14,3.36-3.26h.25c-.1,0-2.54.22-2.54,3.26V48.18c0,.07.15,3.16,1.94,3.37Z" fill="#828282"/><path d="M84.08,30.33l-6.56,7v4.22l6.54-6.77S84.08,31.54,84.08,30.33Z" fill="#828282"/><path d="M84.08,37.18l-6.56,7v4.57l6.54-7.57S84.08,39.07,84.08,37.18Z" fill="#828282"/><rect width="5.35" height="1.04" rx="0.5" transform="translate(76.88 52.51)" fill="#5e5e5e"/><rect width="5.35" height="1.04" rx="0.5" transform="translate(76.88 24.34)" fill="#5e5e5e"/><path d="M140.43,26.4v8.72a3.28,3.28,0,0,1-1,2.38l-5,4.83" fill="none" stroke="gray" stroke-linecap="round" stroke-miterlimit="10" stroke-width="1.04"/><rect width="3.91" height="52.91" transform="translate(159.049 8.163) rotate(1.146)" fill="#1a1a1a"/><rect width="31.16" height="2.05" transform="translate(102.56 121.55)"/><rect width="19.32" height="2.05" transform="translate(114.4 117.35)" fill="#303638"/><path d="M161.59,151.91l-.08-.68h1.11Z" fill="#0d0d0d"/><path d="M200.21,115.19c0-.23.07-.46.09-.7.08-.63.14-1.25.19-1.88.08-.93.12-1.86.15-2.79s0-1.72,0-2.57l-5.56-.06-.06-1.1,5.47-1.65c-.07-.85-.16-1.69-.27-2.53s-.3-1.86-.48-2.78-.35-1.63-.56-2.43l-5.39,1.63c-.1-.39-.21-.76-.32-1.14L198.39,94c-.26-.77-.53-1.53-.83-2.29s-.71-1.77-1.11-2.63-.69-1.42-1.06-2.11l-4.79,3.14c-.2-.38-.41-.76-.62-1.13l4-4.48c-.41-.65-.84-1.29-1.28-1.91-.56-.78-1.15-1.53-1.76-2.26-.48-.57-1-1.12-1.48-1.65L185.59,83c-.32-.34-.64-.67-1-1l2.76-5.33q-.8-.72-1.65-1.38c-.75-.59-1.53-1.15-2.33-1.67-.58-.38-4.52-.72-5-5-3.76-.16-4.57-.41-7.54-.41a52,52,0,0,0-6.78.45s-.76,1.48-1.34,2.65l-2.9-1.77c-.67.17-1.32.36-2,.56-.93.3-1.85.63-2.75,1-.65.27-1.28.56-1.91.87l1.28,5.59c-.46.24-.91.49-1.35.76l-2.52-4.92c-.61.38-1.22.76-1.81,1.18q-1.22.84-2.37,1.8c-.57.47-1.14.95-1.69,1.46l3.36,4.35c-.36.35-1.51,1.36-1.85,1.73l-3.62-4c-.52.55-1,1.12-1.52,1.72-.64.76-1.25,1.54-1.84,2.36-.46.63-.9,1.28-1.33,2l3.69,4c-.25.41-.5.83-.73,1.25l-4.5-2.73c-.38.7-.75,1.42-1.1,2.15-.44.89-.84,1.8-1.22,2.72-.31.76-.25.56-.53,1.34l4,4.14c-.15.44-.14.44-.27.89l-5-1.24c-.22.8-.43,1.61-.61,2.43s-.61,3.15-.86,4.71l2.54,2.18c0,.45,2.59,2.2,2.55,2.65l-5.41-1.25c-.05.85-.08,1.69-.08,2.52,0,1,0,2,.05,2.9s.09,1.42.18,2.24l4.66,2.39-4.25.73c.14.82.29,1.64.47,2.45s.45,1.85.71,2.76c.1.35.2.74.41,1.35,0,0,2.09,1.24,3.26,1.83l-1.92,1.8c.31.74.65,1.47,1,2.18s.85,1.67,1.32,2.47.54,1,.8,1.35c.68.19,2.79.66,2.79.66.72.07,2.63,1,3.91,1l-4.66,1.21c.47.61.95,1.21,1.45,1.78s1.24,1.35,1.88,2,1.09,1,1.65,1.52l6.75-.61c.38.32-.39-.31,0,0l-4.63,2.3c.59.43,1.2.84,1.81,1.23s1.53.93,2.33,1.34c.63.33,1.29.63,1.94.91l6.22-1.42c-1.11.64-3.73,2.36-3.73,2.36.67.22,1.35.42,2.05.6s2.45.49,3.68.7c.88-.28,1.51-.39,1.86-.54,0,0-.88.63-.85.63.34,0,3.76.53,4.1.55a53.512,53.512,0,0,0,8.41-.05c.86-.2,3.92-.22,4.76-.5s-3.8-2-3.12-2.24l-.87-5.22c.42-.2.83-.4,1.25-.62l2,4.73c.67-.34,1.33-.71,2-1.1s1.53-.93,2.26-1.45,1.26-.91,1.87-1.4l-2.17-5c.33-.29.65-.58,1-.89l3.26,4.11c.58-.53,1.15-1.09,1.71-1.67s1.23-1.33,1.81-2,1-1.26,1.53-1.92l-3.3-4.3c.23-.33.44-.66.66-1L193,135c.45-.69.89-1.41,1.31-2.14s.89-1.59,1.31-2.41.73-1.53,1.07-2.31l-4.51-3.21c.13-.35.26-.7.38-1.05l5.15,1.7c.29-.81.57-1.62.82-2.45s.51-1.76.74-2.66.38-1.69.54-2.54l-5.25-1.73.15-1.07Z" fill="#292929"/><path d="M214.31,111v-2.6c0-.94-.1-1.86-.18-2.79s-.19-1.71-.31-2.55l-5.54.61c-.05-.37-.12-.73-.19-1.09l5.24-2.29c-.17-.84-.36-1.66-.57-2.48s-.51-1.82-.81-2.71-.54-1.57-.83-2.34l-5.17,2.26c-.14-.37-.3-.73-.45-1.09l4.5-3.75c-.35-.74-.71-1.47-1.09-2.18s-.92-1.67-1.42-2.48-.85-1.33-1.3-2l-4.39,3.69a10.857,10.857,0,0,0-.75-1l3.41-4.92c-.48-.6-1-1.18-1.49-1.74-.65-.71-1.33-1.39-2-2s-1.1-1-1.67-1.47l-3.3,4.7c-.36-.3-.72-.59-1.09-.87l2.1-5.63q-.89-.61-1.8-1.17a22,22,0,0,0-2.51-1.38c-.62-.31-1.26-.59-1.9-.86l-2,5.45c-.46-.2-.92-.37-1.38-.54l.72-5.89c-.65-.2-1.31-.37-2-.53-.93-.21-1.87-.39-2.82-.51-.66-.09-1.33-.16-2-.21l-.71,5.76c-.49,0-1-.05-1.47-.05H179l-.62-5.75a18.832,18.832,0,0,0-2,.13,27.18,27.18,0,0,0-2.85.42c-.67.13-1.32.28-2,.46l.63,5.74c-.5.14-1,.3-1.49.48l-1.91-5.34c-.64.24-1.27.51-1.9.79a29.1,29.1,0,0,0-2.61,1.33c-.61.34-1.21.71-1.79,1.09l1.93,5.39c-.42.3-.84.61-1.25.93l-3.08-4.59c-.57.44-1.12.9-1.67,1.38-.73.65-1.44,1.35-2.13,2.07q-.78.8-1.5,1.65L158,85.19q-.48.59-.93,1.2L153,82.87c-.45.62-.89,1.25-1.31,1.89-.54.83-1.05,1.69-1.54,2.56-.38.69-.74,1.39-1.09,2.1l4.1,3.58c-.2.44-.39.89-.57,1.33l-4.79-2.17c-.3.74-.58,1.5-.85,2.26-.32.93-.61,1.89-.88,2.85-.22.79-.42,1.58-.6,2.39l4.82,2.18c-.09.46-.18.91-.26,1.37l-5.1-.63c-.13.81-.24,1.64-.33,2.47s-.18,1.95-.23,2.94c0,.78-.06,1.56-.06,2.35v.17l5.08.62v1.36l-5,.94c.05.85.12,1.68.22,2.51s.23,1.93.4,2.88.31,1.65.49,2.46l4.92-.92c.1.44.2.89.32,1.33l-4.51,2.38q.35,1.2.75,2.37c.32.9.67,1.79,1,2.66s.66,1.5,1,2.23l4.37-2.31q.3.65.63,1.26l-3.69,3.55c.4.7.83,1.38,1.26,2.05a26.249,26.249,0,0,0,1.6,2.3c.6.74,1,1.24,1.46,1.84l3.54-3.41a14.417,14.417,0,0,0,1,1.1l-2.62,4.35c.54.55,1.09,1.09,1.65,1.6s1.39,1.19,2.11,1.75,1.19.9,1.81,1.31l2.53-4.2c.42.28.83.55,1.26.81l-1.48,4.82c.63.35,1.28.69,1.94,1,.81.38,1.63.74,2.47,1.05.67.25,1.35.48,2,.68l1.46-4.73c.48.13,1,.26,1.45.36l-.33,5c.7.14,1.4.26,2.1.35q1.31.17,2.64.21h2.11a20.737,20.737,0,0,0,2.63-.19c.86-.11-.16,0,.54-.1l-.26-5.11c.47-.11.94-.24,1.4-.38l1.42,4.86c.7-.2,3-.66,3.64-.91.83-.31,1.64-.66,2.44-1s1.33-.65,2-1l-1.48-5.08c.39-.24.78-.5,1.16-.77l2.6,4.46c.63-.42,1.24-.86,1.84-1.33s1.4-1.1,2.08-1.7,1.13-1.06,1.68-1.62l-2.74-4.69c.28-.32.57-.65.84-1l3.72,3.69c.52-.6,1-1.22,1.51-1.86s1.06-1.46,1.56-2.23.88-1.37,1.29-2.08l-3.92-3.89c.18-.36.36-.71.53-1.08l4.68,2.56c.37-.75.71-1.51,1-2.28s.7-1.68,1-2.55.55-1.6.79-2.42l-4.86-2.66c.09-.36.18-.72.26-1.08l5.31,1.07c.2-.83.37-1.67.53-2.52s.3-1.82.41-2.74.18-1.71.24-2.58l-5.42-1.1v-1.07Z" fill="#424242"/><ellipse cx="21.38" cy="25.51" rx="21.38" ry="25.51" transform="translate(158.94 84.58)" fill="#525252"/><path d="M180.32,139.25c-13.66,0-24.77-13-24.77-28.9s11.11-28.91,24.77-28.91,24.78,13,24.78,28.91S194,139.25,180.32,139.25Zm0-51c-9.91,0-18,9.92-18,22.11s8.07,22.1,18,22.1,18-9.91,18-22.1-8.08-22.12-18-22.12Z" fill="#f2f2f2"/><path d="M182.52,110.25c0,3.53-2.2,6.39-4.92,6.39s-4.91-2.86-4.91-6.39,2.2-6.4,4.91-6.4S182.52,106.72,182.52,110.25Z" fill="#2e2e2e"/><ellipse cx="8.53" cy="11.61" rx="8.53" ry="11.61" transform="translate(169.25 98.57)" fill="#b3b3b3"/><path d="M182.34,88.24a12.551,12.551,0,0,0-2.37.26c8,1.55,14.18,10.81,14.18,22S188,131,180,132.59a12.539,12.539,0,0,0,2.37.25c9.14,0,16.55-10,16.55-22.3S191.48,88.24,182.34,88.24Z" fill="#c2c2c2"/><path d="M178,94.38c0,1-.62,1.89-1.38,1.89s-1.38-.85-1.38-1.89.62-1.9,1.38-1.9S178,93.33,178,94.38Z" fill="#1f1f1f"/><path d="M165.88,109.57c0,1-.62,1.89-1.38,1.89s-1.38-.85-1.38-1.89.62-1.9,1.38-1.9S165.88,108.52,165.88,109.57Z" fill="#1f1f1f"/><path d="M190.53,109.57c0,1-.62,1.89-1.38,1.89s-1.38-.85-1.38-1.89.62-1.9,1.38-1.9S190.53,108.52,190.53,109.57Z" fill="#1f1f1f"/><path d="M187.07,99.45c0,1-.62,1.9-1.38,1.9s-1.37-.85-1.37-1.9.61-1.89,1.37-1.89S187.07,98.41,187.07,99.45Z" fill="#1f1f1f"/><path d="M169.25,99.45c0,1-.61,1.9-1.37,1.9s-1.38-.85-1.38-1.9.62-1.89,1.38-1.89S169.25,98.41,169.25,99.45Z" fill="#1f1f1f"/><path d="M187.68,120.67c0,1-.62,1.89-1.38,1.89s-1.37-.84-1.37-1.89.61-1.89,1.37-1.89S187.68,119.62,187.68,120.67Z" fill="#1f1f1f"/><path d="M169.25,120.67c0,1-.61,1.89-1.37,1.89s-1.38-.84-1.38-1.89.62-1.89,1.38-1.89S169.25,119.62,169.25,120.67Z" fill="#1f1f1f"/><path d="M178,127.09c0,1-.62,1.89-1.38,1.89s-1.38-.84-1.38-1.89.62-1.89,1.38-1.89S178,126,178,127.09Z" fill="#1f1f1f"/><path d="M183.3,110.44v-.19l-.78-7.07h-4.74s-4,1.12-4,6.91c0,6.42,4.61,7.1,4.61,7.1h4.13Z" fill="#303030"/><ellipse cx="5.14" cy="7" rx="5.14" ry="7" transform="translate(177.38 103.18)" fill="#6b6b6b"/><path d="M185.69,110.18c0,2.12-1.26,3.84-2.81,3.84s-2.82-1.72-2.82-3.84,1.26-3.83,2.82-3.83S185.69,108.06,185.69,110.18Z" fill="#303030"/><path d="M147.5,92.92s-5.76,6.08-7.94,8.17c.95-3.22,1.65-6.35,1.65-6.35L149,89.42,153.16,93l-.57,1.33Z" fill="#0d0d0d"/><path d="M152.01,84.22l5.01,2.17.93-1.2-3.14-4.66-8.45,4.43-3.54,5.66Z" fill="#0d0d0d"/><path d="M158.95,76.37l-8.66,4.16,4.2-3.96,8.01-2.87,2,5.18-1.31,1.14Z" fill="#0d0d0d"/><path d="M160.08,71.83l8.73-1.34,1.91,5.34,1.49-.49-.63-5.73-7.08.57Z" fill="#0d0d0d"/><path d="M145.47,99.65l4.82,2.18-.26,1.37-5.25.35-5.92,6.02v-4.44Z" fill="#0d0d0d"/><path d="M149.4,111.12l.03,1.36-5.01.94-3.99,8.38-.87-4.61,4.76-6.69Z" fill="#0d0d0d"/><path d="M150.77,121.68l-.32-1.34-4.92.93-3.45,7.71,1.83,3.86,2.35-8.78Z" fill="#0d0d0d"/><path d="M149.06,131.32l-.98,7.55,2.69,2.87-.39-7.92,3.68-3.55-.63-1.26Z" fill="#0d0d0d"/><path d="M154.69,140.01l2,7.21,3.56,2.26-3.69-7.43,2.62-4.34-.95-1.11Z" fill="#0d0d0d"/><path d="M162.13,146.71l2.53-4.2,1.26.81-1.48,4.81,4.37,3.78-4.3-.61Z" fill="#0d0d0d"/><path d="M141.21,94.74l-4.8-6.21,3.21-.74,3.2,3.04Z" fill="#0d0d0d"/><path d="M153.61,73.7l1.25,3.18-2.12,1.78-2.12-5.27Z" fill="#0d0d0d"/><path d="M132.32,98.53l3.45-1.52,1.82,1.87,1.97,2.21-.7,4.04Z" fill="#0d0d0d"/><path d="M130.53,109.25l2.86-1.4,5.04,4.05.47.76.52,3.3Z" fill="#0d0d0d"/><path d="M142.64,79.94l3.21-.69,2.26,2.93-1.75,2.7Z" fill="#0d0d0d"/><path d="M159.85,69.52v2.71l1.53-.84,1.05-.52Z" fill="#0d0d0d"/><path d="M131.09,120.03l2.45-1.65,6.89,3.42.61,3.87Z" fill="#0d0d0d"/><path d="M134.02,130.22l10.8,5.16-.91-2.54-7.97-4.42Z" fill="#0d0d0d"/><path d="M139.18,139.12l9.12,1.03-2.31-1.85-6.06-1.42Z" fill="#0d0d0d"/><path d="M146.28,146.1l.14-1.9,5.79-.57,3.34,1.88Z" fill="#0d0d0d"/><path d="M154.85,150.52l.22-1.55,2.7-.75,3.37,1.54-2.19-.28Z" fill="#0d0d0d"/><path d="M181.28,68.64l-2.83.34.58,5.37,1.54.05Z" fill="#0d0d0d"/><path d="M190.77,70.87l-2.88.5-.54,4.41,1.38.53Z" fill="#0d0d0d"/><path d="M199.26,76.02l-2.86-.19-1.52,4.08,1.09.87Z" fill="#0d0d0d"/><path d="M178.21,152.06c-.4,0-12,2.1-21.57-3.34-16.14-9.13-19.71-25.9-19.86-38.35.37-20.48,10.61-30.74,18.54-36.37a30.63,30.63,0,0,1,8-3.56c10-2.9,12.74-2,12.74-2s-11.55.83-19,6.34c-10.29,8-16.83,20.29-17.11,35.57.21,16.82,6.17,28.84,17.59,36.29,3.65,2.38,4.87,3.13,10.93,4.73C170.59,152,178.21,152.06,178.21,152.06Z" fill="#0d0d0d"/><path d="M172.35,146.14l1.45.36-.33,5,1.34.78-2.24-.03-1.68-1.38Z" fill="#0d0d0d"/><path d="M186.06,151.14l-2.61-.29-.21-4.19,1.4-.38Z" fill="#0d0d0d"/><path d="M196.39,146.79h-2.68l-1.08-3.69,1.16-.77Z" fill="#0d0d0d"/><path d="M199.25,137.45l.84-.99,3.72,3.69-2.84.25Z" fill="#0d0d0d"/><path d="M209.46,131.57l-2.53,1.18-2.68-2.66.53-1.08Z" fill="#0d0d0d"/><path d="M213.01,121.65l-2.46,1.71-3.11-1.7.26-1.08Z" fill="#0d0d0d"/><path d="M214.31,111.03l-3.4.82v.88l3.28,1.08-5.42-1.1.02-1.07Z" fill="#0d0d0d"/><path d="M210.97,101.35l2.82,1.75-5.54.61-.19-1.09Z" fill="#0d0d0d"/><path d="M208.77,91.19l2.32,1.61-5.17,2.26-.45-1.09Z" fill="#0d0d0d"/><path d="M203.25,82.99l2.92.56-4.39,3.69-.75-1.05Z" fill="#0d0d0d"/><path d="M155.55,61.87h12.67L156.49,74.89H143.74Z" fill="#e64343"/><path d="M166.83,61.87l1.39,5.56L157.94,78l-2.87-3.11Z" fill="#631d1d"/><path d="M143.74,74.89h11.33L157.94,78H146.57Z" fill="#c93b3b"/><path d="M202.55,67.43H167.88l-1.05-5.56h35.72Z" fill="#631d1d"/><rect width="3.13" height="3.86" transform="translate(51.36 98.97)" fill="#6e6e6e"/><path d="M178.8,3.53h-43a.58.58,0,0,1-.58-.58h0a.58.58,0,0,1,.58-.58h43a.58.58,0,0,1,.58.58h0a.58.58,0,0,1-.58.58Z" fill="#6e2020"/><path d="M69.68,106.2H51.05a3.36,3.36,0,0,1-3.36-3.37h22Z" fill="#3d3d3d" opacity="0.37"/><path d="M110.44,111h-30V99.65h30a5.71,5.71,0,0,1,5.69,5.69h0A5.71,5.71,0,0,1,110.44,111Z" fill="#303638"/><rect width="14.65" height="1.65" rx="0.78" transform="translate(97.8 101.68)" fill="#fff" opacity="0.09"/><path d="M103.2,124.93l-1.47,5H94.31s.29-8.5-2.78-14-8-12.21-19.92-13.09c1.58-1.93,12.49-1.4,12.49-1.4A29.1,29.1,0,0,1,103.2,124.93Z" fill="#471515"/><path d="M80.47,99l-.16,3.86s18.35.35,20.52,20.59a50.8,50.8,0,0,1,.28,6.53s2.39-.08,3.32-.08C105.27,121.09,102.67,99,80.47,99Z" fill="#e04141"/><rect width="13.93" height="3.86" transform="translate(66.54 98.97)" fill="#ed6f6f"/><path d="M89,128.32c0,10.71-.62,23.16-9.12,24.38a53.459,53.459,0,0,1-11.08.07c-11.13-.83-20.21-11-20.21-24.45s9.05-24.44,20.21-24.44c1.08,0,9.33-.18,10.37,0C88.84,105.75,89,116.14,89,128.32Z" fill="#292929"/><ellipse cx="20.2" cy="24.44" rx="20.2" ry="24.44" transform="translate(58.2 103.88)" fill="#424242"/><ellipse cx="12.34" cy="14.72" rx="12.34" ry="14.72" transform="translate(66.86 113.6)" fill="#525252"/><path d="M79.2,145.15c-7.88,0-14.3-7.48-14.3-16.68s6.42-16.68,14.3-16.68,14.3,7.48,14.3,16.68S87.09,145.15,79.2,145.15Zm0-29.44c-5.72,0-10.37,5.73-10.37,12.76s4.65,12.76,10.37,12.76,10.38-5.72,10.38-12.76-4.66-12.76-10.38-12.76Z" fill="#f2f2f2"/><path d="M80.47,128.41c0,2-1.27,3.69-2.84,3.69s-2.83-1.65-2.83-3.69,1.27-3.69,2.83-3.69S80.47,126.37,80.47,128.41Z" fill="#2e2e2e"/><ellipse cx="4.92" cy="6.7" rx="4.92" ry="6.7" transform="translate(72.81 121.67)" fill="#b3b3b3"/><path d="M80.37,115.71a6.93,6.93,0,0,0-1.37.15c4.63.9,8.18,6.24,8.18,12.72S83.63,140.41,79,141.31a7.76,7.76,0,0,0,1.37.14c5.27,0,9.55-5.76,9.55-12.87S85.64,115.71,80.37,115.71Z" fill="#a8a8a8"/><path d="M84.46,122.57c0,.82-.48,1.49-1.08,1.49s-1.08-.67-1.08-1.49.49-1.48,1.08-1.48S84.46,121.76,84.46,122.57Z" fill="#1f1f1f"/><path d="M84.24,134.67c0,.74-.43,1.33-1,1.33s-1-.59-1-1.33.44-1.33,1-1.33S84.24,133.93,84.24,134.67Z" fill="#1f1f1f"/><path d="M73.56,122.57c0,.82-.48,1.49-1.08,1.49s-1.08-.67-1.08-1.49.49-1.48,1.08-1.48S73.56,121.76,73.56,122.57Z" fill="#1f1f1f"/><path d="M73.56,134.82c0,.82-.48,1.48-1.08,1.48s-1.08-.66-1.08-1.48.49-1.48,1.08-1.48S73.56,134,73.56,134.82Z" fill="#1f1f1f"/><path d="M80.92,128.52v-.11l-.45-4.08H77.73s-2.3.65-2.3,4c0,3.71,2.65,4.1,2.65,4.1h2.39Z" fill="#303030"/><ellipse cx="2.97" cy="4.04" rx="2.97" ry="4.04" transform="translate(77.5 124.33)" fill="#6b6b6b"/><path d="M82.3,128.37c0,1.23-.72,2.22-1.62,2.22s-1.63-1-1.63-2.22.73-2.21,1.63-2.21S82.3,127.15,82.3,128.37Z" fill="#303030"/><path d="M74.13,153c-1.52,0-21.26-2.52-21.26-24.43,0-22.57,18.5-24.72,18.7-24.73h1.55c-.75.06-18.68,2.54-18.68,24.7S74.6,153,75.44,153Z" fill="#8f8f8f" opacity="0.29"/><rect width="2.1" height="28.56" transform="translate(114.4 86.18)" fill="#999"/><rect width="2.1" height="28.56" transform="translate(128.34 86.18)" fill="#999"/><rect width="2.18" height="13.51" transform="translate(128.66 86.18) rotate(90)" fill="#999"/><rect width="2.18" height="13.51" transform="translate(128.66 99.74) rotate(90)" fill="#999"/><rect width="2.18" height="13.51" transform="translate(128.66 112.57) rotate(90)" fill="#999"/><path d="M87.27,92.92H85.33a1.54,1.54,0,0,0-1.54,1.53h0A1.54,1.54,0,0,0,85.33,96h1.94a1.54,1.54,0,0,0,1.54-1.54h0a1.54,1.54,0,0,0-1.54-1.54Z" fill="#424242"/><path d="M94.55,92.92h-2a1.54,1.54,0,0,0-1.53,1.53h0A1.54,1.54,0,0,0,92.6,96h2a1.53,1.53,0,0,0,1.53-1.54h0a1.53,1.53,0,0,0-1.58-1.54Z" fill="#424242"/><path d="M101.85,92.92H99.9a1.53,1.53,0,0,0-1.53,1.53h0A1.53,1.53,0,0,0,99.9,96h1.95a1.54,1.54,0,0,0,1.53-1.54h0a1.54,1.54,0,0,0-1.53-1.54Z" fill="#424242"/><path d="M109.12,92.92h-1.94a1.54,1.54,0,0,0-1.54,1.53h0A1.54,1.54,0,0,0,107.18,96h1.94a1.54,1.54,0,0,0,1.54-1.54h0A1.54,1.54,0,0,0,109.12,92.92Z" fill="#424242"/><rect width="1.73" height="1.87" transform="translate(98.3 78.66)" fill="#737373"/><path d="M85.58,86.74a.73.73,0,1,1-.73-.73.73.73,0,0,1,.73.73Z" fill="#8f8f8f"/><path d="M90.32,86.74a.73.73,0,1,1-.73-.73.73.73,0,0,1,.73.73Z" fill="#8f8f8f"/></g></svg>
