<svg  version="1.1" xmlns="http://www.w3.org/2000/svg"  xmlns:xlink="http://www.w3.org/1999/xlink" x="0px" y="0px" viewBox="0 0 87.1 87" xml:space="preserve" width="87" height="87">
    <g>
        <g>
            <path d="M23,62.6c-0.6,0-1.1,0.5-1.1,1.1c0,0.7-0.6,1.2-1.2,1.2s-1.2-0.6-1.2-1.2c0-0.7,0.6-1.2,1.2-1.2
                c0.6,0,1.1-0.5,1.1-1.1c0-0.6-0.5-1.1-1.1-1.1l0,0c-1.9,0-3.4,1.5-3.4,3.4c0,1.9,1.5,3.4,3.4,3.4s3.4-1.5,3.4-3.4
                C24.1,63.1,23.6,62.6,23,62.6C23,62.6,23,62.6,23,62.6z"></path>
          <path d="M37,62.6c-0.6,0-1.1,0.5-1.1,1.1c0,0.7-0.6,1.2-1.2,1.2c-0.7,0-1.2-0.6-1.2-1.2c0-0.7,0.6-1.2,1.2-1.2
                c0.6,0,1.1-0.5,1.1-1.1c0-0.6-0.5-1.1-1.1-1.1l0,0c-1.9,0-3.4,1.5-3.4,3.4s1.5,3.4,3.4,3.4s3.4-1.5,3.4-3.4
                C38.1,63.1,37.6,62.6,37,62.6L37,62.6z"></path>
          <path d="M74.4,62.6c-0.6,0-1.1,0.5-1.1,1.1c0,0,0,0,0,0c0,0.7-0.6,1.2-1.3,1.2c-0.7,0-1.2-0.6-1.2-1.3
                c0-0.7,0.5-1.2,1.2-1.2c0.6,0,1.1-0.5,1.1-1.1c0-0.6-0.5-1.1-1.1-1.1c-1.9,0-3.4,1.5-3.4,3.4c0,1.9,1.5,3.4,3.4,3.4
                s3.4-1.5,3.4-3.4C75.4,63.1,75,62.6,74.4,62.6z"></path>
          <path d="M87.1,47.3v-0.3V47l0,0l-4.8-12.2c-0.9-2.2-3-3.7-5.4-3.7h-9.6c-1,0-1.9,0.4-2.6,1.2h-2.2v-6.8
                c0-1.2-0.5-2.4-1.3-3.3L60,20.9c-0.4-0.4-1.1-0.4-1.5,0s-0.4,1.1,0,1.5l1.3,1.3c0.5,0.4,0.7,1.1,0.7,1.7v6.8h-1.4v-2.4
                c0-1.2-1-2.3-2.3-2.3H38.4c0.2,0.7,0.4,1.5,0.6,2.2h17.9c0,0,0.1,0,0.1,0.1v25.8H14.8c0,0-0.1,0-0.1-0.1v-1.4
                c-0.7-0.1-1.5-0.3-2.2-0.5v1.9c0,1.2,1,2.3,2.3,2.3h0.3c-3.2,3.1-3.4,8.2-0.3,11.4c3.1,3.2,8.2,3.4,11.4,0.3
                c0.5-0.5,1-1.1,1.4-1.7c2.3,3.9,7.2,5.2,11.1,2.9c2.1-1.3,3.6-3.4,3.9-5.9h1.4v0.1c0,1.9,1.5,3.4,3.4,3.4l0,0h7
                c1.9,0,3.5-1.5,3.5-3.4c0,0,0,0,0-0.1v-0.1h6c0.7,4.4,4.9,7.4,9.3,6.7c3.5-0.5,6.2-3.3,6.7-6.7h4.8c1.2,0,2.3-1,2.3-2.3l0,0
                L87.1,47.3L87.1,47.3z M84.9,56.8h-1.2c0,0-0.1,0-0.1-0.1v-1.2c0,0,0-0.1,0.1-0.1h1.2V56.8L84.9,56.8z M84,45.1H73.2
                c-1.3,0-2.4-1.1-2.4-2.4v0v-4.7h10.5L84,45.1z M63.9,34.4C63.9,34.4,63.9,34.4,63.9,34.4v21.2h-4.8V34.4H63.9z M29.1,57.8
                c-0.6,0.5-1.1,1.2-1.5,1.8c-0.4-0.7-0.9-1.3-1.5-1.8H29.1z M20.7,69.6c-3.3,0-5.9-2.6-5.9-5.9s2.6-5.9,5.9-5.9s5.9,2.6,5.9,5.9
                C26.6,67,23.9,69.6,20.7,69.6z M34.7,69.6c-3.3,0-5.9-2.6-5.9-5.9s2.6-5.9,5.9-5.9s5.9,2.6,5.9,5.9C40.6,67,37.9,69.6,34.7,69.6z
                 M55.8,64.9c0,0.7-0.6,1.2-1.2,1.2h-7c-0.7,0-1.2-0.6-1.2-1.2v-2.3c0-0.7,0.6-1.2,1.2-1.2h0h7c0.7,0,1.2,0.6,1.2,1.2v0V64.9
                L55.8,64.9z M54.5,59.1h-7c-1.9,0-3.4,1.5-3.4,3.4l0,0v0.1h-1.4c-0.3-1.8-1.1-3.5-2.5-4.8h26.3c-1.4,1.3-2.3,3-2.5,4.8h-6v-0.1
                C58,60.6,56.5,59.1,54.5,59.1L54.5,59.1L54.5,59.1z M72,69.6c-3.3,0-5.9-2.6-5.9-5.9c0-3.3,2.6-5.9,5.9-5.9s5.9,2.6,5.9,5.9
                C77.9,67,75.3,69.6,72,69.6C72,69.6,72,69.6,72,69.6z M84.8,62.6h-4.8c-0.6-4-4-7-8-7h-5.9V34.5c0-0.7,0.6-1.2,1.2-1.2H77
                c1.5,0,2.8,0.9,3.3,2.3l0.1,0.2H69.7c-0.6,0-1.1,0.5-1.1,1.1v5.8c0,2.5,2.1,4.6,4.6,4.6h11.6l0.1,0.3v5.7h-1.2
                c-1.2,0-2.3,1-2.3,2.3l0,0v1.2c0,1.2,1,2.3,2.2,2.3c0,0,0,0,0,0h1.2v3.6C84.9,62.6,84.9,62.6,84.8,62.6L84.8,62.6z"></path>
        </g>
      <path d="M18.7,17.4c-9,0-16.4,7.3-16.4,16.4s7.3,16.4,16.4,16.4s16.4-7.3,16.4-16.4c0-4.3-1.7-8.5-4.8-11.6
            C27.2,19.2,23.1,17.4,18.7,17.4z M5.6,20.7c7.3-7.3,19-7.3,26.3,0s7.3,19,0,26.3s-19,7.3-26.3,0c-3.5-3.5-5.4-8.2-5.4-13.1
            C0.1,28.9,2.1,24.2,5.6,20.7z"></path>
      <path d="M17.6,21.8c0-0.6,0.5-1.1,1.1-1.1c0.6,0,1.1,0.5,1.1,1.1l0,0v13.9c0,0.4-0.2,0.7-0.5,0.9l-8.5,5.9
            c-0.5,0.3-1.2,0.2-1.5-0.3S9,41,9.5,40.7l8.1-5.6L17.6,21.8z"></path>
    </g>
</svg>
