<svg class="benefit-item benefit-item-img ben-4" version="1.1" xmlns="http://www.w3.org/2000/svg" xmlns:xlink="http://www.w3.org/1999/xlink" x="0px" y="0px" viewBox="0 0 600.1 614.6" xml:space="preserve" width="54" height="55">
            <path d="M52.8,82.6H79v25.9H52.8c-7.1,0-13.9,2.8-18.9,7.9c-5,5-7.9,11.8-7.9,18.9v426.4c0,7.1,2.8,13.9,7.9,18.9
                c5,5,11.8,7.9,18.9,7.9h336.6c14.8-0.1,26.8-12,26.8-26.8v-29.4c8.6,1.6,17.2,2.5,25.9,2.9v26.5c-0.1,29.1-23.6,52.7-52.8,52.8H52.8
                c-14,0-27.4-5.6-37.3-15.5C5.6,589.2,0,575.8,0,561.8V135.4c0-14,5.6-27.4,15.5-37.3C25.4,88.2,38.8,82.6,52.8,82.6z M416.2,171
                c8.6-1.6,17.2-2.5,25.9-2.9v-32.7c-0.1-29.1-23.6-52.7-52.8-52.8h-26.3v25.9h26.3c14.8,0.1,26.8,12,26.8,26.8V171z"></path>
            <rect x="80.9" y="389.9" width="33.8" height="33.8"></rect>
            <rect x="80.9" y="312" width="33.8" height="33.8"></rect>
            <rect x="80.9" y="234.2" width="33.8" height="33.8"></rect>
            <rect x="80.9" y="467.8" width="33.8" height="33.8"></rect>
            <path d="M153.4,389.9v33.8h128.2c-4.7-10.9-8.3-22.2-10.7-33.8H153.4z"></path>
            <path d="M153.4,312v33.8H267c0.3-11.4,1.7-22.7,4.2-33.8H153.4z"></path>
            <path d="M153.4,234.2v33.8h133.9c6.2-12.1,13.7-23.4,22.4-33.8H153.4z"></path>
            <path d="M308.4,467.8h-155v33.8h191.7C331.4,492,319,480.7,308.4,467.8z"></path>
            <path d="M449.7,235.1c-64.4,0-116.6,52.3-116.6,116.7c0,64.4,52.3,116.6,116.7,116.6c64.4,0,116.6-52.2,116.6-116.6
                C566.3,287.3,514.1,235.2,449.7,235.1z M449.7,502.1c-82.9,0-150.4-67.5-150.4-150.4s67.5-150.4,150.4-150.4s150.4,67.5,150.4,150.4
                S532.7,502.1,449.7,502.1L449.7,502.1z"></path>
            <path d="M442.4,412l-61.2-49.7c-1.8-1.5-2.1-4.1-0.6-5.9l16-19.8c1.5-1.8,4.1-2.1,5.9-0.6l34.3,27.9
                c1.8,1.5,4.4,1.2,5.8-0.6c0,0,0.1-0.1,0.1-0.1l53.8-69.6c1.4-1.8,4-2.1,5.8-0.7l20.1,15.6c1.8,1.4,2.2,4,0.8,5.8c0,0,0,0,0,0
                l-75,96.9C446.9,413.1,444.3,413.4,442.4,412C442.4,412,442.4,412,442.4,412L442.4,412z"></path>
            <path d="M136.3,133.5H305V78.9h-50.4l1.4-14.2l0.1-1.6v-1.7c0-19.6-15.9-35.5-35.5-35.5s-35.5,15.9-35.5,35.5v1.7
                l0.2,1.7l1.2,14.1h-50.2V133.5z M318,159.5H110.4V52.9h49.4c1.8-13.2,8-25.5,17.4-34.9l0-0.1c24-24,62.8-23.9,86.8,0
                c9.4,9.5,15.5,21.7,17.4,35h49.5v106.5H318z"></path>
        </svg>
