<svg xmlns="http://www.w3.org/2000/svg" xmlns:xlink="http://www.w3.org/1999/xlink" viewBox="0 0 1030.73 300.37"><defs><style>.cls-1{fill:none;}.cls-2{clip-path:url(#clip-path);}.cls-3{opacity:0.3;}.cls-4{opacity:0.5;}.cls-5{opacity:0.4;}</style><clipPath id="clip-path" transform="translate(140.19 -295.78)"><rect class="cls-1" width="841.87" height="595.26"/></clipPath></defs><g id="Layer_2" data-name="Layer 2"><g id="Layer_1-2" data-name="Layer 1"><g class="cls-2"><g class="cls-3"><polygon class="cls-4" points="572.8 44.23 574.17 30.34 601.31 30.34 607.68 58.18 571.78 51.42 572.8 44.23"/><polygon points="691 91.8 679.64 95.66 678.38 94.47 668.41 98.14 660.73 94.87 654.22 86.73 655.5 70.18 670.49 58 671.47 58.05 671.06 61.33 676.96 74.17 686.54 88.9 689.18 89.39 691 91.8"/><polygon points="660.48 92.6 651 90 634.84 66.92 612.92 54.72 614.08 48.86 617.51 46.99 647.12 63.9 646.58 73.01 657.58 81.66 660.48 92.6"/><path d="M502.2,362.25c.17,2.45,2,4.26,4.18,4a4.38,4.38,0,0,0,3.57-4.84c-.17-2.46-2-4.27-4.18-4.05A4.39,4.39,0,0,0,502.2,362.25Z" transform="translate(140.19 -295.78)"/><path d="M504.91,351a3.23,3.23,0,0,0,3.34,3.24,3.52,3.52,0,0,0,2.86-3.88,3.23,3.23,0,0,0-3.35-3.23A3.5,3.5,0,0,0,504.91,351Z" transform="translate(140.19 -295.78)"/><polygon points="649.99 55.96 649.66 65.3 644.4 63.53 646.03 56.02 649.99 55.96"/><path d="M481.4,347.83a2.69,2.69,0,0,0,2.16,3.05l14.23,1.52a2.57,2.57,0,0,0,2.67-2.52l.07-.73a2.69,2.69,0,0,0-2.17-3l-14.22-1.53a2.59,2.59,0,0,0-2.67,2.52Z" transform="translate(140.19 -295.78)"/><polygon points="649.8 56.2 632.43 54.34 632.7 51.4 650.07 53.27 649.8 56.2"/><polygon points="614.95 50.6 606.49 51.47 605.37 64.23 627.58 62.22 639.38 67.39 614.95 50.6"/><polygon points="646.77 68.17 656.77 78.06 660.31 70.79 647.81 64.68 646.77 68.17"/><path d="M404,338.05a1.08,1.08,0,0,1,.67.16,1.42,1.42,0,0,1,.44,1.07h0V340h-.23v6.24l-9.52,1.56-.1.1-2,1.78-7.08.85-2.5,2.5-2.21,17.54h-7.09v6.21l11.25,6.71,1.79-1.74,6.58,3.36,2.17-2.43h1.71l.17,1.62,1.85.37-1.56,1.08,1,2.87,1.88-.08L400.06,390l1.69,2.54,1.8-.52-.87,1.68,2.23,2.07,1.64-.94-.46,1.84,2.67,1.48,1.35-1.3v1.89l2.94.81,1-1.59.45,1.85,3,.08.61-1.78.87,1.68,3-.63.17-1.88,1.24,1.43,2.75-1.33-.29-1.86,1.55,1.09,2.35-1.94-.71-1.74,1.76.7,1.82-2.44-1.1-1.53,1.87.26,1.19-2.81-1.43-1.21,1.88-.2.49-3h1.77l2.63,3.43h7.56l2.43-3.43h3.56v.09l3.15,3.34h8.42l.9,2.51,1.88-.08L466.6,390l1.68,2.54,1.81-.52-.88,1.68,2.24,2.07,1.63-.94-.46,1.84,2.67,1.48,1.36-1.3v1.89l2.95.81,1-1.59.44,1.85,3,.08.61-1.78.86,1.68,3-.63.17-1.88L490,398.7l2.74-1.33-.28-1.86L494,396.6l2.35-1.94-.72-1.74,1.77.7,1.82-2.44-1.11-1.53,1.88.26,1.19-2.81-1.43-1.21,1.88-.2.49-3-1.68-.84,1.78-.63-.24-3-1.83-.42,1.59-1-1-2.9-1.88,0,1.29-1.4-1.61-2.58-1.82.48.92-1.66-2.18-2.13-1.65.89.5-1.82-2.62-1.56-1.39,1.26.05-1.89-2.91-.89-1.06,1.56-.39-1.86-1-.05,0-.07h-.24l-.91-2.57-13.62-7.47.11.63L458.55,350l-1.91-23.22h4.74l-.14-.39h.57v-2h-4.22a1.45,1.45,0,0,0-1.44-1.21H445.06a1.45,1.45,0,0,0-1.44,1.21h-3.5L440,322.7h0a.75.75,0,0,0-.72-.71H438a.76.76,0,0,0-.73.71h0l-.16,1.75h-3.74v2h.6l0,.39h6.43v21.28l-7.69-1.57V340l-3.92.78-1.88,1.88-2,.32a1.48,1.48,0,0,0-1.44-.61l-11,1.78a1.48,1.48,0,0,0-1.19,1.06l-3,.5V340H408v-.89h0a3,3,0,0,0-1.23-2.32A4.55,4.55,0,0,0,404,336Zm39,10.38V326.81H453.6l1.51,24Z" transform="translate(140.19 -295.78)"/><path d="M442.36,340.23a12.19,12.19,0,0,1,1.52-2.56,16.69,16.69,0,0,1,1.27-1.63c.15-.84.7-.65.7-.65a2.35,2.35,0,0,1,.2-.89c-.2-.17,0-.93,0-.93a2,2,0,0,1,1.89-1.35,3.39,3.39,0,0,1,1.68.47,2.12,2.12,0,0,1,.76,1.2s.38.13,1.06.29.52.36.52.36c-.26.66-1.48.69-1.48.69a3.14,3.14,0,0,0,0,.9c.1.41-.19.39-.19.39s-.08.06-.08.25a.37.37,0,0,1-.18.29c0,.08,0,.15-.07.25a.57.57,0,0,0-.08.23c-.06.78-.89.63-.89.63a4.77,4.77,0,0,1,1,2.86c0,.44.2.45.41.65s0,.38,0,.57a.53.53,0,0,0,.58.41c.39,0,.32,0,.43.25s.18.16.51.34a1.71,1.71,0,0,1,.38.62c0,.25.15.28.34.43a.1.1,0,0,0,.07,0,8.46,8.46,0,0,0,2.12,1.09l0,1.58-.81-.21c.9,1.29,1.1,4.42,1.1,4.42l-13.07-2.08S442,341.21,442.36,340.23Z" transform="translate(140.19 -295.78)"/><rect x="571.46" y="48.4" width="9.73" height="6.31"/><polygon points="574.17 30.34 572.21 46.84 573.19 49.73 573.38 48.95 575.8 30.22 574.17 30.34"/><path d="M464,343.1s-1.81-.44-2.19.19.43,2.5-1.08,4.27-2,1.63-1.56,3.62,6.32,6.39,6.61,8.71,1.42-.78,1.42-.78l-.39-11.3-1-4A4.19,4.19,0,0,0,464,343.1Z" transform="translate(140.19 -295.78)"/><path d="M462.39,355s.77,4.14-2.92,3.45l-.91-.19-.16.15L458,358l1.24-.74.42.3-.47.32s3.45.92,2.37-3.46l.57-.06Z" transform="translate(140.19 -295.78)"/><path d="M463,355.39s1.09,4.07-2.64,3.66l-.93-.11-.15.15-.41-.32,1.18-.84.45.27-.45.35s3.51.66,2.1-3.63l.56-.1Z" transform="translate(140.19 -295.78)"/><path d="M454.43,355.32l-1.06-6h-.15a4.72,4.72,0,0,1,.22-1.4c.23-.66.14-1.05-.15-1.19s-.81-.06-.83.77a6,6,0,0,0,.34,1.82l-.18.05.62,5.15Z" transform="translate(140.19 -295.78)"/><polygon points="600.89 51.91 599 49.2 598.5 49.47 597.57 47.72 596.94 48.3 598 49.81 597.47 50.24 598.91 52.18 599.3 52.04 600.13 52.99 600.89 51.91"/><path d="M440.17,349s-2.51-4.9-2.35-6.8c0,0,0-.31.65-.54s1.45-.5,1.88.42a30.87,30.87,0,0,1,2.06,6.79c.14,1.82-.72,1.52-.72,1.52Z" transform="translate(140.19 -295.78)"/><path d="M449,352.79s2.85-.51,2.75-2.56-3.83-1.46-6.79-1.47a13.76,13.76,0,0,1-3.9-.35l-.53,2.66Z" transform="translate(140.19 -295.78)"/><path d="M451.15,348s1.54-1,.25-1.82l-.09-1.06s.52-.61-.05-.9-.4.56-.23.9v1a5.3,5.3,0,0,0-3.93.59l-1.16.56,0-1s.34-.29.25-.57-.6-.46-.75,0a.47.47,0,0,0,.17.6l-.08,1.14-3.25,1.46,2.9.61,4.6-.43S450,348.64,451.15,348Z" transform="translate(140.19 -295.78)"/><path d="M457.48,343.86l1.24-1.12.26-1.46-.07-.3-.8.81.2.63-.68.6-.15-.6s-1.35.22-1.39.24a2.42,2.42,0,0,0,.11.56l.81.93Z" transform="translate(140.19 -295.78)"/><path d="M456.82,344.28l-1.47.79-1.46-.26-.26-.16,1-.48.52.4.8-.43-.51-.35s.66-1.19.7-1.22.48.29.48.29l.61,1.08Z" transform="translate(140.19 -295.78)"/><path d="M453.08,344.93a.42.42,0,0,0,.6.05l5.72-4a.43.43,0,0,0,.15-.59h0a.43.43,0,0,0-.6-.05l-5.72,4a.42.42,0,0,0-.15.58Z" transform="translate(140.19 -295.78)"/></g><rect x="140.19" y="101.1" width="841.87" height="199.27"/><polygon points="773.27 66.04 771.3 65.22 768.86 67.14 769.87 69.44 771.4 69.68 773.01 69.18 774.33 67.86 773.27 66.04"/><polygon points="776.93 58.79 776.12 60.76 778.03 63.2 780.33 62.19 780.57 60.67 780.07 59.05 778.76 57.73 776.93 58.79"/><polygon points="773.08 52.2 771.76 51.65 770.12 52.95 770.8 54.49 771.83 54.65 772.91 54.31 773.8 53.43 773.08 52.2"/><polygon points="781.24 72.25 779.91 71.7 778.27 72.99 778.95 74.53 779.98 74.7 781.07 74.36 781.95 73.47 781.24 72.25"/><polygon points="786.38 76.87 788.32 75.43 787.35 73.58 786.09 73.58 785.01 75.02 786.38 76.87"/><polygon points="797.28 34.76 798.1 32.79 796.17 30.35 793.88 31.36 793.64 32.88 794.14 34.5 795.45 35.82 797.28 34.76"/><polygon points="790.89 33.3 788.91 32.49 786.47 34.41 787.49 36.7 789.01 36.94 790.63 36.45 791.94 35.13 790.89 33.3"/><polygon points="787.18 37.09 786.37 35.12 783.29 34.75 782.38 37.09 783.29 38.34 784.78 39.13 786.64 39.13 787.18 37.09"/><polygon points="779.85 41.54 780.66 39.57 778.74 37.13 776.45 38.14 776.21 39.66 776.7 41.28 778.02 42.6 779.85 41.54"/><polygon points="805.72 32.48 806.53 30.51 804.61 28.07 802.32 29.08 802.08 30.6 802.57 32.22 803.89 33.53 805.72 32.48"/><polygon points="794.14 36.05 794.68 34.73 793.39 33.08 791.85 33.77 791.68 34.79 792.02 35.88 792.9 36.76 794.14 36.05"/><polygon points="781.83 38.7 782.38 37.38 781.09 35.74 779.54 36.42 779.38 37.44 779.71 38.53 780.6 39.42 781.83 38.7"/><polygon points="802.03 31.48 802.58 30.15 801.29 28.51 799.75 29.19 799.59 30.21 799.92 31.3 800.8 32.19 802.03 31.48"/><polygon points="790.67 33.61 792 34.16 793.64 32.87 792.96 31.32 791.93 31.16 790.85 31.5 789.96 32.38 790.67 33.61"/><polygon points="781.22 36.33 782.26 36.76 783.54 35.75 783.01 34.54 782.21 34.41 781.35 34.67 780.66 35.37 781.22 36.33"/><polygon points="787.16 33.77 785.83 33.22 784.19 34.51 784.87 36.05 785.89 36.22 786.98 35.88 787.87 34.99 787.16 33.77"/><polygon points="799.9 33.15 800.45 31.83 799.16 30.18 797.62 30.86 797.45 31.89 797.79 32.98 798.67 33.87 799.9 33.15"/><polygon points="790.2 31.36 788.23 30.54 785.79 32.46 786.8 34.76 788.32 34.99 789.94 34.5 791.26 33.18 790.2 31.36"/><polygon points="786.5 35.15 785.68 33.18 782.6 32.81 781.69 35.15 782.6 36.39 784.1 37.19 785.96 37.19 786.5 35.15"/><polygon points="792.21 32.82 792.75 31.5 791.46 29.85 789.92 30.54 789.76 31.56 790.09 32.65 790.98 33.53 792.21 32.82"/><polygon points="786.47 31.82 785.15 31.27 783.5 32.56 784.18 34.11 785.21 34.27 786.3 33.93 787.18 33.05 786.47 31.82"/><polygon points="794.53 32.27 795.08 30.94 793.79 29.3 792.24 29.98 792.08 31 792.42 32.09 793.3 32.98 794.53 32.27"/><polygon points="797.67 31.67 798.22 30.34 796.93 28.7 795.39 29.38 795.23 30.41 795.56 31.5 796.45 32.38 797.67 31.67"/><polygon points="773.1 39.57 774.54 41.52 776.39 40.55 776.39 39.29 774.95 38.21 773.1 39.57"/><polygon class="cls-4" points="897.27 26.85 869.66 26.85 864.93 52.59 899.9 47.37 897.27 26.85"/><polygon points="768.75 39.41 775.27 50.27 777.09 50.18 782.62 59.94 791.04 62.54 801.84 60.43 812.09 46.22 808.33 26.18 807.5 25.55 805.6 28.48 792.09 34.8 774.32 40.13 771.86 38.72 768.75 39.41"/><polygon points="796.73 60.24 806.81 62.67 833.52 49.58 859.99 49.48 861.91 43.48 859.7 40 823.7 40.53 819.56 49.22 804.98 51.61 796.73 60.24"/><path d="M686.58,341.1c-1.41,2.18-4.06,2.89-5.93,1.6s-2.23-4.12-.83-6.3,4.06-2.9,5.93-1.61S688,338.91,686.58,341.1Z" transform="translate(140.19 -295.78)"/><path d="M689.81,329.32a3.41,3.41,0,0,1-4.74,1.29,3.7,3.7,0,0,1-.66-5,3.4,3.4,0,0,1,4.73-1.29A3.7,3.7,0,0,1,689.81,329.32Z" transform="translate(140.19 -295.78)"/><polygon points="825.1 31.73 820.65 40.53 826.41 41.57 828.74 33.8 825.1 31.73"/><path d="M713.15,338.38a2.84,2.84,0,0,1-3.55,1.71l-13.93-5.84a2.72,2.72,0,0,1-1.18-3.7l.31-.7a2.82,2.82,0,0,1,3.55-1.71L712.27,334a2.72,2.72,0,0,1,1.19,3.69Z" transform="translate(140.19 -295.78)"/><polygon points="825.16 32.05 842.16 39.18 843.41 36.33 826.4 29.2 825.16 32.05"/><polygon points="860.22 44.64 867.59 49.77 862.12 62.12 842.62 48.94 829.08 47.7 860.22 44.64"/><polygon points="821.86 44.65 807.56 48.7 808.01 40.17 822.67 40.9 821.86 44.65"/><polygon class="cls-1" points="876.77 50.77 888.7 48.42 888.7 27.02 878.26 27.02 876.77 50.77"/><polygon class="cls-1" points="940.54 51.59 948.02 52.49 950.66 55.13 952.99 73.64 956.78 73.64 956.78 53.11 940.54 48.06 940.54 51.59"/><path d="M818.67,369.42V347.35h0l-18.32-5.7h-2.09v3.86l-.1-.12-10-1.65v-6.58h-.24v-.79h0a1.51,1.51,0,0,1,.46-1.13,1.11,1.11,0,0,1,.71-.16v-2.13a4.89,4.89,0,0,0-2.89.82,3.22,3.22,0,0,0-1.29,2.46h0v.93h-.24v6l-3.21-.52a1.54,1.54,0,0,0-1.25-1.13l-11.55-1.87a1.53,1.53,0,0,0-1.52.64l-2.09-.34-2-2-4.17-.83v5.18l-7.62,1.55V322.79h6.91v-2.08h-4l-.16-1.85h0a.79.79,0,0,0-.76-.76H751.9a.79.79,0,0,0-.76.76h0l-.16,1.85h-3.7a1.52,1.52,0,0,0-1.52-1.27H734a1.53,1.53,0,0,0-1.53,1.27h-4.45v2.08h7l-1.9,23-11.59,2.66-.53.46-16.19,8.87-1,2.72h-.26v.07l-1.09.06-.41,2L701,360.93l-3.08.93.06,2-1.47-1.33-2.77,1.64.54,1.93-1.75-1-2.3,2.25,1,1.75-1.91-.5-1.71,2.73,1.36,1.46-2,0-1,3.06,1.67,1.1-1.94.44-.25,3.21,1.88.67-1.78.88.52,3.18,2,.21-1.51,1.28,1.25,3,2-.27-1.17,1.61,1.92,2.58,1.86-.74-.75,1.84,2.48,2.05,1.63-1.15-.3,2,2.9,1.4,1.31-1.51.18,2,3.15.68.91-1.78.65,1.88,3.21-.09.47-1.95L709.3,400l3.1-.85v-2l1.44,1.38,2.81-1.57-.48-1.94,1.72,1,2.36-2.18-.93-1.77,1.91.55,1.78-2.68-1.32-1.5,2,.09,1-2.66h8.89l3.32-3.52v-.1h3.77l2.55,3.62h8l2.77-3.62h1.87l.51,3.15,2,.21-1.51,1.28,1.25,3,2-.27-1.16,1.61,1.92,2.58,1.86-.74-.75,1.84,2.48,2.05,1.63-1.15-.3,2,2.9,1.4,1.31-1.51.18,2,3.15.68.91-1.78.65,1.88,3.21-.09.47-1.95,1.07,1.68,3.1-.85v-2l1.43,1.38,2.82-1.57L786.4,395l1.72,1,2.36-2.18-.93-1.77,1.91.55,1.77-2.68-1.32-1.5,2,.09,1.09-3-1.64-1.15,1.94-.39.19-1.71h1.8l2.29,2.56,6.95-3.54,1.88,1.84L820.29,376v-6.55Zm-70.16-25.23-11.93,2.36,1.49-23.76h10.44Zm68.08,25.23H812.8l-2.33-18.52-2.64-2.64-7.48-.9v-3.52l16.24,5.05Z" transform="translate(140.19 -295.78)"/><path d="M727.49,339.56s1.9-.46,2.31.21-.46,2.63,1.14,4.5,2.12,1.72,1.65,3.83-6.68,6.73-7,9.18-1.51-.81-1.51-.81l.42-11.94,1.1-4.2A4.44,4.44,0,0,1,727.49,339.56Z" transform="translate(140.19 -295.78)"/><path d="M729.15,352.1s-.81,4.38,3.08,3.64l1-.19.17.15.41-.38-1.31-.78-.45.32.5.33s-3.64,1-2.51-3.65l-.59-.06Z" transform="translate(140.19 -295.78)"/><path d="M728.48,352.53s-1.15,4.3,2.79,3.87l1-.12.16.17.43-.35-1.25-.88-.47.28.47.37s-3.7.7-2.21-3.82l-.59-.11Z" transform="translate(140.19 -295.78)"/><path d="M737.55,352.46l1.12-6.37h.15a4.84,4.84,0,0,0-.22-1.48c-.24-.7-.15-1.11.15-1.26s.86-.07.88.81a6.05,6.05,0,0,1-.36,1.93l.2.05-.66,5.44Z" transform="translate(140.19 -295.78)"/><polygon points="871.13 48.63 873.12 45.77 873.65 46.05 874.63 44.2 875.3 44.82 874.17 46.42 874.74 46.87 873.21 48.91 872.8 48.77 871.93 49.76 871.13 48.63"/><path d="M752.61,345.77s2.65-5.17,2.48-7.18c0,0,0-.33-.69-.57s-1.53-.52-2,.45a32.7,32.7,0,0,0-2.17,7.16c-.15,1.93.76,1.6.76,1.6Z" transform="translate(140.19 -295.78)"/><path d="M743.29,349.8s-3-.55-2.9-2.71,4-1.53,7.17-1.55a14.33,14.33,0,0,0,4.11-.37l.56,2.81Z" transform="translate(140.19 -295.78)"/><path d="M741,344.68s-1.63-1-.27-1.92l.1-1.12s-.56-.64,0-.95.42.6.24.95v1.07a5.53,5.53,0,0,1,4.14.62l1.24.6,0-1.06s-.35-.31-.26-.6.63-.49.79,0a.5.5,0,0,1-.18.64l.08,1.2,3.44,1.54-3.07.65-4.85-.46S742.26,345.41,741,344.68Z" transform="translate(140.19 -295.78)"/><path d="M734.34,340.36,733,339.19l-.26-1.55.06-.32.85.86-.22.66.73.64.16-.64s1.42.24,1.46.26a2.69,2.69,0,0,1-.11.59l-.86,1Z" transform="translate(140.19 -295.78)"/><path d="M735,340.81l1.55.83,1.55-.27.27-.17-1.09-.5-.55.42-.84-.46.54-.37s-.7-1.26-.74-1.29-.51.31-.51.31l-.64,1.14Z" transform="translate(140.19 -295.78)"/><path d="M739,341.5a.45.45,0,0,1-.63.05l-6-4.23a.45.45,0,0,1-.16-.61h0a.45.45,0,0,1,.63-.06l6,4.23a.46.46,0,0,1,.16.62Z" transform="translate(140.19 -295.78)"/><path d="M728.31,353.32c.24-.34.74,0,.86.11a5.39,5.39,0,0,0,.92.47,2.65,2.65,0,0,0,1.65.36c.55-.12.38-.4.81-.75a7.27,7.27,0,0,0,1.15-1.75c.33-.56,1.31-2.09,1.49-2.41s1.12-1.87,1.38-2.28,1.39-.52,1.39-.52a1.18,1.18,0,0,1,.32-.75,1.89,1.89,0,0,1,1.47-.59,19.35,19.35,0,0,0,2,0l1.76-.12c.37-.31.94-.69.94-.69a14.14,14.14,0,0,1,.33-2.56c-.48.35-.91.81-1.32,1s-.32.12-1.18.13a7.13,7.13,0,0,1-2.14-.41c-.59-.16-.82-.18-1.45-.32a3.43,3.43,0,0,1-1.35-.74c-.5-.33-.48-.57-.48-.57a.37.37,0,0,1,.14-.36.42.42,0,0,1,.12-.39.37.37,0,0,1,0-.39c.08-.07.53.07.53.07a.63.63,0,0,1,.1-.26c.09-.14.46,0,.71.11s.33.35.42.47a8.89,8.89,0,0,1,.54.76c.06.12.13.17.34.24a4.23,4.23,0,0,0,1.38,0c.36-.09,1.14-.12,1.43-.18s.48-.38.63-.59.63-.71.63-.71c0-.26,0-.23.25-.49a5.43,5.43,0,0,0,.81-1.5,2.61,2.61,0,0,1,.75-1.13s0-.32,0-.54.44-.53.44-.53a1.45,1.45,0,0,1-.15-.38,1.18,1.18,0,0,1-.59.24c-.31,0-.39-.11-.43-.24s-.06-.27-.2-.3a.13.13,0,0,1-.11-.15.12.12,0,0,1-.17-.1,1.22,1.22,0,0,0-.06-.27c0-.09-.3,0-.43,0s-.1-.27-.06-.37.05-.39.09-.63a.41.41,0,0,0-.11-.44c-.11-.11-.09-.43-.08-.56s0-.62,0-.62c-.28-.3-.29-.6.43-1.46a2.72,2.72,0,0,1,2.59-.74,2.81,2.81,0,0,1,1.34,1.38,5.83,5.83,0,0,1,.16,2.09.79.79,0,0,1-.16.5.21.21,0,0,0,0,.12c.17-.09.26.18.45.39a.41.41,0,0,1,.14.37c.24.31,1,.56,1.61,1.09s1.26,1.19,1.34,3.57-.49,3-.91,4.5a19.78,19.78,0,0,0-.76,4.28,1.89,1.89,0,0,1-.62,1.49c-1.17.53-2.39.25-4.87.4a30.68,30.68,0,0,1-3.46.08,4.31,4.31,0,0,0-.3,1.1c-.07.42-.4,2-.45,2.46s-.27,1.62-.32,2-.27.48-.27.48v.43c.06.94-1.5.6-2.44.69a6.49,6.49,0,0,1-2-.05c-.59-.11-.82-.5-.45-.81s1-.28,1.22-.36a7.13,7.13,0,0,0,.84-.46,6.39,6.39,0,0,1,.6-1.55l-.43.24a5.51,5.51,0,0,0-1.72,1.3c-.7.84-1,1.09-1.51,1.68a1.53,1.53,0,0,1-1.22.51l-.26.36c-.49.11-1.31-.52-1.75-1a14.22,14.22,0,0,1-2.25-2.27C728,353.77,728.06,353.67,728.31,353.32Z" transform="translate(140.19 -295.78)"/><path d="M744.23,331.24s-3-.18-2.24.28,1,.7,3,.54S744.23,331.24,744.23,331.24Z" transform="translate(140.19 -295.78)"/><polygon points="897.27 26.85 899.23 41.51 899.01 47.18 896.21 26.76 897.27 26.85"/><path d="M310.07,367.51l1.55-1.21.29-3.34a10,10,0,0,1,5.45-6.38c4.39-1.88,4.67,2.87,8.49.46s2.16-5.34-1.82-7.32a13.69,13.69,0,0,1-3.77-2.13,4.74,4.74,0,0,0-6.2-.4C311.44,348.88,306.83,355.49,310.07,367.51Z" transform="translate(140.19 -295.78)"/><path d="M331.91,360.68a2.14,2.14,0,0,1-2.31-2l-.82-10.56a2.16,2.16,0,0,1,2-2.31h0a2.15,2.15,0,0,1,2.31,2l.82,10.56a2.14,2.14,0,0,1-2,2.31Z" transform="translate(140.19 -295.78)"/><path d="M336.41,347a1.39,1.39,0,0,1-1.49-1.27L334.4,339a1.38,1.38,0,0,1,1.27-1.48h0a1.38,1.38,0,0,1,1.48,1.27l.53,6.77a1.38,1.38,0,0,1-1.27,1.48Z" transform="translate(140.19 -295.78)"/><path d="M336.7,350.58a1.37,1.37,0,0,1-1.48-1.27l-.53-6.77a1.37,1.37,0,0,1,1.27-1.48h0a1.36,1.36,0,0,1,1.48,1.26l.53,6.78a1.38,1.38,0,0,1-1.27,1.48Z" transform="translate(140.19 -295.78)"/><path d="M332.61,345.36a1,1,0,0,1-.39-1.3l2.25-4.14a1,1,0,0,1,1.3-.38h0a1,1,0,0,1,.39,1.29L333.91,345a1,1,0,0,1-1.3.39Z" transform="translate(140.19 -295.78)"/><path d="M331.43,347.55a1,1,0,0,1-.39-1.3l2.25-4.14a1,1,0,0,1,1.3-.38h0A1,1,0,0,1,335,343l-2.25,4.14a1,1,0,0,1-1.3.38Z" transform="translate(140.19 -295.78)"/><path d="M328,358.32a2,2,0,1,1-.16-2.87A2,2,0,0,1,328,358.32Z" transform="translate(140.19 -295.78)"/><path d="M327.11,351.22a2,2,0,1,1-.16-2.87A2,2,0,0,1,327.11,351.22Z" transform="translate(140.19 -295.78)"/><polygon class="cls-1" points="468.9 57.14 468.31 58.01 468.94 58.43 468.9 57.14"/><path d="M331.18,355.74l-.27-8.42-.82-.73-2.83,4.22-.22-1.7-2.36.31.65,5,1.62,1.46,2.57,1.71Zm-2.47-2.83,0,1.3-.63-.42Z" transform="translate(140.19 -295.78)"/><path d="M349.48,315.23a1,1,0,0,1,.39,1.31L338.78,337a1,1,0,0,1-1.31.39l-1.16-.63a1,1,0,0,1-.38-1.31L347,315a1,1,0,0,1,1.31-.38Z" transform="translate(140.19 -295.78)"/><rect x="326.09" y="325.27" width="33.54" height="1.54" transform="translate(32.95 176.08) rotate(-61.51)"/><path d="M372.14,317l35.51,10.47s12.47,2.37,26.44,30.91l5.2-1.4L428,329.83s-2.2-8.58-19-12.82-38.85-8.43-38.85-8.43-8.27-1.19-8.11,1.44S364.18,314.66,372.14,317Z" transform="translate(140.19 -295.78)"/><path d="M333.82,357.45l27.65-41.2s4.14-4.33,3.91-12.68a4.65,4.65,0,0,1,1.68-4.09c2-1.67,1.61-6.1-3.62-2s-5.49,3.81-7.28,8.4c-1.44,3.71-17.72,33-23.91,44.16C330.77,352.65,333.82,357.45,333.82,357.45Z" transform="translate(140.19 -295.78)"/><path d="M383.1,305.35a1.16,1.16,0,0,1,1.55-.57l25.55,11.86a1.16,1.16,0,0,1,.57,1.55l-.67,1.46a1.17,1.17,0,0,1-1.55.56L383,308.35a1.16,1.16,0,0,1-.57-1.55Z" transform="translate(140.19 -295.78)"/><rect x="391.1" y="280.49" width="1.86" height="59.59" transform="translate(85.75 239.52) rotate(-65.11)"/><path d="M422.24,341.36a1,1,0,0,1,1.24.6l7.66,22.17a1,1,0,0,1-.6,1.24l-1.26.43a1,1,0,0,1-1.24-.6L420.38,343a1,1,0,0,1,.6-1.24Z" transform="translate(140.19 -295.78)"/><rect x="423.94" y="333.49" width="1.55" height="33.83" transform="translate(49.05 -137.87) rotate(-19.06)"/><path d="M351.94,311.66a1.42,1.42,0,1,1-1.42-1.42A1.43,1.43,0,0,1,351.94,311.66Z" transform="translate(140.19 -295.78)"/><path d="M350.37,310.25a10.2,10.2,0,0,0,5.87-4c2.47-3.42-2.13,7.76-2.13,7.76l-2,1.31a2.85,2.85,0,0,0-2.16-2.48Z" transform="translate(140.19 -295.78)"/><rect class="cls-1" x="591.4" y="86.46" width="8.58" height="2.42"/><path class="cls-1" d="M419.62,380.48l.9.35a1.67,1.67,0,0,0,.08-.2l-.85-.44,0-.08h-2.66v3l-.28.73,2-.9Z" transform="translate(140.19 -295.78)"/><path d="M504.06,388.29l.33-2.88-1-.05v-.21l1-.06-.4-2.87-.95.19a1.17,1.17,0,0,1-.06-.2l.92-.3-1.11-2.68-.87.43-.11-.19.82-.52-1.75-2.31-.73.63-.16-.15.66-.71-2.27-1.8-.56.79-.18-.11.46-.84-2.66-1.17-.33.92a.83.83,0,0,0-.21-.06l.23-.95-1.37-.22v-3.18H486.7a1,1,0,0,0-.92-.59h-13a1,1,0,0,0-.92.59h-3.81v-4h-17.3v4h-6.88a1,1,0,0,0-.91-.59h-7.52a1,1,0,0,0-.92.59h-4.72v3.1l-1.19.11.15,1-.2,0-.26-.93-2,.75,0-.05-.31.17-.34.13,0,.06-1.88,1.09.53.79-.17.14-.62-.74-2.06,2,.29.27h-4.6v-2.37h-4.47V377l1,1a18.63,18.63,0,0,1-4.22,11.41h5.25l.95-2.49,3-1.33,0,.89,1,0c0,.07,0,.13,0,.2l-1,.15.65,2.82.92-.27a.64.64,0,0,0,0,.07l.06.13-.89.38,1.34,2.57.83-.5c.05.06.08.12.12.17l-.76.59,1.94,2.16.67-.69a1.09,1.09,0,0,0,.17.13l-.6.77,2.42,1.59.49-.84.19.1-.38.88,2.74.93.26-.93.21,0-.15,1,2.89.21v-1l.22,0,.09,1,2.86-.53-.24-.94.2-.07.34.91,2.64-1.22-.46-.84a1,1,0,0,1,.17-.12l.56.79,2.23-1.86-.67-.7a.75.75,0,0,0,.15-.16l.74.63,1.7-2.36-.82-.51.09-.19.88.42,1.05-2.7-.92-.29a1.6,1.6,0,0,0,0-.21l1,.18.33-2.88-1-.05v-.21l1-.06-.41-2.87-.94.19-.06-.2.92-.3-.43-1,1.95-2h1.84v3.33h3.74v2.42h-1.2v1.92h12.21v-1.92h-1.2v-2.42H472v-3.33h6.18l1.75,1.78-.75,2.58.94.21c0,.07,0,.14,0,.21l-.95-.1-.09,2.89,1,0a1.36,1.36,0,0,1,0,.2l-1,.15.65,2.82.93-.27a.14.14,0,0,0,0,.07l.06.13-.9.38,1.34,2.57.84-.5a1,1,0,0,0,.12.17l-.77.59,1.94,2.16.68-.69.16.13-.59.77,2.42,1.59.48-.84.19.09-.38.89,2.75.93.25-.93.21,0-.15,1,2.9.21v-1l.21,0,.1,1,2.85-.53-.24-.94.21-.07.34.91,2.63-1.22-.46-.85.17-.11.56.79,2.23-1.86-.66-.7.15-.16.73.63,1.7-2.36-.82-.51.09-.19.88.42,1.05-2.7-.92-.29.06-.21Zm-44.27-3.63h-8.58v-2.42h8.58Zm-42.66-1.55v-3h2.66l0,.08.85.44a1.67,1.67,0,0,1-.08.2l-.9-.35-.72,2.46-2,.9Z" transform="translate(140.19 -295.78)"/><polygon class="cls-4" points="570.28 40.47 590.66 40.74 593.51 58.66 567.07 58.66 570.28 40.47"/><path d="M451.8,353.69l-2.35-16.41H427.68a4.34,4.34,0,0,1,4.09-2.93h1.47a.61.61,0,0,1,.61-.61h5.61a.61.61,0,0,1,.61.61h3.26l.18-2h0a.77.77,0,0,1,.74-.73h1.28a.76.76,0,0,1,.73.73h0l.17,2h1.92a4.33,4.33,0,0,1,4.21,3.31h0l0,.14a.43.43,0,0,0,0,.05l2.27,10.89h16.41a3.91,3.91,0,0,1,3.87-3.46h7.87a4.71,4.71,0,0,1,4.1-2.86l.12,2a2.15,2.15,0,0,0-1.48.9h.33a3.9,3.9,0,0,1,3.86,3.46h3.11a3.91,3.91,0,0,1,3.91,3.91v11.72a3.9,3.9,0,0,1-3.91,3.91H428.87a3.9,3.9,0,0,1-3.91-3.91V353.69Z" transform="translate(140.19 -295.78)"/><rect x="567.59" y="40.18" width="25.93" height="1.48"/><polygon points="569.11 40.74 571.39 40.74 568.55 58.26 566.13 58.06 569.11 40.74"/><path d="M430.49,348.38s1.51-.36,1.83.17-.36,2.08.91,3.57,1.68,1.36,1.3,3-5.28,5.34-5.53,7.28-1.19-.65-1.19-.65l.33-9.46L429,349A3.54,3.54,0,0,1,430.49,348.38Z" transform="translate(140.19 -295.78)"/><path d="M431.81,358.32s-.64,3.47,2.44,2.89l.77-.15.13.12.32-.3-1-.62-.35.25.39.26s-2.88.78-2-2.89l-.48-.05Z" transform="translate(140.19 -295.78)"/><path d="M431.28,358.66s-.91,3.41,2.21,3.07l.77-.09.12.13.35-.28-1-.69-.37.22.37.29s-2.94.55-1.75-3l-.47-.09Z" transform="translate(140.19 -295.78)"/><path d="M438.47,358.61l.89-5.05h.12a3.92,3.92,0,0,0-.18-1.17c-.19-.56-.12-.88.12-1s.68-.05.7.64a4.84,4.84,0,0,1-.29,1.53l.16,0-.52,4.31Z" transform="translate(140.19 -295.78)"/><polygon points="573.42 56.45 575 54.18 575.42 54.4 576.2 52.94 576.72 53.43 575.83 54.7 576.28 55.05 575.07 56.67 574.74 56.56 574.06 57.35 573.42 56.45"/><path d="M450.4,353.3s2.1-4.09,2-5.68c0,0,0-.26-.55-.46s-1.21-.41-1.57.36a25.46,25.46,0,0,0-1.72,5.68c-.12,1.52.59,1.27.59,1.27Z" transform="translate(140.19 -295.78)"/><path d="M443,356.49s-2.38-.43-2.3-2.14,3.2-1.21,5.68-1.23a11.64,11.64,0,0,0,3.26-.29l.45,2.23Z" transform="translate(140.19 -295.78)"/><path d="M441.22,352.44s-1.29-.81-.21-1.52l.07-.88s-.44-.51,0-.76.34.47.2.76v.84a4.37,4.37,0,0,1,3.28.5l1,.46,0-.84s-.28-.24-.21-.47.5-.39.63,0a.39.39,0,0,1-.14.5l.06,1,2.72,1.22-2.43.51-3.84-.36S442.2,353,441.22,352.44Z" transform="translate(140.19 -295.78)"/><path d="M435.92,349l-1-.93-.21-1.23.05-.24.67.67-.17.53.57.5.13-.5s1.13.18,1.16.2a2.3,2.3,0,0,1-.09.47l-.68.78Z" transform="translate(140.19 -295.78)"/><path d="M436.47,349.37l1.23.67,1.23-.22.21-.14-.86-.4-.44.34-.66-.37.42-.29s-.55-1-.58-1a2.33,2.33,0,0,0-.41.24l-.5.91Z" transform="translate(140.19 -295.78)"/><path d="M439.6,349.92a.35.35,0,0,1-.5,0l-4.79-3.35a.36.36,0,0,1-.12-.49h0a.35.35,0,0,1,.5,0l4.78,3.35a.35.35,0,0,1,.13.49Z" transform="translate(140.19 -295.78)"/><path d="M431.14,359.29c.2-.27.59,0,.68.09a5.91,5.91,0,0,0,.73.37,2.05,2.05,0,0,0,1.31.28c.44-.09.3-.31.65-.59a6,6,0,0,0,.9-1.39c.27-.44,1-1.65,1.19-1.91s.89-1.48,1.09-1.8,1.1-.41,1.1-.41a1,1,0,0,1,.26-.61,1.5,1.5,0,0,1,1.16-.46c.34,0,1.07,0,1.58,0l1.4-.09a7.66,7.66,0,0,1,.74-.55,10.93,10.93,0,0,1,.26-2c-.38.28-.72.63-1.05.82s-.25.09-.93.1a5.53,5.53,0,0,1-1.7-.32c-.46-.13-.65-.15-1.15-.26a2.62,2.62,0,0,1-1.06-.58c-.41-.27-.39-.45-.39-.45a.3.3,0,0,1,.12-.29.31.31,0,0,1,.09-.31.28.28,0,0,1,0-.31c.07-.06.42.06.42.06a.53.53,0,0,1,.08-.21c.07-.11.37,0,.56.09s.27.28.34.37.38.51.43.6.1.14.26.19a3.36,3.36,0,0,0,1.1,0c.28-.07.9-.09,1.13-.14s.38-.3.5-.46.5-.57.5-.57c0-.21,0-.18.2-.39a4.6,4.6,0,0,0,.64-1.19,2,2,0,0,1,.6-.89s0-.25,0-.43.35-.41.35-.41a1.18,1.18,0,0,1-.12-.31,1,1,0,0,1-.47.19c-.25,0-.31-.09-.34-.19s-.05-.21-.16-.24a.11.11,0,0,1-.09-.12.09.09,0,0,1-.13-.08,1.23,1.23,0,0,0-.05-.21c0-.07-.24,0-.34,0s-.08-.21-.05-.29,0-.32.08-.51a.33.33,0,0,0-.1-.35c-.08-.08-.06-.33-.06-.43s0-.5,0-.5c-.22-.24-.23-.47.34-1.16a2.17,2.17,0,0,1,2.06-.58,2.29,2.29,0,0,1,1.06,1.09,4.73,4.73,0,0,1,.12,1.66.61.61,0,0,1-.13.4.13.13,0,0,0,0,.09c.13-.08.2.14.36.31s.1.29.1.29c.2.25.78.44,1.27.86s1,1,1.07,2.84a8.12,8.12,0,0,1-.72,3.56,15.65,15.65,0,0,0-.6,3.4,1.5,1.5,0,0,1-.49,1.17c-.93.43-1.9.2-3.86.32a23.15,23.15,0,0,1-2.74.06,3.37,3.37,0,0,0-.24.87c-.06.34-.31,1.62-.36,2s-.21,1.28-.25,1.61-.21.39-.21.39v.34c.05.74-1.19.47-1.94.54a5.11,5.11,0,0,1-1.56,0c-.47-.08-.65-.4-.36-.64a2.54,2.54,0,0,1,1-.29,5.6,5.6,0,0,0,.67-.36,5,5,0,0,1,.48-1.23l-.35.19a4.35,4.35,0,0,0-1.37,1c-.55.66-.75.86-1.19,1.33a1.2,1.2,0,0,1-1,.4l-.2.29c-.4.09-1-.41-1.39-.77a10.76,10.76,0,0,1-1.78-1.79C430.87,359.65,431,359.56,431.14,359.29Z" transform="translate(140.19 -295.78)"/><path d="M443.77,341.79s-2.4-.14-1.78.22.75.55,2.37.43S443.77,341.79,443.77,341.79Z" transform="translate(140.19 -295.78)"/><polygon points="394.89 78.68 394.13 78.07 392.83 78.6 392.97 79.72 393.61 80.02 394.37 80.01 395.11 79.61 394.89 78.68"/><polygon points="397.4 75.99 396.79 76.74 397.32 78.05 398.45 77.9 398.75 77.27 398.74 76.5 398.33 75.76 397.4 75.99"/><polygon points="396.57 72.63 396.06 72.22 395.18 72.58 395.28 73.34 395.71 73.53 396.22 73.53 396.72 73.26 396.57 72.63"/><polygon points="397.56 82.4 397.06 81.99 396.18 82.34 396.28 83.1 396.7 83.3 397.22 83.29 397.72 83.02 397.56 82.4"/><polygon points="399.21 85.06 400.24 84.69 400.06 83.75 399.51 83.6 398.85 84.08 399.21 85.06"/><polygon points="399.49 90.77 399.24 91.7 400.25 92.69 401.22 92.1 401.24 91.4 400.93 90.7 400.25 90.19 399.49 90.77"/><polygon points="396.42 91.93 397.36 92.19 398.34 91.18 397.76 90.2 397.06 90.19 396.35 90.5 395.84 91.17 396.42 91.93"/><polygon points="393.68 94.04 393.51 94.67 394.18 95.34 394.84 94.94 394.86 94.47 394.64 94 394.19 93.65 393.68 94.04"/><polygon points="402.37 89.32 402.2 89.94 402.88 90.61 403.53 90.22 403.55 89.74 403.33 89.27 402.88 88.93 402.37 89.32"/><polygon points="403.86 87.1 403.1 86.31 402.33 86.85 402.4 87.42 403.11 87.82 403.86 87.1"/><polygon points="415.53 85.52 414.69 86 414.7 87.41 415.81 87.69 416.31 87.2 416.59 86.48 416.48 85.65 415.53 85.52"/><polygon points="412.53 84.17 413.01 85.01 414.42 85 414.7 83.89 414.22 83.39 413.5 83.11 412.66 83.22 412.53 84.17"/><polygon points="409.1 83.72 408.54 84.05 408.55 85 409.29 85.18 409.63 84.86 409.81 84.37 409.74 83.81 409.1 83.72"/><polygon points="418.59 86.53 418.02 86.85 418.03 87.8 418.77 87.99 419.12 87.66 419.3 87.18 419.23 86.61 418.59 86.53"/><polygon points="421.21 86.02 421.23 84.92 420.3 84.76 419.95 85.21 420.17 86 421.21 86.02"/><polygon points="408.87 66.84 407.36 65.35 404.38 66.2 404.45 68.7 405.77 69.5 407.45 69.65 409.16 68.93 408.87 66.84"/><polygon points="404.02 68.94 404.01 66.82 401.3 65.32 399.58 67.13 399.95 68.63 401.04 69.93 402.75 70.63 404.02 68.94"/><polygon points="410.84 70.61 411.85 69.59 411.27 67.58 409.59 67.63 409.05 68.52 408.95 69.65 409.43 70.8 410.84 70.61"/><polygon points="398.46 68.42 399.47 67.4 398.9 65.39 397.21 65.44 396.68 66.32 396.57 67.46 397.06 68.61 398.46 68.42"/><polygon points="408.56 67.05 409.58 68.05 411.59 67.48 411.54 65.79 410.65 65.26 409.52 65.15 408.37 65.64 408.56 67.05"/><polygon points="398.8 65.99 399.59 66.78 401.17 66.33 401.13 65.01 400.43 64.59 399.55 64.51 398.64 64.89 398.8 65.99"/><polygon points="405.25 65.86 404.23 64.85 402.23 65.43 402.28 67.11 403.16 67.65 404.3 67.75 405.44 67.27 405.25 65.86"/><polygon points="408.98 64.78 407.46 63.28 404.48 64.14 404.55 66.64 405.87 67.44 407.55 67.59 409.26 66.88 408.98 64.78"/><polygon points="404.13 66.89 404.12 64.76 401.4 63.26 399.68 65.07 400.05 66.57 401.13 67.86 402.85 68.57 404.13 66.89"/><polygon points="405.36 63.8 404.33 62.8 402.33 63.37 402.38 65.06 403.26 65.59 404.39 65.69 405.55 65.21 405.36 63.8"/><polygon class="cls-4" points="348.16 34.55 325.73 34.86 322.59 54.58 351.69 54.58 348.16 34.55"/><path class="cls-1" d="M148.65,379.53l1,.38c0-.07.05-.15.08-.21l-.94-.5,0-.08H145.9v3.32l-.31.8,2.27-1Z" transform="translate(140.19 -295.78)"/><rect class="cls-1" x="323.78" y="85.69" width="9.48" height="2.67"/><path d="M242,388.17l.37-3.19-1.07-.06v-.23l1.07-.06-.45-3.18-1,.21-.07-.22,1-.34-1.23-3-1,.47-.11-.21.9-.58-1.94-2.55-.81.7-.16-.17.72-.79-2.51-2-.61.88-.2-.13.5-.93-2.94-1.29-.37,1-.22-.07.25-1-1.52-.24V367.7h-7.8a1.11,1.11,0,0,0-1-.64H207.47a1.12,1.12,0,0,0-1,.64H197.9v-4.4H178.77v4.4h-3.25a1.14,1.14,0,0,0-1-.64h-8.3a1.13,1.13,0,0,0-1,.64H160v3.43l-1.32.13.18,1.05-.24.05-.28-1-2.26.82,0-.06-.34.2-.38.14,0,.06-2.08,1.2.59.89-.19.14-.68-.81-2.28,2.25.32.29H145.9v-2.61H141v1.8l1.13,1.14a20.57,20.57,0,0,1-4.66,12.61h5.8l1-2.75,3.35-1.47,0,1,1.07,0c0,.08,0,.16,0,.24l-1.06.15.72,3.13,1-.3s0,0,0,.08l.06.13-1,.42,1.48,2.85.92-.55.14.19-.85.65,2.15,2.38.74-.76.18.15-.65.84,2.68,1.76.53-.93.21.11-.43,1,3,1,.28-1,.23.05-.16,1.06,3.2.23v-1.06l.24,0,.11,1.06,3.15-.58-.26-1,.23-.08.37,1,2.91-1.35-.51-.94.19-.13.62.88,2.47-2.05-.73-.78.16-.17.81.69,1.88-2.6-.91-.57L173,391l1,.47,1.16-3-1-.33.06-.23,1,.21.37-3.19-1.07-.06v-.23l1.07-.06-.45-3.18-1,.21-.07-.22,1-.34-.47-1.12c.74-.76,1.53-1.57,2.15-2.19h2v3.68h4.14v2.68h-1.32v2.12h13.5v-2.12h-1.33v-2.68H206.6v-3.68h6.85l1.93,2-.83,2.86,1,.23c0,.08,0,.16-.05.24l-1-.12-.09,3.21,1.07,0c0,.08,0,.16,0,.24l-1.06.15.72,3.13,1-.3a.19.19,0,0,1,0,.08.75.75,0,0,1,.06.13l-1,.42,1.48,2.85.92-.55a1.27,1.27,0,0,1,.13.19l-.84.65,2.14,2.38.75-.76.18.15-.65.84,2.67,1.76.54-.93.21.11-.42,1,3,1,.28-1,.23.05-.16,1.06,3.2.23v-1.06l.23,0,.11,1.06,3.16-.58-.26-1,.23-.07.37,1,2.91-1.35-.51-.94.19-.13.62.88,2.47-2.05-.74-.78c.06-.06.12-.11.17-.17l.81.69,1.88-2.6-.91-.57.11-.21,1,.47,1.16-3-1-.33c0-.07,0-.15,0-.23Zm-48.94-4h-9.49v-2.68h9.49Zm-47.18-1.71v-3.32h2.95l0,.08.94.5c0,.06-.05.14-.08.21l-1-.38-.79,2.72-2.27,1Z" transform="translate(140.19 -295.78)"/><path d="M196.43,353.47,206.35,329a17.23,17.23,0,0,1,4.41-6.42C214,319.7,222,313.29,222,313.29a10.29,10.29,0,0,1,5.29-2.11c3.05-.24,47.59-4.48,47.59-4.48s3-.53,3.25,1.6-2,2.5-5.35,3.64-43,12.6-43,12.6a24.24,24.24,0,0,0-6.06,3.93c-2.76,2.51-14.5,29.87-14.5,29.87Z" transform="translate(140.19 -295.78)"/><path d="M214.49,364.37a1.54,1.54,0,0,1-1.63,1.41l-2.19-.41a1.54,1.54,0,0,1-1-1.9l3.88-20.85a1.53,1.53,0,0,1,1.63-1.41l2.19.4a1.55,1.55,0,0,1,1,1.91Z" transform="translate(140.19 -295.78)"/><rect x="204.75" y="332.21" width="26.03" height="2.1" transform="translate(-9.52 190.6) rotate(-79.46)"/><path d="M260.71,306.35a1,1,0,0,1-.79,1.25l-24.55,5.56a1.06,1.06,0,0,1-1.25-.79l-.31-1.4a1,1,0,0,1,.78-1.25l24.55-5.56a1.05,1.05,0,0,1,1.26.79Z" transform="translate(140.19 -295.78)"/><polygon points="423.26 5.63 396.87 11.6 396.5 9.97 422.9 4 423.26 5.63"/><path d="M282.6,340.43a.81.81,0,0,1-.75-.86l1.31-19.37a.8.8,0,0,1,.85-.75l1.1.07a.83.83,0,0,1,.76.86l-1.3,19.38a.8.8,0,0,1-.86.74Z" transform="translate(140.19 -295.78)"/><polygon points="422.08 53.97 423.32 35.63 424.59 35.72 423.36 54.06 422.08 53.97"/><path d="M283.09,351.73c5.32,6.1.93,1.74,0,10.88s-8.25,8-9.38,7.55-1.48-.8-1-5.33.38-5.44-.71-6.93-.76-4.07-.76-4.07l2.46-42.44,5-10.55s1.45-2.91,3.07-3.35,4.63,4.82,4.78,19.11c0,0,.54,3.59-1.92,3.86l-1.32.17a236.93,236.93,0,0,1-6.21,30.7s-1,2.29,3,1.09C280,352.42,282.73,351.32,283.09,351.73Z" transform="translate(140.19 -295.78)"/><path d="M285.35,344.61a1.11,1.11,0,0,1-.58,1.45L275.65,350a1.11,1.11,0,0,1-1.45-.59l-.13-.31a1.09,1.09,0,0,1,.57-1.45l9.13-3.91a1.11,1.11,0,0,1,1.45.58Z" transform="translate(140.19 -295.78)"/><rect x="276.28" y="349.01" width="10.77" height="2.95" transform="translate(7.19 228.56) rotate(-73.96)"/><path d="M279,363s4.43,4.56-1.87,9.45-11.62,6.71-16,.75-8.16-12.1-8.16-12.1-.81-1.07,1-.7,1.42,2.81,3.32,2.86,4.66-1.61,8.56.21,8.06,2.56,9.34-1.71S279,363,279,363Z" transform="translate(140.19 -295.78)"/><path d="M184.08,349.54l2.58-18.07h24a4.76,4.76,0,0,0-4.5-3.21h-1.61a.69.69,0,0,0-.69-.68h-6.16a.67.67,0,0,0-.67.68H193.4l-.2-2.18h0a.85.85,0,0,0-.81-.8H191a.85.85,0,0,0-.81.8h0l-.19,2.18h-2.12a4.76,4.76,0,0,0-4.62,3.63h0l0,.15s0,0,0,.06l-2.5,12H162.59a4.29,4.29,0,0,0-4.25-3.81h-8.67a5.2,5.2,0,0,0-4.51-3.15l-.13,2.15a2.44,2.44,0,0,1,1.63,1h-.37a4.3,4.3,0,0,0-4.25,3.81h-3.42a4.3,4.3,0,0,0-4.3,4.3v12.9a4.31,4.31,0,0,0,4.3,4.31h70.69a4.31,4.31,0,0,0,4.31-4.31V349.54Z" transform="translate(140.19 -295.78)"/><rect x="322.59" y="34.24" width="28.53" height="1.63"/><polygon points="349.45 34.86 346.94 34.86 350.06 54.15 352.72 53.92 349.45 34.86"/><path d="M207.52,343.7s-1.66-.4-2,.18.4,2.29-1,3.93-1.85,1.49-1.43,3.33,5.82,5.88,6.08,8,1.31-.71,1.31-.71l-.35-10.4-1-3.68A3.76,3.76,0,0,0,207.52,343.7Z" transform="translate(140.19 -295.78)"/><path d="M206.07,354.63s.71,3.82-2.68,3.18l-.84-.17-.15.14-.35-.34,1.14-.68.39.28-.43.29s3.17.85,2.18-3.18l.52-.06Z" transform="translate(140.19 -295.78)"/><path d="M206.66,355s1,3.75-2.43,3.38l-.85-.11-.14.14-.38-.3,1.09-.76.41.24-.41.32s3.23.61,1.93-3.34l.52-.09Z" transform="translate(140.19 -295.78)"/><path d="M198.75,355l-1-5.56h-.14a4.35,4.35,0,0,1,.2-1.29c.21-.61.13-1-.13-1.1s-.74-.06-.77.71a5.47,5.47,0,0,0,.31,1.68l-.16.05.57,4.74Z" transform="translate(140.19 -295.78)"/><polygon points="344.7 52.14 342.97 49.65 342.5 49.9 341.64 48.29 341.07 48.82 342.05 50.21 341.56 50.61 342.89 52.39 343.25 52.27 344.01 53.13 344.7 52.14"/><path d="M185.62,349.11s-2.32-4.51-2.17-6.26c0,0,0-.29.6-.5s1.34-.45,1.74.39a28.78,28.78,0,0,1,1.89,6.25c.13,1.68-.66,1.4-.66,1.4Z" transform="translate(140.19 -295.78)"/><path d="M193.74,352.62s2.62-.47,2.53-2.36-3.53-1.34-6.25-1.35a12.75,12.75,0,0,1-3.59-.32l-.49,2.44Z" transform="translate(140.19 -295.78)"/><path d="M195.72,348.16s1.42-.89.23-1.67l-.08-1s.48-.56,0-.83-.37.52-.22.83v.93A4.87,4.87,0,0,0,192,347l-1.07.51,0-.93s.31-.26.23-.51-.56-.43-.69,0a.4.4,0,0,0,.15.54l-.07,1.06-3,1.34,2.68.57,4.23-.4S194.64,348.8,195.72,348.16Z" transform="translate(140.19 -295.78)"/><path d="M201.55,344.4l1.15-1,.23-1.35-.06-.27-.73.74.18.58-.63.55-.14-.55s-1.24.2-1.28.23a2.71,2.71,0,0,0,.1.51l.75.86Z" transform="translate(140.19 -295.78)"/><path d="M200.94,344.78l-1.35.73-1.35-.24-.24-.15.95-.43.49.37.73-.41-.47-.32s.61-1.09.65-1.12.44.27.44.27l.56,1Z" transform="translate(140.19 -295.78)"/><path d="M197.5,345.38a.38.38,0,0,0,.55.05l5.27-3.69a.38.38,0,0,0,.14-.53h0a.39.39,0,0,0-.55,0l-5.27,3.69a.38.38,0,0,0-.14.53Z" transform="translate(140.19 -295.78)"/><path d="M206.81,355.7c-.22-.3-.65,0-.75.1a5.6,5.6,0,0,1-.81.4,2.29,2.29,0,0,1-1.43.32c-.48-.11-.33-.35-.71-.66a6.23,6.23,0,0,1-1-1.53c-.29-.48-1.15-1.82-1.3-2.1s-1-1.62-1.21-2-1.21-.45-1.21-.45a1,1,0,0,0-.28-.67,1.64,1.64,0,0,0-1.28-.51,14.8,14.8,0,0,1-1.74,0l-1.53-.1c-.32-.27-.82-.6-.82-.6a12.09,12.09,0,0,0-.29-2.23,12.74,12.74,0,0,0,1.16.9c.36.21.27.11,1,.11a5.93,5.93,0,0,0,1.87-.35c.51-.13.71-.16,1.26-.28a3.08,3.08,0,0,0,1.18-.64c.44-.3.42-.5.42-.5a.34.34,0,0,0-.13-.32.33.33,0,0,0-.1-.34.29.29,0,0,0,0-.34c-.06-.06-.46.07-.46.07a.42.42,0,0,0-.09-.23c-.07-.12-.39,0-.61.1s-.3.3-.37.4-.43.56-.47.66-.11.15-.3.21a3.66,3.66,0,0,1-1.2,0c-.32-.08-1-.11-1.24-.16s-.43-.33-.56-.51-.55-.63-.55-.63c0-.22,0-.2-.21-.42a4.76,4.76,0,0,1-.72-1.31,2.12,2.12,0,0,0-.65-1,4,4,0,0,1,0-.48c0-.2-.4-.45-.4-.45a1.56,1.56,0,0,0,.14-.34,1.08,1.08,0,0,0,.51.21c.28,0,.35-.1.37-.22s.06-.23.18-.25a.12.12,0,0,0,.1-.14.1.1,0,0,0,.15-.08.56.56,0,0,1,.06-.23c0-.09.25,0,.37,0s.08-.23.05-.32-.05-.34-.09-.56a.34.34,0,0,1,.11-.38c.09-.09.07-.37.07-.48s0-.55,0-.55c.24-.26.25-.52-.38-1.27a2.39,2.39,0,0,0-2.26-.65,2.49,2.49,0,0,0-1.16,1.21,5,5,0,0,0-.14,1.82.67.67,0,0,0,.14.44.2.2,0,0,1,0,.11c-.15-.09-.23.15-.39.33a.35.35,0,0,0-.12.33c-.21.26-.86.48-1.4.94s-1.11,1-1.18,3.12a9.18,9.18,0,0,0,.8,3.92,16.6,16.6,0,0,1,.66,3.74,1.64,1.64,0,0,0,.54,1.3c1,.46,2.09.21,4.25.34a27,27,0,0,0,3,.07,3.68,3.68,0,0,1,.27,1c.06.38.34,1.78.4,2.15s.23,1.42.27,1.78.24.42.24.42v.38c-.05.82,1.31.51,2.13.59a5.57,5.57,0,0,0,1.73,0c.51-.09.71-.43.39-.71a2.72,2.72,0,0,0-1.07-.31,6.22,6.22,0,0,1-.73-.4,5.52,5.52,0,0,0-.53-1.35l.38.21a4.64,4.64,0,0,1,1.5,1.13c.61.73.84.95,1.32,1.47a1.33,1.33,0,0,0,1.06.44l.23.32c.43.09,1.14-.46,1.53-.85a11.83,11.83,0,0,0,1.95-2C207.11,356.09,207,356,206.81,355.7Z" transform="translate(140.19 -295.78)"/><path d="M192.92,336.44s2.64-.16,2,.24-.83.61-2.6.47S192.92,336.44,192.92,336.44Z" transform="translate(140.19 -295.78)"/><polygon points="180.61 68.03 181.78 66.48 184.58 66.86 184.85 69.13 183.76 70.03 182.26 70.38 180.62 69.95 180.61 68.03"/><polygon points="178.55 64.99 180.73 66.64 180.19 70.57 177 70.94 175.75 69.42 175.25 67.31 175.85 65.01 178.55 64.99"/><polygon points="175.73 81.81 176.62 80.64 178.73 80.93 178.93 82.65 178.11 83.32 176.97 83.59 175.74 83.27 175.73 81.81"/><polygon points="180.09 76.99 181.2 75.53 183.85 75.89 184.1 78.03 183.07 78.88 181.66 79.22 180.11 78.81 180.09 76.99"/><polygon points="181.3 91.12 178.77 90.85 178.66 88.65 179.8 87.98 181.55 88.7 181.3 91.12"/><path class="cls-5" d="M91.51,364.34l-4.06.79A1.82,1.82,0,0,0,86,366.84v6.3a1.44,1.44,0,0,0,1.44,1.43h4a1.44,1.44,0,0,0,1.43-1.43V365.5A1.14,1.14,0,0,0,91.51,364.34Z" transform="translate(140.19 -295.78)"/><path class="cls-5" d="M107.32,341.91l-16.93,1a1.73,1.73,0,0,0-1.55,1.43l-2.12,15.74a1,1,0,0,0,1.17,1.13l19.44-3.3a1.69,1.69,0,0,0,1.35-1.6V343.19A1.27,1.27,0,0,0,107.32,341.91Z" transform="translate(140.19 -295.78)"/><path d="M105.24,351.68c-.32-.74-1.69-1.26-2-1.48a2.15,2.15,0,0,1-.82-.74c-.3-.45-.52-.47-.52-.47a3.8,3.8,0,0,1-.13-.83,4,4,0,0,1,.19-1.28c.16-.87-.71-1.64-1.48-2a3.06,3.06,0,0,0-2.74.52,3,3,0,0,0-.49,1.09l-.23,0c-1.28.1-2,.55-1.66,1s1.7.08,1.7.08c0,.41.18.38.24.61a2.35,2.35,0,0,1-.09.94c-.08.37.21.26.29.28s.13.08.13.27.08.2.08.2,0,.09.07.14a.33.33,0,0,1,.11.18,1.84,1.84,0,0,0,.1.38c.22.51.44.08,1,.29a1.69,1.69,0,0,1,.74.51c-.17.23,0,.26-.12.45a1.12,1.12,0,0,1-.26.35,8.31,8.31,0,0,0-1.74,2.13,32.25,32.25,0,0,0-.92,3.14,2.72,2.72,0,0,1-2.64,1c-.27-.27-.94-.18-.94-.18a3.13,3.13,0,0,1-.47-.18c-.1-.07-.6-.34-.58,0s.53.42.48.65-.87.25-1,.4a.44.44,0,0,0-.08.43.54.54,0,0,0,0,.41.78.78,0,0,0,0,.44.43.43,0,0,0,.23.38,3.42,3.42,0,0,0,1.8,0l-1.73,3.44A3.22,3.22,0,0,0,89,366.46c-.09.74.56,1.31,1,2.08a11.55,11.55,0,0,1,.68,1.18c-.39,1.28-.88,2.54-.88,2.54a.59.59,0,0,0,.23.19.58.58,0,0,1-.7.6,1,1,0,0,0-1.24,1l3.77,1.11,1.58-.12,12.77-15.52S105.57,352.41,105.24,351.68Z" transform="translate(140.19 -295.78)"/><path d="M105.48,352.9s.25-1.37,1.44-.81-.45,5,.59,6.75-2.6,1.44-2.6,1.44l-.22-4.74Z" transform="translate(140.19 -295.78)"/><path class="cls-1" d="M107.13,342.08l-16.61,1A1.69,1.69,0,0,0,89,344.48l-2.08,15.44a.93.93,0,0,0,1.14,1.1l19.08-3.23a1.66,1.66,0,0,0,1.33-1.57V343.35A1.26,1.26,0,0,0,107.13,342.08Z" transform="translate(140.19 -295.78)"/><path class="cls-1" d="M91.62,364.43l-4,.77a1.78,1.78,0,0,0-1.38,1.67v6.18a1.41,1.41,0,0,0,1.4,1.41H91.6a1.41,1.41,0,0,0,1.4-1.41v-7.49A1.11,1.11,0,0,0,91.62,364.43Z" transform="translate(140.19 -295.78)"/><path d="M119.74,373.89l-.56-.57a.31.31,0,0,1,0-.43.77.77,0,0,0,.16-.54l-.64-5a1.69,1.69,0,0,0-.24-.61l-.19-.29a1.81,1.81,0,0,1-.24-.61l-.15-.95a1.06,1.06,0,0,0-.31-.54l-1.41-1.14a1.06,1.06,0,0,0-.6-.21h-1.91a.34.34,0,0,1-.34-.33v-2.33a2.46,2.46,0,0,0-.11-.65l-.19-.52a3.05,3.05,0,0,1-.15-.65L111.38,341a1.48,1.48,0,0,0-.21-.61l-.7-1a1,1,0,0,0-.51-.38L107,338a2.44,2.44,0,0,0-.66-.08l-12.63.28a4.91,4.91,0,0,0-.67.06l-5.86,1.09a1.24,1.24,0,0,0-.57.29l-1.08,1a1.16,1.16,0,0,0-.29.56l-2.75,20.19a4.91,4.91,0,0,0-.05.67V376a.94.94,0,0,0,.24.58h0a.33.33,0,0,1,0,.45.85.85,0,0,0-.21.55v3.86a1.35,1.35,0,0,0,.18.62l.67,1a.71.71,0,0,0,.53.29h31a1.59,1.59,0,0,0,.64-.16l2.5-1.36a1.13,1.13,0,0,0,.41-.48l1.44-4a2.46,2.46,0,0,0,.11-.66v-2.26A.94.94,0,0,0,119.74,373.89ZM93,373.05a1.41,1.41,0,0,1-1.4,1.41H87.66a1.41,1.41,0,0,1-1.4-1.41v-6.18a1.78,1.78,0,0,1,1.38-1.67l4-.77A1.11,1.11,0,0,1,93,365.56Zm15.47-16.83a1.66,1.66,0,0,1-1.33,1.57L88.06,361a.93.93,0,0,1-1.14-1.1L89,344.48a1.69,1.69,0,0,1,1.52-1.41l16.61-1a1.26,1.26,0,0,1,1.34,1.27Z" transform="translate(140.19 -295.78)"/><polygon points="241.2 42.46 241.2 41.82 244.68 41.82 244.68 42.7 241.2 42.46"/><polygon points="243.03 42.07 244.52 41.88 244.14 39.41 243.03 39.41 242.85 39.41 241.74 39.41 241.36 41.88 242.85 42.07 242.85 42.09 242.94 42.08 243.03 42.09 243.03 42.07"/><path class="cls-1" d="M67.39,392l-.24.65,4.06-1.78,0-.24-.28,0,.06-.41.27.05c0-.13.07-.26.1-.39l-.27-.07a2.64,2.64,0,0,1,.12-.4l.26.09a.94.94,0,0,0,.06-.15H67.39Z" transform="translate(140.19 -295.78)"/><path d="M93.54,383v2.12h-.17v-.28H93v.28h-.8v-.28h-.39v.28h-.4v-.28H91v.28h-.4v-.28h-.4v.28h-.4l-.39,0,0-.28-.39,0v.28l-.39,0,0-.27-.39,0v.28l-.39,0,0-.27-.39,0v.27l-.39,0-.4,0V385l-.4,0,0,.28-.4,0v-.27l-.4,0,0,.28-.4,0v-.28l-.4,0,0,.27-.4,0-.39,0,0-.28-.39,0v.28l-.39,0,0-.27-.4,0,0,.28-.39,0,0-.28-.39,0v.28l-.39,0-.4,0,0-.28-.39,0,0,.28-.4,0,0-.28-.39,0,0,.27-.4,0,0-.28-.39,0,0,.28-.4,0-.4,0v-.28l-.4,0,0,.28-.39,0,0-.28-.4,0,0,.28-.4,0v-.28l-.38,0v.28l-.4,0-.4.05,0-.27a2.7,2.7,0,0,0-.41.08l.06.27c-.12,0-.26.06-.38.11l-.09-.27-.39.15.11.26-.37.17-.12-.25c-.13.06-.25.13-.37.2l.15.24-.34.22-.28.22H73l-.15-.19-.21.19H67.39V385h-4v1.45l.91.92a16.66,16.66,0,0,1-3.77,10.21h4.7l.84-2.22,5-2.2.07.27.26-.08.14.38-.26.1c0,.13.12.26.17.38l.26-.12a2.31,2.31,0,0,0,.18.35c.08.11.14.24.22.34l-.23.15.25.34.22-.17.27.29-.21.2.3.29.19-.21a2.42,2.42,0,0,0,.31.25l-.17.23a4.15,4.15,0,0,0,.34.24l.15-.23.34.21.36.17-.11.26a3.52,3.52,0,0,0,.39.16l.09-.27a2.84,2.84,0,0,0,.38.13l-.07.26.41.11.05-.28.4.07,0,.27a3,3,0,0,0,.42,0V397H77v.28h.39V397h.4v.28h.4V397h.39v.28H79V397h.79v.28h.39V397h.4v.28H81V397h.39v.28h.4V397h.79v.28h.39V397h.4v.28h.4V397h.39v.28h.4V397h.79v.28h.4V397h.39v.28h.4V397h.4v.28h.39V397h.8v.28h.39V397h.39v.28h.4V397h.4v.28h.39V397h.8v.28h.39V397h.4v.28H92V397h.4v.28h.39V397h.79v.28H94V397h.4v.28h.39V397h.4v.28h.4V397h.79v.28h.39V397h.4v.28h.39V397H98v.28h.4V397h.79v.28h.39V397h.4v.28h.4V397h.39v.28h.4V397h.79v.28h.4V397h.39v.28h.4V397h.39v.28h.4V397h.79v.28h.39V397h.4v.28h.4V397h.39v.28h.4V397h.79v.28h.4V397h.4v.28h.39V397h.4v.28h.39V397h.79v.28h.4V397h.4v.28h.39V397h.4v.28h.39V397H113v.28h.4V397h.4v.28h.39V397h.4v.28h.4V397h.78v.28h.4V397h.4v.28H117V397h.4v.28h.39V397h.8v.28h.4V397h.39v.28h.4V397h.39v.28h.4V397h.79v.28h.39V397h.4v.28h.4V397h.39v.28h.4V397h.79v.28h.4V397h.39v.28h.4V397h.39v.28h.4V397l.4,0,.4-.05,0,.28c.14,0,.27-.06.41-.09l-.07-.27c.13,0,.27-.06.39-.11l.09.26.39-.14-.1-.26.35-.18.13.25a2.64,2.64,0,0,0,.37-.2l-.15-.24a2.7,2.7,0,0,0,.33-.22l.32-.24.18.21.31-.29-.2-.2.28-.29.21.18a2.78,2.78,0,0,0,.26-.32l-.23-.17a1.78,1.78,0,0,0,.23-.33l.24.15c.07-.12.15-.24.21-.36l-.25-.13.18-.36c.06-.12.09-.25.14-.37l.26.09a2.12,2.12,0,0,0,.12-.41l-.26-.07c0-.13.07-.25.09-.39l.27,0,.06-.41-.27,0,0-.4h.28c0-.14,0-.27,0-.4h-.27v-.4l0-.39.28,0a2.84,2.84,0,0,0-.05-.42l-.27,0a2.45,2.45,0,0,0-.08-.39l.27-.06-.11-.41-.26.08-.14-.37.26-.11c-.05-.13-.12-.26-.18-.38l-.25.12a3,3,0,0,0-.19-.35,2.37,2.37,0,0,0-.22-.33l.23-.16-.25-.34-.22.18-.27-.29.2-.2a2.76,2.76,0,0,0-.3-.29l-.19.21a1.81,1.81,0,0,0-.3-.25l.17-.23c-.12-.08-.23-.17-.35-.24l-.15.23-.34-.21-.36-.17.12-.25a3.33,3.33,0,0,0-.4-.16l-.09.26c-.12,0-.25-.09-.38-.12l.08-.27-.41-.1L127,386l-.39-.07,0-.27a3,3,0,0,0-.42,0v.28l-.39,0-.4,0v-.28l-.39,0,0,.28-.39,0,0-.28-.4,0,0,.27-.39,0,0-.28-.4,0,0,.28-.39,0-.4,0,0-.28-.4,0v.28l-.4,0,0-.28-.4,0v.28l-.4,0,0-.28-.4,0,0,.27-.39,0-.39,0v-.28l-.39,0,0,.28-.39,0v-.27l-.39,0,0,.28-.39,0v-.28l-.39,0,0,.27-.39,0-.4,0v-.28l-.39,0,0,.27-.39,0v-.28l-.39,0,0,.28-.39,0,0-.28-.4,0,0,.28-.39,0-.4,0,0-.28-.4,0v.27l-.4,0,0-.28-.4,0v.29l-.4,0,0-.27-.4,0v.28l-.4,0h-.4v-.28h-.39v.28h-.4v-.28h-.4v.28H110v-.28h-.4v.28h-.71V383Zm-22.05,6.44-.26-.09a2.64,2.64,0,0,0-.12.4l.27.07c0,.13-.08.26-.1.39l-.27-.05-.06.41.28,0,0,.24-4.06,1.78.24-.65v-2.68h4.16A.94.94,0,0,1,71.49,389.43Z" transform="translate(140.19 -295.78)"/><path d="M47.06,362.28,45.72,362l-1.85,1.38a6.87,6.87,0,0,1-5.77.11c-3-1.41-.66-3.72-3.65-4.59s-3.74,1.33-2.94,4.29a9.51,9.51,0,0,1,.63,2.92,3.26,3.26,0,0,0,2.63,3.37C36.84,370.09,42.35,369.44,47.06,362.28Z" transform="translate(140.19 -295.78)"/><path d="M33.56,354.14a1.5,1.5,0,0,1,0,2.11l-5.06,5.25a1.49,1.49,0,0,1-2.1,0h0a1.47,1.47,0,0,1,0-2.09l5.07-5.25a1.49,1.49,0,0,1,2.1-.05Z" transform="translate(140.19 -295.78)"/><path d="M31.3,353.08a1,1,0,0,1-.77,1.1l-4.6.85a1,1,0,0,1-1.1-.76h0a.94.94,0,0,1,.76-1.11l4.6-.84a1,1,0,0,1,1.11.76Z" transform="translate(140.19 -295.78)"/><path d="M33.72,352.62a.94.94,0,0,1-.76,1.11l-4.6.84a.93.93,0,0,1-1.1-.76h0A1,1,0,0,1,28,352.7l4.6-.84a.94.94,0,0,1,1.1.76Z" transform="translate(140.19 -295.78)"/><path d="M27.27,357.93a.66.66,0,0,1-.72-.59l-.34-3.23a.65.65,0,0,1,.59-.72h0a.65.65,0,0,1,.72.58l.34,3.23a.66.66,0,0,1-.59.73Z" transform="translate(140.19 -295.78)"/><path d="M27.46,359.63a.66.66,0,0,1-.72-.58l-.34-3.24a.66.66,0,0,1,.58-.72h0a.67.67,0,0,1,.73.59l.34,3.23a.65.65,0,0,1-.59.72Z" transform="translate(140.19 -295.78)"/><path d="M34.11,357.23a1.39,1.39,0,0,1,1.39,1.4,1.4,1.4,0,1,1-1.39-1.4Z" transform="translate(140.19 -295.78)"/><path d="M30.87,361a1.38,1.38,0,0,1,1.39,1.4,1.4,1.4,0,1,1-1.39-1.4Z" transform="translate(140.19 -295.78)"/><polygon class="cls-1" points="171.21 63.57 171.93 63.48 171.86 62.96 171.21 63.57"/><path d="M31.35,356.79l-4.22,4v.76l3.47-.47-.78.89L31.05,363l2.29-2.62v-1.5l-.29-2.11ZM31,359.35l.64-.61.07.51Z" transform="translate(140.19 -295.78)"/><path d="M40.36,326.34a.66.66,0,0,1,.34.87l-6.41,14.67a.66.66,0,0,1-.87.34l-.84-.36a.65.65,0,0,1-.34-.87l6.41-14.67a.65.65,0,0,1,.87-.35Z" transform="translate(140.19 -295.78)"/><rect x="21.15" y="342.29" width="23.09" height="1.06" transform="translate(-154.36 -60.23) rotate(-66.4)"/><path d="M50.34,332.93,69.2,350.09s7,5.22,7.09,27.09l3.65.71,1.15-20.23s1.22-6-7.9-13.65-21.54-16.9-21.54-16.9-4.77-3.22-5.47-1.54S46.11,329.08,50.34,332.93Z" transform="translate(140.19 -295.78)"/><path d="M31.3,358.6l16.55-29.9s2.58-3.2,1.94-8.92a3.23,3.23,0,0,1,.9-2.91c1.31-1.27.75-4.28-2.6-1.18s-3.54,2.94-4.49,6.19c-.78,2.64-10.22,23.72-13.82,31.71C28.92,355.49,31.3,358.6,31.3,358.6Z" transform="translate(140.19 -295.78)"/><path d="M59.42,330a.82.82,0,0,1,1.14,0l13.17,14.25a.81.81,0,0,1,0,1.14l-.81.75a.81.81,0,0,1-1.14-.05L58.57,331.88a.81.81,0,0,1,0-1.14Z" transform="translate(140.19 -295.78)"/><polygon points="188.65 22.23 216.5 52.36 215.56 53.23 187.7 23.1 188.65 22.23"/><path d="M72.31,361.43a.67.67,0,0,1,.67.66l0,16.16a.67.67,0,0,1-.67.67h-.92a.67.67,0,0,1-.67-.67l0-16.16a.66.66,0,0,1,.66-.67Z" transform="translate(140.19 -295.78)"/><polygon points="212.59 54.23 212.65 77.53 211.58 77.53 211.52 54.24 212.59 54.23"/><path d="M41,326.12a1,1,0,1,1-1.06-.89A1,1,0,0,1,41,326.12Z" transform="translate(140.19 -295.78)"/><path d="M39.88,325.25a7,7,0,0,0,3.79-3.11c1.49-2.49-1,5.45-1,5.45l-1.28,1A1.94,1.94,0,0,0,39.77,327Z" transform="translate(140.19 -295.78)"/><path d="M72.14,380.88v.17a1.47,1.47,0,0,0,1.47,1.47h9.67v-7.34H73.61a1.46,1.46,0,0,0-1.47,1.46v.6a1.82,1.82,0,0,0,0,3.64Z" transform="translate(140.19 -295.78)"/><path d="M78.56,347.72a7.63,7.63,0,0,0-4.81-3.15l-.06.46a7.32,7.32,0,0,1,4.49,3c1.95,2.73,2.37,6.83,1.27,12.2l.46.09C81,354.8,80.59,350.56,78.56,347.72Z" transform="translate(140.19 -295.78)"/><polygon points="18.04 60.53 21.34 64.28 36.64 58.64 38.97 61.54 52.68 55.98 57.34 62.5 60.72 59.39 64.24 62.94 87.82 66.15 89.78 68.76 95.33 66.97 100.01 74.01 108.05 72.51 110.14 76.18 111.4 76.14 113.53 78.02 118.13 77.89 119.7 79.5 131.46 78.28 133.22 81.01 141.23 81.29 147.24 79.03 155.14 83.7 156.44 81.58 176.7 92.66 179.07 96.94 190.66 99.46 191.58 101.13 0 101.13 0 66.47 18.04 60.53"/><path d="M889.62,361l-17.86,9-5.52-2.06-4.75,2.16-6.24-4.75-13.91,11.29-7.84.75-4.21,5.72L822,380.3l-9.69,14.87-6.35.3-5.65,5.65,90.19-4.31C890.08,384.87,889.69,372.94,889.62,361Z" transform="translate(140.19 -295.78)"/><polygon points="460.07 79 462.15 81.66 471.81 77.66 473.28 79.72 481.93 75.76 484.87 80.39 487 78.19 489.22 80.71 504.1 82.99 505.33 84.85 508.83 83.58 511.79 88.58 516.87 87.52 518.18 90.13 518.98 90.1 520.32 91.44 523.23 91.34 524.22 92.49 531.63 91.62 532.74 93.56 537.8 93.76 541.59 92.15 546.58 95.48 547.4 93.97 560.18 101.85 561.67 104.89 568.99 106.68 569.57 107.87 448.69 107.87 448.69 83.22 460.07 79"/><path d="M311.28,375l-15.35,8.46-4.75-1.95-4.07,2-5.36-4.47-12,10.63-6.74.7-3.62,5.4-6.23-2.63-8.32,14-5.46.29-4.85,5.32,77.5-4.06C311.68,397.48,311.34,386.23,311.28,375Z" transform="translate(140.19 -295.78)"/><g class="cls-3"><polygon points="795.99 88.58 799.87 89.86 802.93 89.22 810.72 53.49 811.34 52.8 811.84 46.38 811.25 45.52 810.15 45.52 802.32 60.75 797.78 62.11 796.67 63.8 800.75 69.79 800.68 82.68 795.99 84.17 795.99 88.58"/><polygon points="806.73 40.33 809.94 47.52 830.26 64.34 831.52 63.73 847.8 79.93 848.94 80.45 850.61 80.27 851.13 79.17 849.85 77.23 834.67 61.64 833.21 58.67 833.08 55.95 827.62 53.92 825.85 52.01 824.11 51.63 810.27 37.51 807.51 37.87 806.73 40.33"/><polygon points="834.78 79.85 834.99 80.95 836.34 81.88 839.88 87.83 844.64 89.46 849.99 87.98 852.73 83.59 852.25 78.63 849.47 78.87 848.47 81.95 841.74 82.7 834.78 79.85"/><polygon points="849.54 85.82 852.26 85.82 853.3 80.97 850.95 81.7 849.54 85.82"/><polygon points="851.4 84.15 856.64 80.75 856.48 78.67 851.22 82.03 850.87 84.27 851.4 84.15"/><polygon points="850.25 79.08 855.15 80.24 856.51 78.57 849.09 76.86 850.25 79.08"/><path d="M691.74,353.62a.83.83,0,0,1-.16-1.13l.93-.93a.82.82,0,0,1,1.13.17L704.9,363a.82.82,0,0,1,.16,1.13l-.93.93a.83.83,0,0,1-1.13-.17Z" transform="translate(140.19 -295.78)"/><rect x="708.8" y="362.02" width="1.24" height="14.78" transform="translate(86.89 314.45) rotate(-45.03)"/><path d="M659.81,360.23a.76.76,0,0,1-.92.55l-1.24-.45a.76.76,0,0,1-.35-1l4.94-13.57a.77.77,0,0,1,.92-.55l1.24.45a.77.77,0,0,1,.35,1Z" transform="translate(140.19 -295.78)"/><polygon points="803.14 53.83 801.98 53.41 807.04 39.52 808.2 39.95 803.14 53.83"/><rect x="797.43" y="63.94" width="2.54" height="21.88"/><rect x="793.94" y="73.05" width="3.78" height="22.22"/><rect x="794.43" y="85.64" width="2.8" height="16.44"/><rect x="793.13" y="100.17" width="5.4" height="1.13"/><rect x="790.04" y="80.45" width="6.65" height="12.4"/><path d="M691.6,346.89c-.27-2.3-3.51-4.63-6.31-4.52-2.16.09-3.45,1.61-3.55,4.19l.38,0c.08-2.4,1.22-3.76,3.19-3.83,2.62-.1,5.67,2.05,5.92,4.18.44,3.84,1.73,5.5,1.78,5.57l.3-.23S692,350.63,691.6,346.89Z" transform="translate(140.19 -295.78)"/><path d="M685.59,343.52a2.69,2.69,0,0,0-2,.44,3.61,3.61,0,0,0-1.36,2.42l.3.06a3,3,0,0,1,1.71-2.47,2.4,2.4,0,0,1,1.28-.12c4.85.89,6.22,8,6.24,8.1l.3-.07C692.05,351.81,690.64,344.45,685.59,343.52Z" transform="translate(140.19 -295.78)"/><polygon points="704.47 93.03 707.03 94.24 725.25 80.74 731.95 72.87 746.58 68.17 749.88 65.86 748.2 64.13 731.05 67.81 704.98 91.63 704.47 93.03"/><polygon points="731.07 76.46 732.53 65.05 730.78 65.13 728.25 70.75 729.39 77.19 731.07 76.46"/><polygon points="715.6 84.48 717.69 75.77 716.18 75.87 713.81 85.17 715.6 84.48"/><polygon points="709.1 87.22 717.05 77.75 717.16 76.16 716.19 76.82 708 85.97 709.1 87.22"/><polygon points="716.77 76.13 730.96 65.45 731.33 66.96 716.38 78.55 716.77 76.13"/><polygon points="742.24 78.05 742.36 76.19 725.92 79.07 723.67 81.38 742.24 78.05"/><polygon points="730.16 76.6 744.21 71.44 744.31 69.82 730.21 74.92 730.16 76.6"/><polygon points="704.48 96.65 705.99 95.01 700.52 76.36 703.6 75.46 706.6 76.2 711.88 83.26 713.22 89.3 711.66 94.22 707.63 96.94 704.48 96.65"/><polygon points="709.26 79.87 719.5 79.19 715.83 81.69 707.91 82.29 709.26 79.87"/><polygon points="693.34 94.22 700.48 96.36 705.8 95.97 707.96 92.46 702.18 78.8 698.22 84.82 696.36 90.4 694.92 90.95 693.34 94.22"/><polygon points="779.43 46.38 778.24 46.38 778.57 44.15 779.43 44.15 779.43 46.38"/><polygon points="779.39 46.38 780.58 46.38 780.25 44.15 779.39 44.15 779.39 46.38"/><path class="cls-4" d="M623.72,371.24h-5.84s-1.17-21.47,4.39-26.46H637l2,15A18.32,18.32,0,0,0,623.72,371.24Z" transform="translate(140.19 -295.78)"/><path class="cls-4" d="M638.86,344.65h4.88a50.45,50.45,0,0,1,3.36,14.86,25.67,25.67,0,0,0-6.35-.2Z" transform="translate(140.19 -295.78)"/><path d="M635.73,341.9a.58.58,0,0,1-.58.57h-8.49a.58.58,0,0,1-.58-.57h0a.58.58,0,0,1,.58-.58h8.49a.58.58,0,0,1,.58.58Z" transform="translate(140.19 -295.78)"/><path d="M611.93,363l2.65-.23a56.16,56.16,0,0,1,2.14-12.28c1.9-6.37.16-7.59-2.73-7.71,0,0-1.58,1.13-.11,3.83,0,0,1.07-.48.87.87S612,356.05,611.93,363Z" transform="translate(140.19 -295.78)"/><rect x="756.53" y="53.24" width="1.78" height="1.64"/><path d="M658.93,379.78l.14-1.88s0-.06,0-.09h.13a.7.7,0,0,0,.62-.56.7.7,0,0,1,.64.7V378l-.14,1.87a.65.65,0,0,1-.05.21h0a.71.71,0,0,0-.83.42.75.75,0,0,1-.52-.68Z" transform="translate(140.19 -295.78)"/><path d="M659.58,380.53a.69.69,0,0,0,.71-.44.7.7,0,0,1,.52.68,1,1,0,0,1,0,.17l-.46,1.83a.72.72,0,0,1-.09.2h0a.71.71,0,0,0-.88.27.75.75,0,0,1-.41-.64,1.11,1.11,0,0,1,0-.17l.46-1.82,0-.09Z" transform="translate(140.19 -295.78)"/><path d="M659.84,377.25h0a.7.7,0,0,0-.74.56.7.7,0,0,1-.64-.64l-.18-1.87a.28.28,0,0,1,0-.09l.13,0a.69.69,0,0,0,.52-.65H659a.71.71,0,0,1,.71.63l.18,1.88A.74.74,0,0,1,659.84,377.25Z" transform="translate(140.19 -295.78)"/><path d="M659.82,385.61a.78.78,0,0,1-.11.18h0a.7.7,0,0,0-.92.11.81.81,0,0,1-.31-.58.72.72,0,0,1,.07-.28l.76-1.72.05-.09.12,0a.72.72,0,0,0,.77-.31h0a.69.69,0,0,1,.41.63.72.72,0,0,1-.06.29Z" transform="translate(140.19 -295.78)"/><path d="M658.78,385.9a.7.7,0,0,1,.92-.11h0a.7.7,0,0,1-.82.18A.41.41,0,0,1,658.78,385.9Z" transform="translate(140.19 -295.78)"/><path d="M659.84,377.25a.7.7,0,0,1-.62.56h-.13a.7.7,0,0,1,.74-.56Z" transform="translate(140.19 -295.78)"/><path d="M660.29,380.09a.69.69,0,0,1-.71.44l-.13,0a.71.71,0,0,1,.83-.42Z" transform="translate(140.19 -295.78)"/><path d="M660.24,383a.72.72,0,0,1-.77.31l-.12,0a.71.71,0,0,1,.88-.27Z" transform="translate(140.19 -295.78)"/><path d="M658.21,375.21a.69.69,0,0,1-.68-.52l-.17-.59a.72.72,0,0,0,.32.08.67.67,0,0,0,.24,0,.71.71,0,0,0,.42-.9l-.43-1.22a.71.71,0,0,1,.47.48l.5,1.82a.76.76,0,0,1,0,.21h0a.71.71,0,0,0-.64.68Z" transform="translate(140.19 -295.78)"/><path d="M658.39,375.18l-.13,0a.71.71,0,0,1,.64-.68h0A.69.69,0,0,1,658.39,375.18Z" transform="translate(140.19 -295.78)"/><path d="M658.69,388.48a.69.69,0,0,1-.83,0,.39.39,0,0,1-.1-.08.69.69,0,0,1,.92.05Z" transform="translate(140.19 -295.78)"/><path d="M657.91,372Z" transform="translate(140.19 -295.78)"/><path d="M658.68,388.48a.69.69,0,0,0-.92-.05.86.86,0,0,1-.21-.5.69.69,0,0,1,.12-.39l1.05-1.56.06-.08a.41.41,0,0,0,.11.07.7.7,0,0,0,.82-.18.7.7,0,0,1,.18,1l-1,1.56a.46.46,0,0,1-.15.16Z" transform="translate(140.19 -295.78)"/><path d="M658.34,373.24a.71.71,0,0,1-.42.9.67.67,0,0,1-.24,0,.72.72,0,0,1-.32-.08h0l-.34-1.22a.71.71,0,0,1,.5-.87l.19,0a.69.69,0,0,1,.2,0h0Z" transform="translate(140.19 -295.78)"/><path d="M657,373.71l-.64-1.77a.29.29,0,0,1,0-.09h0l.12-.06a.71.71,0,0,0,.34-.76.75.75,0,0,1,.23,0,.7.7,0,0,1,.66.46l.2.56a.69.69,0,0,0-.2,0l-.19,0a.71.71,0,0,0-.5.87l.34,1.22A.69.69,0,0,1,657,373.71Z" transform="translate(140.19 -295.78)"/><path d="M656.19,390.34a.7.7,0,0,1,.19-.49l1.31-1.36.07-.06a.39.39,0,0,0,.1.08.69.69,0,0,0,.83,0,.72.72,0,0,1,.21.5.71.71,0,0,1-.2.49l-1.3,1.36a1.09,1.09,0,0,1-.17.13h0a.69.69,0,0,0-.9-.2h0A1.11,1.11,0,0,1,656.19,390.34Z" transform="translate(140.19 -295.78)"/><path d="M656.82,371a.71.71,0,0,1-.34.76l-.12.06a.71.71,0,0,1,.45-.81Z" transform="translate(140.19 -295.78)"/><path d="M656.32,390.75a.69.69,0,0,1,.9.2h0a.71.71,0,0,1-.82-.11Z" transform="translate(140.19 -295.78)"/><path d="M654.66,369.73a.7.7,0,0,0,.21-.81.72.72,0,0,1,1,.27l.93,1.64a1,1,0,0,1,.07.2h0a.71.71,0,0,0-.45.81h0l-.23,0a.7.7,0,0,1-.61-.35l-.93-1.64,0-.09Z" transform="translate(140.19 -295.78)"/><path d="M654.55,369.8a.7.7,0,0,1,.31-.87h0a.7.7,0,0,1-.21.81Z" transform="translate(140.19 -295.78)"/><path d="M655.37,393.14a.71.71,0,0,1-.8-.24l-.07-.12a.71.71,0,0,1,.86.36Z" transform="translate(140.19 -295.78)"/><path d="M655.36,393.14a.71.71,0,0,0-.86-.36l-.06-.3a.69.69,0,0,1,.28-.57l1.52-1.11.08-.05h0l.09.1a.71.71,0,0,0,.82.11.73.73,0,0,1,.13.4.7.7,0,0,1-.29.57l-1.52,1.12a.61.61,0,0,1-.18.09Z" transform="translate(140.19 -295.78)"/><path d="M653.36,394.92a.83.83,0,0,1-.21.06h0a.71.71,0,0,0-.78-.5l0-.19a.71.71,0,0,1,.39-.63l1.69-.83.08,0,.07.12a.71.71,0,0,0,.8.24.85.85,0,0,1,.06.31.7.7,0,0,1-.39.63Z" transform="translate(140.19 -295.78)"/><path d="M654.22,369.89a.71.71,0,0,1-.55-.26l-1.19-1.45-.06-.08.1-.09a.71.71,0,0,0,.06-.83h0A.73.73,0,0,1,653,367a.67.67,0,0,1,.54.26l1.2,1.45a.87.87,0,0,1,.11.18h0a.7.7,0,0,0-.31.87Z" transform="translate(140.19 -295.78)"/><path d="M653.15,395h0a.7.7,0,0,1-.74-.38l0-.13A.71.71,0,0,1,653.15,395Z" transform="translate(140.19 -295.78)"/><path d="M652.52,368l-.1.09a.71.71,0,0,1,.15-.91h0A.71.71,0,0,1,652.52,368Z" transform="translate(140.19 -295.78)"/><path d="M652.58,367.18h0a.71.71,0,0,0-.15.91.92.92,0,0,1-.44.15.69.69,0,0,1-.45-.16l-1.43-1.23-.07-.07.08-.11a.71.71,0,0,0-.08-.83.71.71,0,0,1,.53-.23.75.75,0,0,1,.46.17l1.43,1.23a.65.65,0,0,1,.13.16Z" transform="translate(140.19 -295.78)"/><path d="M650.11,366.68l-.08.11a.71.71,0,0,1,0-.93h0A.71.71,0,0,1,650.11,366.68Z" transform="translate(140.19 -295.78)"/><path d="M650.66,396.41a.7.7,0,0,1-.66-.5l0-.13a.7.7,0,0,1,.69.62Z" transform="translate(140.19 -295.78)"/><path d="M653.18,395.17a.71.71,0,0,1-.5.67l-1.81.54-.21,0h0a.7.7,0,0,0-.69-.62v-.07a.7.7,0,0,1,.5-.68l1.81-.54.09,0,0,.13a.7.7,0,0,0,.74.38A.61.61,0,0,1,653.18,395.17Z" transform="translate(140.19 -295.78)"/><path d="M650,366.79a.7.7,0,0,1-.89.14l-1.61-1-.08,0,.06-.12a.71.71,0,0,0-.22-.8.72.72,0,0,1,.6-.34.78.78,0,0,1,.36.1l1.62,1a.7.7,0,0,1,.16.13h0A.71.71,0,0,0,650,366.79Z" transform="translate(140.19 -295.78)"/><path d="M647.39,396.78s0-.06,0-.08a.07.07,0,0,1,0-.05.71.71,0,0,1,.57.73h0A.71.71,0,0,1,647.39,396.78Z" transform="translate(140.19 -295.78)"/><path d="M650.66,396.48a.7.7,0,0,1-.62.7l-1.87.22H648a.71.71,0,0,0-.57-.73A.7.7,0,0,1,648,396l1.87-.22H650l0,.13a.7.7,0,0,0,.66.5Z" transform="translate(140.19 -295.78)"/><path d="M647.45,365.91a.7.7,0,0,1-.16-.91h0a.71.71,0,0,1,.22.8l-.06.12Z" transform="translate(140.19 -295.78)"/><path d="M645.13,397.88a.71.71,0,0,0-.44-.82.74.74,0,0,1,.69-.53h0l1.88.11h.1a.07.07,0,0,0,0,.05s0,.05,0,.08a.71.71,0,0,0,.56.61.7.7,0,0,1-.7.65h0l-1.88-.11a.78.78,0,0,1-.21,0Z" transform="translate(140.19 -295.78)"/><path d="M645.12,397.89a.7.7,0,0,1-.45-.7l0-.13a.71.71,0,0,1,.44.82Z" transform="translate(140.19 -295.78)"/><path d="M642,397a.77.77,0,0,1,.64-.42.5.5,0,0,1,.17,0l1.83.42.09,0,0,.13a.7.7,0,0,0,.45.7.7.7,0,0,1-.68.53.44.44,0,0,1-.16,0l-1.83-.42-.2-.08h0A.7.7,0,0,0,642,397Z" transform="translate(140.19 -295.78)"/><path d="M644.44,364.6a.71.71,0,0,1,.65-.44.8.8,0,0,1,.26,0l1.75.67a.59.59,0,0,1,.19.11h0a.7.7,0,0,0,.16.91.69.69,0,0,1-.6.33.56.56,0,0,1-.25-.05l-1.76-.67-.08,0a.53.53,0,0,0,0-.12A.71.71,0,0,0,644.44,364.6Z" transform="translate(140.19 -295.78)"/><path d="M644.76,365.48a.69.69,0,0,1-.32-.87h0a.71.71,0,0,1,.35.76A.53.53,0,0,1,644.76,365.48Z" transform="translate(140.19 -295.78)"/><path d="M642.05,365.4a.71.71,0,0,0-.48-.68.7.7,0,0,1,.68-.57l.14,0,1.85.36.2.07h0a.69.69,0,0,0,.32.87.78.78,0,0,1-.66.45l-.13,0-1.85-.36a.32.32,0,0,1-.09,0Z" transform="translate(140.19 -295.78)"/><path d="M642.25,397.89h0a.71.71,0,0,1-.33-.77s0-.08,0-.12A.7.7,0,0,1,642.25,397.89Z" transform="translate(140.19 -295.78)"/><path d="M642,365.52a.68.68,0,0,1-.46-.79h0a.71.71,0,0,1,.48.68Z" transform="translate(140.19 -295.78)"/><path d="M639.29,396.49a.79.79,0,0,1,.58-.32.71.71,0,0,1,.28.06l1.73.73.08.05s0,.08,0,.12a.71.71,0,0,0,.33.77.7.7,0,0,1-.64.41.66.66,0,0,1-.28-.05l-1.73-.74a.52.52,0,0,1-.19-.11h0A.7.7,0,0,0,639.29,396.49Z" transform="translate(140.19 -295.78)"/><path d="M639.29,396.49a.7.7,0,0,1,.13.91h0a.72.72,0,0,1-.19-.81Z" transform="translate(140.19 -295.78)"/><path d="M639.34,365.9a.68.68,0,0,0-.58-.58.7.7,0,0,1,.7-.68h0l1.89,0a.52.52,0,0,1,.21,0h0a.68.68,0,0,0,.46.79.73.73,0,0,1-.69.56h0l-1.88,0h-.1v0A.45.45,0,0,0,639.34,365.9Z" transform="translate(140.19 -295.78)"/><path d="M638.76,365.32a.68.68,0,0,1,.58.58.45.45,0,0,1,0,.11v0a.71.71,0,0,1-.59-.71Z" transform="translate(140.19 -295.78)"/><path d="M639.29,396.49l-.07.11a.72.72,0,0,0,.19.81.69.69,0,0,1-.58.31.67.67,0,0,1-.38-.11l-1.59-1a.54.54,0,0,1-.15-.15h0a.7.7,0,0,0,0-.93.8.8,0,0,1,.51-.22.76.76,0,0,1,.38.11l1.58,1Z" transform="translate(140.19 -295.78)"/><path d="M636.71,396.44a.7.7,0,0,1-.05-.83l.08-.1a.7.7,0,0,1,0,.93Z" transform="translate(140.19 -295.78)"/><path d="M636.2,396.66a.7.7,0,0,1-.48-.19l-1.38-1.28a.7.7,0,0,1-.14-.16h0a.7.7,0,0,0,.19-.91,1,1,0,0,1,.41-.13.7.7,0,0,1,.48.18l1.39,1.28.06.07-.08.1a.7.7,0,0,0,.05.83A.73.73,0,0,1,636.2,396.66Z" transform="translate(140.19 -295.78)"/><path d="M636.8,367a.7.7,0,0,1-.71-.6h0a.71.71,0,0,1,.68.48A.61.61,0,0,1,636.8,367Z" transform="translate(140.19 -295.78)"/><path d="M639.35,366a.7.7,0,0,1-.6.67l-1.86.28h-.09a.61.61,0,0,0,0-.13.71.71,0,0,0-.68-.48v-.1a.7.7,0,0,1,.6-.69l1.86-.29a.79.79,0,0,1,.22,0h0A.71.71,0,0,0,639.35,366Z" transform="translate(140.19 -295.78)"/><path d="M634.4,368.26a.7.7,0,0,0-.75-.35.72.72,0,0,1,.44-.88l1.79-.6a.52.52,0,0,1,.21,0h0a.7.7,0,0,0,.71.6.28.28,0,0,1,0,.09.71.71,0,0,1-.48.67l-1.79.6-.09,0Z" transform="translate(140.19 -295.78)"/><path d="M634.2,395a.73.73,0,0,1,.1-.83l.1-.09a.7.7,0,0,1-.19.91Z" transform="translate(140.19 -295.78)"/><path d="M634.45,368.39a.71.71,0,0,1-.8-.47h0a.7.7,0,0,1,.75.35Z" transform="translate(140.19 -295.78)"/><path d="M634.49,368.6a.72.72,0,0,1-.37.62l-1.66.9-.08,0-.07-.11a.73.73,0,0,0-.81-.23.7.7,0,0,1,.29-.94l1.66-.9a.68.68,0,0,1,.2-.07h0a.71.71,0,0,0,.8.47A.78.78,0,0,1,634.49,368.6Z" transform="translate(140.19 -295.78)"/><path d="M632,393.2a.7.7,0,0,0,.34-.86l.31-.08a.69.69,0,0,1,.56.28l1.14,1.49.06.08-.1.09a.73.73,0,0,0-.1.83.78.78,0,0,1-.41.14.7.7,0,0,1-.56-.28l-1.15-1.5a1.14,1.14,0,0,1-.1-.19Z" transform="translate(140.19 -295.78)"/><path d="M632.33,392.34a.7.7,0,0,1-.34.86h0a.72.72,0,0,1,.24-.8A.39.39,0,0,1,632.33,392.34Z" transform="translate(140.19 -295.78)"/><path d="M632.31,370.05l.07.11a.71.71,0,0,1-.87-.32v0A.73.73,0,0,1,632.31,370.05Z" transform="translate(140.19 -295.78)"/><path d="M630.17,391.23a.83.83,0,0,1-.06-.21h0a.7.7,0,0,0,.48-.79.64.64,0,0,1,.2,0,.7.7,0,0,1,.62.38l.87,1.67a.36.36,0,0,1,0,.09.39.39,0,0,0-.11.06.72.72,0,0,0-.24.8.68.68,0,0,1-.31.08.71.71,0,0,1-.63-.38Z" transform="translate(140.19 -295.78)"/><path d="M630.11,391a.69.69,0,0,1,.36-.74l.13,0a.7.7,0,0,1-.48.79Z" transform="translate(140.19 -295.78)"/><path d="M630.64,372.25a.71.71,0,0,1-.92-.16h0a.71.71,0,0,1,.83.08Z" transform="translate(140.19 -295.78)"/><path d="M630.71,372.2l-.07.05-.09-.09a.71.71,0,0,0-.83-.08.69.69,0,0,1,.12-1l1.48-1.17a.87.87,0,0,1,.18-.11v0a.71.71,0,0,0,.87.32.72.72,0,0,1,.08.32.69.69,0,0,1-.27.55Z" transform="translate(140.19 -295.78)"/><path d="M630.47,390.28a.69.69,0,0,0-.36.74.68.68,0,0,1-.21,0,.71.71,0,0,1-.67-.49l-.56-1.79a.57.57,0,0,1,0-.22h0a.7.7,0,0,0,.61-.69h.09a.71.71,0,0,1,.67.49l.57,1.8a.29.29,0,0,0,0,.09Z" transform="translate(140.19 -295.78)"/><path d="M628.63,388.55a.72.72,0,0,1,.49-.67l.13,0a.7.7,0,0,1-.61.69Z" transform="translate(140.19 -295.78)"/><path d="M628.35,374.61a.71.71,0,0,1,.83-.07l.1.08a.69.69,0,0,1-.92,0Z" transform="translate(140.19 -295.78)"/><path d="M628.24,377.13a.7.7,0,0,0-.81.2.7.7,0,0,1-.32-.59.69.69,0,0,1,.1-.37l1-1.6a.54.54,0,0,1,.14-.16h0a.69.69,0,0,0,.92,0,.88.88,0,0,1,.23.52.62.62,0,0,1-.11.37l-1,1.6a.42.42,0,0,1-.06.08A.24.24,0,0,0,628.24,377.13Z" transform="translate(140.19 -295.78)"/><path d="M629.18,374.54a.71.71,0,0,0-.83.07.71.71,0,0,1-.23-.52.69.69,0,0,1,.18-.47l1.25-1.4a.75.75,0,0,1,.17-.14h0a.71.71,0,0,0,.92.16,1,1,0,0,1,.14.43.69.69,0,0,1-.18.47l-1.25,1.41-.07.06Z" transform="translate(140.19 -295.78)"/><path d="M629.12,387.88a.72.72,0,0,0-.49.67h-.08a.71.71,0,0,1-.7-.61l-.25-1.87a.74.74,0,0,1,0-.21h0a.71.71,0,0,0,.72-.58.69.69,0,0,1,.66.61l.25,1.86v.1Z" transform="translate(140.19 -295.78)"/><path d="M628.63,378l-.71,1.75a.2.2,0,0,1,0,.08l-.12,0a.71.71,0,0,0-.76.34.71.71,0,0,1-.44-.65.65.65,0,0,1,.06-.26l.7-1.75a1.74,1.74,0,0,1,.11-.18h0a.72.72,0,0,0,.91-.15.77.77,0,0,1,.33.59A.75.75,0,0,1,628.63,378Z" transform="translate(140.19 -295.78)"/><path d="M639.87,396.17a.79.79,0,0,0-.58.32l-.08-.06-1.58-1a.76.76,0,0,0-.38-.11.8.8,0,0,0-.51.22l-.06-.07-1.39-1.28a.7.7,0,0,0-.48-.18,1,1,0,0,0-.41.13l-.06-.08-1.14-1.49a.69.69,0,0,0-.56-.28l-.31.08a.36.36,0,0,0,0-.09l-.87-1.67a.7.7,0,0,0-.62-.38.64.64,0,0,0-.2,0,.29.29,0,0,1,0-.09l-.57-1.8a.71.71,0,0,0-.67-.49h-.09v-.1L629,385.9a.69.69,0,0,0-.66-.61.38.38,0,0,1,0-.1l.07-1.88v0a.7.7,0,0,0-.55-.68l0-.09.39-1.84a.39.39,0,0,0,0-.15.77.77,0,0,0-.43-.65.2.2,0,0,0,0-.08l.71-1.75a.75.75,0,0,0,0-.26.77.77,0,0,0-.33-.59h0a.42.42,0,0,0,.06-.08l1-1.6a.62.62,0,0,0,.11-.37.88.88,0,0,0-.23-.52l.07-.06,1.25-1.41a.69.69,0,0,0,.18-.47,1,1,0,0,0-.14-.43l.07-.05,1.48-1.17a.69.69,0,0,0,.27-.55.72.72,0,0,0-.08-.32l.08,0,1.66-.9a.72.72,0,0,0,.37-.62.78.78,0,0,0,0-.21l.09,0,1.79-.6a.71.71,0,0,0,.48-.67.28.28,0,0,0,0-.09h.09l1.86-.28a.7.7,0,0,0,.6-.67h.1l1.88,0h0a.73.73,0,0,0,.69-.56.32.32,0,0,0,.09,0l1.85.36.13,0a.78.78,0,0,0,.66-.45l.08,0,1.76.67a.56.56,0,0,0,.25.05.69.69,0,0,0,.6-.33h0l.08,0,1.61,1a.7.7,0,0,0,.89-.14l.07.07,1.43,1.23a.69.69,0,0,0,.45.16.92.92,0,0,0,.44-.15l.06.08,1.19,1.45a.71.71,0,0,0,.55.26l.33-.09,0,.09.93,1.64a.7.7,0,0,0,.61.35l.23,0a.29.29,0,0,0,0,.09l.64,1.77a.69.69,0,0,0,.34.39h0l.17.59a.69.69,0,0,0,.68.52h0a.28.28,0,0,0,0,.09l.18,1.87a.7.7,0,0,0,.64.64s0,.06,0,.09l-.14,1.88v.05a.75.75,0,0,0,.52.68l0,.09-.46,1.82a1.11,1.11,0,0,0,0,.17.75.75,0,0,0,.41.64l-.05.09-.76,1.72a.72.72,0,0,0-.07.28.81.81,0,0,0,.31.58l-.06.08-1.05,1.56a.69.69,0,0,0-.12.39.86.86,0,0,0,.21.5l-.07.06-1.31,1.36a.7.7,0,0,0-.19.49,1.11,1.11,0,0,0,.13.41l-.08.05-1.52,1.11a.69.69,0,0,0-.28.57l.06.3-.08,0-1.69.83a.71.71,0,0,0-.39.63l0,.19-.09,0-1.81.54a.7.7,0,0,0-.5.68v.07h-.09L648,396a.7.7,0,0,0-.62.65h-.1l-1.88-.11h0a.74.74,0,0,0-.69.53l-.09,0-1.83-.42a.5.5,0,0,0-.17,0,.77.77,0,0,0-.64.42l-.08-.05-1.73-.73A.71.71,0,0,0,639.87,396.17Z" transform="translate(140.19 -295.78)"/><path d="M628.34,385.29a.71.71,0,0,1-.72.58h0a.71.71,0,0,1,.6-.58h.14Z" transform="translate(140.19 -295.78)"/><path d="M628.35,377.19a.72.72,0,0,1-.91.15h0a.7.7,0,0,1,.81-.2.24.24,0,0,1,.11.06Z" transform="translate(140.19 -295.78)"/><path d="M627.87,382.6a.69.69,0,0,1-.81.45h0a.73.73,0,0,1,.69-.46Z" transform="translate(140.19 -295.78)"/><path d="M627.88,379.87a.7.7,0,0,1-.87.31h0a.71.71,0,0,1,.76-.34Z" transform="translate(140.19 -295.78)"/><path d="M628.2,385.29a.71.71,0,0,0-.6.58.7.7,0,0,1-.66-.7v0l.07-1.88a1.43,1.43,0,0,1,0-.22h0a.69.69,0,0,0,.81-.45.7.7,0,0,1,.55.68v0l-.07,1.88a.38.38,0,0,0,0,.1h-.14Z" transform="translate(140.19 -295.78)"/><path d="M628.29,380.67l-.39,1.84,0,.09-.13,0a.73.73,0,0,0-.69.46.69.69,0,0,1-.54-.68.61.61,0,0,1,0-.14l.4-1.85a.5.5,0,0,1,.08-.2h0a.7.7,0,0,0,.87-.31.77.77,0,0,1,.43.65A.39.39,0,0,1,628.29,380.67Z" transform="translate(140.19 -295.78)"/><path d="M605.43,385.29a.45.45,0,1,1-.36-.57.73.73,0,0,1,.5.2.72.72,0,0,1,.17.29h0a.76.76,0,0,1-.18.06Z" transform="translate(140.19 -295.78)"/><path d="M604.36,382.88a.72.72,0,0,1,.26-.69.69.69,0,0,0,.62.36.65.65,0,0,0,.27-.05l.16-.1a.7.7,0,0,1,.08.2l.36,1.85a.68.68,0,0,1-.37.76.72.72,0,0,0-.17-.29.73.73,0,0,0-.5-.2.71.71,0,0,0-.32.07.25.25,0,0,0,0-.07Z" transform="translate(140.19 -295.78)"/><path d="M605.24,382.55a.69.69,0,0,1-.62-.36.6.6,0,0,1,.3-.14l.14,0a.71.71,0,0,1,.61.37l-.16.1A.65.65,0,0,1,605.24,382.55Z" transform="translate(140.19 -295.78)"/><path d="M603.86,380.39a.69.69,0,0,1,.11-.73.66.66,0,0,0,.54.25.64.64,0,0,0,.39-.12.58.58,0,0,0,.14-.13.58.58,0,0,1,.11.18l.73,1.74a.68.68,0,0,1-.21.82.71.71,0,0,0-.61-.37l-.14,0a.6.6,0,0,0-.3.14l0-.06Z" transform="translate(140.19 -295.78)"/><path d="M604.36,385.41a.72.72,0,0,1,.39-.62.71.71,0,0,0,.68.5h.13a.76.76,0,0,0,.18-.06.64.64,0,0,1,0,.2v1.89a.7.7,0,0,1-.51.67.7.7,0,0,0-.56-.62.73.73,0,0,0-.33,0v-.07h0Z" transform="translate(140.19 -295.78)"/><path d="M605.06,388a.54.54,0,1,1-.37-.65.7.7,0,0,1,.56.62A.63.63,0,0,1,605.06,388Z" transform="translate(140.19 -295.78)"/><path d="M605.23,388.19l-.38,1.85a.7.7,0,0,1-.64.55v-.07a.72.72,0,0,0-.42-.65.76.76,0,0,0-.33-.05s0-.05,0-.07l.39-1.85a.69.69,0,0,1,.5-.53.73.73,0,0,0,.7.64.63.63,0,0,0,.19,0v.07A.59.59,0,0,1,605.23,388.19Z" transform="translate(140.19 -295.78)"/><path d="M604,379.66a.73.73,0,0,1,.54-.25.69.69,0,0,1,.53.25.58.58,0,0,1-.14.13.64.64,0,0,1-.39.12A.66.66,0,0,1,604,379.66Z" transform="translate(140.19 -295.78)"/><path d="M604,390.58a.7.7,0,0,1-.55-.69v-.07a.76.76,0,0,1,.33.05.72.72,0,0,1,.42.65v.07A.67.67,0,0,1,604,390.58Z" transform="translate(140.19 -295.78)"/><path d="M602.86,390.24a.69.69,0,0,1,.6-.42v.07a.7.7,0,0,0,.55.69.67.67,0,0,0,.2,0,.83.83,0,0,1-.06.21l-.75,1.73a.69.69,0,0,1-.74.41h0a.76.76,0,0,0,0-.21.7.7,0,0,0-.3-.58.86.86,0,0,0-.3-.12.14.14,0,0,1,0-.06Z" transform="translate(140.19 -295.78)"/><path d="M603.76,377.26a.69.69,0,0,1-.5.21.71.71,0,0,1-.44-.15.86.86,0,0,1,.22-.25.72.72,0,0,1,.4-.12.71.71,0,0,1,.44.15A.61.61,0,0,1,603.76,377.26Z" transform="translate(140.19 -295.78)"/><path d="M605,379.66a.69.69,0,0,0-.53-.25.73.73,0,0,0-.54.25l-.05-.05-1.06-1.55a.73.73,0,0,1,0-.74.71.71,0,0,0,.44.15.69.69,0,0,0,.5-.21.61.61,0,0,0,.12-.16h0a1.07,1.07,0,0,1,.14.16l1.06,1.55A.69.69,0,0,1,605,379.66Z" transform="translate(140.19 -295.78)"/><path d="M602.05,392.25a.57.57,0,0,1,0-.22.86.86,0,0,1,.3.12.7.7,0,0,1,.3.58.76.76,0,0,1,0,.21.41.41,0,0,1-.18-.05A.69.69,0,0,1,602.05,392.25Z" transform="translate(140.19 -295.78)"/><path d="M600.77,394.6a.7.7,0,0,0-.19-.49.84.84,0,0,0-.28-.18l0-.06,1.08-1.54a.69.69,0,0,1,.67-.3.57.57,0,0,0,0,.22.69.69,0,0,0,.43.64.41.41,0,0,0,.18.05h0a.66.66,0,0,1-.09.19l-1.08,1.55a.72.72,0,0,1-.81.26A.72.72,0,0,0,600.77,394.6Z" transform="translate(140.19 -295.78)"/><path d="M602.14,375a.68.68,0,0,1-.59.33.61.61,0,0,1-.32-.08.68.68,0,0,1,.17-.28.72.72,0,0,1,.82-.14A.53.53,0,0,1,602.14,375Z" transform="translate(140.19 -295.78)"/><path d="M599.58,374.21a.72.72,0,0,1-.32-.66.55.55,0,0,0,.18,0,.7.7,0,0,0,.66-.45,1.05,1.05,0,0,0,0-.19.82.82,0,0,1,.19.09l1.59,1a.71.71,0,0,1,.29.8.72.72,0,0,0-.82.14.68.68,0,0,0-.17.28h0l-.06,0Z" transform="translate(140.19 -295.78)"/><path d="M601.42,376a.72.72,0,0,1-.19-.72h0a.61.61,0,0,0,.32.08.68.68,0,0,0,.59-.33.53.53,0,0,0,.08-.17.66.66,0,0,1,.17.12l1.36,1.31a.72.72,0,0,1,.13.84h0a.71.71,0,0,0-.44-.15.72.72,0,0,0-.4.12.86.86,0,0,0-.22.25s0,0-.05-.05Z" transform="translate(140.19 -295.78)"/><path d="M600.68,394.94a.56.56,0,0,1-.17-.09.68.68,0,0,1-.3-.58.72.72,0,0,1,.09-.34.84.84,0,0,1,.28.18.7.7,0,0,1,.19.49.72.72,0,0,1-.09.34Z" transform="translate(140.19 -295.78)"/><path d="M598.4,395.66a.72.72,0,0,0-.23-.23l0-.05,1.37-1.3a.74.74,0,0,1,.72-.15.72.72,0,0,0-.09.34.68.68,0,0,0,.3.58.56.56,0,0,0,.17.09.65.65,0,0,1-.13.16l-1.37,1.3a.68.68,0,0,1-.84.09.69.69,0,0,0,.17-.46A.75.75,0,0,0,598.4,395.66Z" transform="translate(140.19 -295.78)"/><path d="M600.15,372.93a1.05,1.05,0,0,1,0,.19.7.7,0,0,1-.66.45.55.55,0,0,1-.18,0,.61.61,0,0,1,.11-.31.7.7,0,0,1,.59-.33Z" transform="translate(140.19 -295.78)"/><path d="M598.19,396.38a.72.72,0,0,1-.19-.49.67.67,0,0,1,.17-.46.72.72,0,0,1,.23.23.75.75,0,0,1,.11.37.69.69,0,0,1-.17.46h0A.58.58,0,0,1,598.19,396.38Z" transform="translate(140.19 -295.78)"/><path d="M596,396.75a.64.64,0,0,0-.18-.27l.05-.05,1.6-1a.7.7,0,0,1,.74,0,.67.67,0,0,0-.17.46.72.72,0,0,0,.19.49.58.58,0,0,0,.15.11.7.7,0,0,1-.16.14l-1.6,1a.71.71,0,0,1-.85-.08A.72.72,0,0,0,596,397,.69.69,0,0,0,596,396.75Z" transform="translate(140.19 -295.78)"/><path d="M597.43,372.86a.7.7,0,0,1-.44-.59h0a.7.7,0,0,0,.69-.59.62.62,0,0,0,0-.19.52.52,0,0,1,.21,0l1.76.67a.72.72,0,0,1,.45.72l-.19,0a.7.7,0,0,0-.59.33.61.61,0,0,0-.11.31l-.07,0Z" transform="translate(140.19 -295.78)"/><path d="M597.73,371.5a.62.62,0,0,1,0,.19.7.7,0,0,1-.69.59h0a.59.59,0,0,1,0-.32.7.7,0,0,1,.66-.46Z" transform="translate(140.19 -295.78)"/><path d="M596,397a.72.72,0,0,1-.28.56.44.44,0,0,1-.12-.15.7.7,0,0,1-.11-.37.68.68,0,0,1,.28-.55.64.64,0,0,1,.18.27A.69.69,0,0,1,596,397Z" transform="translate(140.19 -295.78)"/><path d="M595.11,370.75l0-.18h.21l1.85.31a.7.7,0,0,1,.59.62h0a.7.7,0,0,0-.66.46.59.59,0,0,0,0,.32h-.07l-1.86-.31a.73.73,0,0,1-.56-.48.71.71,0,0,0,.61-.7Z" transform="translate(140.19 -295.78)"/><path d="M595.11,370.78a.71.71,0,0,1-.61.7.72.72,0,0,1,0-.33.73.73,0,0,1,.6-.58l0,.18Z" transform="translate(140.19 -295.78)"/><path d="M593,398.06a.71.71,0,0,0,.39-.63.45.45,0,0,0,0-.11.79.79,0,0,0-.12-.3l.06,0,1.77-.66a.7.7,0,0,1,.72.15.68.68,0,0,0-.28.55.7.7,0,0,0,.11.37.44.44,0,0,0,.12.15.64.64,0,0,1-.18.1l-1.77.66A.7.7,0,0,1,593,398.06Z" transform="translate(140.19 -295.78)"/><path d="M593.36,397.43a.71.71,0,0,1-.39.63h0a.8.8,0,0,1-.08-.16.59.59,0,0,1,0-.25.7.7,0,0,1,.4-.63.79.79,0,0,1,.12.3A.45.45,0,0,1,593.36,397.43Z" transform="translate(140.19 -295.78)"/><path d="M591.91,371.2a.71.71,0,0,0,.47-.66,1,1,0,0,0,0-.17,1.34,1.34,0,0,0-.07-.18.65.65,0,0,1,.21,0l1.88-.07a.7.7,0,0,1,.7.49.73.73,0,0,0-.6.58.72.72,0,0,0,0,.33h-.07l-1.88.08A.71.71,0,0,1,591.91,371.2Z" transform="translate(140.19 -295.78)"/><path d="M591.82,370.85a.7.7,0,0,1,.47-.66h0a1.34,1.34,0,0,1,.07.18,1,1,0,0,1,0,.17.71.71,0,0,1-.47.66.7.7,0,0,1-.09-.32Z" transform="translate(140.19 -295.78)"/><path d="M590.9,398.41a.68.68,0,0,1-.74-.4c.37-.19.51-.4.52-.65a.87.87,0,0,0-.06-.32l.07,0,1.86-.29a.71.71,0,0,1,.68.29.7.7,0,0,0-.4.63.59.59,0,0,0,0,.25.8.8,0,0,0,.08.16.59.59,0,0,1-.2.07Z" transform="translate(140.19 -295.78)"/><path d="M590.09,397.72a.71.71,0,0,1,.53-.68h0a.87.87,0,0,1,.06.32c0,.25-.15.46-.52.65a.64.64,0,0,1-.06-.18A.45.45,0,0,1,590.09,397.72Z" transform="translate(140.19 -295.78)"/><path d="M592.29,370.19a.7.7,0,0,0-.47.66v0a.7.7,0,0,0,.09.32l-.07,0-1.83.44a.68.68,0,0,1-.7-.22h0a.69.69,0,0,0,.34-.6.8.8,0,0,0-.06-.3.91.91,0,0,0-.11-.16.7.7,0,0,1,.2-.08l1.83-.45A.7.7,0,0,1,592.29,370.19Z" transform="translate(140.19 -295.78)"/><path d="M589.65,370.84a.69.69,0,0,1-.34.6.73.73,0,0,1-.15-.29,1,1,0,0,1,0-.17.71.71,0,0,1,.34-.6.91.91,0,0,1,.11.16A.8.8,0,0,1,589.65,370.84Z" transform="translate(140.19 -295.78)"/><path d="M587.41,397.39a.72.72,0,0,0,.65-.52,1,1,0,0,0,0-.34h.07l1.88.1a.7.7,0,0,1,.61.41.71.71,0,0,0-.53.68.45.45,0,0,0,0,.11.64.64,0,0,0,.06.18.58.58,0,0,1-.19,0h0l-1.88-.09A.7.7,0,0,1,587.41,397.39Z" transform="translate(140.19 -295.78)"/><path d="M588.06,396.87a.72.72,0,0,1-.65.52,1.1,1.1,0,0,1,0-.18.74.74,0,0,1,.67-.68A1,1,0,0,1,588.06,396.87Z" transform="translate(140.19 -295.78)"/><path d="M587.05,371.68a.75.75,0,0,0-.14-.42.86.86,0,0,0-.14-.13A.57.57,0,0,1,587,371l1.7-.81a.7.7,0,0,1,.83.18.71.71,0,0,0-.34.6,1,1,0,0,0,0,.17.73.73,0,0,0,.15.29h0l-.06,0-1.7.8a.69.69,0,0,1-.73-.08A.68.68,0,0,0,587.05,371.68Z" transform="translate(140.19 -295.78)"/><path d="M586.82,372.2a.64.64,0,0,1-.21-.25.82.82,0,0,1-.07-.3.68.68,0,0,1,.23-.52h0a.86.86,0,0,1,.14.13.75.75,0,0,1,.14.42.68.68,0,0,1-.23.52Z" transform="translate(140.19 -295.78)"/><path d="M587.39,397.21a1.1,1.1,0,0,0,0,.18h0l-.18,0-1.82-.46a.69.69,0,0,1-.53-.67h.1a.7.7,0,0,0,.63-.4.6.6,0,0,0,.07-.32l.07,0,1.83.46a.72.72,0,0,1,.51.52A.74.74,0,0,0,587.39,397.21Z" transform="translate(140.19 -295.78)"/><path d="M584.85,396.24a.43.43,0,0,1,0-.19.71.71,0,0,1,.68-.53h.1a.6.6,0,0,1-.07.32.7.7,0,0,1-.63.4Z" transform="translate(140.19 -295.78)"/><path d="M582.8,394.64a.68.68,0,0,0,.56-.27.73.73,0,0,0,.14-.31l.06,0,1.7.82a.71.71,0,0,1,.39.62h-.1a.71.71,0,0,0-.68.53.43.43,0,0,0,0,.19.83.83,0,0,1-.21-.06l-1.69-.82a.72.72,0,0,1-.39-.76A.67.67,0,0,0,582.8,394.64Z" transform="translate(140.19 -295.78)"/><path d="M584.13,372.81a.7.7,0,0,1,.14-.41.83.83,0,0,1,.15.11.69.69,0,0,1,.24.52.72.72,0,0,1-.13.42.69.69,0,0,1-.4-.64Z" transform="translate(140.19 -295.78)"/><path d="M584.27,372.4l.14-.15,1.51-1.13a.7.7,0,0,1,.85,0,.68.68,0,0,0-.23.52.82.82,0,0,0,.07.3.64.64,0,0,0,.21.25l-.06.05-1.5,1.13a.72.72,0,0,1-.73.07h0a.72.72,0,0,0,.13-.42.69.69,0,0,0-.24-.52A.83.83,0,0,0,584.27,372.4Z" transform="translate(140.19 -295.78)"/><path d="M583.23,374.91a.69.69,0,0,1-.7.21.71.71,0,0,0,.06-.28.68.68,0,0,0-.35-.61.53.53,0,0,0-.17-.08.45.45,0,0,1,.11-.17l1.25-1.41a.71.71,0,0,1,.84-.17.7.7,0,0,0-.14.41.69.69,0,0,0,.4.64h0l0,.05Z" transform="translate(140.19 -295.78)"/><path d="M583.36,394.37a.72.72,0,0,1-.8.23.64.64,0,0,1,.06-.18.71.71,0,0,1,.64-.4.67.67,0,0,1,.24,0A.73.73,0,0,1,583.36,394.37Z" transform="translate(140.19 -295.78)"/><path d="M582.53,375.12h0a.62.62,0,0,1-.29-.15.69.69,0,0,1-.24-.53.59.59,0,0,1,.07-.29.53.53,0,0,1,.17.08.68.68,0,0,1,.35.61A.71.71,0,0,1,582.53,375.12Z" transform="translate(140.19 -295.78)"/><path d="M581.49,392.47a.7.7,0,0,0,.19-.27l.06,0,1.49,1.14a.71.71,0,0,1,.27.68.67.67,0,0,0-.24,0,.71.71,0,0,0-.64.4.64.64,0,0,0-.06.18.81.81,0,0,1-.18-.1l-1.5-1.15a.69.69,0,0,1-.22-.82.7.7,0,0,0,.37.11A.73.73,0,0,0,581.49,392.47Z" transform="translate(140.19 -295.78)"/><path d="M581.68,392.2a.7.7,0,0,1-.19.27.73.73,0,0,1-.46.17.7.7,0,0,1-.37-.11.65.65,0,0,1,.09-.16.72.72,0,0,1,.56-.28A.72.72,0,0,1,581.68,392.2Z" transform="translate(140.19 -295.78)"/><path d="M579.79,389.81a.71.71,0,0,0-.46.17.93.93,0,0,0-.13.15,1.09,1.09,0,0,1-.13-.17l-.93-1.64a.71.71,0,0,1,.12-.84.71.71,0,0,0,.57.3.85.85,0,0,0,.22,0,.62.62,0,0,0,.28-.17.21.21,0,0,1,0,.06l.93,1.64a.71.71,0,0,1,0,.73A.73.73,0,0,0,579.79,389.81Z" transform="translate(140.19 -295.78)"/><path d="M582.5,375.19l-.94,1.63a.73.73,0,0,1-.65.35.88.88,0,0,0,0-.16.71.71,0,0,0-.48-.66.65.65,0,0,0-.19,0,.84.84,0,0,1,.08-.2l.94-1.63a.72.72,0,0,1,.79-.33.59.59,0,0,0-.07.29.69.69,0,0,0,.24.53.62.62,0,0,0,.29.15Z" transform="translate(140.19 -295.78)"/><path d="M580.24,376.46a.77.77,0,0,1,0-.15.65.65,0,0,1,.19,0,.71.71,0,0,1,.48.66.88.88,0,0,1,0,.16.71.71,0,0,1-.31-.1A.69.69,0,0,1,580.24,376.46Z" transform="translate(140.19 -295.78)"/><path d="M580.27,390a.76.76,0,0,1-.24.23.72.72,0,0,1-.34.09.73.73,0,0,1-.49-.19.93.93,0,0,1,.13-.15.71.71,0,0,1,.46-.17A.73.73,0,0,1,580.27,390Z" transform="translate(140.19 -295.78)"/><path d="M581.56,391.47a.72.72,0,0,1,.12.73.72.72,0,0,0-.37-.11.72.72,0,0,0-.56.28.65.65,0,0,0-.09.16.7.7,0,0,1-.17-.13L579.26,391a.71.71,0,0,1-.06-.85.73.73,0,0,0,.49.19.72.72,0,0,0,.34-.09.76.76,0,0,0,.24-.23s0,0,.05.05Z" transform="translate(140.19 -295.78)"/><path d="M579,379.17c.11,0,.14,0,.47.32l-.09,0Z" transform="translate(140.19 -295.78)"/><path d="M578.92,378.8a.85.85,0,0,1,0-.22l.6-1.79a.7.7,0,0,1,.7-.48.77.77,0,0,0,0,.15.69.69,0,0,0,.36.61.71.71,0,0,0,.31.1.14.14,0,0,1,0,.06L580.3,379a.7.7,0,0,1-.8.47c-.33-.28-.36-.29-.47-.32h0Z" transform="translate(140.19 -295.78)"/><path d="M578.25,384.58a.76.76,0,0,0-.21,0l-.17.08a.66.66,0,0,1-.06-.2l-.21-1.87a.7.7,0,0,1,.44-.73c.15.36.36.53.62.55a.72.72,0,0,0,.33-.05.2.2,0,0,1,0,.07l.21,1.87a.72.72,0,0,1-.31.67A.7.7,0,0,0,578.25,384.58Z" transform="translate(140.19 -295.78)"/><path d="M588.06,396.53a.72.72,0,0,0-.51-.52l-1.83-.46-.07,0a.71.71,0,0,0-.39-.62l-1.7-.82-.06,0a.71.71,0,0,0-.27-.68l-1.49-1.14-.06,0a.72.72,0,0,0-.12-.73l-1.24-1.42s0,0-.05-.05a.71.71,0,0,0,0-.73l-.93-1.64a.21.21,0,0,0,0-.06.68.68,0,0,0,.17-.71l-.58-1.8a.14.14,0,0,0,0-.06h0a.72.72,0,0,0,.31-.67l-.21-1.87a.2.2,0,0,0,0-.07.69.69,0,0,0,.44-.59l.17-1.87v-.07a.79.79,0,0,0-.1-.37.7.7,0,0,0,.8-.47l.59-1.79a.14.14,0,0,0,0-.06.73.73,0,0,0,.65-.35l.94-1.63,0-.07h0a.69.69,0,0,0,.7-.21l1.25-1.41,0-.05a.72.72,0,0,0,.73-.07l1.5-1.13.06-.05h0a.69.69,0,0,0,.73.08l1.7-.8.06,0a.68.68,0,0,0,.7.22l1.83-.44.07,0a.71.71,0,0,0,.64.36l1.88-.08h.07a.73.73,0,0,0,.56.48l1.86.31H597a.7.7,0,0,0,.44.59l1.76.67.07,0a.72.72,0,0,0,.32.66l1.59,1,.06,0a.72.72,0,0,0,.19.72l1.35,1.3s0,0,.05.05a.73.73,0,0,0,0,.74l1.06,1.55.05.05a.69.69,0,0,0-.11.73l.73,1.74,0,.06a.72.72,0,0,0-.26.69l.37,1.84a.25.25,0,0,1,0,.07.72.72,0,0,0-.39.62v1.89h0v.07a.69.69,0,0,0-.5.53l-.39,1.85s0,0,0,.07a.69.69,0,0,0-.6.42l-.75,1.73a.14.14,0,0,0,0,.06.69.69,0,0,0-.67.3l-1.08,1.54,0,.06a.74.74,0,0,0-.72.15l-1.37,1.3,0,.05a.7.7,0,0,0-.74,0l-1.6,1-.05.05a.7.7,0,0,0-.72-.15l-1.77.66-.06,0a.71.71,0,0,0-.68-.29l-1.86.29-.07,0h0a.7.7,0,0,0-.61-.41l-1.88-.1h-.07Z" transform="translate(140.19 -295.78)"/><path d="M578.83,387.78a.71.71,0,0,1-.57-.3.44.44,0,0,1,.15-.12.73.73,0,0,1,.35-.09.7.7,0,0,1,.57.3.62.62,0,0,1-.28.17A.85.85,0,0,1,578.83,387.78Z" transform="translate(140.19 -295.78)"/><path d="M578.66,382.44c-.26,0-.47-.19-.62-.55a.61.61,0,0,1,.18-.05h.08a.71.71,0,0,1,.69.55A.72.72,0,0,1,578.66,382.44Z" transform="translate(140.19 -295.78)"/><path d="M578,381.74s0,0,0-.06l.17-1.88a.7.7,0,0,1,.76-.64H579l.38.3.09,0a.79.79,0,0,1,.1.37v.07l-.17,1.87a.69.69,0,0,1-.44.59.71.71,0,0,0-.69-.55h-.08a.61.61,0,0,0-.18.05Z" transform="translate(140.19 -295.78)"/><path d="M578.51,385.12a.7.7,0,0,1-.64-.43l.17-.08a.76.76,0,0,1,.21,0,.7.7,0,0,1,.65.42h0a.68.68,0,0,1-.31.11Z" transform="translate(140.19 -295.78)"/><path d="M578.76,387.27a.73.73,0,0,0-.35.09.44.44,0,0,0-.15.12,1.14,1.14,0,0,1-.1-.19l-.57-1.79a.71.71,0,0,1,.28-.81.7.7,0,0,0,.64.43h.08a.68.68,0,0,0,.31-.11.14.14,0,0,1,0,.06l.58,1.8a.68.68,0,0,1-.17.71A.7.7,0,0,0,578.76,387.27Z" transform="translate(140.19 -295.78)"/><path d="M658.87,367.18a16.3,16.3,0,0,0-10-6.36,43.39,43.39,0,0,0-3.33-15.38h1.37V342.8a100,100,0,0,0-28.37,0l.06,2.27h.71a44.91,44.91,0,0,0-3.41,15.64,90.26,90.26,0,0,0-34.23,5.85l-1,1.62a16.31,16.31,0,0,0,1.63,7.58l4.26,9.62,16.74.93h6.83l1.11,1.1h12.39l2.56-2.56,31.31-16.24,1.51-.09Zm-34.82,3.22h-5.64s-1.12-20.69,4.24-25.49h14.18l1.88,14.42A17.66,17.66,0,0,0,624.05,370.4ZM640.9,359l-1.82-14.13h4.7A48.67,48.67,0,0,1,647,359.23,25.14,25.14,0,0,0,640.9,359Z" transform="translate(140.19 -295.78)"/><path d="M623.19,387.47a.54.54,0,0,1-.54.54H616.2a.55.55,0,0,1-.55-.54h0a.55.55,0,0,1,.55-.55h6.45a.55.55,0,0,1,.54.55Z" transform="translate(140.19 -295.78)"/><path d="M659.89,379.38s2,.5,2.6-.72-.54-2.28-1-1.94.77,1-.28,1.23-.85-1.28-2.37,0S659.89,379.38,659.89,379.38Z" transform="translate(140.19 -295.78)"/><path d="M619.62,355.23s1.52-.37,1.85.17-.37,2.11.92,3.62,1.7,1.38,1.32,3.07-5.36,5.42-5.6,7.38-1.21-.65-1.21-.65l.33-9.59.89-3.38A3.48,3.48,0,0,1,619.62,355.23Z" transform="translate(140.19 -295.78)"/><path d="M621,365.31s-.65,3.51,2.48,2.93l.77-.16.13.12.33-.3-1-.63-.36.26.4.26s-2.93.79-2-2.93l-.48-.05Z" transform="translate(140.19 -295.78)"/><path d="M620.41,365.65s-.92,3.46,2.24,3.12l.79-.1.12.13.35-.28-1-.7-.38.22.38.3s-3,.56-1.78-3.08l-.48-.08Z" transform="translate(140.19 -295.78)"/><path d="M627.7,365.6l.9-5.12h.13a3.87,3.87,0,0,0-.19-1.19c-.19-.56-.12-.89.13-1s.68,0,.7.65a5.08,5.08,0,0,1-.28,1.55l.15,0-.53,4.37Z" transform="translate(140.19 -295.78)"/><polygon points="762.58 63.35 764.18 61.05 764.61 61.28 765.4 59.79 765.93 60.28 765.03 61.57 765.48 61.94 764.25 63.57 763.92 63.46 763.22 64.26 762.58 63.35"/><path d="M639.8,360.22s2.13-4.16,2-5.77c0,0,0-.26-.55-.46s-1.23-.42-1.6.36a26,26,0,0,0-1.74,5.76c-.12,1.55.61,1.29.61,1.29Z" transform="translate(140.19 -295.78)"/><path d="M632.32,363.46s-2.42-.44-2.34-2.18,3.25-1.23,5.77-1.24a11.53,11.53,0,0,0,3.3-.3l.45,2.25Z" transform="translate(140.19 -295.78)"/><path d="M630.49,359.34s-1.31-.82-.21-1.54l.07-.89s-.44-.52,0-.77.34.48.2.77v.85a4.5,4.5,0,0,1,3.33.5l1,.48,0-.85s-.29-.25-.21-.48.51-.39.64,0a.41.41,0,0,1-.15.51l.06,1L638,360.1l-2.47.51-3.9-.36S631.48,359.93,630.49,359.34Z" transform="translate(140.19 -295.78)"/><path d="M625.12,355.88l-1.06-.95-.21-1.24,0-.25.68.68-.17.53.58.51.13-.51s1.14.19,1.17.21-.08.47-.08.47l-.69.8Z" transform="translate(140.19 -295.78)"/><path d="M625.68,356.23l1.24.68,1.25-.23.21-.13-.87-.41-.44.34-.68-.37.43-.29s-.56-1-.59-1a2.36,2.36,0,0,0-.41.25l-.51.92Z" transform="translate(140.19 -295.78)"/><path d="M628.85,356.79a.36.36,0,0,1-.51,0l-4.85-3.4a.35.35,0,0,1-.13-.49h0a.37.37,0,0,1,.51-.05l4.85,3.41a.35.35,0,0,1,.13.49Z" transform="translate(140.19 -295.78)"/><path d="M620.27,366.29c.2-.27.6,0,.7.09a5.66,5.66,0,0,0,.74.38A2.08,2.08,0,0,0,623,367c.44-.09.3-.31.65-.6a5.37,5.37,0,0,0,.92-1.41c.27-.45,1.06-1.68,1.21-1.93s.9-1.5,1.11-1.83,1.11-.42,1.11-.42a1,1,0,0,1,.26-.61,1.5,1.5,0,0,1,1.18-.47c.34,0,1.08,0,1.6,0l1.41-.09c.3-.25.76-.56.76-.56a11.22,11.22,0,0,1,.26-2.05c-.39.28-.72.64-1.06.83s-.25.1-1,.11a6,6,0,0,1-1.72-.33c-.47-.13-.65-.15-1.16-.26a2.65,2.65,0,0,1-1.08-.59c-.41-.27-.39-.46-.39-.46a.29.29,0,0,1,.11-.29.36.36,0,0,1,.1-.32.28.28,0,0,1,0-.31c.06-.06.43.06.43.06a.39.39,0,0,1,.08-.21c.07-.11.37,0,.57.09s.27.28.34.37.39.52.43.61.1.14.27.2a3.42,3.42,0,0,0,1.11,0c.29-.07.92-.1,1.15-.14s.39-.31.51-.48a7.61,7.61,0,0,1,.51-.57c0-.21,0-.19.19-.39a4.4,4.4,0,0,0,.66-1.21,2,2,0,0,1,.6-.91s0-.25,0-.44.36-.41.36-.41a1.49,1.49,0,0,1-.13-.31,1,1,0,0,1-.47.19c-.25,0-.32-.09-.34-.2s-.06-.21-.16-.23a.13.13,0,0,1-.1-.13.08.08,0,0,1-.13-.07,1.31,1.31,0,0,0,0-.22c0-.07-.24,0-.35,0s-.07-.22-.05-.29.05-.33.08-.52a.31.31,0,0,0-.09-.35c-.09-.09-.07-.35-.07-.45s0-.5,0-.5c-.22-.24-.23-.48.35-1.17a2.2,2.2,0,0,1,2.08-.6,2.33,2.33,0,0,1,1.08,1.11,4.84,4.84,0,0,1,.12,1.68.61.61,0,0,1-.13.4c0,.08,0,.1,0,.1s.21.15.36.32.11.29.11.29c.2.25.79.45,1.29.87s1,1,1.08,2.88a8.17,8.17,0,0,1-.73,3.61,15.55,15.55,0,0,0-.61,3.44,1.52,1.52,0,0,1-.5,1.2c-.93.43-1.92.2-3.91.32a23.82,23.82,0,0,1-2.78.06,3.42,3.42,0,0,0-.24.89c-.06.34-.32,1.63-.37,2s-.21,1.31-.26,1.64-.21.39-.21.39v.35c0,.76-1.21.48-2,.55a5.3,5.3,0,0,1-1.59,0c-.47-.09-.66-.4-.36-.65a2.27,2.27,0,0,1,1-.29,5.29,5.29,0,0,0,.67-.37,5.09,5.09,0,0,1,.49-1.24l-.35.19a4.37,4.37,0,0,0-1.39,1c-.55.67-.77.88-1.21,1.35a1.21,1.21,0,0,1-1,.41l-.2.29c-.4.09-1.06-.42-1.41-.77a11.63,11.63,0,0,1-1.81-1.83C620,366.65,620.07,366.57,620.27,366.29Z" transform="translate(140.19 -295.78)"/></g></g></g></g></svg>