<svg xmlns="http://www.w3.org/2000/svg" viewBox="0 0 295.42 158.47"><defs><style>.cls-1{fill:#e6e6e6;}.cls-2{fill:orange;}.cls-3{fill:#b37709;}.cls-4{fill:#3c3e52;}.cls-5{fill:#a3a3a3;}.cls-6{fill:#3b1c1a;}.cls-7{fill:#de9000;}.cls-8{fill:#454545;}.cls-9{fill:#5e5e5e;}.cls-10{fill:#1c1c1c;}.cls-11{fill:#4a4a4a;}.cls-12{fill:#003c63;}.cls-13{fill:#b87700;}.cls-14{fill:#a3342c;}.cls-15{fill:#002e46;}.cls-16{fill:#cf8600;}.cls-17{fill:#37466e;}.cls-18{fill:#383838;}.cls-19{fill:#1f1f1f;}.cls-20{fill:#525252;}.cls-21{fill:#8c8c8c;}.cls-22{fill:#2e2e2e;}.cls-23{fill:#b3b3b3;}.cls-24{fill:#333;}.cls-25{fill:#141414;}.cls-26{fill:#262626;}.cls-27{fill:#438dbf;}.cls-28{fill:#9de5bd;}.cls-29{fill:#004775;}.cls-30,.cls-54{fill:#0067ab;}.cls-31,.cls-34,.cls-35,.cls-48,.cls-60,.cls-61{fill:#fff;}.cls-32{fill:#7db898;}.cls-33{fill:#2d878e;}.cls-34{opacity:0.35;}.cls-35{opacity:0.52;}.cls-36{fill:#0065a8;}.cls-37{fill:#82a6bf;}.cls-38{fill:#5369a6;}.cls-39{fill:#d8ccc4;}.cls-40{fill:#c2c2c2;}.cls-41{fill:none;}.cls-42,.cls-55{fill:#858585;}.cls-43{fill:#edbe6b;}.cls-44{fill:#bf7c00;}.cls-45{fill:#996401;}.cls-46{fill:#ccc;}.cls-47{fill:#8c5b00;}.cls-48{opacity:0.6;}.cls-49{fill:#5f6382;}.cls-50{fill:#ffc14f;}.cls-51{fill:#004573;}.cls-52{fill:#b33830;}.cls-53{fill:#d7443a;}.cls-54{opacity:0.14;}.cls-55{opacity:0.31;}.cls-56{fill:#d9d9d9;}.cls-57{fill:#fcc648;}.cls-58{fill:#bf9637;}.cls-59{fill:#f0746c;}.cls-60{opacity:0.68;}.cls-61{opacity:0.21;}.cls-62{fill:#ffc55c;}</style></defs><g id="Layer_2" data-name="Layer 2"><g id="ëÎÓÈ_1" data-name="ëÎÓÈ 1"><path class="cls-1" d="M289.31,125.24H35.94c-1.54,0-2.8,1.53-2.8,3.41s1.26,3.41,2.8,3.41H73.81a2.77,2.77,0,0,1,3.06,3.08c0,2.83-1.83,3.25-2.62,3.29h-15c-1.54,0-2.8,1.54-2.8,3.41s1.26,3.41,2.8,3.41H165.71c1.54,0,2.8-1.53,2.8-3.41s-1.26-3.41-2.8-3.41H150.27a3.23,3.23,0,0,1,0-6.38h139c1.54,0,2.8-1.53,2.8-3.41S290.85,125.24,289.31,125.24Zm-183.65,10a2.86,2.86,0,0,1,2.75-3.2h23a2.77,2.77,0,0,1,3.06,3.08c0,2.83-1.83,3.25-2.62,3.29H108.41A2.86,2.86,0,0,1,105.66,135.26Z"/><path class="cls-1" d="M250.19,138.44H85.07c-1.54,0-2.8,1.54-2.8,3.41s1.26,3.41,2.8,3.41h37.86a2.78,2.78,0,0,1,3.07,3.09c0,2.83-1.84,3.24-2.63,3.29H98.23c-1.54,0-2.8,1.53-2.8,3.41s1.26,3.41,2.8,3.41h116.6c1.54,0,2.8-1.54,2.8-3.41s-1.26-3.41-2.8-3.41H199.4a3.23,3.23,0,0,1,0-6.39h50.79c1.54,0,2.8-1.53,2.8-3.41S251.73,138.44,250.19,138.44Zm-95.41,10a2.88,2.88,0,0,1,2.75-3.21h23a2.77,2.77,0,0,1,3.06,3.09c0,2.83-1.83,3.24-2.63,3.29H157.53A2.87,2.87,0,0,1,154.78,148.47Z"/><rect class="cls-1" x="142.9" y="27.28" width="27.54" height="6.07" transform="translate(43.46 -82.15) rotate(33.86)"/><rect class="cls-2" x="160.31" y="48.03" width="59.98" height="9.4" transform="translate(61.66 -97.09) rotate(33.86)"/><rect class="cls-3" x="166.51" y="32.59" width="1.69" height="9.44" transform="matrix(0.83, 0.56, -0.56, 0.83, 49.21, -86.95)"/><path class="cls-4" d="M198.76,49.64H180.68V45.46h13.9a4.18,4.18,0,0,1,4.18,4.18Z"/><path class="cls-5" d="M10.05,80.87A6,6,0,0,1,4,75a2.42,2.42,0,0,1,4.84,0c0,.75.81,1.07,1.22,1.07a1.35,1.35,0,0,0,1.53-1.43c0-.56,0-.63-1.08-1.17-.3-.16-.58-.3-.83-.46A5.47,5.47,0,0,1,7,67.62v-.16c0-.63,0-2.55,0-2.55l4.85,0s0,2,0,2.62v.21c0,.78,0,.8.39,1a5.39,5.39,0,0,0,.48.25,5.82,5.82,0,0,1,3.73,5.5A6.2,6.2,0,0,1,10.05,80.87Z"/><rect class="cls-6" x="15.28" y="27.71" width="1.26" height="26.71"/><path class="cls-2" d="M41.77,1.9H235.09a22.23,22.23,0,0,1,22.23,22.23v0a0,0,0,0,1,0,0H41.77a0,0,0,0,1,0,0V1.9a0,0,0,0,1,0,0Z"/><rect class="cls-7" x="136.34" y="10.53" width="100.09" height="2.45"/><rect class="cls-8" x="162.45" y="71.65" width="114.71" height="6.06"/><rect class="cls-9" x="162.45" y="71.65" width="56.66" height="5.33"/><rect class="cls-2" x="69.91" y="53.2" width="71" height="4.85" transform="translate(12.36 130.11) rotate(-66.49)"/><rect class="cls-10" x="187.37" y="77.1" width="108.05" height="13.81"/><rect class="cls-10" x="156.44" y="77.1" width="31.98" height="13.81"/><rect class="cls-8" x="152.76" y="77.1" width="9.7" height="13.81"/><rect class="cls-2" x="143.96" y="18.48" width="4.85" height="74.79" transform="translate(-10.16 62.48) rotate(-23.31)"/><rect class="cls-11" x="261.68" y="107.93" width="7.65" height="3.91"/><path class="cls-12" d="M104.06,30.19h39.79a8.9,8.9,0,0,1,8.9,8.9v67.19a0,0,0,0,1,0,0H104.06a0,0,0,0,1,0,0V30.19A0,0,0,0,1,104.06,30.19Z"/><path class="cls-13" d="M131.58,23.14l13.09,5.5s6,3.79,9.41-.73-2.2-8-2.2-8Z"/><path class="cls-14" d="M7.21,33.12c1.22.08,4.15.17,6-4.49,0,0,5.37-13.89,5.41-18.63,0-3.13-.15-8.07-2.9-8.09h-5.2A8.12,8.12,0,0,0,2.46,10V26.9C2.46,31.58,5.31,33,7.21,33.12Z"/><rect class="cls-2" x="215.4" y="24.05" width="62.81" height="36.19" rx="7.43"/><path class="cls-15" d="M256.36,32.82V51.21a1.17,1.17,0,0,1-1.16,1.16h0A1.17,1.17,0,0,1,254,51.21V32.82a1.16,1.16,0,0,1,1.16-1.16h0A1.16,1.16,0,0,1,256.36,32.82Z"/><path class="cls-15" d="M261.42,32.82V51.21a1.17,1.17,0,0,1-1.16,1.16h0a1.18,1.18,0,0,1-1.17-1.16V32.82a1.17,1.17,0,0,1,1.17-1.16h0A1.17,1.17,0,0,1,261.42,32.82Z"/><path class="cls-15" d="M266.47,32.82V51.21a1.17,1.17,0,0,1-1.16,1.16h0a1.17,1.17,0,0,1-1.16-1.16V32.82a1.16,1.16,0,0,1,1.16-1.16h0A1.16,1.16,0,0,1,266.47,32.82Z"/><path class="cls-15" d="M271.52,32.82V51.21a1.17,1.17,0,0,1-1.16,1.16h0a1.17,1.17,0,0,1-1.16-1.16V32.82a1.16,1.16,0,0,1,1.16-1.16h0A1.16,1.16,0,0,1,271.52,32.82Z"/><path class="cls-16" d="M128,20H256.91a20.72,20.72,0,0,1,.41,4.18H128Z"/><path class="cls-16" d="M41.27,19.87h85a31.27,31.27,0,0,1,.27,4.18H41.27Z"/><path class="cls-17" d="M53.19,68.49H48.42a5,5,0,0,1-5-5v-13a5,5,0,0,1,5-5h8V48h-8a2.55,2.55,0,0,0-2.55,2.55v13a2.55,2.55,0,0,0,2.55,2.55h4.77Z"/><polygon class="cls-10" points="279.1 99.87 212.11 99.87 212.11 89.59 279.43 89.7 279.1 99.87"/><path d="M207.47,110.85c0-7.93-6.94-14.37-13.55-14.57h-4.28c-6.22,0-12.9,5.87-12.9,14.58s5.16,13.39,11.67,14.56a23.47,23.47,0,0,0,7.78,0v0C202.26,124.25,207.47,117.7,207.47,110.85Z"/><path d="M180.68,110.85c0-7.93-6.94-14.37-13.54-14.57h-4.29c-6.21,0-12.9,5.87-12.9,14.58s5.16,13.39,11.67,14.56a23.47,23.47,0,0,0,7.78,0v0C175.47,124.25,180.68,117.7,180.68,110.85Z"/><path class="cls-10" d="M232.2,117.23h-81a2,2,0,0,1-2-2h0a2,2,0,0,1,2-2h81a2,2,0,0,1,2,2h0A2,2,0,0,1,232.2,117.23Z"/><path class="cls-18" d="M189.57,114.85H153.94S135,102.28,136.42,98c1.23-3.57,2.46-7.7,11.51-7.7H206.5Z"/><path d="M254,114.85H193.33l.23-12.86s1.67-11.43,12.15-11.67,19,0,30.87,0C251.58,90.32,254,114.85,254,114.85Z"/><path class="cls-18" d="M215.72,110.88c0,8.75,5.21,13.74,11.67,14.56a49,49,0,0,0,10.3,0c2.22-4.56,1.81-9,1.81-14.52,0-6.24,1.78-12.52-2.47-14.6-2.47-.09-8.05,0-9.46,0C221.36,96.29,215.72,102.17,215.72,110.88Z"/><ellipse class="cls-19" cx="236.75" cy="110.86" rx="12.22" ry="14.58"/><ellipse class="cls-20" cx="237.11" cy="110.83" rx="8.61" ry="10.27"/><path class="cls-21" d="M237.11,122.2c-5.3,0-9.61-5-9.61-11.26s4.31-11.27,9.61-11.27,9.6,5,9.6,11.27S242.4,122.2,237.11,122.2Zm0-20.53c-4.2,0-7.61,4.15-7.61,9.27s3.41,9.26,7.61,9.26,7.6-4.15,7.6-9.26S241.3,101.67,237.11,101.67Z"/><ellipse class="cls-22" cx="237.04" cy="110.89" rx="1.98" ry="2.57"/><path class="cls-21" d="M237.08,100.84a6.89,6.89,0,0,0-1.21.12c4.1.7,7.25,4.86,7.25,9.91s-3.15,9.21-7.25,9.91a6.89,6.89,0,0,0,1.21.11c4.67,0,8.46-4.48,8.46-10S241.75,100.84,237.08,100.84Z"/><path class="cls-21" d="M237.89,110.87c0,1.73,2.47,3.86,1.45,4.67h-2.67c-1.9,0-3.43-2.09-3.43-4.67s1.53-4.68,3.43-4.68c.66,0,1.45,0,2.73,0C240.38,107,237.89,109.19,237.89,110.87Z"/><path class="cls-23" d="M242.74,110.87c0,2.58-1.53,4.67-3.43,4.67s-3.43-2.09-3.43-4.67,1.54-4.68,3.43-4.68S242.74,108.29,242.74,110.87Z"/><path class="cls-21" d="M239.24,107.31a2.58,2.58,0,0,0-.4,0c1.33.26,2.36,1.8,2.36,3.66s-1,3.41-2.36,3.66a1.75,1.75,0,0,0,.4,0c1.51,0,2.74-1.66,2.74-3.71S240.75,107.31,239.24,107.31Z"/><path class="cls-24" d="M229.87,125.62c-4.2-.5-10.21-6.22-10.21-14.74,0-7.91,4.44-13.13,9.44-14.57.94,0,2.81,0,2.81,0-5,.26-11.47,5.69-11.47,14.58,0,8.08,5.66,14.8,12.09,14.8Z"/><polygon class="cls-10" points="205.69 99.16 139.68 99.16 139.68 90.32 217.84 90.32 205.69 99.16"/><path class="cls-25" d="M64.23,110c0,8.76,5.21,13.75,11.67,14.56a49,49,0,0,0,10.3,0C88.43,120,88,115.54,88,110c0-6.23,1.78-12.51-2.47-14.6-2.47-.08-8.05,0-9.46,0C69.87,95.42,64.23,101.29,64.23,110Z"/><ellipse class="cls-26" cx="85.26" cy="109.99" rx="12.22" ry="14.58"/><ellipse class="cls-20" cx="85.62" cy="109.96" rx="8.61" ry="10.27"/><path class="cls-21" d="M85.62,121.33c-5.3,0-9.61-5.06-9.61-11.27S80.32,98.8,85.62,98.8s9.6,5,9.6,11.26S90.91,121.33,85.62,121.33Zm0-20.54c-4.2,0-7.61,4.16-7.61,9.27s3.41,9.27,7.61,9.27,7.6-4.16,7.6-9.27S89.81,100.79,85.62,100.79Z"/><path class="cls-22" d="M87.52,110a2,2,0,1,1-2-2.57A2.33,2.33,0,0,1,87.52,110Z"/><path class="cls-21" d="M85.59,100a8,8,0,0,0-1.21.11c4.1.7,7.25,4.87,7.25,9.92s-3.15,9.21-7.25,9.91a8,8,0,0,0,1.21.11c4.67,0,8.46-4.49,8.46-10S90.26,100,85.59,100Z"/><path class="cls-21" d="M86.4,110c0,1.72,2.47,3.85,1.45,4.66H85.18c-1.9,0-3.43-2.09-3.43-4.67s1.53-4.68,3.43-4.68c.66,0,1.45,0,2.73,0C88.89,106.16,86.4,108.31,86.4,110Z"/><path class="cls-1" d="M91.25,110c0,2.58-1.53,4.67-3.43,4.67s-3.43-2.09-3.43-4.67,1.54-4.68,3.43-4.68S91.25,107.41,91.25,110Z"/><path class="cls-21" d="M87.75,106.44a2.58,2.58,0,0,0-.4,0c1.33.26,2.36,1.8,2.36,3.66s-1,3.4-2.36,3.66a2.58,2.58,0,0,0,.4,0c1.52,0,2.74-1.66,2.74-3.7S89.27,106.44,87.75,106.44Z"/><path class="cls-24" d="M78.38,124.75c-4.2-.5-10.21-6.22-10.21-14.75,0-7.9,4.44-13.12,9.44-14.56h2.81C75.42,95.69,69,101.12,69,110c0,8.08,5.66,14.81,12.09,14.81Z"/><path class="cls-27" d="M47.52,106.28h58.4l0-40.45s1.79-18.4,2.76-26.71c1-8.09,6.19-8.93,6.19-8.93H63.9c-4.72,0-11,1.72-12.27,8.78l-.15.56-4,25.32Z"/><polygon class="cls-28" points="102.12 64.06 50.57 64.13 54.1 39.92 104.88 39.92 102.12 64.06"/><polygon class="cls-28" points="136.12 58.42 117.27 58.66 117.27 39.92 136.12 39.92 136.12 58.42"/><rect class="cls-29" x="47.52" y="86.04" width="58.41" height="4.29"/><rect class="cls-30" x="107.8" y="87.72" width="45.19" height="0.91"/><rect class="cls-31" x="51.88" y="91.78" width="11.67" height="3.34"/><rect class="cls-31" x="88.78" y="91.78" width="11.67" height="3.34"/><rect class="cls-24" x="62.35" y="91.78" width="26.85" height="3.34"/><rect class="cls-10" x="102.51" y="98.01" width="34.13" height="16.84"/><polygon class="cls-10" points="134.09 106.99 139.83 106.99 144.67 96.04 134.09 96.04 134.09 106.99"/><path class="cls-18" d="M115.14,111.11c0,8.76,5.21,13.75,11.67,14.56a49.09,49.09,0,0,0,10.31,0c2.22-4.56,1.8-9,1.8-14.53,0-6.23,2-12.72-2.25-14.8-2.48-.09-8.27.22-9.67.22C120.79,96.53,115.14,102.4,115.14,111.11Z"/><ellipse class="cls-19" cx="136.18" cy="111.1" rx="12.22" ry="14.58"/><ellipse class="cls-20" cx="136.53" cy="111.07" rx="8.61" ry="10.27"/><path class="cls-21" d="M136.53,122.44c-5.29,0-9.6-5.06-9.6-11.27s4.31-11.26,9.6-11.26,9.6,5,9.6,11.26S141.83,122.44,136.53,122.44Zm0-20.54c-4.2,0-7.61,4.16-7.61,9.27s3.41,9.27,7.61,9.27,7.61-4.16,7.61-9.27S140.73,101.9,136.53,101.9Z"/><path class="cls-22" d="M138.44,111.13a2,2,0,1,1-2-2.57A2.34,2.34,0,0,1,138.44,111.13Z"/><path class="cls-21" d="M136.5,101.08a8.12,8.12,0,0,0-1.21.11c4.1.7,7.25,4.87,7.25,9.92s-3.15,9.21-7.25,9.91a7,7,0,0,0,1.21.11c4.68,0,8.47-4.49,8.47-10S141.18,101.08,136.5,101.08Z"/><path class="cls-21" d="M137.32,111.11c0,1.73,2.47,3.86,1.44,4.66h-2.67c-1.89,0-3.43-2.09-3.43-4.67s1.54-4.68,3.43-4.68c.66,0,1.46,0,2.74,0C139.8,107.27,137.32,109.42,137.32,111.11Z"/><path class="cls-23" d="M142.17,111.11c0,2.58-1.54,4.67-3.43,4.67s-3.44-2.09-3.44-4.67,1.54-4.68,3.44-4.68S142.17,108.52,142.17,111.11Z"/><path class="cls-21" d="M138.66,107.55a2.58,2.58,0,0,0-.39,0c1.33.26,2.35,1.8,2.35,3.66s-1,3.4-2.35,3.66a1.72,1.72,0,0,0,.39,0c1.52,0,2.75-1.65,2.75-3.7S140.18,107.55,138.66,107.55Z"/><path class="cls-24" d="M129.3,125.86c-4.2-.5-10.21-6.22-10.21-14.75,0-7.9,4.43-13.12,9.43-14.56.95,0,2.81,0,2.81,0-5,.26-11.47,5.69-11.47,14.57,0,8.08,5.67,14.81,12.1,14.81Z"/><path class="cls-10" d="M114,105.8s.87-15.48,17.94-15.48h21v6.07s-8.87,0-19.21,0c-5.88,0-11,3.46-11.94,11-.12,1.56-.22,3-.27,4.4a3.12,3.12,0,0,1-3.13,3c-2.06,0-4.3,0-4.94,0C113.5,111.47,113.9,107.82,114,105.8Z"/><path class="cls-18" d="M189.69,110.88c0,8.75,5.2,13.74,11.67,14.56a49,49,0,0,0,10.3,0c2.22-4.56,1.81-9,1.81-14.52,0-6.24,1.78-12.52-2.47-14.6-2.47-.09-8.06,0-9.46,0C195.33,96.29,189.69,102.17,189.69,110.88Z"/><ellipse class="cls-19" cx="210.72" cy="110.86" rx="12.22" ry="14.58"/><ellipse class="cls-20" cx="211.07" cy="110.83" rx="8.61" ry="10.27"/><path class="cls-21" d="M211.07,122.2c-5.29,0-9.6-5-9.6-11.26s4.31-11.27,9.6-11.27,9.61,5,9.61,11.27S216.37,122.2,211.07,122.2Zm0-20.53c-4.19,0-7.61,4.15-7.61,9.27s3.42,9.26,7.61,9.26,7.61-4.15,7.61-9.26S215.27,101.67,211.07,101.67Z"/><path class="cls-22" d="M213,110.89a2.35,2.35,0,0,1-2,2.58c-1.09,0-2-1.16-2-2.58a2,2,0,1,1,3.95,0Z"/><path class="cls-21" d="M211.05,100.84a7,7,0,0,0-1.22.12c4.1.7,7.26,4.86,7.26,9.91s-3.16,9.21-7.26,9.91a7,7,0,0,0,1.22.11c4.67,0,8.46-4.48,8.46-10S215.72,100.84,211.05,100.84Z"/><path class="cls-21" d="M211.86,110.87c0,1.73,2.47,3.86,1.44,4.67h-2.66c-1.9,0-3.44-2.09-3.44-4.67s1.54-4.68,3.44-4.68c.66,0,1.45,0,2.73,0C214.35,107,211.86,109.19,211.86,110.87Z"/><path class="cls-23" d="M216.71,110.87c0,2.58-1.54,4.67-3.43,4.67s-3.43-2.09-3.43-4.67,1.53-4.68,3.43-4.68S216.71,108.29,216.71,110.87Z"/><path class="cls-21" d="M213.21,107.31a2.58,2.58,0,0,0-.4,0c1.33.26,2.35,1.8,2.35,3.66s-1,3.41-2.35,3.66a1.75,1.75,0,0,0,.4,0c1.51,0,2.74-1.66,2.74-3.71S214.72,107.31,213.21,107.31Z"/><path class="cls-24" d="M203.84,125.62c-4.2-.5-10.21-6.22-10.21-14.74,0-7.91,4.43-13.13,9.43-14.57.95,0,2.81,0,2.81,0-5,.26-11.46,5.69-11.46,14.58,0,8.08,5.66,14.8,12.09,14.8Z"/><path class="cls-10" d="M253.88,100.48c-1.58-5-5.63-10.16-16.27-10.16H206.5c-8.66.06-13.67,3.79-15.32,9.53-1.74,6-3.37,12.4-3.81,15,1,0,5.78.06,8.1.06,1.43-6.57,2.12-10.07,3.41-13,2.22-5,7.74-5.52,11.23-5.53h24.72c5.89,0,8.66.28,12.54,7.82.66,2.72,2,6.35,3.52,10.64,1.85,0,6.07,0,7.08,0C257.37,110.86,254.77,103.29,253.88,100.48Z"/><polygon class="cls-21" points="153.94 114.85 187.37 114.85 188.26 110.56 156.16 110.56 153.94 114.85"/><polygon class="cls-10" points="174.99 103.09 147.37 103.09 147.37 110.5 173.17 110.5 174.99 103.09"/><polygon class="cls-10" points="181.97 103.09 178.48 103.09 176.9 110.5 180.39 110.5 181.97 103.09"/><rect class="cls-20" x="250.31" y="94.37" width="34.49" height="1.46"/><rect class="cls-20" x="139.74" y="94.37" width="47.63" height="1.46"/><path class="cls-32" d="M56.8,43.73l-2.86,20.4H73V43.73Z"/><path class="cls-32" d="M74.65,43.73l.08,20.4h27.5l2.35-20.4Z"/><path class="cls-32" d="M117.19,43.73l.08,14.21,18.89.48V43.73Z"/><path class="cls-33" d="M102.27,64.25l-27.58-.12V53.58s-.27-3.26,3.54-3.26l25.62,0Z"/><polygon class="cls-33" points="136.16 59.13 128.23 59.13 123.07 64.61 117.19 64.69 117.19 50.24 136.16 50.24 136.16 59.13"/><path class="cls-30" d="M135.1,64.76h-5.55a1.15,1.15,0,0,1-1.14-1.14h0a1.15,1.15,0,0,1,1.14-1.15h5.55a1.15,1.15,0,0,1,1.14,1.15h0A1.15,1.15,0,0,1,135.1,64.76Z"/><path class="cls-34" d="M85.62,39.94,68.28,64.25H76L93.12,39.9Z"/><path class="cls-35" d="M81.3,39.92,64,64.25h2.62L83.7,39.94Z"/><polygon class="cls-36" points="102.07 65.76 47.49 65.79 47.49 63.95 102.27 63.95 102.07 65.76"/><rect class="cls-36" x="51.88" y="82.93" width="48.57" height="1.07"/><rect class="cls-36" x="51.88" y="79.78" width="48.57" height="1.07"/><rect class="cls-36" x="51.88" y="76.63" width="48.57" height="1.07"/><rect class="cls-37" x="41.77" y="51.9" width="5.77" height="10.21" rx="1.56"/><path class="cls-38" d="M112.56,68.49H107.8V66.06h4.76a2.55,2.55,0,0,0,2.55-2.55v-13A2.55,2.55,0,0,0,112.56,48h-3.43V45.52h3.43a5,5,0,0,1,5,5v13A5,5,0,0,1,112.56,68.49Z"/><rect class="cls-37" x="113.44" y="51.9" width="5.77" height="10.21" rx="1.56" transform="translate(232.65 114.01) rotate(180)"/><rect class="cls-39" x="181.74" y="67.21" width="26.02" height="4.45"/><rect class="cls-39" x="207.76" y="67.21" width="20.18" height="4.45"/><path class="cls-40" d="M228.61,67.21h23.17a5.29,5.29,0,0,0,5.29-5.29V52c0-2.92-1.15-4.55-4.21-4.55H236.28Z"/><path class="cls-23" d="M236.28,47.56l-9.69,19.65h8.55c1.74,0,4.89-2.56,4.89-7.2,0-5.08-.07-12.56-.07-12.56Z"/><path class="cls-41" d="M195.66,9.28h0Z"/><path class="cls-41" d="M217.5,9.28h0Z"/><rect class="cls-23" x="181.74" y="67.21" width="72.3" height="4.45"/><rect class="cls-42" x="219.11" y="67.21" width="34.93" height="4.45"/><path class="cls-43" d="M29,0h9.38a3.35,3.35,0,0,1,3.35,3.35v18A2.73,2.73,0,0,1,39,24.05H28.71a3,3,0,0,1-3-3V3.3A3.3,3.3,0,0,1,29,0Z"/><path class="cls-44" d="M17.27,4.29h20A1.79,1.79,0,0,1,39.1,6.08v11.5a2,2,0,0,1-2,2H17.27a0,0,0,0,1,0,0V4.29A0,0,0,0,1,17.27,4.29Z"/><path class="cls-45" d="M17.27,15.9H39.1a0,0,0,0,1,0,0V18a1.84,1.84,0,0,1-1.84,1.84h-20a0,0,0,0,1,0,0V15.9a0,0,0,0,1,0,0Z"/><path class="cls-46" d="M18.39,27.71a7.17,7.17,0,1,1-7.17-7.17A7.17,7.17,0,0,1,18.39,27.71Z"/><path class="cls-47" d="M151.39,25.86A1.44,1.44,0,1,1,150,24.43,1.44,1.44,0,0,1,151.39,25.86Z"/><rect class="cls-10" x="261.45" y="90.22" width="8.83" height="18.1"/><rect class="cls-20" x="260.61" y="90.22" width="1.67" height="18.1"/><rect class="cls-20" x="260.61" y="111.25" width="1.51" height="2.9"/><rect class="cls-10" x="262.12" y="111.25" width="8.21" height="2.9"/><rect class="cls-11" x="163.61" y="107.93" width="7.49" height="3.91"/><rect class="cls-10" x="162.84" y="90.22" width="8.83" height="19.19"/><rect class="cls-10" x="162.75" y="111.25" width="9.21" height="2.9"/><rect class="cls-20" x="162.72" y="90.22" width="1.67" height="19.19"/><rect class="cls-20" x="162.72" y="111.25" width="1.67" height="2.9"/><path class="cls-48" d="M192.67,10.94H213.1V52.37H180.37s-1.2-7.7-.48-12.28S182,24.14,192.67,10.94Z"/><path class="cls-39" d="M205.22,23.4l.16-.33Z"/><path class="cls-39" d="M205.74,22.33a2.56,2.56,0,0,1,.11-.24A2.56,2.56,0,0,0,205.74,22.33Z"/><path class="cls-39" d="M204.75,24.45l.15-.34Z"/><path class="cls-39" d="M201,37.84c0-.05,0-.09,0-.14S201,37.79,201,37.84Z"/><path class="cls-39" d="M200.77,39.59c0-.16,0-.31,0-.47C200.8,39.28,200.79,39.43,200.77,39.59Z"/><path class="cls-39" d="M200.65,41.11c0-.17,0-.35,0-.52C200.67,40.76,200.66,40.94,200.65,41.11Z"/><path class="cls-39" d="M206.33,21.16l.12-.23Z"/><path class="cls-39" d="M206.8,20.27l.18-.33Z"/><path class="cls-39" d="M202.89,29.36,203,29Z"/><path class="cls-39" d="M201.75,33.55l.09-.41Z"/><path class="cls-39" d="M202.51,30.59c0-.11.07-.21.1-.31C202.58,30.38,202.54,30.48,202.51,30.59Z"/><path class="cls-39" d="M202.12,32c0-.06,0-.11,0-.17S202.13,32,202.12,32Z"/><path class="cls-39" d="M204.3,25.52l.09-.23Z"/><path class="cls-39" d="M201.2,36.3c0-.13.05-.26.07-.39C201.25,36,201.22,36.17,201.2,36.3Z"/><path class="cls-39" d="M203.3,28.14c0-.13.09-.25.13-.37C203.39,27.89,203.35,28,203.3,28.14Z"/><path class="cls-39" d="M201.45,34.93l.09-.46Z"/><path class="cls-39" d="M203.78,26.83c0-.06.05-.13.07-.2S203.8,26.77,203.78,26.83Z"/><polygon class="cls-39" points="200.55 44.13 200.55 44.14 200.55 44.15 200.55 44.14 200.55 44.13"/><path class="cls-39" d="M207.29,19.4l.18-.33Z"/><path class="cls-39" d="M209.68,15.57l.26-.37Z"/><path class="cls-39" d="M208.84,16.84l.23-.35Z"/><path class="cls-39" d="M209.27,16.17l.24-.35Z"/><path class="cls-39" d="M200.6,46.43l0-.62Z"/><path class="cls-39" d="M200.68,48.12c0-.25,0-.5,0-.74C200.65,47.63,200.67,47.87,200.68,48.12Z"/><path class="cls-39" d="M208.39,17.55c.06-.1.12-.2.19-.3C208.51,17.35,208.45,17.45,208.39,17.55Z"/><path class="cls-39" d="M228.58,9.28H217.5a5.8,5.8,0,0,0-4.94,2.46c-.38.47-1.06,1.31-1.92,2.48,0,1.13,0,2.22,0,2.22v19c0,7.82,1.83,14.17-6,14.17h-3.85c0-.26-.05-.52-.07-.78.62,7.43,2.7,12.28,5.49,16a5.88,5.88,0,0,0,5.23,2.39h17.12a7.7,7.7,0,0,0,7.7-7.7V17A7.7,7.7,0,0,0,228.58,9.28Z"/><path class="cls-39" d="M210,15.13c.22-.32.44-.62.64-.9C210.43,14.51,210.21,14.81,210,15.13Z"/><path class="cls-39" d="M207.77,18.56l.18-.3Z"/><path class="cls-39" d="M200.58,42.62c0-.16,0-.31,0-.47C200.59,42.31,200.58,42.46,200.58,42.62Z"/><path class="cls-39" d="M200.74,48.86l-.06-.74Z"/><path class="cls-39" d="M201.54,34.47l.21-.92Z"/><path class="cls-39" d="M200.64,47.38c0-.32,0-.63,0-1C200.61,46.75,200.62,47.06,200.64,47.38Z"/><path class="cls-39" d="M200.55,44.13c0-.51,0-1,0-1.51C200.56,43.12,200.55,43.62,200.55,44.13Z"/><path class="cls-39" d="M200.69,40.59c0-.34.05-.67.08-1C200.74,39.92,200.71,40.25,200.69,40.59Z"/><path class="cls-39" d="M200.82,39.12c0-.43.09-.86.15-1.28C200.91,38.26,200.86,38.69,200.82,39.12Z"/><path class="cls-39" d="M200.6,42.15c0-.35,0-.7.05-1C200.63,41.45,200.61,41.8,200.6,42.15Z"/><path class="cls-39" d="M201.27,35.91l.18-1Z"/><path class="cls-39" d="M201.84,33.14c.09-.38.18-.75.28-1.12C202,32.39,201.93,32.76,201.84,33.14Z"/><path class="cls-39" d="M200.57,45.81c0-.54,0-1.09,0-1.66C200.55,44.72,200.56,45.27,200.57,45.81Z"/><path class="cls-39" d="M201,37.7c.06-.47.13-.94.21-1.4C201.12,36.76,201.05,37.23,201,37.7Z"/><path class="cls-39" d="M207.47,19.07l.3-.51Z"/><path class="cls-39" d="M208.58,17.25c.09-.14.17-.28.26-.41C208.75,17,208.67,17.11,208.58,17.25Z"/><path class="cls-39" d="M208,18.26c.15-.24.29-.48.44-.71C208.24,17.78,208.1,18,208,18.26Z"/><path class="cls-39" d="M207,19.94l.31-.54Z"/><path class="cls-39" d="M209.07,16.49c.07-.11.14-.21.2-.32C209.21,16.28,209.14,16.38,209.07,16.49Z"/><path class="cls-39" d="M209.94,15.2l.05-.07Z"/><path class="cls-39" d="M206.45,20.93l.35-.66Z"/><polygon class="cls-39" points="210.64 14.22 210.63 14.22 210.64 14.22 210.64 14.22"/><path class="cls-39" d="M209.51,15.82l.17-.25Z"/><path class="cls-39" d="M203.43,27.77c.11-.31.23-.63.35-.94C203.66,27.14,203.54,27.46,203.43,27.77Z"/><path class="cls-39" d="M202.16,31.85c.11-.43.23-.85.35-1.26C202.39,31,202.27,31.42,202.16,31.85Z"/><path class="cls-39" d="M203,29c.09-.28.19-.56.28-.83C203.21,28.41,203.11,28.69,203,29Z"/><path class="cls-39" d="M203.85,26.63l.45-1.11Z"/><path class="cls-39" d="M202.61,30.28c.09-.31.18-.62.28-.92C202.79,29.66,202.7,30,202.61,30.28Z"/><path class="cls-39" d="M204.39,25.29l.36-.84Z"/><path class="cls-39" d="M205.38,23.07l.36-.74Z"/><path class="cls-39" d="M204.9,24.11l.32-.71Z"/><path class="cls-39" d="M205.85,22.09q.24-.48.48-.93Q206.09,21.61,205.85,22.09Z"/><path class="cls-49" d="M224.29,12.14H210.65c0,1.07,0,4.3,0,4.3v19c0,7.82,1.83,14.17-6,14.17h5.47a14.17,14.17,0,0,0,14.16-14.17v-19S224.28,13.21,224.29,12.14Z"/><path class="cls-4" d="M204.66,49.64s6.15.9,6.13-5.88c0-3.48-.1-6.47-.14-9a6.77,6.77,0,0,1,6.84-6.66h6.8s.13,3.76,0,8.47a14.21,14.21,0,0,1-13.26,13C208,49.68,204.66,49.64,204.66,49.64Z"/><path class="cls-1" d="M195.89,9.28h-.23a5.81,5.81,0,0,0-4.94,2.46c-1.94,2.4-12,14.53-12,32.4,0,10.2,2.34,16.27,5.68,20.68a5.88,5.88,0,0,0,5.23,2.39h21.84a5.88,5.88,0,0,1-5.23-2.39c-2.69-3.56-4.73-8.19-5.42-15.18h-.05a53.71,53.71,0,0,1,.57-10.83c1.58-12.12,11.23-27.07,11.23-27.07h0a5.8,5.8,0,0,1,4.94-2.46Zm3.92,28.16a70.21,70.21,0,0,0-.76,12.2H181.39c-.84-13.23.68-23.8,10.82-36.58a2.56,2.56,0,0,1,2-1c2.9,0,10.28,0,15.57,0h.75C207.62,16.07,201.58,26.13,199.81,37.44Z"/><rect class="cls-2" x="117.74" y="25.86" width="16.35" height="2.47"/><rect class="cls-9" x="162.61" y="85.55" width="29.25" height="0.96"/><rect class="cls-9" x="240.58" y="85.55" width="29.25" height="0.96"/><rect class="cls-50" x="162.45" y="67.21" width="14.6" height="4.44"/><rect class="cls-2" x="176.95" y="67.21" width="14.6" height="4.44"/><rect class="cls-7" x="48.61" y="10.53" width="68.69" height="2.45"/><rect class="cls-51" x="65.53" y="76.63" width="21.27" height="1.07"/><rect class="cls-51" x="65.53" y="79.78" width="21.27" height="1.07"/><rect class="cls-51" x="65.53" y="82.93" width="21.27" height="1.07"/><rect class="cls-46" x="0.65" y="10.53" width="4.01" height="3.96"/><rect class="cls-6" x="3.82" y="27.71" width="1.26" height="26.71"/><path class="cls-52" d="M7.72,67.28h0c-2.64,0-3.73-1.87-4.39-3.93a73.93,73.93,0,0,1-2.12-7.6,3.6,3.6,0,0,1,3.22-4.41H11c2.15,0,4,2.06,3.06,5-.68,2-1.33,4.46-2.16,7-.31,1,.9,3.93,0,3.93Z"/><path class="cls-53" d="M11.8,67.28h0c-2.64,0-3.73-1.87-4.39-3.93a76.59,76.59,0,0,1-2.12-7.6,3.6,3.6,0,0,1,3.22-4.41h6.54c2.15,0,4,2,3.06,5-.82,2.62-1.33,4.46-2.15,7C15.28,65.4,14.19,67.28,11.8,67.28Z"/><rect class="cls-52" x="7.72" y="54.24" width="8.2" height="1.74" rx="0.85"/><rect class="cls-54" x="116.98" y="68.83" width="19.44" height="14.05" rx="2.07"/><path class="cls-55" d="M252.51,52.74H236.28V50.81h16.23a1,1,0,0,1,1,1h0A1,1,0,0,1,252.51,52.74Z"/><path class="cls-55" d="M252.51,56.37H236.28V54.44h16.23a1,1,0,0,1,1,1h0A1,1,0,0,1,252.51,56.37Z"/><path class="cls-55" d="M252.51,60.25H236.28V58.32h16.23a1,1,0,0,1,1,1h0A1,1,0,0,1,252.51,60.25Z"/><path class="cls-49" d="M229.36,50.43h-5.54a1.15,1.15,0,0,1-1.15-1.14h0a1.16,1.16,0,0,1,1.15-1.15h5.54a1.16,1.16,0,0,1,1.15,1.15h0A1.15,1.15,0,0,1,229.36,50.43Z"/><polygon class="cls-50" points="199.55 54.08 182.14 54.08 181.86 52.37 199.31 52.37 199.55 54.08"/><polygon class="cls-56" points="200.32 57.33 183.18 57.33 182.63 55.62 199.77 55.62 200.32 57.33"/><rect class="cls-24" x="44.26" y="98.01" width="61.16" height="16.84" rx="1.77"/><rect class="cls-57" x="47.49" y="103.86" width="6.51" height="5.82"/><rect class="cls-58" x="47.49" y="108.22" width="6.51" height="1.46"/><rect class="cls-57" x="93.39" y="103.86" width="6.51" height="5.82"/><rect class="cls-58" x="93.39" y="108.22" width="6.51" height="1.46"/><rect class="cls-31" x="65.79" y="108.22" width="15.61" height="4.1" rx="0.55"/><rect class="cls-10" x="56.44" y="103.86" width="34.81" height="1.46"/><path class="cls-16" d="M42.06,24.05H38.72c1.06,0,3.06-.73,3.06-2.64V3.35A3.36,3.36,0,0,0,38.42,0h2.89c1.07,0,2.59,1.57,2.59,3.11V21.45A2.72,2.72,0,0,1,42.06,24.05Z"/><path class="cls-6" d="M3.23,27.75a8.41,8.41,0,0,1,2.26-6,8.12,8.12,0,0,1,6.12-2.34v2.42a5.85,5.85,0,0,0-4.38,1.6,6.19,6.19,0,0,0-1.58,4.2Z"/><path class="cls-53" d="M11.93,33.12c1.23.08,4.16.17,6.05-4.49,0,0,5.37-13.89,5.4-18.63a7.94,7.94,0,0,0-8.1-8.1h0A8.12,8.12,0,0,0,7.18,10V26.9C7.18,31.58,10,33,11.93,33.12Z"/><path class="cls-46" d="M14.66,28a2,2,0,1,1-2-2A2,2,0,0,1,14.66,28Z"/><path class="cls-14" d="M15.28,17.8a6.89,6.89,0,1,1,6.9-6.89A6.9,6.9,0,0,1,15.28,17.8Zm0-8.13a1.24,1.24,0,1,0,1.24,1.24A1.24,1.24,0,0,0,15.28,9.67Z"/><path class="cls-59" d="M12.36,28.55H.84A.84.84,0,0,1,0,27.71H0a.85.85,0,0,1,.84-.84H12.36a.85.85,0,0,1,.84.84h0A.84.84,0,0,1,12.36,28.55Z"/><path class="cls-60" d="M163.09,34.76l-7.58-5.24a.78.78,0,0,1-.19-1.08h0a.78.78,0,0,1,1.08-.2L164,33.49a.77.77,0,0,1,.2,1.08h0A.77.77,0,0,1,163.09,34.76Z"/><path class="cls-61" d="M104.88,36.11H58.76a1,1,0,0,1-1-1h0a1,1,0,0,1,1-1.05h46.12a1,1,0,0,1,1,1.05h0A1,1,0,0,1,104.88,36.11Z"/><path class="cls-61" d="M236.06,6.39H49.93a1,1,0,0,1-1-1h0a1,1,0,0,1,1-1H236.06a1,1,0,0,1,1.05,1h0A1,1,0,0,1,236.06,6.39Z"/><rect class="cls-62" x="125.34" y="1.9" width="2.68" height="22.23"/></g></g></svg>