<svg xmlns="http://www.w3.org/2000/svg" viewBox="0 0 58.94 25.91"><defs><style>.cls-1,.cls-2{fill:#fff;}.cls-1{fill-rule:evenodd;}.cls-3{font-size:23px;fill:#4b5151;font-family:Roboto-Bold, Roboto;font-weight:700;}.cls-4{letter-spacing:-0.02em;}.cls-5{letter-spacing:-0.01em;}</style></defs><g id="Layer_2" data-name="Layer 2"><g id="Layer_1-2" data-name="Layer 1"><path class="cls-1" d="M16.82,14.5l-.45-.08.37-5.85c.19-.62,1.48-.44,1.43.25Z"/><polygon class="cls-1" points="14.6 5.28 12.02 9.96 10.27 8.68 14.27 3.92 14.6 5.28"/><path class="cls-1" d="M0,8.78l11.46.11L9.59,8.52H11.3c.64,0,1.17-.17,1.17.47v2.69a1.18,1.18,0,0,1-1.17,1.17H0Z"/><path class="cls-2" d="M10.76,5.93H7c0,.65,0,1.89,0,2.83,0,.67,0,1.21-.06,1.34v0h0a.15.15,0,0,0,.06.11.39.39,0,0,0,.21.11h3.94a.37.37,0,0,0,.22-.1.24.24,0,0,0,.07-.16v0l-.34-3.78A.45.45,0,0,0,11,6h0a.28.28,0,0,0-.2-.08M6.79,5h4a1.21,1.21,0,0,1,.84.35h0a1.34,1.34,0,0,1,.38.83L12.32,10v.09a1.13,1.13,0,0,1-.34.8,1.29,1.29,0,0,1-.77.36H7a1.43,1.43,0,0,1-.7-.36A1.05,1.05,0,0,1,6,10.12H6A1,1,0,0,1,6,10c0-.09,0-.58,0-1.21,0-1.09,0-2.54,0-3.07a.6.6,0,0,1,.18-.49A.56.56,0,0,1,6.79,5Z"/><polygon class="cls-1" points="7.07 7.42 11.13 7.59 11.41 10.12 6.95 10.1 7.07 7.42"/><rect class="cls-2" x="8.36" y="5.48" width="0.63" height="5.1"/><path class="cls-1" d="M17.62,9l-.4.22L13.78,4.48c-.24-.6.86-1.28,1.27-.72Z"/><rect class="cls-2" x="4.67" y="12.77" width="4.03" height="0.62"/><rect class="cls-2" x="0.82" y="13.23" width="11.56" height="1.54"/><path class="cls-1" d="M2.82,13.29a2,2,0,1,1-2,2,2,2,0,0,1,2-2"/><path class="cls-1" d="M2.82,13.66a1.59,1.59,0,1,1-1.59,1.59,1.59,1.59,0,0,1,1.59-1.59"/><path class="cls-1" d="M2.82,14.49a.76.76,0,0,1,.76.76.76.76,0,1,1-1.52,0,.76.76,0,0,1,.76-.76"/><path class="cls-1" d="M10.37,13.29a2,2,0,1,1-2,2,2,2,0,0,1,2-2"/><path class="cls-1" d="M10.37,13.66a1.59,1.59,0,1,1-1.59,1.59,1.59,1.59,0,0,1,1.59-1.59"/><path class="cls-1" d="M10.37,14.49a.76.76,0,0,1,.76.76.76.76,0,1,1-1.52,0,.76.76,0,0,1,.76-.76"/><path class="cls-1" d="M13.77,13.56a4.63,4.63,0,0,0,2.9-.48l.45-.68h.19l.24,2.13c-.19.67-1.17.77-2,.79l-1.68-1.12-.1-.09Z"/><polygon class="cls-1" points="12.04 10.79 12.86 10.79 12.9 12.2 12.04 11.84 12.04 10.79"/><text class="cls-3" transform="translate(15.66 19.68) scale(0.95 1)"><tspan class="cls-4">Д</tspan><tspan class="cls-5" x="16.83" y="0">Т</tspan><tspan x="30.75" y="0">С</tspan></text></g></g></svg>